<svg id="Layer_1" data-name="Layer 1" xmlns="http://www.w3.org/2000/svg" xmlns:xlink="http://www.w3.org/1999/xlink" viewBox="0 0 450 450"><defs><style>.cls-1{fill:none;}.cls-2{clip-path:url(#clip-path);}.cls-3{opacity:0.7;}.cls-4{fill:#2c6ee5;}.cls-5{fill:#ef8675;}.cls-6{fill:#ffb19c;}.cls-7{fill:#cc064e;}.cls-8{fill:#a80045;}.cls-9{fill:#7a2305;}.cls-10{fill:#0e52a5;}.cls-11{fill:#fff;}.cls-12{fill:#0f0f0f;}.cls-13{fill:#ffc200;}.cls-14{fill:#c1592b;}.cls-15{fill:#e26f3b;}.cls-16{fill:#ff9100;}.cls-17{fill:#c1c1c1;}</style><clipPath id="clip-path"><rect class="cls-1" width="450" height="450"/></clipPath></defs><g class="cls-2"><g class="cls-3"><path class="cls-4" d="M422.1,218.15l1.36-.63c-2-2-3.68-4.36-5.95-5.91a3.18,3.18,0,0,0-5.06,1.87c-.39,3.29,2.69,8,5.74,9.08Z"/><path class="cls-4" d="M406.68,148.9l1.36-.62c-2-2-3.68-4.37-6-5.91a3.17,3.17,0,0,0-5.06,1.87c-.38,3.28,2.7,8,5.74,9.08C404.11,151.81,405.39,150.36,406.68,148.9Z"/><path class="cls-4" d="M82.1,302.48l1.36-.63c-2-2-3.68-4.36-5.95-5.9a3.17,3.17,0,0,0-5.06,1.86c-.39,3.29,2.69,8,5.74,9.09Z"/><path class="cls-4" d="M399.1,80l1.36-.63c-2-2-3.68-4.36-5.95-5.9a3.17,3.17,0,0,0-5.06,1.86c-.39,3.29,2.69,8,5.74,9.09Z"/><path class="cls-4" d="M99.55,312.5c3.39,1.22,5.69-.87,6-5.64a17.65,17.65,0,0,1-3.3-1.43c-2.47-1.75-4-.75-5.1,1.56A4,4,0,0,0,99.55,312.5Z"/><path class="cls-4" d="M73.05,435c3.39,1.22,5.69-.87,6-5.64a17.65,17.65,0,0,1-3.3-1.43c-2.47-1.75-4-.75-5.1,1.56A4,4,0,0,0,73.05,435Z"/><path class="cls-4" d="M340.61,200.66c1.27-.23,2.26-2,2.72-2.49,0-4.47-1.26-6-3.93-6.06-2.22,0-3.39,1.08-3.45,3.31C335.86,198.8,337.72,201.19,340.61,200.66Z"/><path class="cls-4" d="M387.05,218.29c.63-1.2,1.7-2.36,1.79-3.6a22.9,22.9,0,0,0-.57-6.38c-.19-.91-1.21-2.27-1.88-2.29a4.68,4.68,0,0,0-3.44,1.41c-.53.69-.28,2.44.25,3.37.64,1.1,1.93,1.83,2.94,2.72-.17,1.39-.35,2.77-.52,4.16Z"/><path class="cls-4" d="M382.21,225.82v0l-.11.11Z"/><path class="cls-4" d="M401.26,216.06c-2.28-.7-5.23-2-5.44-1.61-1.62,2.74-.18,5.19,1.86,8.32Z"/><path class="cls-4" d="M410.1,213.29l-1,.1c0,2.74,0,5.48,0,8.16h4Z"/><path class="cls-4" d="M447,230.94c.48.1,1.15-.74,1.73-1.16a23,23,0,0,0-1.61-1.66,5.77,5.77,0,0,0-1.16-.66c1.06-2.47,2-4.73,3-7-2.61,2.46-5,5.18-4,9C445.07,230.13,446.2,230.78,447,230.94Z"/><path class="cls-4" d="M372.73,195.66a12.85,12.85,0,0,0-3.08-3.55c-.15-.12-1.43,1.07-2.95,2.25l4.14,3.67C371.51,197.22,372.92,196,372.73,195.66Z"/><path class="cls-4" d="M366.16,189.88c-3.44.2-4.94,1.14-4.56,3.55.13.76,1.42,1.35,2.18,2Z"/><path class="cls-4" d="M382.21,225.79h-.13l0,.1Z"/><path class="cls-4" d="M430.76,220.76c.9-2.29-.26-3.78-2.26-4.72l-1.36.41c.46,1.74.91,3.49,1.37,5.23C429.29,221.38,430.55,221.28,430.76,220.76Z"/><path class="cls-4" d="M90.93,221.65c.91-2.3-.25-3.78-2.25-4.72l-1.36.41c.45,1.74.91,3.48,1.36,5.22C89.46,222.27,90.73,222.17,90.93,221.65Z"/><path class="cls-4" d="M241.37,58.08c.9-2.29-.25-3.78-2.25-4.71l-1.37.4q.69,2.63,1.37,5.23C239.9,58.71,241.17,58.6,241.37,58.08Z"/><path class="cls-4" d="M410.83,226.44l0,0,.05,0Z"/><path class="cls-4" d="M407.81,227.75l1,2,2-3.26C409.86,226.75,408.78,227.41,407.81,227.75Z"/><path class="cls-4" d="M417.09,229.93c-1.67-1.22-3.2-2.88-5.07-3.51a2.1,2.1,0,0,0-1.16,0l5.2,4.74Z"/><path class="cls-4" d="M437,231.87l3.39-11.36-.56-.34-4.08,11.3Z"/><path class="cls-4" d="M450,271.36l-1.26-.16c0-.64,0-1.28.05-1.91.1-2.15,1.63-5.2.71-6.22-2.54-2.84-1.11-5.49-.73-8.46h-4.11c-.65,2-1.67,4.24-3.1,4.54s-3.46-1.16-4.67-2.39c-.51-.52.42-2.46.81-4.28a9.34,9.34,0,0,1-1.39-1.92c-1.15-2.44-3.65-5.54-2.94-7.32,1.76-4.44-.25-7.37-2-10.81s-3.29-2-5.41-.28l3.7,4-1.11-.79c-3.51,4-7,8.09-10.53,12.16-1.79,2.1-3.61,2-4.95-.25-1.66-2.83-3.69-2.33-6-1.22-.79.38-1.61.71-2.59,1.14-.17-1-.3-1.86-.38-2.38l-3.38-.22v-.84l1.62-.49a64.11,64.11,0,0,0,1.74-7.18,4,4,0,0,0-1.1-3.2,55.8,55.8,0,0,0-6.64-3.37c-1.48,5.64-7.35,6.42-11,9.36-2-.28-4.28-.77-5.59.16s-1.39,3.25-2.22,5.48c-.26-3.25-3.07-5.73-3.46-8.58l5.17-1.25-.18-.71-3.69-.21c.1-2.51,1.26-3.65,3.59-4.19a17.76,17.76,0,0,0,3.31-1.2c.3,2,1.66,1.9,7.23,1.64.12-2.25.24-4.49.42-7.66a39.55,39.55,0,0,0-4.77,1.43,16.85,16.85,0,0,0-3,2c0,.51,0,1,0,1.35l-2.72,1.14a.6.6,0,0,0,.06-.23,4.88,4.88,0,0,0-.52-2l3.06-.32c-.32-1.33-.34-2.94-1.15-3.82-.55-.6-2.3-.1-3.94-.1l1.38,3.21c-.84,1.19-1.57,1.83-1.5,2.36a3.63,3.63,0,0,0,.92,1.59c-1.4.59-2.79,1.17-4.17,1.78a1.39,1.39,0,0,0-.54.56l-6.81-4.6c0,3.28,0,6.26,0,9.34-2.52.8-5.06,1.57-7.59,2.33-.66-.57-1.33-1.14-2-1.67.06.87.1,1.59.13,2.24l-3.86,1.16c.35.27.7.56,1.21.95a8.76,8.76,0,0,1-3.65.26,10.8,10.8,0,0,1-2.71-4.51c-1.08-4.51-3.79-7.68-6.68-10.7l.92-1.32-1.38.84c-.76-.8-1.54-1.59-2.29-2.4s-3.47-.48-5.08,0c-.64.19-1.36,2.52-.95,3.26a5.11,5.11,0,0,0,3.4,2.26,3.5,3.5,0,0,0,2-.56,4,4,0,0,0,.55,2l1.62-2.31c1.15,1.38,2.36,2.86,3.61,4.3a14,14,0,0,1,3.16,7.8c-2.12-1.15-4.05-2.74-6.2-3.7-.17-.07-.18-.51-.07-.17l3-4-12.46,5.15.3.83c1-.35,2-.72,3-1s2.22-.63,3.34-1l.11.66-6.9,4.39.4,1.08c1,.19,2,.42,3,.55,1.65.22,3.83-.37,4.13,2,.05.37-2.85,1.1-4.38,1.66-3.58,3.21-7.26,6.53-12.55,7.4-2.52.42-5.11.63-7.59,1.15-.89-1.47-2.73-1.58-5.5-.36a7.54,7.54,0,0,1-2.51.55,9.88,9.88,0,0,1-1.36-2.33c-1.26-2.82-.55-4.35,2.45-5.94L297.73,244c1.61-.4,2.91-.46,3.91-1.05s1.6-1.66,2.7-2.87l-3.59-1.67a8.37,8.37,0,0,0,2.57-.7c.79-.33,2-1.68,1.84-1.88a8.9,8.9,0,0,0-2.58-2.81,2.74,2.74,0,0,0-2.31.13,24.35,24.35,0,0,0-3.13,2.37,4.16,4.16,0,0,0,.45,1.42l-19.74-9.18c0,.88,0,1.69,0,2.95-2.8-.74-6.07.55-7.1-3.07-1,.38-2,1.15-2.55.93-2.78-1-5.46-2.35-7.66-3.33a23.84,23.84,0,0,1-.27-4.46,29.23,29.23,0,0,1,1.44-6.13,19.26,19.26,0,0,1,2.48-3.74l-1.11-1a19.37,19.37,0,0,0-3.17,2.7c-3.15,4.08-7.71,5.36-12.36,6.33-6.32,1.33-10.62-2.95-15.28-6-.4-.27-.46-1.33-.38-2,.25-2.12.92-4.23.9-6.33,0-2.38.32-4.08,3.07-4.2,1.59-.07,2.21-.84,2.16-2.41-.12-4.49-3.17-7.33-6.41-9.21-2.72-1.58-6-2.09-7.53-5.33-.32-.64-1.52-.85-2.31-1.25l-.5.63c3.46,5,6.88,10,11.74,13.83.66.52.9,1.58,1.34,2.39a7.81,7.81,0,0,1-2.39.53c-1.32-.13-3-1.22-3.82-.75-2.46,1.34-2.42-.27-3-1.77a48.62,48.62,0,0,0-2.78-5l-1.12.32c-.13,1.53-.26,3.06-.39,4.71l-2.78.76,0,.26,4.57,0c-.34,3-.66,5.73-1,8.68l-6.9-1.49-.48.75c.43.34.85,1,1.3,1,2.62.15,8.28,4.37,9.2,7-2.82.38-1.8,2.18-1,4.05l-9.45,2.35c5.16,3,10,7.1,16.88,5.43a3.23,3.23,0,0,1,1.65.15c7.8,2.61,15.95,2.71,24,3.31,2.51.19,5.22-.49,6.91,2.28.29.47,1.18.61,1.82.82,3.66,1.2,4.55,4.72,1.91,7.56-.92,1-1.71,2.11-2.72,3a93,93,0,0,1-7.71,6.47,47.23,47.23,0,0,1-7.79,4.45c-4.16,1.92-8.53,3.23-13.19,2.28-2.14-.44-4.18-1.39-6.33-1.79-1.39-.26-3.15-.76-4,1.35-.11.29-1.1.38-1.67.35-3-.18-6-1-8.86-.53-4.68.84-9.24,1.86-14,.56-.54-.15-1.22.19-2.4.42l4,2.31c-1.3.94-2.92,1.5-3.31,2.52-.91,2.35-4.39,5.66-7,5.67-2.39,0-4.78-.42-7.17-.36a54,54,0,0,0-10.27.81c-5,1.14-12.19-.9-15-4.87-3.65,1-8.66-1.17-9.65-4.7a5.58,5.58,0,0,0-2.64-3.4c-2.59-1.75-5.16-1.88-6.83-.16a5.15,5.15,0,0,0-.32,6.44c2.82,4,3.45,4.28,6.51,2.84,1.6-.75,7.11.21,7.72,1.5,2.54,5.43,7.17,6.78,12.54,6.27,2.72-.26,4.6.61,5.79,2.87s3.13,3.42,5.36,4.35c1.21.5,2.33,1.19,3.73,1.93,2.53-1.36,4.28-1,6.15,1.37,1.61-1.23.81-5.47,4.33-4,1.36.57,2.09,2.66,2.78,3.86a8.25,8.25,0,0,0-.78,1.11A3,3,0,0,0,195,285c.06.16,1.41.09,1.43,0,.21-1.11,1.26-2.11,1.44-3.26l3.1,5.62c.24-1.93.49-4,.75-6.14l5.17.93c-.22,2.33-.3,4-.57,5.55a3.35,3.35,0,0,1-1,2.07,29,29,0,0,1-3.76,2.26c.41-.72,1.25-1.59,1.07-2.1-.82-2.33-2.66-2.7-4.79-2.1l-.77,1.2,4.41,3a14.19,14.19,0,0,1-6.28,1.52,7.87,7.87,0,0,0-.84,0v0l.63-1.36c-2.8-.24-5.64-.9-8.37-.58a3.37,3.37,0,0,0-3,2.53,8.6,8.6,0,0,0-3.76-.28c-.69.18-1.38,2-1.43,3.2-.45.66-.79,1.11-.7,1.43.21.67,1,1.15,1.55,1.71.14-.16.31-.32.48-.49a7.81,7.81,0,0,0,2.93,1.07,6.17,6.17,0,0,1,1,.26c-1,.81-2,2.19-1.83,3a2.59,2.59,0,0,0,.65,1.23,35.5,35.5,0,0,0-4.7-2.1c-3.44-1.41-3.81.61-4.28,3.32l1.11.13c-1.43.55-2.62,1-2.57,1.28.49,2.74,2.59,3.79,5.5,4.7,0,3.57,0,7.14,0,10.71,0,2.45-1.11,3.61-3.1,3.26.78-.66,1.73-1.56,3-2.76l-4.7-6.07a41,41,0,0,0-2.67,4.2,18,18,0,0,0-.91,3.46c.38.46.71.85,1,1.18a6.51,6.51,0,0,0-1.89,2.77c-.36.81-.76,1.6-1.23,2.57l-1.84-1.56-2.7,2.05-.54-.64.9-1.44a64,64,0,0,0-3.37-6.57,3.94,3.94,0,0,0-2.92-1.7,54.82,54.82,0,0,0-7.23,1.78c2.56,5.24-1.38,9.66-2.21,14.27-1.67,1.07-3.75,2.21-4.13,3.76s1.07,3.38,1.9,5.61c-3.17-3.14-9-2.05-9.82-7.29l-10.3,1.21,9,10.32c-1.07,4.35-5.5,3.21-9.7,3.53,1.42,1.43,2.25,2.35,3.17,3.18,2.29,2.09,2.05,4.2-.92,4.41s-6.64-.1-8.9-1.73c-5-3.56-10.55-3.52-16-4.12-1.19-.13-2.93,1.9-3.84,3.31-.36.56.61,2.81,1.41,3.1a5.11,5.11,0,0,0,4-.51c1-.62,1.24-2.24,1.87-3.5,2,.32,4.11.71,6.25,1,4.68.67,9.94,4.93,8.36,6.8l-2.27-.51c-.22.34-.43.69-.64,1l8.53,6.33L123.57,376c-.09,2.91-.16,5.11-.23,7.32l.85.33,4-4.88a6.38,6.38,0,0,1-3.32,7.08c-3.1,1.44-3.1,3.74-3.48,6.19a4.42,4.42,0,0,1-3.42,4c-3.68,1.14-7.2,2.77-11,4.27-.06-.09-.28-.46-.54-.8-2.89-3.81-5.31-3.46-7.35.81a7.48,7.48,0,0,1-2.35,2.73l-10.2,2c.06.28.12.56.17.84l6.49-1.2c-1.65.6-3.34,1.1-5,1.71-1.88.69-3.21,1.73-2.26,4.34,2.68-.84,5.28-1.63,7.86-2.48s5.37-1.84,8.1-2.78l1.22,3.69c.95-1.53,1.5-2.41,1.95-3.15,1-.1,2.38.18,3-.37,4.79-4,10.66-4.36,16.41-5,.75-.09,1.77,1,2.46,1.78.4.44.23,1.35.58,1.88,2.63,4,2.59,4.62-.82,8-1.64,1.6-3.32,3.17-5,4.76l.59.66,4.78-4.14c1.32,3.21,1.92,3.13,4,1l.92-.93c1,1.07,1.77,1.86,2.52,2.64.7-.68,2.09-1.57,2-2a11.21,11.21,0,0,0-1.91-3,39.81,39.81,0,0,1,4.76-3.68,4.5,4.5,0,0,1,2.76-.84c.17,1.16.49,2.3.77,3.57l1.95-.17c.11,2.72.2,5.32.31,8l-5.94.78,6.58,4.39-1.89,1.37a25.51,25.51,0,0,1-.26,7.42c-.29,1.68-1.77,3.95-1.14,4.84,1.74,2.47.37,4.43-.21,6.74l3.25.37c.69-1.51,1.71-3.19,2.86-3.29s2.63,1.23,3.47,2.32c.35.46-.56,1.9-1,3.3a7.54,7.54,0,0,1,.92,1.65c.22.63.53,1.33.83,2H450ZM229.26,205c-.48,1.31-3.4,1.74-6,2.93.26-3.31.44-5.76.63-8.21l1.11-.18C226.2,201.63,230.5,201.59,229.26,205ZM195.8,281.48c0-.42.08-1,.13-1.58l.78-.36.3.54C196.59,280.58,196.17,281,195.8,281.48Zm-35,62.86a12.71,12.71,0,0,0-3.7.74c-.32.17.1,1.74.2,2.89l-4-.88c-.2-1.19-.39-2.33-.59-3.55a2.59,2.59,0,0,0,1.3.15c1.29-.24,2.34-1.83,3.8-3.11a12.51,12.51,0,0,0-3.61-1.29c-1-1.44-1.88-2.84-2.76-4.17l10.05-.19,3.69,6-3.4,1.6L166,348C162.13,349.42,160.76,348,160.8,344.34Zm16.8-37.11-.07-.29,1.41.16Zm8.59,2.38a8.68,8.68,0,0,0-1.78-2.85,5.53,5.53,0,0,0,.88.39,3,3,0,0,0,1.87-.21A19.22,19.22,0,0,1,186.19,309.61Zm27.14-31.76,2.76,3.56a1.27,1.27,0,0,0,0,.2C213.67,281.87,213.08,281.2,213.33,277.85Zm5.15,5.5a7.86,7.86,0,0,1-.37-2.3c1.76-.22,2.8.18,3.25,1C220.36,282.49,219.4,282.93,218.48,283.35Zm61.36-50.72a34.82,34.82,0,0,1,3.34,1.55l-.8,1.57-3.47-1.57C279.23,233.63,279.73,232.59,279.84,232.63Zm8.49,7.3c-3.59,1.52-5.8.56-6.18-2.19a22.25,22.25,0,0,1,3.13-2.37,2.72,2.72,0,0,1,2.3-.14,8.93,8.93,0,0,1,2.59,2.81C290.29,238.25,289.11,239.6,288.33,239.93Zm56.29,11.9a3.77,3.77,0,0,1,.43-.64c0,.18.07.35.11.53Zm16.18-11.71-.26-.92,5.77-1.39v1Z"/><path class="cls-4" d="M344.41,257.29h0Z"/><path class="cls-4" d="M289,208a29.34,29.34,0,0,0-1.32-3.56l-1.56.53c.35,1.32.69,2.64,1,4C287.84,208.6,289.08,208.13,289,208Z"/><path class="cls-4" d="M393.33,196.54l-2.62-2.9-1.41.93c.63,1.16,1.27,2.31,1.9,3.46Z"/><path class="cls-4" d="M436.66,184.25l1.81-2.76c-.72-.4-1.47-1.16-2.14-1.09s-1.57,1-1.55,1.59S435.73,183.2,436.66,184.25Z"/><path class="cls-4" d="M407,239c.16,1.73.31,3.46.46,5.18l1.46-.13C410.94,242.13,408.76,240.58,407,239Z"/><path class="cls-4" d="M114.74,327.83c-1.7,1.43-1.86,3-.45,4.76,2.14,2.62,5.11,3.21,6.95.92.81-1,.38-3,.43-3.65C118.76,326.46,116.79,326.11,114.74,327.83Z"/><path class="cls-4" d="M162.32,308.18c-.73-.55-2.4-.92-2.91-.5a4.65,4.65,0,0,0-1.69,3.32c.06.87,1.39,2,2.39,2.38,1.21.42,2.67.13,4,.14l2.32,3.5,1.48-.47c-.3-1.32-.25-2.91-1-3.91A23,23,0,0,0,162.32,308.18Z"/><path class="cls-4" d="M169.15,325.38l-.09.09.08.06a.66.66,0,0,0,0-.15v.15s0-.08,0-.13l0,0Z"/><path class="cls-4" d="M100.4,425.22c.06.24,1.89.34,1.91.27.52-2.18.91-4.39,1.33-6.6l-4.17.44C99.79,421.58,100,423.43,100.4,425.22Z"/><path class="cls-4" d="M142.42,311.79c0-1.06.26-2.89-.12-3a13,13,0,0,0-4.65-.67c-.2,0-.39,1.74-.77,3.62Z"/><path class="cls-4" d="M132.41,314.33c.6.5,2,.1,3,.11-.54-1.7-1.08-3.39-1.83-5.77C131.07,311.07,130.55,312.75,132.41,314.33Z"/><path class="cls-4" d="M162.65,325.83l4.17,2,2.24-2.39c-1.11-.79-2.17-2-3.36-2.14C164.89,323.24,163.89,324.75,162.65,325.83Z"/><path class="cls-4" d="M194.78,247c.94,2.55,1.89,5.09,2.83,7.64l1.11-.4-2.67-7.69Z"/><path class="cls-4" d="M147,300.49c-.2-1.47-.32-2.37-.44-3.28-.8.17-1.87.09-2.33.58a2.24,2.24,0,0,0-.14,2.22C144.54,300.46,145.64,300.3,147,300.49Z"/><path class="cls-4" d="M127.72,441.4,126,443l-.57.18a16.67,16.67,0,0,0,2.08,2.61,1.26,1.26,0,0,0,2.08-.5A4.05,4.05,0,0,0,127.72,441.4Z"/><path class="cls-4" d="M135.53,435.4c-2.57-1.29-4.58.15-5.24,3.89a13.76,13.76,0,0,1,2.47,1.44c1.79,1.61,3.12,1,4.17-.76A3.19,3.19,0,0,0,135.53,435.4Z"/><path class="cls-4" d="M172.51,190.82a13.79,13.79,0,0,0,10.54,3.73c2.25-.19,2.66,1.25,3.94,2,1.13.69,3.88-1,4.8-.32,3,2.38,4.91,0,7.24-.59l.83-1.06-4.21-3c-.17,2.34-1.36,1.62-2.77,1.21-2.62-.77-5.32-1.25-8-1.86a55.19,55.19,0,0,1-7-1.69c-4.9-1.85-9.69-4-14.56-5.94a17.91,17.91,0,0,0-3.41-.67l-1.13,2.68a28.57,28.57,0,0,1-3.41-1.08c-6.86-3.1-13.67-6.28-20.54-9.36-2.45-1.1-5-2-7.49-3,10.95,9.09,24.25,12.65,37.64,16C167.63,188.63,170.63,189.17,172.51,190.82Z"/><path class="cls-4" d="M332.71,198.43c.06,0,.17-.07.87-.38-1.63-1.6-3-3.12-4.58-4.44s-3.44-1.93-2.42-4.52c.17-.42-.8-1.29-1.24-2-.53.42-1.27.73-1.56,1.28-1.13,2.11-2.86,2.41-4.81,1.63a36.71,36.71,0,0,1-4.21-2.3c.38-2.54.7-4.64,1-6.74a17.48,17.48,0,0,0-3.48,3.44c-2.29,2.43-2.19,3.1,0,5.68C317.72,196.41,326,195.51,332.71,198.43Z"/><path class="cls-4" d="M250.71,133.43c.06,0,.17-.07.87-.38-1.63-1.6-3-3.12-4.58-4.44s-3.44-1.93-2.42-4.52c.17-.42-.8-1.29-1.24-2-.53.42-1.27.73-1.56,1.28-1.13,2.11-2.86,2.41-4.81,1.63a36.71,36.71,0,0,1-4.21-2.3c.38-2.54.7-4.64,1-6.74a17.48,17.48,0,0,0-3.48,3.44c-2.29,2.43-2.19,3.1,0,5.68C235.72,131.41,244,130.51,250.71,133.43Z"/><path class="cls-4" d="M123.73,94.1c.06,0,.16-.1.8-.52-1.88-1.31-3.5-2.58-5.25-3.64-1.6-1-3.7-1.34-3.11-4.07.09-.44-1-1.14-1.54-1.72-.46.5-1.14.93-1.34,1.51-.77,2.27-2.44,2.84-4.48,2.39a38.3,38.3,0,0,1-4.53-1.58c0-2.58-.06-4.7-.09-6.82a17.63,17.63,0,0,0-2.88,4c-1.86,2.76-1.66,3.41,1,5.59C108.61,94.53,116.61,92.3,123.73,94.1Z"/><path class="cls-4" d="M154.71,282.73c-.94.88-2.54,1.68-2.78,2.77-.36,1.61-.38,4.31.57,5,1.93,1.41,2.46,3.37,3.41,5.15l-1.31-.17c-.16.54-.31,1.09-.46,1.63l3.7,1.38.18-.74a2.9,2.9,0,0,0,1.93.41c1.22-.36,2.88-2.16,2.84-3.29-.12-4.41-3.36-7.54-5.52-11.09C157,283.27,155.91,283.2,154.71,282.73Z"/><path class="cls-4" d="M67.1,431.09c-1-.85-1.9-2.37-3-2.51-1.64-.2-4.32,0-4.92,1-1.22,2.05-3.13,2.76-4.8,3.88l0-1.32-1.67-.31-1,3.82.75.11a2.89,2.89,0,0,0-.23,2c.48,1.18,2.42,2.66,3.55,2.52,4.38-.54,7.19-4.06,10.51-6.54C66.78,433.37,66.75,432.33,67.1,431.09Z"/><path class="cls-4" d="M405.09,88.09c-1.14.61-2.89,1-3.41,2-.76,1.46-1.48,4.06-.74,5,1.5,1.85,1.5,3.89,2,5.85l-1.23-.5-.87,1.45,3.22,2.29.37-.66a3,3,0,0,0,1.76.9c1.27,0,3.33-1.35,3.59-2.45,1-4.3-1.3-8.15-2.47-12.14C407.11,89.19,406.12,88.85,405.09,88.09Z"/><path class="cls-4" d="M353.21,217.52c3.83.58,1.58,4.06,2.89,5.88l.67-.49,2.23,2.58a13.57,13.57,0,0,0-2.44.42c.72,1.34,1.11,3.21,2.22,3.86s3,.14,4.91.13c-.91-2.13-1.66-3.36-2.63-4,0-1.59,0-2.88,0-3.87l-5.23-4.61c2-1.69,3.7-3.07,5.47-4.54l-2-.93,4.44-2.11C358.16,209.54,355.68,213.38,353.21,217.52Z"/><path class="cls-4" d="M110.89,160.83c-1.18-4.45-8.56-9.51-13.24-9.07C100.36,157,107.37,161.76,110.89,160.83Z"/><path class="cls-4" d="M170.36,283.55a4.25,4.25,0,0,0,4-4.42c0-2.33-1.76-4.35-3.79-4.32a4.43,4.43,0,0,0-3.92,4.29C166.65,281.41,168.4,283.55,170.36,283.55Z"/><path class="cls-4" d="M141.18,175.28l0,0,.25.1-.19-.16-.11-.05.05.11Z"/><path class="cls-4" d="M127.1,171.74c-1.58-2.86,1.34-2,2.84-2.66-1.05-.92-1.83-1.58-2.58-2.28-3.75-3.45-8.62-.69-12.73-2.41C117.78,168.66,122.73,169.7,127.1,171.74Z"/><path class="cls-4" d="M120.59,417.75l-5.06.95c1.56,1.75.21,2.1-1.07,2.82-2.38,1.33-4.61,2.94-6.91,4.41a54.28,54.28,0,0,1-6.07,3.79c-4.75,2.22-9.64,4.14-14.43,6.26a18.29,18.29,0,0,0-2.85,2c.4,1,.72,1.73,1.11,2.68a29.59,29.59,0,0,1-3.15,1.68c-6.46,2.53-14,5.15-20.47,7.68h6.52a154.63,154.63,0,0,0,23.31-12c2.28-1.39,4.76-3.16,7.25-3.35a13.76,13.76,0,0,0,10-4.93c1.44-1.74,2.76-1,4.21-1.4,1.27-.33,2-3.52,3.12-3.66,3.77-.46,3.43-3.51,4.64-5.59Z"/><path class="cls-4" d="M284.54,175.33c-.31-.78.53-2.18,1.12-3.12a38.72,38.72,0,0,1,2.8-3.64l-.08.09c0-1.35,0-2.7,0-4.06l-1.34-.28c-.84,2.15-1.79,4.26-2.47,6.45-.78,2.46-.91,5.2-2.06,7.43-1.36,2.62-2.05,5.18-.64,8.13C282.82,182.45,286.29,179.69,284.54,175.33Z"/><path class="cls-4" d="M362,132.9c-.31-.78.53-2.18,1.11-3.12a40.6,40.6,0,0,1,2.81-3.64l-.08.09c0-1.35,0-2.7,0-4.06l-1.34-.28c-.84,2.15-1.79,4.26-2.48,6.45-.77,2.46-.9,5.2-2.05,7.43-1.36,2.62-2.05,5.18-.64,8.12C360.31,140,363.79,137.26,362,132.9Z"/><path class="cls-4" d="M365.6,174.72c2.32-.67,3.85-2.31,3.25-3.61l-3.22.3c0-.29-.06-.58-.1-.87l1.27-.35c-.29-1.36-.52-2.3-.67-3.24-.26-1.7-1.31-3-2.88-2.29a5.61,5.61,0,0,0-2.83,3.32c-.23.86,1,2.23,1.81,3.22C363.13,172.34,364.24,173.32,365.6,174.72Z"/><path class="cls-4" d="M379.35,175.83c-3.6-.48-7.27-.42-10.92-.59-.08.38-.17.75-.25,1.13,5.07.61,9,4.89,14.56,3.86A3.6,3.6,0,0,0,379.35,175.83Z"/><path class="cls-4" d="M78.35,394.74c-3.6-.47-7.27-.42-10.92-.58-.08.37-.17.75-.25,1.13,5.07.6,9,4.88,14.56,3.85C82.14,396.52,80.56,395,78.35,394.74Z"/><path class="cls-4" d="M120.05,205.42c-5.64-3.69-11.9-5.75-18.52-7.7C102.51,200.68,115.11,205.92,120.05,205.42Z"/><path class="cls-4" d="M212,233.14a30.35,30.35,0,0,0,15.51,6.23C225.6,235.64,216.09,231.9,212,233.14Z"/><path class="cls-4" d="M236.8,33.58c4.71,3.41,9.57,5.69,15.52,6.23C250.42,36.08,240.91,32.34,236.8,33.58Z"/><path class="cls-4" d="M411.35,179.81c.24,1.36,1.73,3.27,3,3.5a2.81,2.81,0,0,0,3.31-3.33c-.27-1.36-1.74-2.49-2.67-3.72l-1.29,0C412.82,177.47,411.17,178.8,411.35,179.81Z"/><path class="cls-4" d="M349.53,134.5c.24,1.36,1.73,3.28,3,3.5a2.8,2.8,0,0,0,3.31-3.32c-.27-1.37-1.74-2.49-2.67-3.73l-1.29,0C351,132.16,349.35,133.49,349.53,134.5Z"/><path class="cls-4" d="M400.2,68.38a2.88,2.88,0,0,0,2.43-1.08,1.63,1.63,0,0,0-1.32-2.39c-.8-.07-1.67.57-2.51.89l-.19.72C399.13,67.18,399.6,68.32,400.2,68.38Z"/><path class="cls-4" d="M85.35,296.48c.24,1.36,1.73,3.27,3,3.5a2.81,2.81,0,0,0,3.31-3.33c-.27-1.36-1.74-2.49-2.67-3.72l-1.29,0C86.82,294.14,85.17,295.47,85.35,296.48Z"/><path class="cls-4" d="M88.47,99.93a2.66,2.66,0,0,0,1.58,1.88A1.51,1.51,0,0,0,91.83,100c-.14-.73-.93-1.34-1.43-2h-.69C89.26,98.67,88.37,99.38,88.47,99.93Z"/><path class="cls-4" d="M82.68,389.48c.24,1.36,1.73,3.27,3,3.5A2.81,2.81,0,0,0,89,389.65c-.26-1.36-1.74-2.49-2.67-3.72L85,386C84.15,387.14,82.51,388.47,82.68,389.48Z"/><path class="cls-4" d="M384.74,163.46a9.65,9.65,0,0,1,.84,2.32,13.53,13.53,0,0,0,2.38-1.16,3.52,3.52,0,0,0,.75-5.11c-.64-.86-3-1.43-3.89-.91C382.77,159.83,383.42,161.75,384.74,163.46Z"/><path class="cls-4" d="M239.15,166.53c.46-3.55-2.6-8.51-6.55-10.29C232.91,160.62,236.22,165.71,239.15,166.53Z"/><path class="cls-4" d="M383.34,188.68,379,191.82l.81.94c4.66-1.46,7.77-5.26,11.53-7.82l-11.27,1.82Z"/><path class="cls-4" d="M394.5,98.05l1.11,5.26,1.19-.37c.55-4.85-1.66-9.23-2.47-13.7-.91,3.45-1.81,6.85-2.91,11Z"/><path class="cls-4" d="M425.9,196c-5.4-.36-9.2,2.28-13,5C417.56,200.54,422.41,200.6,425.9,196Z"/><path class="cls-4" d="M416.51,193.05c.15.25.31.5.46.76,2.94-.55,5.77-1.31,8.31-4.28l-3.07.16a43.15,43.15,0,0,0-2.4-3.76c-.06-.08-1.87.82-1.82,1.09a22.25,22.25,0,0,0,1.29,3.81Z"/><path class="cls-4" d="M414.26,56.28c.15.25.31.5.46.76,2.94-.55,5.77-1.31,8.31-4.28l-3.07.16a43.15,43.15,0,0,0-2.4-3.76c-.06-.08-1.87.82-1.82,1.09A22.25,22.25,0,0,0,417,54.06Z"/><path class="cls-4" d="M372.41,200.28c1.11,1.73,2.77,2.61,4.29,1.1a4.32,4.32,0,0,0,.38-4c-1-1.88-2.85-1.62-4.5-.47-1.15.8-2.27,1.64-3.87,2.79l2.88-.7Z"/><path class="cls-4" d="M352,159.62c-2.72,2-6.56,2.77-7.72,6.79C348.49,167.09,350.47,165.39,352,159.62Z"/><path class="cls-4" d="M203.57,233.45c-.94.48-2.67,1-2.66,1.42,0,1.54-3.15,4.38,1.39,4.51.06,0,.11.15.12.16v2.27l1,.42c.37-.94,1.27-2.51,1-2.73-1.32-1.16-.72-2.25-.46-3.52A7.52,7.52,0,0,0,203.57,233.45Z"/><path class="cls-4" d="M349,186.5c2.49-.52,4.06-.7,5.32-2.76,1.38-2.23,3.81-3.81,5.78-5.67C355.74,179.72,351.82,181.9,349,186.5Z"/><path class="cls-4" d="M287.51,174.39c1.58-.77,4.35.27,4-2.94-.21-2-.22-4-.32-5.94l-.81,0c-.66,1-1.33,2.08-2,3.11l.08-.09Q288,171.47,287.51,174.39Z"/><path class="cls-4" d="M243.32,114c0-1.75,2.21-3.75-.81-4.9-1.85-.71-3.63-1.6-5.44-2.4l-.33.74c.62,1.06,1.25,2.12,1.87,3.19,0,0-.05-.11-.05-.12Z"/><path class="cls-4" d="M230.32,40.51c0-1.75,2.21-3.75-.81-4.9-1.85-.71-3.63-1.6-5.44-2.4l-.33.74c.62,1.06,1.25,2.12,1.87,3.19l-.05-.12Z"/><path class="cls-4" d="M352.51,124.39c1.58-.77,4.35.27,4-2.94-.21-2-.22-4-.32-5.94l-.81,0c-.66,1-1.33,2.08-2,3.11l.08-.09Q353,121.47,352.51,124.39Z"/><path class="cls-4" d="M134.33,289.61c3.28,2.84,7.28,3.29,11.37,3.41C142.43,290.12,138.53,289.39,134.33,289.61Z"/><path class="cls-4" d="M74.25,109.05c4,1.7,7.93.89,11.86-.25C82.12,107.05,78.17,107.55,74.25,109.05Z"/><path class="cls-4" d="M385.56,146.21c-2.71,1.35-5.92.16-7.18,3.53C381.57,153,382,152.83,385.56,146.21Z"/><path class="cls-4" d="M332.6,179.66c.75.17,1.87-1.3,3.55-2.6-1.68-1.23-2.71-2.54-3.74-2.55-.82,0-2.38,1.71-2.27,2.48A3.86,3.86,0,0,0,332.6,179.66Z"/><path class="cls-4" d="M275.82,190l-.87-.26q-1.4,4.78-2.8,9.56l1.14.33C276.38,197.09,275.56,193.4,275.82,190Z"/><path class="cls-4" d="M408.62,178.08l-.5-.69c-4.83.4-5.62,5.6-9.24,7.44l.66.81Z"/><path class="cls-4" d="M377.79,164.39a2.08,2.08,0,0,0-1.69-3.18c-1.17,0-2.29,1.59-3.44,2.48l.65,1.19C374.82,165,376.47,167.1,377.79,164.39Z"/><path class="cls-4" d="M364.57,179.8c-4.23.55-4.65,4.64-6.79,7.14l.71.69,6.88-7Z"/><path class="cls-4" d="M344.58,165.57c-3.23.31-6.59,4.66-6.8,7.66l.8.51Z"/><path class="cls-4" d="M392.93,222.1l2.62-2c-1.41-2.17-3.23-2.81-5.45-2a2.23,2.23,0,0,0-.32,2A16.77,16.77,0,0,0,392.93,222.1Z"/><path class="cls-4" d="M266.85,202.09c-.21-2-.4-4-.6-5.87-4.49,2.27-1-3.42-3.26-4.26-.11,1.82-.22,3.55-.33,5.27l.54-.31Z"/><path class="cls-4" d="M288.36,201.59c2.09-2.18,2-7.49-1.07-9.9C287.7,195.44,288,198.63,288.36,201.59Z"/><path class="cls-4" d="M106.66,227.22l-2.39,1.62c.72,2,1.27,3.52,1.86,5.17C109.09,232.11,106.41,229.65,106.66,227.22Z"/><path class="cls-4" d="M110.79,235.61c-.09.63.85,1.4,1.72,2.7.83-1.43,1.7-2.28,1.69-3.11,0-.64-1.14-1.26-1.77-1.89C111.84,234.07,110.91,234.78,110.79,235.61Z"/><path class="cls-4" d="M147,275.39c.07-.51-1.23-1.75-1.63-1.64a3.6,3.6,0,0,0-2.09,1.83c-.17.41.87,1.32,1.78,2.57C146,276.89,146.93,276.19,147,275.39Z"/><path class="cls-4" d="M396.31,177.55c-.24-.83-1.19-1.46-1.83-2.18-.51.68-1.53,1.45-1.43,2,.17.94,1.06,1.75,2.12,3.32C395.8,179.1,396.49,178.2,396.31,177.55Z"/><path class="cls-4" d="M340.62,189c2.71-.16,3.75-1.33,3.67-4.92L340,188.32Z"/><path class="cls-4" d="M329.94,208.91l.08-4.5c-.66.17-1.54.11-1.94.53C326.75,206.29,327.2,207.46,329.94,208.91Z"/><path class="cls-4" d="M378.26,184l.9.94,5.49-4.76-.48-.63-1.43.72.1-.1-.1,0v.07Z"/><path class="cls-4" d="M345.62,186.12l1,.87A5.9,5.9,0,0,0,350,182.5l-.64-.55Z"/><path class="cls-4" d="M196,258.16c0,.75.74,1.47,1.56,2.91.7-1.34,1.43-2.09,1.3-2.64-.18-.76-1-1.36-1.55-2C196.88,257,196,257.58,196,258.16Z"/><path class="cls-4" d="M412.09,166.15l-3,3.31,5.59,0Z"/><path class="cls-4" d="M318.69,215.33c2.46-.87,2.9-2.56,2.9-5.1C319.57,211.58,317.91,212.55,318.69,215.33Z"/><path class="cls-4" d="M143.54,299.51c.51-1.41,1-2.78,1.49-4.15L143.8,295c-.39,1.36-.78,2.72-1.15,4.09C142.64,299.09,142.8,299.15,143.54,299.51Z"/><path class="cls-4" d="M405,195.18c.53-.57,1.33-1.07,1.49-1.74.12-.44-.67-1.11-1.41-2.21-.68,1.09-1.36,1.69-1.3,2.22S404.56,194.6,405,195.18Z"/><path class="cls-4" d="M238.26,205.72c2.6-1.19,5.52-1.61,6-2.92,1.24-3.4-3.06-3.37-4.27-5.46l-1.1.17C238.7,200,238.51,202.41,238.26,205.72Z"/><path class="cls-4" d="M298.17,232a32.47,32.47,0,0,0-3.33-1.56,8.5,8.5,0,0,0-.94,1.55l3.47,1.58Z"/></g><path class="cls-5" d="M182.28,197.88s-.36,16.17.72,24.49c.61,4.77.44,9.91,7.89,9.55,2.26-.11,12.71-2.25,23.76-5.59,11.38-3.43,22.34-4.8,22.48-5.2l4-8.42-5.61-1s-13.32,2.5-23.88,2.46c-7.51,0-16.22,4.57-16.22,4.57l6.35-23Z"/><path class="cls-6" d="M172.89,184.3l7.3,6.65s7.85,1.12,12.91,0S201,184.3,201,184.3l-5.55-10S185.82,188.33,172.89,184.3Z"/><path class="cls-5" d="M160.78,155.6s-3.62-2.24-10.64,2c-5.44,3.32-11.6,3.21-16.25,9-2,2.45-11.35,14.12-13.16,17.69a17,17,0,0,0-1.85,11.45c.69,5,9.05,6.41,9.05,6.41s3.75-5.19,3.12-7-6-5.54-6-5.54a94.37,94.37,0,0,0,12.5-15.33c3.31-5.17,10.88-4.78,14.7-5.78a58.3,58.3,0,0,0,8.3-2.77Z"/><path class="cls-7" d="M172.89,179.36a22.84,22.84,0,0,0,11.9,4.94c3.53.36,9.12-5,11.93-8-1-2.27-2.63-6.11-3.62-8.34-1.13-3.93-2.45-7.38-8-11.4s-15.84-5.87-15.84-5.87l-11.1,4.95s0,9.59,0,12.78c0,2.56-.06,7.46,3.85,9.47C165.19,177.67,170.64,177.65,172.89,179.36Z"/><path class="cls-8" d="M177.89,186.46c12.65,2.24,19.62-8.37,19.62-8.37l-.79-1.83c-2.81,3-8.4,8.4-11.93,8a22.84,22.84,0,0,1-11.9-4.94c-2.25-1.71-7.7-1.69-10.88-1.51l.12.07C167.36,180.48,173.7,185.71,177.89,186.46Z"/><path class="cls-5" d="M158.16,155.6s2.59,1.69,3.53,6.11c1.5,7,1.5,12.59,4.3,13.44,1.88.56,3.86-6.45,5.9-12.36,1.23-3.54,2.23-7.83,2.23-7.83L165,148.85Z"/><path class="cls-6" d="M152.28,139c-4.65,4.84-2.78,21.57,4.07,22.67,4.43.71,10.66-3.23,12.91-11C171.14,144.16,161.09,129.8,152.28,139Z"/><path class="cls-9" d="M150.14,143s6-1.08,8.83,2.05c1.81,2,4.14,3.83,6.07,3.83,3.8-2.43,4.22,1.8,2.09,4.1-.61,1.05.22,2.65.22,2.65a14.19,14.19,0,0,0,4-11.47c-.93-6.87-6.85-12.54-16.47-8.13C151,137.75,150.14,143,150.14,143Z"/><path class="cls-9" d="M165.24,137.15s3.95-6.27,8.32-4,7.18,4.63,11.11,2.87,5.62-6.82,5.62-6.82,1.85,9.27-4.49,14.48c-7.68,6.3-18.15,1-18.15,1Z"/><path class="cls-6" d="M240,154.88c-7.27-4.88-12.75-7.11-22.76-8.64-2.6-.39-4.46.51-6.79,1.71-3.88,2-18,6.79-19.57,6.88-7.64.42-9,.27-10.7,2.43-1.3,1.7-2,4.54-2.62,8.13-1.44,8.42,5.58,11.58,8.81,14,2.22-.76,9-5.79,9-5.79s-.49-1.78-1.7-6C201,165.5,210.86,158,214,156.52c3.65-1.69,18.32,1.71,23.1,5.19,1.82,1.32,2.64,3.84,6,5.78,2.74,1.58,7.6-3.24,7.71-5.78C251,157,242.58,156.6,240,154.88Z"/><path class="cls-7" d="M177.89,188.86l-.06,6.91,9.09-1.45L210,202.18a34.33,34.33,0,0,0,.36-5.33C210,191.51,201,184.3,201,184.3S192.85,193.14,177.89,188.86Z"/><path class="cls-6" d="M181.81,193.75c-4.17.79-25.76,9.69-27.75,10.95-2.55,1.62-4.55,4.84-5.83,7-4.41,7.55-26.3,30.89-26.3,30.89l6.29,6.66s16.45-14.29,21.5-19.47c6.79-7,6.91-10.3,11.06-13.62,3.86-3.08,15.14-2.17,19.05-2.61,6-.7,19.72-1.42,22.61-2.72,7.48-3.37,7.6-8.68,7.6-8.68S202.54,189.82,181.81,193.75Z"/><path class="cls-7" d="M235.51,211.74s3.12,3.17,2.1,5.19c-1.62,3.18-1.64,4.71-1.64,4.71a17.18,17.18,0,0,1,5.29,2.28c2.52,1.68,5.89,5.89,7.16,8a6.65,6.65,0,0,0,4.07,2.64s-1.27-17.17-2.25-22.54-5.72-4.3-5.72-4.3Z"/><path class="cls-5" d="M193.71,167.6s-2.82.75-5.11,1.1c-1.78.27-2.22,10.66-2.22,10.66a10.54,10.54,0,0,0,9-5.79A53.12,53.12,0,0,0,193.71,167.6Z"/><path class="cls-7" d="M111.38,239.28c2,3.9,4.92,7.66,6.25,10s3.91,4.86,4.3,4.86h4.48c2.4-3.37,4.64-7,4.64-7s-3.39.53-2.54-2.8c.92-3.65-3.66-5.07-3.66-5.07s-8.25.14-10.16-1.8-6.41-3.5-8-2.72a4.59,4.59,0,0,0-.82.56A7.74,7.74,0,0,1,111.38,239.28Z"/><path class="cls-8" d="M103.49,238.2s10.81,9.62,13.34,14,6.11,6.5,7.59,4.64c.64-.82,1.32-1.74,2-2.67h-4.48c-.39,0-3-2.53-4.3-4.86s-4.29-6.1-6.25-10a7.74,7.74,0,0,0-5.53-4A13,13,0,0,0,103.49,238.2Z"/><path class="cls-8" d="M115.67,238.11a13.48,13.48,0,0,0,2.78,4.37c1.77,1.69,6.56,1.55,8,1.13a8.45,8.45,0,0,0,4.64-3.23c1.81-2.25-1.35-6.66-3.49-4.2s-2,2.95-3.93,3.1S115.67,238.11,115.67,238.11Z"/><path class="cls-8" d="M237.13,221.13s-2.48.58-5.3,1.13l-3.49.69s.56,2.12,2.11,2.4,5.65-2.26,6.68-2.11,4.84,1.07,5.91,2.13,3.92,4.44,3.92,4.44a8.35,8.35,0,0,0-.79-3.62A9.07,9.07,0,0,0,237.13,221.13Z"/><path class="cls-8" d="M244.52,207.72a6.38,6.38,0,0,0,1.79,3c1.41,1.26,1.75.14,2.42,2.67s1.94,10.45,1.65,12-.48,7.07,0,8.33,3.1,1.41,3.1,1.41-1.92-14.31-2.29-16.82-.36-8-2.5-10A3.47,3.47,0,0,0,244.52,207.72Z"/><path class="cls-5" d="M153.83,209l-3.69,5.48s2.42.21,3.69-1.27S153.83,209,153.83,209Z"/><path class="cls-5" d="M326.78,159.09s-2.58-11.7-3.72-14.24c-11.67-12.07-11.85-22.64-12.11-26.19s6.48-31.84,6.48-31.84,6.22,1.87,7.07,4.11c1.71,17-1.86,28.29-1.86,28.29s6.42,7.33,9.7,13.69c1.4,2.71,7.46,12.16,7.46,12.16Z"/><path class="cls-5" d="M333.66,148.25l1,8.44s7.7.74,10.46-2.22,3.5-9.62,3.5-9.62l-3.06-7.74Z"/><path class="cls-6" d="M315.89,204.23s-14.31,11.66-16.89,14c-3.62,3.24-3.39,6.93-1.45,10.61,1.75,3.33,4.95,10,7.64,15.28s6.68,16.29,6.68,16.29.23.85,4.38,1.12c2.3.16,4.68-2.92,4.68-2.92s-3.69-16.56-4.05-20c-.63-6.11-5.85-10.88-5.85-10.88l15.91-8.16S319.17,205.09,315.89,204.23Z"/><path class="cls-6" d="M337.11,230.72s2.13-6.5,11.62-4.94,8.22,4,8.22,4-5.06,11.19-5.9,14.58,4.66,8,4.87,15c.1,3.22-.11,21.47-.11,21.47h-8.55S344.64,271,343.13,265c-2.19-8.7-5.07-12.15-7.48-18.87C334.4,242.61,337.11,233.1,337.11,230.72Z"/><path class="cls-4" d="M309.8,259.41a6.81,6.81,0,0,0-1.2-.05c-1.37,1.43-3.55,3.66-5.64,5.61-2.33,2.18-3.63,4.26-6.08,6-2.12,1.53.92,3.43,4.38,4.49a12,12,0,0,0,6-.27c2.5-.7,2.92-2.09,6.1-5.07,0-1.3,0-2.61,0-3.82A8.11,8.11,0,0,0,309.8,259.41Z"/><path class="cls-10" d="M319.94,266.25a10.66,10.66,0,0,0,3.39-3.73s-.22-6.62-2.44-6.84c-1.49-.14-.49,4.57-2.79,4.35-2.75-.27-6.19-2.74-8.09-2.15,0,0-.55.59-1.41,1.48a6.81,6.81,0,0,1,1.2.05,8.11,8.11,0,0,1,3.58,6.93c0,1.21,0,2.52,0,3.82l.18-.18C315.18,268.5,318.07,267.37,319.94,266.25Z"/><path class="cls-11" d="M311,263.85a17.94,17.94,0,0,1,0,5.9,13.74,13.74,0,0,1-1.64,4.43l2.79-2.83S313.45,265.74,311,263.85Z"/><path class="cls-11" d="M313.4,261.14A14.38,14.38,0,0,1,315,268.6c-.28,4.2,1.88-1,1.88-1S316.41,262.22,313.4,261.14Z"/><path class="cls-11" d="M311,257.82c-2.11,1.74-3.53,4-5,5.84s.2,2.93,2,1.13c2-2,5.38-6.3,5.38-6.3S311.62,257.64,311,257.82Z"/><path class="cls-12" d="M296.19,272a4.3,4.3,0,0,1,3.5,1.22c1.4,1.51,3,2.09,5.9,1.83s4.74-3.22,7.88-5.43,6.09-3.12,7.33-4c1.62-1.17,2.33-5.2,2.33-5.2a10.22,10.22,0,0,1,.73,2.92,5.68,5.68,0,0,1-1.94,3.28,9.26,9.26,0,0,1-3.9,2.23,19.31,19.31,0,0,0-4.58,2.47c-1,.83-3.09,4.48-6.58,5.17s-7.4.22-9.39-1.66S296.19,272,296.19,272Z"/><path class="cls-5" d="M338.32,246.46c1.24.7,3.76,1.77,4.19,3.66l.42,1.88s-3-2.14-4.11-3.16A2.2,2.2,0,0,1,338.32,246.46Z"/><path class="cls-4" d="M343.75,282.62c-1.2,3.28-2.78,7.64-3.65,10.22a12.78,12.78,0,0,0-1,4.76s4.06,4.15,6.86,3.73a10.33,10.33,0,0,0,6.53-3.86,13.68,13.68,0,0,0,1.2-2.6c-.54-4-1.53-9.46-3.09-11.28C349.23,282,346.19,282.14,343.75,282.62Z"/><path class="cls-10" d="M355.89,279.15s-6.26-4.63-10.53-.9l-1.61,4.37c2.44-.48,5.48-.66,6.88,1,1.56,1.82,2.55,7.32,3.09,11.28,1-2.67,1.81-6.11,2.17-7.3C357,283.91,355.89,279.15,355.89,279.15Z"/><path class="cls-11" d="M352.6,296.83c.64-3.52-1.76-9.5-1.76-9.5a94.63,94.63,0,0,0-.06,10.92A3.41,3.41,0,0,1,352.6,296.83Z"/><path class="cls-11" d="M355.24,292.37a9,9,0,0,0-2.53-9.41,37.24,37.24,0,0,1,1.8,10.87A3.21,3.21,0,0,1,355.24,292.37Z"/><path class="cls-11" d="M347.32,277.12s-1.61,5.95-2.15,8.37,1.93,5.17,3.51.4l2.91-8.77A3.67,3.67,0,0,0,347.32,277.12Z"/><path class="cls-12" d="M339.13,297.6s2.44-1.58,4.65-.74,3.27,4,6.11,1.27,4.62-5.58,5-6.82,1.54-6.67,1.54-6.67a14.86,14.86,0,0,1,0,4.45c-.39,2.3-2.62,7.18-4.39,8.93s-4.74,4.74-10.75,2.32C337.73,298.91,339.13,297.6,339.13,297.6Z"/><path class="cls-5" d="M298.42,224.65a17.08,17.08,0,0,1,2.95,3.75l.64,1.47S299.53,229.07,298.42,224.65Z"/><path class="cls-12" d="M309.79,236c3.54-1.57,4.38-3.54,4.61-4.07A22.74,22.74,0,0,0,311,227.7l4.11-2c-.64-1.72-1.49-4.8-3.21-6.9a14,14,0,0,0-7.77-4.92c-1.71,1.34-4.61,3.89-5.35,4.55-3.62,3.25-3.62,7.67-1.68,11.35,1,2,2.66,4.38,4.37,7.11C304.32,236.94,307.86,236.81,309.79,236Z"/><path class="cls-12" d="M345.65,235.76c-4.51-1.56-8.39,1.37-9.95,3.59-.45,2.86-.49,5.51.08,7.11,1.08,3,2.69,6,3.85,8.52,8.12,2.45,12-2.12,13.45-4.54-1-2-2.41-4.57-2.05-6,.12-.46.31-1.08.56-1.78C351.36,241,350.85,237.56,345.65,235.76Z"/><path class="cls-12" d="M325.35,192.17s-6.39,6.81-9,9.9c-1.64,2-7.77,8.12-7.77,8.12a14.39,14.39,0,0,1,7.36,5,18,18,0,0,1,3.41,8.21,41.74,41.74,0,0,0,9.69-2.95,39.41,39.41,0,0,0,8.75-5.19l-1.06,18.14s2.56-3.35,8.74-2.42c5.58.84,8.35,5.9,8.35,5.9s6.69-10.4,8.38-20a53.67,53.67,0,0,0,0-14.57S334.48,188.18,325.35,192.17Z"/><path class="cls-12" d="M348.58,144.85a12.59,12.59,0,0,1-4.36,6.67c-2.31,1.94-6.81,3.23-10.07,1.28a29.93,29.93,0,0,1,1.52-5.86l-5.28-.76s-4.34,9.85-5.19,14.23c-2.51,13,.21,32.32.21,32.32l-2.77,2.36s11.62,8.24,13.69,21.4a14.59,14.59,0,0,1,1.48-1.22c4.24-11.38,12.19-13.48,19.06-13.85a18,18,0,0,1,5.35.88S359.9,194,359,191.6a51.69,51.69,0,0,1-2.27-9.8c-.56-4.27,7.81-22.56,4.58-27.75C357.18,147.4,348.58,144.85,348.58,144.85Z"/><path class="cls-6" d="M344.79,126c-3-3.45-13.57-6.18-18.14,2.13-1,1.84-1,5.41-1.15,7.44-.5,7.65,4.34,15.53,8.12,14.56,2.68-.69,8.59-3.74,10.87-8.37C347.06,136.54,348.75,130.48,344.79,126Z"/><path class="cls-11" d="M324.63,193.36s2.83,6,11.59,8.57c12.53,3.72,25.08-2.85,25.08-2.85s.19-2.84-1.07-3.68c-3.23.63-11.82,5.5-23.38,2.59a23.14,23.14,0,0,1-11.75-6.89A4.61,4.61,0,0,0,324.63,193.36Z"/><path class="cls-5" d="M317.43,83.88a7.57,7.57,0,0,1,2.21-1.16c.57,0,7.94,3.87,7.94,3.87v4.34Z"/><path class="cls-6" d="M351.59,148.39c9.38-5.12,13,2.14,15.14,2.41s5.36-2.41,12.66-2.41c4.27-4.52,7.9-16.28,7.9-16.28s-5.18-4.88.11-10.26c.27-.57.93-.77,2-.51a1.54,1.54,0,0,1,2.23.85c1.23-.44,1.79.19,1.93,1.17a1.38,1.38,0,0,1,2,1.38c-.22,1.3.44,4.74-.49,9.51-.45,2.3-1.6,8.62-2,10.6-1.12,6.08-3.61,12.29-8.63,14.43-9.83,4.2-12.83,5.87-17.28,6.38a75.12,75.12,0,0,1-9.62.32Z"/><path class="cls-6" d="M356.39,165.66c1.69.08,4.73.28,5.58.34a15,15,0,0,0-.66-6.72c-3.12-8.84-9.72-10.89-9.72-10.89-3.93,2.85-2.93,9.35-3,11.41-.06,1.55,1.44,6.16,2.36,10C352.68,168,355.15,165.6,356.39,165.66Z"/><path class="cls-5" d="M362,166a30.86,30.86,0,0,1-4.85,12.56,19.59,19.59,0,0,0,5.1-12.54Z"/><path class="cls-5" d="M356.39,165.66c-1.24-.06-3.71,2.3-5.45,4.13a27.91,27.91,0,0,1,.65,3.46c.4,3.82,5.53,5.31,5.53,5.31A30.86,30.86,0,0,0,362,166C361.12,165.94,358.08,165.74,356.39,165.66Z"/><path class="cls-12" d="M298.7,72.89a3.66,3.66,0,0,1,.78-.29L272.26,56.89A2.37,2.37,0,1,0,269.89,61l26.52,15.31A3.15,3.15,0,0,1,298.7,72.89Z"/><ellipse class="cls-10" cx="293.24" cy="72.1" rx="28.96" ry="16.38" transform="translate(180.79 352.35) rotate(-81.95)"/><polygon class="cls-10" points="285.53 99.45 289.41 101.71 304.64 46.89 300.42 44.44 285.53 99.45"/><ellipse class="cls-4" cx="296.72" cy="74.12" rx="28.96" ry="16.38" transform="matrix(0.14, -0.99, 0.99, 0.14, 181.77, 357.53)"/><ellipse class="cls-10" cx="299.03" cy="75.56" rx="28.96" ry="16.38" transform="translate(182.34 361.06) rotate(-81.95)"/><polygon class="cls-10" points="291.32 102.91 295.2 105.17 310.43 50.35 306.21 47.9 291.32 102.91"/><ellipse class="cls-4" cx="302.51" cy="77.58" rx="28.96" ry="16.38" transform="translate(183.32 366.24) rotate(-81.95)"/><path class="cls-12" d="M425.46,146.13c.24-.13.49-.24.74-.36L304.1,75.27l-.1,0a1.28,1.28,0,0,0-1.22.27,3.89,3.89,0,0,0-.76,3.4,1.82,1.82,0,0,0,.77,1.11l121.35,70.06A2.87,2.87,0,0,1,425.46,146.13Z"/><path class="cls-6" d="M387.08,122.84a32.08,32.08,0,0,0-2.53,4.49c-.73,2.14,2.74,4.78,2.74,4.78l3.51,1.07a15.53,15.53,0,0,0-1.19-3.78,15.8,15.8,0,0,0-2.63-2.07S390,125.89,387.08,122.84Z"/><path class="cls-5" d="M327.72,87.69a32.08,32.08,0,0,1,0,5.15c-.38,2.23-4.7,2.87-4.7,2.87L319.48,95a15.57,15.57,0,0,1,2.86-2.74,16.39,16.39,0,0,1,3.31-.55S323.66,88.94,327.72,87.69Z"/><path class="cls-6" d="M387.87,120.44a6.27,6.27,0,0,0-2.12,2.55c-1.17,2.07-.81,3.2,0,3.28s3.41-3.71,3.41-3.71S390.26,120.44,387.87,120.44Z"/><path class="cls-6" d="M389.62,121.34a6.23,6.23,0,0,0-2.13,2.54c-1.16,2.07-.8,3.2,0,3.28s3.42-3.71,3.42-3.71S392,121.34,389.62,121.34Z"/><path class="cls-6" d="M391.67,122.41a6.24,6.24,0,0,0-2.13,2.54c-1.16,2.07-.81,3.21,0,3.28s3.41-3.7,3.41-3.7S394.05,122.41,391.67,122.41Z"/><path class="cls-6" d="M393.87,123.58a6.23,6.23,0,0,0-2.13,2.54c-1.16,2.07-.8,3.21,0,3.28s3.41-3.7,3.41-3.7S396.25,123.58,393.87,123.58Z"/><path class="cls-5" d="M320.18,82.17a6.14,6.14,0,0,0-2.13,2.54c-1.16,2.07-.8,3.21,0,3.28s3.41-3.7,3.41-3.7S322.56,82.17,320.18,82.17Z"/><path class="cls-5" d="M321.93,83.06a6.14,6.14,0,0,0-2.13,2.54c-1.16,2.07-.81,3.21,0,3.28s3.41-3.7,3.41-3.7S324.31,83.06,321.93,83.06Z"/><path class="cls-5" d="M324,84.13a6.23,6.23,0,0,0-2.13,2.55c-1.16,2.07-.8,3.2,0,3.28s3.41-3.71,3.41-3.71S326.35,84.13,324,84.13Z"/><path class="cls-5" d="M326.17,85.3a6.27,6.27,0,0,0-2.12,2.55c-1.17,2.06-.81,3.2,0,3.28s3.41-3.71,3.41-3.71S328.56,85.3,326.17,85.3Z"/><path class="cls-5" d="M383.4,157.88s-2.74-.66-4.22,0a22.38,22.38,0,0,0-3.58,2.34,3.72,3.72,0,0,0,3.9,0C381.5,159,383.4,157.88,383.4,157.88Z"/><polygon class="cls-11" points="337.81 162 336.87 163.79 345.08 168.38 345.91 166 337.81 162"/><path class="cls-10" d="M434.26,128.81c3.59,13.41-.39,31.19-8.89,39.69s-18.32,4.53-21.91-8.89.38-31.19,8.89-39.7S430.66,115.39,434.26,128.81Z"/><polygon class="cls-10" points="411.14 171.56 415.02 173.82 430.25 119.01 426.03 116.55 411.14 171.56"/><ellipse class="cls-4" cx="422.33" cy="146.24" rx="28.96" ry="16.38" transform="translate(218.39 543.92) rotate(-81.95)"/><ellipse class="cls-10" cx="425.83" cy="149.02" rx="28.96" ry="16.38" transform="translate(218.64 549.78) rotate(-81.95)"/><polygon class="cls-10" points="418.11 176.38 421.99 178.63 437.22 123.82 433 121.36 418.11 176.38"/><ellipse class="cls-4" cx="429.3" cy="151.05" rx="28.96" ry="16.38" transform="translate(219.62 554.96) rotate(-81.95)"/><path class="cls-12" d="M456.24,163.36h0L427.86,147a1.15,1.15,0,0,0-1.15.31,3.89,3.89,0,0,0-.77,3.43,1.78,1.78,0,0,0,.56,1l1.4.81,26.61,15.37a2.32,2.32,0,0,1-.31-.69,4,4,0,0,1,.79-3.51A1,1,0,0,1,456.24,163.36Z"/><path class="cls-9" d="M326.65,128.12a7,7,0,0,0,4.88,4.56c4,.84,9.28-1.64,9.28-1.64s1.9,3,1.62,4.38c2.35-.68,3.48,2.7,3.48,2.7s2.4-3.31,1.23-8.72S334.18,116,326.65,128.12Z"/><path class="cls-10" d="M214.86,269c-1.69,7.12,2.37,10.57,8.73,11.29,4.76.54,33.45,4.08,33.45,4.08s4.58-6.48,1.71-9.31c-1.52-1.17-16.65-3.5-22.73-6.3A90.48,90.48,0,0,0,221.54,264S216.35,262.75,214.86,269Z"/><path class="cls-12" d="M252.55,285.87s3.06,4.41,5.43,8.39c1.64,2.74,3.4,4.45,4.61,7.23,1,2.39,3.55-.18,5.33-3.33a12.18,12.18,0,0,0,1-6c-.15-2.65-1.47-3.31-3.8-7.26-1.1-1.87-1.6-4.94-2.29-7a10.64,10.64,0,0,0-2.93-4.1s-6.32-2-7,.08c-.45,1.42,4.17,2.3,3.47,4.5C255.52,281.05,252.38,283.88,252.55,285.87Z"/><path class="cls-11" d="M252.71,284.85c1.25,2.44,3.19,4.31,4.63,6.18s2.91.43,1.54-1.73c-1.55-2.43-5-6.59-5-6.59S252.66,284.25,252.71,284.85Z"/><path class="cls-4" d="M263.39,302.36a4.29,4.29,0,0,1,1.93-3.15c1.78-1.06,2.67-2.46,3-5.39s-2.14-5.31-3.63-8.84-1.76-6.63-2.37-8c-.81-1.82-3.78-3.48-3.78-3.48a5.9,5.9,0,0,1,2.2,0,5.62,5.62,0,0,1,2.79,2.6,9.11,9.11,0,0,1,1.35,4.28,19.11,19.11,0,0,0,1.45,5c.59,1.19,3.72,4,3.65,7.53s-1.35,7.27-3.62,8.82S263.39,302.36,263.39,302.36Z"/><path class="cls-4" d="M267.53,293.11s-6.85-2.31-7-8.54c-.18-7.77-4-11.51-4-11.51l2.09.41a10.4,10.4,0,0,1,3.53,7,29.14,29.14,0,0,0,1.27,7.32C264.09,289.8,267.53,293.11,267.53,293.11Z"/><path class="cls-5" d="M207.9,109.4c-4.44,5.84,4.09,16.7,5.37,24,1,5.57,6.82,20.3,8.14,24.64,2.21,7.27,3.8,10.12,6.53,14.31a42.51,42.51,0,0,0,9.42,10.6s3-14.81,1.14-15.64-21.36-33.57-21.3-40.81S214.07,101.31,207.9,109.4Z"/><path class="cls-5" d="M244.74,162.12l-3.49,5.67s2.18,4.32,6.62,3.6a12.42,12.42,0,0,0,7.14-4.18l-.23-7.93Z"/><path class="cls-6" d="M245.1,141.7c-5.82,3.13-9.11,19.37-3,22.46,3.94,2,11,.19,15.41-6.38C261.19,152.27,256.11,135.79,245.1,141.7Z"/><path class="cls-9" d="M241.89,144.81a24,24,0,0,0,11.63,5.73c.63,1.23.46,2.72.54,4.28,4.29-1.13,3.41,3,.72,4.46-.89.8-.6,2.56-.6,2.56a14,14,0,0,0,7.16-9.55c1.21-6.71-2.62-13.81-13-12.59C244.27,140.19,241.89,144.81,241.89,144.81Z"/><path class="cls-9" d="M259.83,147s5.12,1.28,5.57,6.36-1.23,7.52-1.23,7.52-5.87-3.31-5.4-7.47A52.66,52.66,0,0,1,259.83,147Z"/><path class="cls-9" d="M263.61,157.93s-2.3,4.49-1.29,7.86,3.15,3.35,3.15,3.35a22.92,22.92,0,0,0,.91-5.53C266.29,161.54,263.61,157.93,263.61,157.93Z"/><path class="cls-9" d="M264.83,167.72s-1.37,4.85.29,8,3.75,2.66,3.75,2.66a23.21,23.21,0,0,0-.2-5.59C268.17,170.73,264.83,167.72,264.83,167.72Z"/><path class="cls-9" d="M267.27,176.56s-.35,4.35.75,6.95a15.75,15.75,0,0,0,3.32,4.67s2.29-.05,2.89-1.09a2.62,2.62,0,0,0,.31-1.94S271.13,178.19,267.27,176.56Z"/><path class="cls-5" d="M227.76,230.82s-3.16,9.84-6.32,17.72c-3.49,8.73-8.09,20.56-8.09,20.56s-1.69,10.79,11.88,5.88c5.07-1.83,7.57-13.44,10.22-18.16,2.21-3.93,10.53-20.88,10.53-20.88Z"/><path class="cls-6" d="M241.91,231.56c-.49,1.34-4.73,41.85-5.67,47.22a21.63,21.63,0,0,0,1.36,10.73s10.6,5,12,2.39,1.2-3.21,1.2-3.21,2.15-14.6,4.91-27.71c1.79-8.46,6-15,6-18.32C261.77,233.75,241.91,231.56,241.91,231.56Z"/><path class="cls-12" d="M231.49,216.22l-5.35,19.28a46.78,46.78,0,0,0,5.41,4,30.41,30.41,0,0,0,8.76,3.79s.22,4.47,7,6.49a24.78,24.78,0,0,0,11.71.86s6.73-11.07.45-28C256.08,213.43,231.49,216.22,231.49,216.22Z"/><path class="cls-4" d="M238.92,166.21s-5.65,10-6.93,14.52.31,10.85.31,10.85,2.48,15.55,1.8,17.18-2.61,7.46-2.61,7.46,7.07,8.88,18.56,8.88a19.73,19.73,0,0,0,9.45-2.44s-3.88-7.74-3.52-11.09,6.06-24,5.6-31.51S255,167.21,255,167.21s-6.49,5.36-9.23,2.54A14.12,14.12,0,0,0,238.92,166.21Z"/><path class="cls-12" d="M237.27,175.11c0,.07-3.22,2.52-3.22,2.52l.26,1.48,2.77-2a81.37,81.37,0,0,0-2.1,7.91,24.07,24.07,0,0,0-.41,4.41l1.58.43a76.67,76.67,0,0,1,1.33-9c.75-2.75,1.62-5.33,1.62-5.33Z"/><path class="cls-6" d="M221.35,117.42c-4.67-8.27-8.69.93-6.48,8.29a115,115,0,0,1,3.35,12.48c.57,2.86,4.89,15.56,11.31,26.74A64.92,64.92,0,0,0,245.8,184c2.07,8.17,6.84,8,10.47,6.23,4.48-2.26,3.49-11.3,1.4-14.88-3.73-6.41-12.14-7.4-14.22-11-8.6-15-18-26.05-18.08-28.14C225.25,131.77,226.64,126.79,221.35,117.42Z"/><path class="cls-4" d="M236.52,285.92c.17,8.28,8,12.64,16.53,23,2.42,3,10.3,16.85,10.3,16.85l6.23-5s-6-19.36-11.08-27.2c-2.34-3.61-7.08-9.17-7.08-9.17S239.48,287.42,236.52,285.92Z"/><path class="cls-12" d="M257.55,320.17s-1.72,5.08-3.5,9.36c-1.23,3-1.55,5.38-3.06,8-1.3,2.27,2.26,2.75,5.85,2.29a12.1,12.1,0,0,0,5.39-2.74c2-1.7,1.78-3.15,3.56-7.37.85-2,3-4.23,4.26-6a10.72,10.72,0,0,0,1.55-4.79s-2.13-6.3-4.25-5.58c-1.41.48.64,4.71-1.54,5.46C263.19,319.68,259,318.85,257.55,320.17Z"/><path class="cls-11" d="M258.46,319.69c-1.21,2.46-1.56,5.13-2.2,7.41s1.39,2.58,2.31.19c1-2.68,2.3-8,2.3-8S258.92,319.29,258.46,319.69Z"/><path class="cls-4" d="M250.77,338.7a4.3,4.3,0,0,1,3.68-.33c1.91.8,3.57.68,6.14-.77s3-4.88,4.94-8.19,4.26-5.36,5-6.69c1-1.73.55-5.11.55-5.11a5.89,5.89,0,0,1,1.3,1.78,5.68,5.68,0,0,1-.42,3.79,9.29,9.29,0,0,1-2.63,3.64,19.34,19.34,0,0,0-3.16,4.14c-.6,1.18-1,5.35-3.86,7.42s-6.65,3.25-9.24,2.35S250.77,338.7,250.77,338.7Z"/><path class="cls-4" d="M260.66,336.51s-2.22-6.88,2.69-10.71c6.13-4.78,6.83-10.1,6.83-10.1l.92,1.91a10.44,10.44,0,0,1-3.52,7c-2.08,1.93-3.6,3.11-5.12,5.38C261.27,331.78,260.66,336.51,260.66,336.51Z"/><path class="cls-12" d="M214.7,278.15c1.88,2.61,8.89,2.17,8.89,2.17s5.82-2.34,7.4-6.76.59-7.1.59-7.1-3.31,5-7.25,6c-6.6,1.71-10.42-4.7-10.42-4.7A10.06,10.06,0,0,0,214.7,278.15Z"/><path class="cls-12" d="M236,280.47s-3.13,5-1.62,9.26c1.7,4.73,5.52,5.3,5.52,5.3a39.16,39.16,0,0,0,7.7-5.32,23,23,0,0,0,3.8-5.31Z"/><path class="cls-12" d="M218.22,138.59l3.18,9.14a3.91,3.91,0,0,0,4.88.32,7,7,0,0,0,3.25-4.58l-3.88-6.37S221.91,140.85,218.22,138.59Z"/><path class="cls-12" d="M232.51,213.19s6.42,6.43,13.17,7.48a33.45,33.45,0,0,0,12.64-.58l-.67-1.65a50.23,50.23,0,0,1-11.81.49c-6.32-.53-12.88-7-12.88-7Z"/><path class="cls-12" d="M251.85,219.38a61.16,61.16,0,0,1,.39-16.36c1.49-8.89,1.83-11.85,1.83-11.85l-1.25.12s-1,7-1.72,11.48a65.78,65.78,0,0,0-.2,16.72A3.3,3.3,0,0,1,251.85,219.38Z"/><path class="cls-8" d="M212,83.39a12.55,12.55,0,0,1,0,2.21,13.1,13.1,0,0,1-24.24,5.62,13.11,13.11,0,0,0,26.12.21A13,13,0,0,0,212,83.39Z"/><path class="cls-7" d="M197.67,97.45A13.12,13.12,0,0,0,212,85.6a12.55,12.55,0,0,0,0-2.21A13.1,13.1,0,0,0,187.71,89a12.66,12.66,0,0,0,0,2.22A13.09,13.09,0,0,0,197.67,97.45Z"/><path class="cls-13" d="M193.26,96.23s2.64-9.08,8.22-12.53,9.32-1.94,10.47-.31a13.32,13.32,0,0,1,1.73,4.54s-3,11.74-12.13,10.91C195.15,98.26,193.26,96.23,193.26,96.23Z"/><path class="cls-10" d="M236,201.47s1.94,8.55,5.23,11.07a22.5,22.5,0,0,0,7.5,3.51,79.55,79.55,0,0,0-5.45-5.85A40.85,40.85,0,0,1,236,201.47Z"/><path class="cls-10" d="M234.89,192.82a64.91,64.91,0,0,0,7,11.14,18.74,18.74,0,0,0,5.73,4.91s-2.09-5.8-3.46-7.4A61.75,61.75,0,0,0,234.89,192.82Z"/><path class="cls-14" d="M167.66,247.18s-7.37-3.11-11.87-3.38a10.29,10.29,0,0,0-7.21,2.25s-9.66-2.36-25.86,1.12C110.94,249.7,105,251,105,251l2.32,8a128.15,128.15,0,0,0,15.81-1.92c6.49-1.4,18.28,3.66,25.88,2,5.26-1.14,18.1,8.41,18.1,8.41Z"/><path class="cls-14" d="M166.84,253.32l2.31,8.17s9-6.76,11.24-10.13.62-3.82.62-3.82l-4.27-7.13Z"/><path class="cls-15" d="M157,306.3s-14.31,11.66-16.89,14c-3.62,3.24-3.39,6.93-1.45,10.61,1.75,3.33,5,10,7.64,15.28S153,362.46,153,362.46s.24.85,4.38,1.12c2.3.15,4.69-2.92,4.69-2.92s-3.7-16.56-4.06-20c-.63-6.11-5.85-10.88-5.85-10.88l15.91-8.17S160.28,307.15,157,306.3Z"/><path class="cls-15" d="M178.23,332.79s2.13-6.5,11.61-4.94,8.22,4,8.22,4S193,343,192.16,346.39s4.66,8.05,4.87,15.05c.1,3.21-.1,21.47-.1,21.47h-8.56s-2.61-9.85-4.13-15.85c-2.19-8.71-5.07-12.15-7.47-18.87C175.51,344.68,178.23,335.17,178.23,332.79Z"/><path class="cls-12" d="M200.47,299.77H167.34l-3-.38s-10.89,7.94-15.32,13.44c4.61,1.22,11.79,12.49,11.79,12.49l18.47-6.76s-1.89,11.92-1.32,16.38c1.82-1.87,5-2.73,9.31-1.87a13.71,13.71,0,0,1,8.2,4.65s8-11.53,8-20.93C203.5,308.93,200.47,299.77,200.47,299.77Z"/><path class="cls-13" d="M180.54,246.76A20.17,20.17,0,0,1,177,252.5c-2,2.25-5.15,4.12-6.76,4.37-1.12.19-3.43-4.65-3.43-4.65l-3.57,2.16a93.06,93.06,0,0,0-2.4,11.77c-.42,4.44,4,22.5,5,27.68.56,2.83-3,1.57-1.56,5.56-.63,1,5.71,10,14.94,11.32,10,1.47,23.24-2.87,23.24-2.87a69.44,69.44,0,0,0-1.26-8.45c-1.15-5.45-3.07-12.43-3.15-18.66-.05-4.3-3.4-19.24-6.63-24.44A26.6,26.6,0,0,0,180.54,246.76Z"/><path class="cls-15" d="M174.21,229.55c-3.56-2.91-14.4-3.9-17.56,5-.7,2-.12,5.49.08,7.52.75,7.63,6.8,14.62,10.37,13,2.54-1.12,7.87-5.08,9.37-10C178.16,239.59,178.84,233.34,174.21,229.55Z"/><path class="cls-13" d="M150.91,361.48a6.81,6.81,0,0,0-1.2-.05c-1.37,1.43-3.55,3.66-5.64,5.61-2.33,2.18-3.63,4.26-6.08,6-2.12,1.54.92,3.44,4.38,4.5a12.16,12.16,0,0,0,6-.27c2.5-.7,2.92-2.09,6.1-5.08,0-1.29,0-2.6,0-3.81A8.11,8.11,0,0,0,150.91,361.48Z"/><path class="cls-16" d="M161.05,368.32a10.66,10.66,0,0,0,3.39-3.73s-.22-6.62-2.44-6.84c-1.49-.14-.49,4.57-2.79,4.35-2.75-.27-6.18-2.74-8.09-2.15,0,0-.55.59-1.41,1.48a6.81,6.81,0,0,1,1.2.05,8.11,8.11,0,0,1,3.58,6.93c0,1.21,0,2.52,0,3.81l.18-.17C156.29,370.57,159.18,369.44,161.05,368.32Z"/><path class="cls-11" d="M152.14,365.92a17.94,17.94,0,0,1,0,5.9,13.74,13.74,0,0,1-1.64,4.43l2.8-2.83S154.56,367.81,152.14,365.92Z"/><path class="cls-11" d="M154.51,363.21a14.44,14.44,0,0,1,1.6,7.46c-.29,4.2,1.87-1,1.87-1S157.52,364.29,154.51,363.21Z"/><path class="cls-11" d="M152.14,359.89c-2.11,1.74-3.53,4-5,5.84s.2,2.93,2,1.13c2-2,5.38-6.3,5.38-6.3S152.73,359.71,152.14,359.89Z"/><path class="cls-12" d="M137.31,374a4.29,4.29,0,0,1,3.49,1.22c1.4,1.51,3,2.09,5.9,1.83s4.74-3.22,7.88-5.43,6.1-3.13,7.33-4c1.62-1.17,2.34-5.2,2.34-5.2a10.29,10.29,0,0,1,.72,2.92,5.71,5.71,0,0,1-1.94,3.28,9.26,9.26,0,0,1-3.9,2.23,19.31,19.31,0,0,0-4.58,2.47c-1,.83-3.09,4.48-6.58,5.17s-7.4.22-9.39-1.66S137.31,374,137.31,374Z"/><path class="cls-14" d="M179.43,348.53c1.24.7,3.77,1.77,4.19,3.66l.42,1.88s-3-2.14-4.11-3.16A2.2,2.2,0,0,1,179.43,348.53Z"/><path class="cls-13" d="M184.87,384.69c-1.21,3.28-2.79,7.64-3.66,10.22a12.75,12.75,0,0,0-1,4.76s4.06,4.15,6.86,3.73a10.33,10.33,0,0,0,6.53-3.86,13.09,13.09,0,0,0,1.2-2.6c-.54-4-1.53-9.46-3.09-11.28C190.34,384,187.3,384.21,184.87,384.69Z"/><path class="cls-16" d="M197,381.22s-6.26-4.63-10.53-.9c0,0-.69,1.87-1.6,4.37,2.43-.48,5.47-.66,6.87,1,1.56,1.82,2.55,7.32,3.09,11.28,1-2.67,1.82-6.11,2.17-7.3C198.11,386,197,381.22,197,381.22Z"/><path class="cls-11" d="M193.71,398.9c.64-3.52-1.76-9.51-1.76-9.51a94.84,94.84,0,0,0-.06,10.93A3.36,3.36,0,0,1,193.71,398.9Z"/><path class="cls-11" d="M196.35,394.44a9,9,0,0,0-2.53-9.41,37.16,37.16,0,0,1,1.8,10.87A3.31,3.31,0,0,1,196.35,394.44Z"/><path class="cls-11" d="M188.43,379.19s-1.61,5.95-2.15,8.37,1.93,5.17,3.51.4l2.91-8.77A3.67,3.67,0,0,0,188.43,379.19Z"/><path class="cls-12" d="M180.24,399.67s2.44-1.58,4.65-.74,3.27,4,6.11,1.26,4.62-5.57,5-6.81,1.54-6.67,1.54-6.67a14.86,14.86,0,0,1,0,4.45c-.39,2.29-2.61,7.18-4.39,8.93s-4.74,4.74-10.74,2.32C178.84,401,180.24,399.67,180.24,399.67Z"/><path class="cls-14" d="M139.53,326.72a17.47,17.47,0,0,1,3,3.74l.63,1.48S140.64,331.14,139.53,326.72Z"/><path class="cls-14" d="M172,238.71a1.65,1.65,0,0,1,2.47.74c.6,1.18.48,4.21.48,4.21s2.05-3.13.74-5.48C175,236.87,172.87,236.39,172,238.71Z"/><path class="cls-9" d="M157.49,232.76s.38,4.34,6.84,2.66,12.1-3.45,12.1-3.45-.28-6.1-7.73-6.52a18.87,18.87,0,0,0-12.45,3.85Z"/><path class="cls-11" d="M182.24,332.93s2.59-2.59,8.56-2.59c3.22,0,7.31,3.07,7.31,3.07l.64-1.17s-4.75-3.52-8.72-3.31c-7.37.4-9.73,4.48-9.73,4.48Z"/><path class="cls-11" d="M153.11,308.58a15.79,15.79,0,0,1,1.17,3.67,12.77,12.77,0,0,1-.65,3.85l.54.56a8.7,8.7,0,0,0,1.25-4.86,9.08,9.08,0,0,0-1.51-4Z"/><path class="cls-15" d="M186.2,250.36s-4.24,6.4-4.52,12.05,3.69,13.51,7.36,15.68a84.09,84.09,0,0,0,9.07,4.36s.88-16.38-1.36-21.66S186.2,250.36,186.2,250.36Z"/><path class="cls-15" d="M186.2,250.36s8.05-.29,13.32,3.68a17.59,17.59,0,0,1,5.53,7.45,74.94,74.94,0,0,1,14.75,6.93c3.93,2.52,2.92,3.94,3.73,6.86,1.61,5.83,2.85,13.88,3.57,16.72.26,1,1.06,9.92-4,14.3s-6.71,1.54-6.15-4.16c.1-1.07.28-5.22.28-5.22a37.94,37.94,0,0,1-3.4,4.18c-1.09,1-3.38.46-1.41-3.4,2.26-4.42,5.29-6.2,4.95-8.64-.38-2.72-2.35-8-3.09-10.17-4.07-.79-12.9-2.7-15.57-4-8.86-4.35-12.09-5.61-12.09-5.61S179.36,264.87,186.2,250.36Z"/><path class="cls-12" d="M116.57,249.36c4.39,5.41,5.1,12.12,1.57,15s-10,.8-14.34-4.62-5.1-12.12-1.57-15S112.18,243.94,116.57,249.36Z"/><path class="cls-13" d="M115.44,250.19c3.21,3.95,3.72,8.84,1.15,10.93s-7.26.58-10.46-3.37-3.72-8.84-1.14-10.93S112.24,246.24,115.44,250.19Z"/><path class="cls-14" d="M102.28,252.09c-1.38.45-3.09,1.47-3.37,2.14s-.26,1.86,1.22,1.65c-1.54,2.27,1.41,2.63,1.41,2.63a1.6,1.6,0,0,0,0,2.05c.45.64,1.68.43,1.68.43a1.89,1.89,0,0,0,.77,1.95c.72.47,3.62-2.09,3.81-2.91s.28-3-1.12-2.09c.74-1.69.74-2.85-1.21-2.43.89-1.86.05-2.27-1.38-1.86C105.12,252.3,103.66,251.64,102.28,252.09Z"/><path class="cls-16" d="M166.34,297.48s1.13,7.53,10.09,8.82,20.39.05,20.39.05L180,303.66C170.79,302.18,166.34,297.48,166.34,297.48Z"/><path class="cls-16" d="M167,289.91s-.08,3.64,7.18,7.57,18.74,5.9,18.74,5.9-7.08-3.4-12.65-5.9A119.54,119.54,0,0,1,167,289.91Z"/><path class="cls-11" d="M162.82,268.35s2.08-6.83,6.57-4.57c2.24,1.12,3.23,4.25,1.68,8.4-1.23,3.31-2.24,7.21-2.24,7.21l4.21.75-.33,4.05-6.84-2.44s.95-7.68,2.18-10.56c.88-2.07.91-3.66-.39-4.11-2-.68-2.63,1.93-2.63,1.93Z"/><path class="cls-11" d="M193,280.15s.07,8.48,1.92,12.7a73.41,73.41,0,0,1,3.88,11.37c.41,2,.82,4.47.82,4.47L202,308s-1.47-9.49-3.68-13.06c-3.13-5-2.22-13.39-2.22-13.39Z"/><path class="cls-14" d="M198.75,274.87s-5.4-2.61-7-3.35-5.55,3.86-5.55,3.86a15,15,0,0,0,5.65,4.77,24.92,24.92,0,0,0,6.26,2.3Z"/><path class="cls-14" d="M322.22,290.14s10.67,7.62,14.18,14c3.33,6.06,6.89,6.12,11.58,8.41a89.05,89.05,0,0,1,15.62,10.06c4.47,3.59,5.51,5.94,6.68,8.48,2.38,5.18,4,8.69,4,8.69s2.65.27,3.65-4.63a20,20,0,0,0,.3-7.9s-.47-2.32-4.33-6.88C369.33,315,363.74,310,357.71,304.5c-4.41-4-9.6-6-11.27-8.21A176.82,176.82,0,0,1,335,279.71Z"/><path class="cls-13" d="M372.86,319.14a4.47,4.47,0,0,0,.39,2.12c.66,1.61,1.85,3.76.21,5.08-1.17.94-5.2,3.77-5.2,3.77s0,2.67,0,4.89c0,2.58,0,6.18-.18,8s-.77,4.7,1.38,5.67c3.53,1.59,6-.64,7.47-3.41s1.26-8.26,1.44-9.9.3-4.82,1.72-7.28c2-3.41,1.1-5.17-.14-6.82C378.32,319.08,375.79,319.74,372.86,319.14Z"/><path class="cls-12" d="M368.16,347.14a4.66,4.66,0,0,1,3.37-.84c2,.28,3.51.84,4.63-2.11s.7-10.95,2-13.9,3-6.89,3-6.89a3.85,3.85,0,0,1,.16,4.08c-1.16,2.53-2.56,5-2.28,7.79s.94,11-4,13S368.64,348.49,368.16,347.14Z"/><path class="cls-16" d="M374.76,342.44s-4.55-7.23-.78-12.19c4.72-6.18,3.6-10.5,3.6-10.5l1.69.79a9.34,9.34,0,0,1-1.39,7.54,26.63,26.63,0,0,0-3.12,6.42C374.05,336.52,374.76,342.44,374.76,342.44Z"/><path class="cls-11" d="M368.27,330.09c-.34,2.72.21,5.36.35,7.71s2.17,2,2.25-.57c.09-2.87-.41-8.68-.41-8.68A9,9,0,0,0,368.27,330.09Z"/><path class="cls-14" d="M297.27,219s-2.44-1.3-11.42,1.23c-3.32.93-9.64,3.9-16.08,5.6a97.17,97.17,0,0,0-19,7.75,26.24,26.24,0,0,1-10.67,2.57c-3.37-.07-9.55,6.38-7.87,9s6,4.36,8.81,5,2.67-6.62,6.59-8c2.65-.93,14.63-4,17.42-5,11.19-4.28,17.45-4.07,24.19-5.76,2.88-.72,10.91,4.49,10.91,4.49L303,220.2Z"/><path class="cls-14" d="M299.18,223.05s-2.26,8.31-1.86,11.09,5.77,8,5.77,8,6,2.38,10.48-1.59,3-17.45,3-17.45a26.3,26.3,0,0,1-8.88-7.57C305,215.61,299.18,223.05,299.18,223.05Z"/><path class="cls-13" d="M338.54,271c-1.51-3.81-7.2-8.23-10.7-13.35-1.84-2.71-1.34-12.72-2.11-15-1.35-3.93-.69-4.9-.69-4.9s5.27-10.21-4.53-14c-3.14-1.22-3.34-.7-4.71-1.34-2.39,2.56-3.31,6.43-7.2,10.06-6.18,5.75-11.33.8-10.68-1.58L301.18,219s-6.31,11.42-7.43,16.13c-.75,3.16-.48,7.82,5.44,14.13a53.33,53.33,0,0,1,8.33,13.9c1.31,3.42,5.78,13.27,5.78,13.27s12.71-7.37,16-5,1.56,15.88,1.56,15.88S343.28,282.91,338.54,271Z"/><path class="cls-15" d="M314.77,274.34c-5.18,3.57-18.83,17.49-21.15,20.43-2.77,3.52-2.67,6,.82,10.32s11.07,8.61,15.54,13.67c2.27,2.56,7.36,9.26,6.88,11.19s-2.42,8.62-2.42,8.62,5.81,5.32,9.19,0,5.31-5.81,5.31-5.81-5.53-10.43-7.24-13.93c-6.75-13.74-14.18-18.91-14.18-18.91s11.84-6.34,16-8.29c10.18-4.76,11.46-6.54,11.46-6.54S338.08,258.34,314.77,274.34Z"/><path class="cls-13" d="M316,333.26s-2.16,4.91-4.32,9c-1.49,2.82-2,5.22-3.76,7.7-1.5,2.14,2,2.94,5.61,2.81a12.11,12.11,0,0,0,5.62-2.25c2.18-1.51,2.06-3,4.21-7,1-1.92,3.38-3.95,4.78-5.61a10.7,10.7,0,0,0,2-4.64s-1.56-6.46-3.72-5.94c-1.45.35.21,4.76-2,5.3C321.62,333.28,317.57,332.08,316,333.26Z"/><path class="cls-11" d="M316.91,332.86c-1.43,2.35-2,5-2.85,7.18s1.15,2.7,2.28.4c1.26-2.58,3-7.71,3-7.71S317.4,332.51,316.91,332.86Z"/><path class="cls-12" d="M307.55,351.11a4.29,4.29,0,0,1,3.7,0c1.82,1,3.49,1,6.18-.22s3.41-4.59,5.65-7.71,4.73-5,5.6-6.21c1.14-1.64,1-5,1-5a5.8,5.8,0,0,1,1.14,1.88,5.66,5.66,0,0,1-.76,3.74,9.23,9.23,0,0,1-2.95,3.39,19.43,19.43,0,0,0-3.51,3.84c-.7,1.12-1.44,5.24-4.51,7s-6.91,2.65-9.41,1.52S307.55,351.11,307.55,351.11Z"/><path class="cls-16" d="M317.6,349.81s-1.6-7,3.63-10.42c6.53-4.21,7.71-9.45,7.71-9.45l.74,2a10.45,10.45,0,0,1-4.13,6.67,28.38,28.38,0,0,0-5.58,4.9C318.63,345.15,317.6,349.81,317.6,349.81Z"/><path class="cls-14" d="M294.23,301.73a13.64,13.64,0,0,0,3,3,23.84,23.84,0,0,1,3,2.53s.35-2.63-.66-4.11S294.23,301.73,294.23,301.73Z"/><path class="cls-15" d="M297,204.47c-4.58,4.76-2.74,21.22,4,22.3,4.37.7,10.5-3.18,12.71-10.8C315.52,209.58,305.63,195.45,297,204.47Z"/><path class="cls-9" d="M294.86,208.41a23.93,23.93,0,0,0,12.83,1.88c1,1,1.27,2.45,1.83,3.91,3.74-2.39,4.15,1.77,2.05,4-.6,1,.22,2.61.22,2.61s5.86-4.67,4.95-11.44c.1-1.4.1-3.22-1.19-4.32-.21-3-2.15-3.54-4-3.54-1-2.2-3.27-2.14-5.36-2.2a23.92,23.92,0,0,0-8.85,2.21C293.6,203.27,294.86,208.41,294.86,208.41Z"/><path class="cls-9" d="M303,201.55s-.08-5.56,2.77-7.07a4.54,4.54,0,0,1,4.81,0s1.33-4,3.33-4.31,4,2,4,2,2.25-1,3.65,0c2.39,1.65,0,5.14,0,5.14s4.43-.26,4.78,3.81c.23,2.67,0,3.37,1.12,4.33-1.12,1.29-3.93.67-3.93.67s1.4,2.41.84,3.76a5.39,5.39,0,0,1-2.43,2.21s1-2.62-.59-3.74c-1.4,2.88-6,4-6.1,3.46S303,201.55,303,201.55Z"/><polygon class="cls-13" points="270.83 137.44 270.82 137.43 269.77 139.19 269.83 139.23 448.59 242.43 460.42 248.82 461.01 247.67 449.65 240.68 270.83 137.44"/><polygon class="cls-12" points="239.25 120.31 269.77 139.19 270.82 137.43 239.25 120.31"/><rect class="cls-12" x="366.05" y="200.52" width="29.34" height="3.21" transform="translate(152.07 -163.28) rotate(30)"/><path class="cls-15" d="M384.49,201.55s-1.69-2.21-2.32-.43c-.52,1.48-2.44,1.49-2.94,1.27-3.26-1.41-6.94,1.63-9.71,3.82-12.11,9.58-15.68,16.65-19.19,17.16-8.16,1.19-12.81,4.35-18.11,2.25-5.05-2-11.51-3.57-13.86-2.32-1.62.86-4.47,6.29-4.05,11.76a14.12,14.12,0,0,0,7.14,11.27,39.53,39.53,0,0,1-.57-7.47,26.12,26.12,0,0,0,6.89.57,41.59,41.59,0,0,0,10-1.73c4.53-1.56,12.18-3.65,16.71-4.86.83-.22,3.42-.5,5.76-4.76,3.09-5.65,10.86-14,13.5-17.15,2.39-2.83,6.2-1.92,7.71-2s9.12.24,10.13-3.65c.25-1-.8-1.73-2.38-1.31-.42-1.58-.88-1.55-2-1.58C385.65,200.1,384.49,201.55,384.49,201.55Z"/><path class="cls-14" d="M320.88,238.86a39.53,39.53,0,0,0,.57,7.47,8,8,0,0,0,4.78,1.06c.21-1.92,1-5.45,1.54-8A26.12,26.12,0,0,1,320.88,238.86Z"/><path class="cls-14" d="M360,224.43a6.88,6.88,0,0,0-2.39,2.42c-1.12,1.79-.56,2.91-.56,2.91S359.71,227,360,224.43Z"/><path class="cls-11" d="M296.66,235.24a20.85,20.85,0,0,0-1,2.09,9.46,9.46,0,0,0-.61,1.89s3,1.73,5.25,3,5.68,3,5.68,3l1.87-4.17s-3.84-1.73-6.06-2.9S296.66,235.24,296.66,235.24Z"/><path class="cls-5" d="M83.3,323.18c-3.2.59-6,3.77-9.4,5.47-3.15,1.59-5.33,9-6.68,10.11A85.53,85.53,0,0,0,64.1,327.6s5.82-5.47,4.57-8.69c-1.15-3-6-7.17-9.75-2.93s-2.16,8.1-2.28,14.72c-.06,3.05-.2,11.39,4,18.19,2.32,3.76,3.38,5.46,7.62,3.79,3.67-1.45,4.44-3.92,7.06-7.58a33.23,33.23,0,0,1,8-7.93C86.51,335.16,83.3,323.18,83.3,323.18Z"/><path class="cls-5" d="M131.1,381.09s3.24,3.71,7,8.81c4.06,5.48,9.51,3.74,12.9,6.48,7.54,6.1,18.68,14.72,21.35,17.55a18.84,18.84,0,0,1,4.57,9.32s2.62.27,3.61-4.57a19.84,19.84,0,0,0,.29-7.8,34,34,0,0,0-5.27-8c-6.08-7.18-13.12-17.42-22.9-20.84-4.82-7.7-7.15-10.26-7.15-10.26Z"/><path class="cls-8" d="M107.16,353.69s7.65,9,9.45,13.66c1.37,3.51,18.17,18.11,18.17,18.11s10.39-.81,13.07-11.12c-2.9-12.45-3.21-17.31-9.53-19S107.16,353.69,107.16,353.69Z"/><path class="cls-7" d="M87.08,324.43,86.8,319a42.74,42.74,0,0,1,16.93,2.19c11.21,4,17.83,9.08,33.29,27.34,3,3.58,8.42,8.84,5.65,16.77s-9.61,11.05-15.16,16a33.85,33.85,0,0,1-12.59,6.81s1.89-4.37-4.72-8.76c-4.49-3-5.53-5.08-5.53-5.08l13.82-16.1S102.15,354.88,97,352.1c-4.55-2.45-16.26-12.78-16.26-12.78Z"/><path class="cls-8" d="M99.47,335.7s-1.08,9,5.37,11.65,11.54-.47,13.51-4.94a11.33,11.33,0,0,0,0-8.66Z"/><path class="cls-5" d="M82,338.29,97,342.41a16,16,0,0,1-1.71-8.94c.71-5.45,4.91-6.55,4.08-7.71-2-2.82-9.31-1.33-9.31-1.33Z"/><path class="cls-6" d="M88,317.89c-3.63-2.77-12.23-3.65-15.37,5.23-3.29,9.32,5.14,21,9.63,19,2.52-1.11,7.81-5,9.3-10C93.28,326.63,90.86,320,88,317.89Z"/><path class="cls-9" d="M70.65,328.23c.39,2.1,2.49,3.6,6.27,2.22.65-.24,2.91-2.64,5.12-2.32a5,5,0,0,0,4.4-1.9s1.59,1,3.9,2.48c1.17.73,1.26,3.44,1.26,3.44s4.71-4.79,3.47-10.36a12.53,12.53,0,0,0-11.23-9.63c-6.53-.63-8.92,3.82-11.91,8.59C70.4,323.18,70.44,327.12,70.65,328.23Z"/><path class="cls-12" d="M170.8,352.68h0a2.4,2.4,0,0,1-2.39-2.39V324.52a2.39,2.39,0,0,1,2.39-2.39h0a2.4,2.4,0,0,1,2.39,2.39v25.77A2.4,2.4,0,0,1,170.8,352.68Z"/><path class="cls-6" d="M175,329.15c-3.07-4-9.42-2-17.05-6-9.77-5.13-15.72-6.47-20.14-6.11-3.56.29-4.49,2.3-13.93,3.19-4.42.41-8.73,2.73-12.33,4.4h0c-3.62-2.14-7.1,0-8.15,1.1-3.13,3.09-4.64,6.33-3.92,9.94s2.46,8.49,7.69,8.68c3.1.12,7-1.81,9.26-4,3.84-3.74,6.83-2.43,12.53-5.61a76.47,76.47,0,0,0,10.25-7s6.42,2.44,8.65,2.9c3.34.7,10.79.44,13.74,2.51,2,1.38,3.42,5.26,5.32,6.73a3.33,3.33,0,0,0,1.5.7,4.11,4.11,0,0,1,1.93-3.2c.82-.42,2.15-.18,2.85,1.45a5.71,5.71,0,0,0,3.24-1.18C177.77,335.68,176.21,330.74,175,329.15Z"/><path class="cls-6" d="M104.67,374.34s-8.49,9.08-9.39,10.41c-2.5,3.64-2.09,8.07,1.36,12.36s14,12.62,16.37,15,6.64,6,6.17,7.91-2.39,8.5-2.39,8.5,5.73,5.25,9.07,0,5.24-5.73,5.24-5.73S125.86,412.38,124,409s-3.69-9.79-7.4-13.65c-1.6-1.66-5.93-3.9-5.93-3.9l11-6S116.48,367.86,104.67,374.34Z"/><path class="cls-5" d="M111.54,324.66l-5.46,2.94a13.38,13.38,0,0,1,1.08-3.74A5.65,5.65,0,0,1,111.54,324.66Z"/><path class="cls-11" d="M122.5,356.66c9-4.9,10.93-12.28,10.93-12.28l.42.48a12.9,12.9,0,0,1-3.59,7.82C127.44,355.37,122.5,356.66,122.5,356.66Z"/><path class="cls-11" d="M87.68,345.22a4.55,4.55,0,0,1,2.45-.84c.84,0,3.28,1.29,3.59,2.33a1.46,1.46,0,0,1-.52,1.61A19.85,19.85,0,0,1,96.6,350a5,5,0,0,1,1.53,2.61s-1.37-.35-4.62-2.82c-.55-.41-2.3-1.79-2.3-1.79s1-.71.3-1.43-2.57-.37-2.57-.37Z"/><path class="cls-7" d="M118.29,423.28s-2.14,4.85-4.27,8.9c-1.47,2.78-2,5.14-3.71,7.6-1.48,2.11,2,2.9,5.54,2.77a12.06,12.06,0,0,0,5.55-2.22c2.14-1.49,2-2.94,4.15-6.93,1-1.9,3.33-3.89,4.71-5.54a10.44,10.44,0,0,0,1.94-4.58s-1.53-6.37-3.67-5.86c-1.44.35.21,4.69-2,5.24C123.88,423.3,119.87,422.11,118.29,423.28Z"/><path class="cls-11" d="M119.22,422.89c-1.41,2.31-2,4.91-2.81,7.09s1.14,2.66,2.25.39c1.25-2.55,3-7.61,3-7.61S119.71,422.54,119.22,422.89Z"/><path class="cls-12" d="M110,440.9a4.23,4.23,0,0,1,3.65,0c1.8,1,3.45,1,6.09-.22s3.37-4.53,5.58-7.61,4.67-4.89,5.53-6.13c1.13-1.61,1-5,1-5a5.73,5.73,0,0,1,1.12,1.85,5.49,5.49,0,0,1-.75,3.69,9,9,0,0,1-2.91,3.35,18.89,18.89,0,0,0-3.46,3.79c-.69,1.11-1.42,5.17-4.45,7s-6.83,2.61-9.29,1.5S110,440.9,110,440.9Z"/><path class="cls-8" d="M119.91,439.62s-1.58-7,3.58-10.29c6.45-4.16,7.61-9.33,7.61-9.33l.73,2a10.33,10.33,0,0,1-4.08,6.58,29.24,29.24,0,0,0-5.51,4.83C120.92,435,119.91,439.62,119.91,439.62Z"/><path class="cls-7" d="M175.57,402.88A4.56,4.56,0,0,0,176,405c.66,1.59,1.83,3.71.21,5-1.15.94-5.13,3.73-5.13,3.73s0,2.64,0,4.82c0,2.55,0,6.1-.19,7.89s-.75,4.65,1.37,5.6c3.48,1.58,5.94-.63,7.37-3.36s1.24-8.15,1.42-9.77.3-4.76,1.7-7.19c1.94-3.36,1.08-5.1-.14-6.73C181,402.82,178.47,403.47,175.57,402.88Z"/><path class="cls-12" d="M170.94,430.51a4.62,4.62,0,0,1,3.32-.83c1.94.28,3.46.83,4.57-2.08s.69-10.81,1.94-13.72,2.93-6.79,2.93-6.79a3.79,3.79,0,0,1,.15,4c-1.14,2.5-2.53,5-2.25,7.69s.93,10.88-4,12.82S171.41,431.84,170.94,430.51Z"/><path class="cls-8" d="M177.44,425.88s-4.49-7.14-.76-12c4.65-6.1,3.55-10.37,3.55-10.37l1.66.79a9.19,9.19,0,0,1-1.36,7.43,26.36,26.36,0,0,0-3.09,6.34C176.75,420,177.44,425.88,177.44,425.88Z"/><path class="cls-11" d="M171,413.69c-.33,2.68.22,5.29.35,7.61s2.14,2,2.22-.57c.09-2.83-.41-8.56-.41-8.56A8.75,8.75,0,0,0,171,413.69Z"/><path class="cls-11" d="M133.85,352.68s5.28,6,.57,11.16-16.21,14.62-16.21,14.62l1.28,1.93s13.08-10.17,17-15.92c3.43-5.05,1.71-8.79.26-11.5a17.23,17.23,0,0,0-3.75-4.46l-1.15,2.27Z"/><path class="cls-5" d="M98.13,394.55a13.63,13.63,0,0,0,3,3,24,24,0,0,1,2.94,2.49s.34-2.59-.65-4.05S98.13,394.55,98.13,394.55Z"/><path class="cls-8" d="M299.88,248.09a11.88,11.88,0,0,1,.17,1.9,11.27,11.27,0,0,1-20.31,6.74,11.27,11.27,0,1,0,20.14-8.64Z"/><path class="cls-7" d="M288.77,261.27A11.28,11.28,0,0,0,300.05,250a11.88,11.88,0,0,0-.17-1.9,11.28,11.28,0,0,0-20.32,6.74,10.83,10.83,0,0,0,.18,1.9A11.24,11.24,0,0,0,288.77,261.27Z"/><path class="cls-8" d="M238.51,311.79a136.75,136.75,0,0,1-4.89-17.86c-2.49-12.68-5.8-18.55-6.54-23.66-.22-1.51,2.22-3,5.44-5.66,7.07-5.82,19-13.9,22.47-16.24,5.1-3.42,10.59,5.6,10.59,5.6s-8,.46-12.58,4c-5.61,4.29-14.49,14.75-14.49,14.75l9.71,30Z"/><path class="cls-6" d="M260.22,460.91c.52-.68,5.91-7.75,5.91-11.8a11.86,11.86,0,0,1,1.46-6.3,6.74,6.74,0,0,1-.54-3.39c.11-2.19,3.09-12.64,4.21-20.21,1.39-9.35.82-16.17-.76-20-1.59-5.46,0-19.38,0-27,0-1.64,0-26.36,0-26.36s-14.81-19.58-14.43-15.76-10,19.5-10,19.5,4.64,7.29,4,13.83,4.81,25.28,7.5,32.29c3.18,8.28,0,23.89,2.62,38.21,1.18,6.45-2,14.12-3,16.31-.63,1.34-1,4.51-2.37,7.07-.51.95-1.23,2.12-1.91,3.19C254.73,461.34,258.74,462.83,260.22,460.91Z"/><path class="cls-7" d="M260.22,466.45c2.78-.62,2.29-5.52,3.69-10,.7-2.22,5.18-6,5.46-8.67s-1-3.33-1.78-5a11.86,11.86,0,0,0-1.46,6.3c0,4.05-5.39,11.12-5.91,11.8-1.48,1.92-5.49.43-7.32-.39-.45.7-.88,1.36-1.23,1.86C249.43,465.66,255.11,467.6,260.22,466.45Z"/><path class="cls-6" d="M257,334a68.78,68.78,0,0,1,9.72-5.56c3.75-1.5,7.67-14.78,8.33-17,2.33-7.86,6.74-22.11,6.92-25.39.47-8.22-7.32-10-13.48-17.66s-8.59-14.76-14.11-16.63c-1.49-.5-4.75,1.33-6.19.7-2.65-1.15-2.83-4.6-4.55-8.86s-9.48-7.79-8.15-9.79c1.58-2.38,7.82.34,11.61,2.84s10.87,6.09,18.45,14.11c3.21,3.39,23.25,19.77,28.9,28.71,2.73,4.32-.44,18.45-1.44,25.46s-9.79,29.37-11.91,33.56a32.81,32.81,0,0,1-9.67,11.31S253.5,348.83,257,334Z"/><path class="cls-6" d="M263.85,315.8c.63-3.75-3.91-8.52-6.25-11.9h0c-.81,1.17-5.86,1.64-11.27,1.21a16.38,16.38,0,0,1-3.74-.69,22.33,22.33,0,0,1-2.14,3c-7.8,9.3-9,12.57-7.18,20.58,1.24,5.42.2,6.83,5.24,14.91A69.56,69.56,0,0,0,249.56,356L260,340.33s-4.92-1.26-2.82-6.28S263.1,320.32,263.85,315.8Z"/><path class="cls-5" d="M257.6,303.9h0a11.06,11.06,0,0,1-1.11-1.9c-1.33-3.25,0-8.07,0-8.07l-11.71,2.44s.65,3.31-2.19,8.05a16.38,16.38,0,0,0,3.74.69C251.74,305.54,256.79,305.07,257.6,303.9Z"/><path class="cls-6" d="M241.07,279.93c-4.65,4.84-2.78,21.58,4.07,22.68,4.43.71,10.66-3.23,12.91-11C259.93,285.13,249.88,270.77,241.07,279.93Z"/><path class="cls-9" d="M260.67,276.76c0,3.59-2.54,6.5-5.68,6.5s-5.68-2.91-5.68-6.5,2.54-6.49,5.68-6.49S260.67,273.17,260.67,276.76Z"/><path class="cls-9" d="M238.93,283.94a24.36,24.36,0,0,0,13,1.92c1,1,1.3,2.48,1.86,4,3.8-2.43,4.22,1.8,2.09,4.1-.61,1.05.22,2.65.22,2.65a14.21,14.21,0,0,0,3.95-11.47c-.92-6.87-6.85-12.55-16.47-8.13C239.8,278.73,238.93,283.94,238.93,283.94Z"/><path class="cls-6" d="M255,307s6.27-1.16,9.76-8.38,11-15.2,15.57-19.51,15.6-14.22,15.6-14.22,3-5.69,0-10.72-3.35-13.59,1.34-9.56,8.22,7.8,6.71,14.72-3.52,12.45-6.54,14.46-10.57,11.5-12.08,12.55-23.95,36.33-23.95,36.33S253.59,317.82,255,307Z"/><path class="cls-5" d="M254.81,321s1.24-4.76,3.65-5.55,3.08-1.89,3.23-1.15c.5,2.48-1.6,2.48-3.23,5.57C257.59,321.51,254.88,325.23,254.81,321Z"/><path class="cls-5" d="M272.21,343.07s3.68-.63,5.47-3.37,6.35-8,6.35-8-2.77,9.49-7.75,14-5.93,5.19-5.93,5.19l-1.83-4.67Z"/><path class="cls-8" d="M242.59,346.82s3.75,8.63,3.47,12.36-3.47,6.74-3.47,6.74,7,0,8.73-4.21S248.47,345.42,242.59,346.82Z"/><path class="cls-7" d="M249.31,361.12a36.87,36.87,0,0,1-1.75,9.12,17.09,17.09,0,0,0,6.37-4.32c1.06,3.11,5.27,5.37,5.27,5.37a38.46,38.46,0,0,1-.37-8.64,29.14,29.14,0,0,0,5.08,3.77s1.67-7.29,1.67-10.41c1.31.91,5.62,3.43,5.62,3.43s.64-6.47.16-8.54a5.59,5.59,0,0,0,3.43,0s-1.22-4.19-4.29-6a29.34,29.34,0,0,0,5.11-2.11s-2.95-3.75-5.11-4.6c1.74-2.42,2.59-4.24,2.58-5.86,0-2.26-2.58-8.59-2.58-8.59a12.37,12.37,0,0,0-4.92,5.23c-3.17-.71-4.93,1.84-6.18,3.36-1.74-1.11,3.38-11.82,3.38-11.82s-6.45,5.24-8.91-3c-1.57-5.26,1.11-10.48-.22-12.68-5.43,2.37-11.36,0-11.36,0s-2.31,2.93-7.17,8.9-2.89,17.95,1.42,25.84C242.59,350.61,249.82,355.19,249.31,361.12Z"/><path class="cls-8" d="M241,305.82s5.05,2.17,8.31,1.69a41.25,41.25,0,0,0,9-2.66L256.49,302s-5.22,2.83-7.18,2.83c-2.34,0-6.42-1.67-6.42-1.67Z"/><path class="cls-8" d="M259.4,332.29a11,11,0,0,1,2.45,7.79c-.42,4.64-3.57,10.82-3.57,10.82s5.73-4.92,5.63-11.1-2.81-9.45-2.81-9.45Z"/><path class="cls-8" d="M259.4,332.29s.2,5.86-2.32,8.92a22.39,22.39,0,0,1-5.41,4.49s4.2.27,6.61-2.84C261.85,338.26,259.4,332.29,259.4,332.29Z"/><path class="cls-5" d="M257.17,243.2s.77,4.35,1.11,6.67,1.93.84,1.93.84-.22,3,.46,4,1.95-2.31,1.95-2.31-.24,2.53.91,2.51c.65,0,.39-.67,1-1.54.7,1.12,1.43,1,2-.14,1-2.08.43-3.7-.35-6.88C265.56,244,262.09,240.88,257.17,243.2Z"/><path class="cls-11" d="M253,257.94a32.11,32.11,0,0,1-9.32,1.56,14.65,14.65,0,0,0-8.31,2.84l-1,.8a20.59,20.59,0,0,1,9-1.58,13.48,13.48,0,0,0,7.87-2.09Z"/><path class="cls-11" d="M248.62,261.83a25.41,25.41,0,0,1-8.27,1.31c-5.37,0-8.18,1.76-8.18,1.76l-1.52,1.21a14.88,14.88,0,0,1,9-1.31,11.4,11.4,0,0,0,7.17-1.13Z"/><path class="cls-11" d="M261.67,322.93s-4.07,6.82-10,8.55c-5.41,1.59-8.44.26-10.67-4a33.12,33.12,0,0,1-2.49-8.26,17.16,17.16,0,0,0,1.21,9.48c1.93,4.48,6.34,6.79,12.27,4.65a18.5,18.5,0,0,0,7.77-5.5Z"/><path class="cls-11" d="M239.26,314s.88,4.06,1.6,9.85c.51,4.11,5.06,5.25,5.06,5.25a10.2,10.2,0,0,1-4.33-8.1C241.27,315.72,239.26,314,239.26,314Z"/><path class="cls-11" d="M237.73,310.47a10.62,10.62,0,0,1,3.73,4.89,53.35,53.35,0,0,1,1.73,6.37,19,19,0,0,0-1.1-8,12.93,12.93,0,0,0-3.16-4.71Z"/><path class="cls-11" d="M241.7,335.66s4.63,1.26,7.94.35a21.92,21.92,0,0,0,7.08-3.72,10.63,10.63,0,0,1-6.24,5.34C245.63,339,241.7,335.66,241.7,335.66Z"/><path class="cls-11" d="M257.6,334.21a16.81,16.81,0,0,1-4.53,4.79,30,30,0,0,1-6.74,2.77s4.37.68,7.6-1.41A9.12,9.12,0,0,0,257.6,334.21Z"/><path class="cls-5" d="M282,286a13.79,13.79,0,0,0-3.43,2.9,10.16,10.16,0,0,0-1.1,3.82,21,21,0,0,1,2.63-3.36C282.15,287.1,282,286,282,286Z"/><path class="cls-7" d="M278.63,280.74a16.67,16.67,0,0,0,6.79,1.3,15.61,15.61,0,0,0,5-1.22s6.19-5.81,8.81-8.36c2-1.9,3.53-8.49,3.53-8.49a16.09,16.09,0,0,0-5.3,3.2c-4.32,3.59-7.09,2.66-7.09,2.66Z"/><path class="cls-11" d="M280.31,279.1a19.64,19.64,0,0,0,7.09,0,19.41,19.41,0,0,0,7.08-2.85s-5.88,1.22-7.85,1.5a15.35,15.35,0,0,1-4.47-.28Z"/><path class="cls-11" d="M283.77,276a45.62,45.62,0,0,0,8.81-.93,47.43,47.43,0,0,0,6.69-2.58,6,6,0,0,0,1.14-1.66,43.53,43.53,0,0,1-5.88,2.21,40.2,40.2,0,0,1-9.08,1.37Z"/><path class="cls-5" d="M375.07,304s-5.62,13.1-5.34,17.62,6.94,4.8,11.2,4.1,35.56-4.58,35.56-4.58l5.46-3.25L420.73,305Z"/><path class="cls-7" d="M416.49,321.13s3.72,1.78,4.42,4.87c.46,2,.82,4.34,3.47,4.76s4.08-4.46,3.9-9.63,3.71-9.45,1.2-12.39c-1.77-2.07-8.75-3.77-8.75-3.77s.64,8-1.08,10.73C418.9,316.9,416.49,321.13,416.49,321.13Z"/><path class="cls-6" d="M392.48,305a88.88,88.88,0,0,0-7.84,10.73c-4.52,7.06-7.89,20-10.13,26.15S362.44,371,362.44,371l7.85,5.09s11-14.06,16.25-25.42c5.12-11.05,5.06-16.54,7.91-19.87s19.24-18.38,19.24-18.38S406.5,295.67,392.48,305Z"/><path class="cls-12" d="M390.72,274.35s-7.45,9.87-9.79,12.92-11.2,19.93-11.2,19.93,2.53,4.19,4.22,5.45,10.69,3.05,10.69,3.05L392.48,305s7.49-3.89,12.59,0,12.09,10.73,12.09,10.73,9.86-7,9.41-18.2c-.24-5.92-.39-12.58-.39-12.58Z"/><path class="cls-5" d="M347.67,265.62s-7.22,5.79-10,7.48-2,4.73.64,7.48c1.54,1.6,3.23,1.27,4.68.55.52-.26,1-1.2-1.17-2.08-1.17-.48.66-3.4,1-3.61,1.69-1.09,3.92-.87,3,0-3,2.67-2.07,3.81-1.54,3.61,1.25-.49,5.44-2,5.62-2.77.28-1.23,2.24-3.41,2.24-3.41Z"/><path class="cls-7" d="M397.38,224.93s-7.12-1.51-12.74,6.8c-1.14,1.69-14.63,14.91-18,17s-3.93,6.43-5.05,8.2-4.64.29-5.62,1.35c-3.37,3.68-11.79,10-11.79,10l7.86,4.53s10.09-1.69,15.17-4.55c11.23-6.33,23-20.71,23-20.71s3.46,12.64,3,14.3-2.86,5.85-4.27,8.29c-2.38,4.15-.11,6.62-.11,6.62l-2,2.61S395,288.2,399,290c9.8,4.28,27.61-1.5,27.61-1.5s1.4-12.85-.4-24.31c-.48-3.06-1.76-12.29-1.76-12.29s8-.78,12.61,2.45c2.24,1.57,6.31,1.36,8.34,4.15,1.87,2.59,4.82-1.5,5.24.48.48,2.26,2.56,4.58,4.21,6.68,1,1.21,5.75,11.2,5.75,11.2l10.36-1.62s-2.93-15.31-8.31-20.1c-1.23-1.09-1.76-4.23-3.8-6.34-.83-.87-2.88-.37-3.83-1.37-1.43-1.51-.21-3.23-1.22-4-2.18-1.73-6.28-1.81-9.23-3.32-8.81-4.53-10.22-8.31-18-11.87-4.85-2.23-20.21-6.9-20.21-6.9Z"/><path class="cls-5" d="M399.68,229.29s.82,8.61,1.55,9c3.53,1.91,10.64-2.71,13.87-9-4.41-4.39-8.73-8-8.73-8Z"/><path class="cls-6" d="M411,209.14c-3-3.45-13.57-6.19-18.15,2.13-1,1.83-1,5.4-1.14,7.44-.5,7.65,4.33,15.53,8.12,14.55,2.68-.68,8.58-3.73,10.87-8.36C413.26,219.68,415,213.63,411,209.14Z"/><path class="cls-9" d="M392.84,211.27a7,7,0,0,0,4.88,4.56c4,.84,9.29-1.64,9.29-1.64s1.9,3,1.61,4.38c2.36-.68,3.49,2.7,3.49,2.7s2.72-3.19,1.55-8.59c-.54-2.49-1.58-6.07-5.17-7.45a39.07,39.07,0,0,0-4.22-1.12,9.83,9.83,0,0,1-4.59-2.67,7.53,7.53,0,0,0-.32,3.3,27,27,0,0,1-3.58-3,10.09,10.09,0,0,0-.42,4.07,5.84,5.84,0,0,0-2.9-.89S392.25,209.66,392.84,211.27Z"/><path class="cls-7" d="M356.71,365.77s3.9-3,7.31-2.68,5.91,3.06,7,6.64,1.65,11.37-4.19,16.45C363.61,389,356.71,365.77,356.71,365.77Z"/><path class="cls-12" d="M355.83,378.12s-4-10.94,2.11-13,10.76,4.49,11.79,7.88c2.11,6.9-2.1,9.62-2.52,12.07s-2.53,3.19-6.74,1S357.07,384.21,355.83,378.12Z"/><path class="cls-12" d="M422,329.69s3-.61,3.39-2.51c.22-1-.85-7.86,0-9.3s4.25-3.63,4.34-5.59a16.64,16.64,0,0,0-.2-3.55s4.07,1.59,1.54,6.26c-1.2,2.21-2.74,5.13-2.74,6.13s1.24,8.79-1.69,11.11S422,329.69,422,329.69Z"/><path class="cls-11" d="M395.84,250.59v5.81s6.75.09,9.28,1.91,10,4,10,4v-5.85s-6.19-3.58-9.63-4.58A54.84,54.84,0,0,0,395.84,250.59Z"/><path class="cls-11" d="M430.33,235.51l-3.43,6.37s6,2.25,8.83,3.37a33.73,33.73,0,0,1,4.21,2l2.53-5.86S434.48,235.87,430.33,235.51Z"/><path class="cls-8" d="M388.85,276.82s4.33,4,7.28,7.33,5.13,4.63,10.46,4.14,13.55-1.83,13.55-1.83a16.62,16.62,0,0,0-6.45-1.82c-4.14-.42-9.56,1.61-11.17.63s-7.51-6.88-10-7.65A14.67,14.67,0,0,0,388.85,276.82Z"/><path class="cls-8" d="M397.75,276.82s2.71,4.23,5.12,4.94c9.27,2.74,16.64-2.88,16.64-2.88a51.19,51.19,0,0,0-8.28.21C404.2,280.28,401,276,397.75,276.82Z"/><path class="cls-8" d="M347.67,265.62s3.81,2.2,4.93,3.55a36.54,36.54,0,0,1,2.27,3.15l1.43-.32a13.16,13.16,0,0,0-2.71-4.7,39.81,39.81,0,0,0-4.1-3.15Z"/><path class="cls-8" d="M390.21,247.61s.12-3.06,0-4.46.06-4.43.06-4.43-3.83,3.16-4.67,5.41,1.07,7.52,1.07,7.52Z"/><path class="cls-8" d="M424.42,251.86l-1-8s-3.27,3-3.9,4.63a7.69,7.69,0,0,0,5.75,9.38C424.92,255.1,424.42,251.86,424.42,251.86Z"/><path class="cls-5" d="M386.58,326c-1.68,1.53-3.65,6.86-3.65,6.86s2.81-2.52,3.65-3.36S386.58,326,386.58,326Z"/><path class="cls-11" d="M422.26,289.65c-.1,0,.52,7.27-.31,9.52S411,310,411,310l1.19,1.08s6.65-4.82,9.74-8.89,2.68-5.8,2.68-8.47V289Z"/><path class="cls-11" d="M407.39,303.38l3.63,3.51s2.54-2.38,4.08-4.07,2.74-2.78,2.74-2.78l-3.47-2.49Z"/><path class="cls-12" d="M344.74,338.53a13.45,13.45,0,0,1,.2,2.21,13.11,13.11,0,0,1-23.62,7.83,13.11,13.11,0,1,0,23.42-10Z"/><path class="cls-11" d="M331.82,353.85a13.11,13.11,0,0,0,13.12-13.11,13.45,13.45,0,0,0-.2-2.21,13.11,13.11,0,0,0-23.62,7.84,13.23,13.23,0,0,0,.2,2.2A13.1,13.1,0,0,0,331.82,353.85Z"/><path class="cls-12" d="M344.94,347.19c-.59-2.55-1.32-8.66-5.11-10.65s-6.53,6.06-7.59,9.83,0,10.44,0,10.44L327.4,355a19.45,19.45,0,0,1,3.79-14.71c3.15-4,6.34-7.06,8.53-5.77s7,8,7,8Z"/><path class="cls-12" d="M322.07,341.48a25.89,25.89,0,0,0,6.8-4,28.42,28.42,0,0,0,4.16-4.19,11.77,11.77,0,0,0-5.85,2C322.84,338.53,322.07,341.48,322.07,341.48Z"/><path class="cls-12" d="M379.72,407s.51,4.46,6.57,8.39c3.95-3.93,3.49-13,3.49-13Z"/><path class="cls-6" d="M382.13,390.79S368.41,402,365.93,404.2c-3.47,3.11-3.24,6.65-1.39,10.18,1.68,3.19,4.76,9.58,7.33,14.65s6.41,15.62,6.41,15.62.22.81,4.2,1.08c2.2.14,4.49-2.81,4.49-2.81s-3.55-15.88-3.89-19.18c-.6-5.86-5.61-10.44-5.61-10.44l15.26-7.83S385.28,391.62,382.13,390.79Z"/><path class="cls-4" d="M376.29,443.72a5.48,5.48,0,0,0-1.15-.05c-1.31,1.37-3.41,3.51-5.41,5.37-2.23,2.09-3.48,4.09-5.83,5.79-2,1.47.89,3.3,4.2,4.32a11.63,11.63,0,0,0,5.79-.27c2.4-.66,2.81-2,5.86-4.86,0-1.24,0-2.5,0-3.66A7.77,7.77,0,0,0,376.29,443.72Z"/><path class="cls-10" d="M386,450.27a10.19,10.19,0,0,0,3.24-3.58s-.21-6.34-2.33-6.55c-1.43-.14-.47,4.38-2.68,4.16-2.63-.25-5.93-2.62-7.76-2.06,0,0-.52.57-1.35,1.43a5.48,5.48,0,0,1,1.15.05,7.77,7.77,0,0,1,3.43,6.64c0,1.16,0,2.42,0,3.66l.17-.17C381.45,452.43,384.22,451.34,386,450.27Z"/><path class="cls-11" d="M377.47,448a17.14,17.14,0,0,1,0,5.65,12.92,12.92,0,0,1-1.58,4.26l2.69-2.72S379.79,449.79,377.47,448Z"/><path class="cls-11" d="M379.75,445.37a13.93,13.93,0,0,1,1.52,7.16c-.27,4,1.8-1,1.8-1S382.63,446.4,379.75,445.37Z"/><path class="cls-11" d="M377.47,442.18c-2,1.68-3.38,3.88-4.84,5.61s.19,2.81,1.94,1.08c2-1.94,5.15-6,5.15-6S378,442,377.47,442.18Z"/><path class="cls-12" d="M363.24,455.76a4.11,4.11,0,0,1,3.35,1.16c1.35,1.46,2.85,2,5.67,1.76s4.54-3.08,7.55-5.2,5.85-3,7-3.86c1.55-1.13,2.24-5,2.24-5a9.8,9.8,0,0,1,.69,2.8,5.37,5.37,0,0,1-1.86,3.15,8.86,8.86,0,0,1-3.74,2.14,18.28,18.28,0,0,0-4.39,2.37c-1,.79-3,4.29-6.31,5s-7.09.22-9-1.59S363.24,455.76,363.24,455.76Z"/><path class="cls-5" d="M365.38,410.38a16.4,16.4,0,0,1,2.83,3.59l.61,1.41S366.45,414.62,365.38,410.38Z"/><path class="cls-12" d="M395.58,415.38s1.45,7.63,8.32,9.39a26.84,26.84,0,0,0,12.91,0S412.29,405.18,395.58,415.38Z"/><path class="cls-6" d="M398.33,413.25s2-6.24,11.13-4.74,7.88,3.81,7.88,3.81-4.84,10.73-5.65,14,4.47,7.71,4.67,14.42c.09,3.09-.1,20.59-.1,20.59h-8.21s-2.5-9.44-3.95-15.2c-2.11-8.35-4.87-11.65-7.17-18.1C395.72,424.65,398.33,415.53,398.33,413.25Z"/><path class="cls-5" d="M399.48,428.34c1.19.67,3.61,1.7,4,3.51l.4,1.81s-2.9-2.06-3.94-3A2.12,2.12,0,0,1,399.48,428.34Z"/><path class="cls-12" d="M393.58,381.34,373.21,397s7.4,3,9.86,7.58a36.24,36.24,0,0,1,3.22,10.81s12.92-8.39,19.45-13.84c4.83,1.22,19.5,4.32,22.56.81,3.95-4.54,2-15.45.4-21.18Z"/><path class="cls-12" d="M395.58,415.38s6.05-1.21,10.39,0,9.64,5.55,10.84,9.39c3.33-2.11,7.09-9.37,8.26-11.89,4.84-10.53,5.58-17.62,5.56-17.8s-28.86,3-29.69,3.2c-.63.15-3.35,9.76-4.66,14.51C395.85,414.35,395.58,415.38,395.58,415.38Z"/><path class="cls-5" d="M390.07,335.56s-5.69,9-5.31,11.65,9.06,6.61,9.06,6.61,5.72,2.28,10.05-1.53,2.91-16.73,2.91-16.73l-10-6.77Z"/><path class="cls-11" d="M387.59,341.6s-.67,7,2.43,8.55,9.57-5.93,12.58-8.55.43-8.25.43-8.25l-6.3-2.36s.06-2.86,1.54-3.37,15.06,5.34,19.07,9.63l4,4.28s2.37,25.34,5.29,30.93a46.28,46.28,0,0,1,4,12.37s-19.94,14.78-30.75,9.21-12.33-10.18-12.33-10.18l4.19-5.12s-5.43-3.2-1.92-4.67,7.55-4.61,4-5.86S380.91,352,380.88,347.59s0-15.16,0-15.16l7,6.86Z"/><path class="cls-6" d="M398.68,319.7c-2.91-3.31-13-5.93-17.4,2.05-1,1.76-1,5.18-1.1,7.13-.48,7.34,4.16,14.89,7.79,14,2.57-.66,8.23-3.58,10.42-8C400.86,329.82,402.48,324,398.68,319.7Z"/><path class="cls-9" d="M381.8,321a6.72,6.72,0,0,0,4.68,4.37c3.8.81,8.9-1.57,8.9-1.57s1.82,2.84,1.55,4.2c2.26-.65,3.34,2.59,3.34,2.59a9.88,9.88,0,0,0,1.49-8.24c-.51-2.39-1.52-5.82-5-7.14a36.09,36.09,0,0,0-4-1.08,9.39,9.39,0,0,1-4.4-2.55,7,7,0,0,0-.31,3.16,26.87,26.87,0,0,1-3.44-2.89,9.54,9.54,0,0,0-.4,3.89,5.61,5.61,0,0,0-2.78-.85S381.23,319.41,381.8,321Z"/><path class="cls-6" d="M414.25,337.93c-2.87,1-7,6.07-8.06,10-.85,3.07,3.57,12.34,6.06,13.84s11.69,0,11.69,0,9.74,9.91,15.47,10.83c8.34,1.35,16.69,12.24,16.69,12.24l8.62-1.84s-8.62-17.4-18.83-22.11c-7.33-3.39-11.6-15-19.95-15C424,343.19,421.34,335.41,414.25,337.93Z"/><path class="cls-17" d="M393.58,381.34S395,385.58,402,388s19.19-3.18,19.19-3.18-9.17,1.47-15.49,0S393.58,381.34,393.58,381.34Z"/><path class="cls-17" d="M393.58,374.48s11.18,4.84,18.71,4.24a19,19,0,0,0,11.77-5.25s-7.35,1-12.76,1.41S393.58,374.48,393.58,374.48Z"/><path class="cls-12" d="M379.64,375.19l7.13-2.24c2.57-.8,7.24-9.48,7.24-9.48L398.87,379s-8.83-4.93-11.5-4.1l-7.13,2.24Z"/><rect class="cls-13" x="361.93" y="376.31" width="22.22" height="4.5" transform="translate(-96.14 128.89) rotate(-17.4)"/><path class="cls-12" d="M430.91,360.52c-2.5-8-12.92-11.83-23.26-8.59S391,364.27,393.47,372.26s12.91,11.84,23.25,8.6S433.41,368.51,430.91,360.52Zm-14.92,18c-8.68,2.72-17.42-.51-19.52-7.22s3.23-14.35,11.91-17.07,17.43.51,19.53,7.22S424.68,375.82,416,378.54Z"/><path class="cls-12" d="M401.85,380.22l-6.09-19.42a5.79,5.79,0,0,0-.36.64L401.21,380Z"/><path class="cls-12" d="M404.7,380.73l.25-.07-7-22.23-.45.37,6.87,21.91Z"/><path class="cls-12" d="M408.39,380.83l-7.6-24.26-.48.28,7.49,23.9Z"/><path class="cls-12" d="M411.39,381l-8.07-25.78-.49.27,8,25.61A2.77,2.77,0,0,0,411.39,381Z"/><rect class="cls-12" x="409.86" y="352.85" width="0.54" height="28.33" transform="translate(-91 139.46) rotate(-17.4)"/><rect class="cls-12" x="412.56" y="352.01" width="0.54" height="28.33" transform="translate(-90.62 140.23) rotate(-17.4)"/><rect class="cls-12" x="415.64" y="351.04" width="0.54" height="28.33" transform="translate(-90.2 141.13) rotate(-17.41)"/><path class="cls-12" d="M422.65,377.14l.19-.16-7.84-25a3.71,3.71,0,0,1-.58,0l8,25.45C422.49,377.29,422.56,377.21,422.65,377.14Z"/><path class="cls-12" d="M425.5,374.66l-7.07-22.57-.62-.17,7.26,23.15C425.22,374.94,425.36,374.8,425.5,374.66Z"/><path class="cls-12" d="M427.7,372.2l-5.94-18.94c-.17-.07-.33-.15-.51-.21l-.13-.05,6.19,19.77A6.42,6.42,0,0,0,427.7,372.2Z"/><rect class="cls-12" x="410.91" y="350.05" width="0.54" height="36.24" transform="translate(182.83 870.64) rotate(-107.4)"/><rect class="cls-12" x="410.06" y="347.35" width="0.54" height="36.24" transform="translate(184.31 866.33) rotate(-107.4)"/><path class="cls-12" d="M392.53,367.88l-.37.22.13.42,34.59-10.84-.17-.51Z"/><path class="cls-12" d="M424.69,354.84l-30.24,9.48c-.06.21-.12.41-.19.62l31-9.72Z"/><path class="cls-12" d="M421.42,353.12l-25.93,8.13a6.53,6.53,0,0,0-.31.66l27-8.47C422,353.33,421.69,353.21,421.42,353.12Z"/><path class="cls-12" d="M416.39,351.74l-15.83,5c-.61.35-1.2.72-1.77,1.12l18.89-5.92A5.11,5.11,0,0,0,416.39,351.74Z"/><path class="cls-12" d="M397.93,378l.55.39L429,368.79l.15-.58,0,0Z"/><path class="cls-12" d="M395,375.93c.21.12.41.25.61.38l33.8-10.6-.16-.51Z"/><path class="cls-12" d="M408.27,380.81l1.2.19,13.69-4.29c.36-.3.71-.59,1.06-.9Z"/><path class="cls-12" d="M401.32,380a7.42,7.42,0,0,0,.83.3l25.44-8a5.82,5.82,0,0,0,.44-.7Z"/><path class="cls-5" d="M380.23,328a22.56,22.56,0,0,0-7.58,7.3c-6.69,3.11-12.48,8.77-15.38,12.29-2.49,3,.13,11.72,1.54,22.1.92,6.78,4,8.1,5.45,9.72s7.64,3.43,9.13,3.56c4.58.37,7.24-5.12,4.76-8.24s-9.21-2.7-11-5.12c-2.7-3.56.6-13.9-1.72-17.78,4.15-2.74,10.68-5.42,15.48-7.1a44.61,44.61,0,0,0,.13-9.35C380.15,333.27,380.3,330.55,380.23,328Z"/><path class="cls-11" d="M380.15,325.6s5.3,3.1,10.39,3.19c6,.09,9.91-1.5,11.31-4.18.54-1.05-.61-4.28-.61-4.28s-7.22,5.77-12.73,4.28S381.8,321,381.8,321,380.11,322.31,380.15,325.6Z"/><path class="cls-14" d="M352,425.88s-14.81-3.89-19.56-4.26a38.89,38.89,0,0,0-9.16,1.12c1.19,1.87,2.91,5.93.45,11.51.51-.13,1-.24,1.46-.31,6.55-1,19.28-1.66,23.66-.22,2.63.87,5.19-2.14,5.26-4.68C354.17,427.36,352,425.88,352,425.88Z"/><path class="cls-12" d="M323.3,422.74c-3.7.78-6.89,1.66-6.89,1.66l-11.12,2.74s.42,8.13,4.44,9.59c3.58,1.3,9.71-1.42,14-2.48C326.21,428.67,324.49,424.61,323.3,422.74Z"/><path class="cls-14" d="M300.14,342.26a11,11,0,0,0-7.71,4.75c-2.38,4-2.28,6.58-2.38,10.37-.07,2.67-.23,9-5.18,11.52-2.47,1.25-17.06,13.26-17.06,13.26l4.39,5.1s13.84-6.58,16.65-7.82c4-1.79,7.32-6.42,8.43-8.7,2.36-4.89,6.08-16.12,6.08-16.12Z"/><path class="cls-14" d="M302.92,349.32s-2.26,8.31-1.87,11.09,5.78,7.95,5.78,7.95,6,2.39,10.48-1.59,3-17.45,3-17.45L310,342.26Z"/><path class="cls-16" d="M298.46,407.81a64.15,64.15,0,0,1,3.1-12.44c4.14-2.12,5.36,5.05,5.36,5.05Z"/><path class="cls-16" d="M323.64,408a25.84,25.84,0,0,0,1.57,13.64s-4.64,5-9.54,9.21c-5.71,4.94-13.32-3.15-13.32-3.15S316.9,405.72,323.64,408Z"/><path class="cls-12" d="M324.56,419.88s-3.26,2.32-4.92,3.73c-1.45,1.23-3.09,4.24-5.13,4.74a24.41,24.41,0,0,1-5.9.13l1.12-2.43s3.16.74,4.55.24,2.88-2.84,5.16-4.7a49.33,49.33,0,0,1,4.67-3.32Z"/><path class="cls-13" d="M319.57,349.07s-8.48,18.69-13.88,14.5-3.24-9.49-3.24-9.49l-3.77-5a100.47,100.47,0,0,0,0,13c.49,5.95,5.2,19.72,3.49,22.19-3.72,5.37.63,6.36.63,6.36L300,396s12,9.46,19.67,7.06c10.19-3.18,14.71-3.69,14.71-3.69s0-4.77-1.89-7.75c.89-8.94.94-22.5-.89-30a23.54,23.54,0,0,0-7.93-12.28,60.78,60.78,0,0,0-14.1-7.06l1.12,3Z"/><path class="cls-12" d="M300.78,353.76a21.7,21.7,0,0,0-.55,5.59c.27,2,1.77,6.49,5.06,8.22s6.77-.68,8.61-3.39,5.94-11.05,7.4-12.38a20.25,20.25,0,0,0,2.34-2.48l-1.12-.77a15.22,15.22,0,0,0-3.08,3.12c-1.32,1.85-4.93,10-7.08,12.25-1.84,2-4.52,4.71-7.19,2.19s-4.26-5-4.08-7.55.53-4.81.53-4.81Z"/><path class="cls-15" d="M308.3,328.91c-3.7-2.82-12.47-3.72-15.67,5.34-3.36,9.49,5.24,21.36,9.82,19.34,2.57-1.13,8-5.14,9.48-10.14C313.64,337.82,311.17,331.1,308.3,328.91Z"/><path class="cls-9" d="M307.34,342.45s1.7-3.54,3.3-2.51c1.18.77,1.29,3.51,1.29,3.51a13.31,13.31,0,0,0,1.65-9.85c-.79-3.54-5.2-9.63-11.4-8.93-8,.91-11.22,8.34-10.31,12.62,1-3.1,4-4,7.87-3A10.38,10.38,0,0,1,307.34,342.45Z"/><path class="cls-15" d="M324.55,353.2c-5.83,1.69-6.41,9.75-5.95,12.78.39,2.61,1.45,6,3.07,7.55s7.91-.49,8.52-4.46S330.57,351.47,324.55,353.2Z"/><path class="cls-15" d="M335.42,355.81c5.29,3.81,11.88,4.28,15.2,6.79,3.69,2.78,6.51,4.53,5.61,6.47-1.59,3.46-2.06,7.49-4.11,11.26a51.52,51.52,0,0,0-4.42,10.09c-.56,1.68,1.36,4.77,1.36,8.21,0,3.12-2.39,9.25-4.38,11.86-1.38,1.81-3.89-2-3.33-4.69s-.37-9.15-.37-9.15a13.06,13.06,0,0,0-3.67,2.32c-1.42,1.26-2.37.19-.52-1.94,1.48-1.7,4.31-5.07,5.16-7.42.72-2,1-7.13.92-9.28-.36-6.25,3.12-8.82,3.12-8.76s-6.08,1.28-10.61-.31c-2.28-.81-9.58-1.25-9.58-1.25l-2.5-16.19S327.71,350.26,335.42,355.81Z"/><path class="cls-15" d="M317.62,417.66l-24.3-1.42a32.82,32.82,0,0,1-1.93,5.76,41.05,41.05,0,0,0-2.34,8,19.8,19.8,0,0,0,4.46,4.05c1.59,1,5.91,1.37,7.86,1.49C306.82,428.17,317.62,417.66,317.62,417.66Z"/><path class="cls-15" d="M289.63,449.84c-3.2-.65-5-4.45-5.77-6.53a43.2,43.2,0,0,0-2.3,9.84c-.43,4.4-4.18,18.76-5.66,20.69s7.25,2.74,7.25,2.74,5.27-12.67,9.21-17.38c2-2.43,3.1-5.74,3.91-9.18A17,17,0,0,1,289.63,449.84Z"/><path class="cls-14" d="M291.22,449.84,289.05,458a8.84,8.84,0,0,0,3.57-4.77c.7-3,1.19-3.38,1.19-3.38Z"/><path class="cls-12" d="M289.05,430c-.65,3-1.19,5.64-2.06,6.74a26.8,26.8,0,0,0-3.13,6.58c.77,2.08,2.57,5.88,5.77,6.53a17,17,0,0,0,6.64.18c.77-3.26,1.31-6.63,2.19-9.53a19.36,19.36,0,0,1,2.91-5c-1.95-.12-6.27-.5-7.86-1.49A19.8,19.8,0,0,1,289.05,430Z"/><path class="cls-13" d="M305.29,389.38s-3.94,14.75-4.28,15.12c-5.51,6.08-13.63,15-14,15.62,4.14,4.64,1.87,4.71,6.11,8.08,8.22,6.54,17.69,1.5,17.69,1.5s1.25-5.35,6.83-12,12.2-7.8,14-13.92c2-6.76,0-17.49,0-17.49Z"/><path class="cls-16" d="M304.87,384.46s7.53,1.92,12.21.4,10.05-7.42,10.05-7.42-5.1,2.58-7.49,3.64S308.38,384.19,304.87,384.46Z"/><path class="cls-16" d="M302.81,390.62a23.85,23.85,0,0,0,9.94,4.36c6,1.14,15.17-2.64,15.17-2.64s-.66-2-2-2.38-11.16-.4-12.6-.27S305.58,390.55,302.81,390.62Z"/><path class="cls-16" d="M301.85,397.35a79.83,79.83,0,0,0,10.64,4.8c4.37,1.39,10.4-.3,13.58-1.09s6.24-1.35,6.24-1.35a17.06,17.06,0,0,1-.72,4,23.62,23.62,0,0,0-7,0c-2.33.39-8.62,1.3-11.67.33C302.94,400.91,301.85,397.35,301.85,397.35Z"/><path class="cls-12" d="M347.7,433.77a24.16,24.16,0,0,0,3.54,4.15c2.89,2.38,3.11,9,4.44,11s4.3.93,4.3.93A17.51,17.51,0,0,0,361,435.53c-.89-2.39.42-6-.19-7.61a13.05,13.05,0,0,0-2.45-4.06s-7.76-.18-8.28,1.7c-.21.71,2.16,1.64,2.5,2.93a1.42,1.42,0,0,1-.5,1.42A39.54,39.54,0,0,1,347.7,433.77Z"/><path class="cls-13" d="M357.07,423.79a27.32,27.32,0,0,1,2.15,3.66c.55,1.25.23,3.69.43,5.7a41.71,41.71,0,0,0,1.46,6.36c.23,1,.07,5.43-1.19,7.55-.56.94-3.91.79-4.24,1.85s1.91,1.33,3.51,1.35c2.52,0,4.12-5.85,3.45-10.35s-2-5.75-1.51-7.48,1.79-3.16.32-5.79S360.13,423.73,357.07,423.79Z"/><path class="cls-11" d="M350.62,437.36a9.43,9.43,0,0,1,2.14-2.09c1.06-.83,2.46.1,1.37,1-1.33,1.1-2.58,1.95-2.58,1.95Z"/><path class="cls-11" d="M352.38,439.27s1.62-.89,2.52-1.42,2,.66.75,1.42-2.55,1.4-2.55,1.4Z"/><path class="cls-11" d="M353.6,442s1.79-1,2.63-1.36,1.7.77.51,1.36-2.76,1.29-2.76,1.29Z"/><path class="cls-13" d="M349,435.53s-2.42-1-2.83-1.69-.23-2,1.53-2.57,4.42-1.36,4.42-1.36S351.74,433.94,349,435.53Z"/><path class="cls-12" d="M289.05,417.75s2,2.94,4.23,6.65c1.87,3.18,6.48,4.17,9.41,3.62a66.1,66.1,0,0,1,8.87-.53l.95-2.13s-7.77.94-10.16.52-6.34,0-8.28-3.14c-2.21-3.54-3.67-6.5-3.67-6.5Z"/><path class="cls-12" d="M310.79,375.65c2,2.92.46,6.93-.29,8.26s-3.58,5.28-3.58,5.28l6.42,2.11-.83,2.77-8.77-3.45a16.61,16.61,0,0,1,3.71-6.71c2.27-2.44,2.11-6.54.79-6.8s-2.67,3-2.67,3l-2.88-1.45S306.92,370,310.79,375.65Z"/><path class="cls-12" d="M300.78,394.45a73.25,73.25,0,0,0,7.83,4.42c3,1.29,5.87,3,10.34,2.06s15.31-3.1,15.31-3.1l-.14-1.15s-6.53.93-10.48,1.94c-2.94.75-6.28,2.55-12.69-.25-4.38-1.91-9.66-4.88-9.66-4.88Z"/><path class="cls-14" d="M329.69,370.51a30.45,30.45,0,0,0-3.89-.5c-1.59-.06-2.16,4.05-2.16,4.05a7.23,7.23,0,0,0,3.69-1A5.5,5.5,0,0,0,329.69,370.51Z"/><path class="cls-16" d="M274.35,385.8a12.25,12.25,0,0,1,.2,2.2A13.06,13.06,0,0,1,251,395.81a13.06,13.06,0,1,0,23.33-10Z"/><path class="cls-13" d="M261.48,401.07A13.07,13.07,0,0,0,274.55,388a12.25,12.25,0,0,0-.2-2.2,13.06,13.06,0,0,0-23.53,7.81,12.33,12.33,0,0,0,.2,2.2A13,13,0,0,0,261.48,401.07Z"/><path class="cls-12" d="M256.54,382.8s7,6.09,10,12.87,3.88,9.23,3.88,9.23l.46-.24a61,61,0,0,0-5.07-11.91,38.75,38.75,0,0,0-8.92-10.17Z"/><path class="cls-12" d="M252.82,386.68s4.13.27,5,5.67c.7,4.24.08,8.23,1.92,11a8,8,0,0,0,4.12,3.36h.48s-3.88-2-4.93-5.11,0-10.3-2.9-13.48a4.9,4.9,0,0,0-3.5-1.76Z"/><path class="cls-12" d="M261.45,380.77s.37,3.9,3.75,4.82c1.37.38,4.89,0,6.75,1.92,3.42,3.55,3.94,11.28,3.94,11.28l.33-.82a18.69,18.69,0,0,0-2.77-9.26c-2.42-3.61-4.35-3.21-7.62-3.58-3-.33-4-4.4-4-4.4Z"/><path class="cls-12" d="M214.86,414.52s-2.68,5.77,6.78,9c7.93,2.69,15.5,4.08,16.75-1S227,402.38,214.86,414.52Z"/><path class="cls-5" d="M206.09,333.87,208.4,342s9-6.76,11.24-10.13.62-3.81.62-3.81L216,321Z"/><path class="cls-6" d="M196.25,386.84s-14.31,11.66-16.9,14c-3.61,3.25-3.38,6.93-1.44,10.61,1.75,3.34,5,10,7.64,15.29S192.23,443,192.23,443s.23.85,4.38,1.13c2.3.15,4.68-2.93,4.68-2.93s-3.69-16.56-4-20c-.63-6.11-5.86-10.88-5.86-10.88l15.92-8.16S199.53,387.7,196.25,386.84Z"/><path class="cls-6" d="M217.47,413.33s2.13-6.5,11.62-4.94,8.22,4,8.22,4-5.06,11.19-5.9,14.58,4.66,8.05,4.87,15.05c.1,3.21-.11,21.46-.11,21.46h-8.55s-2.62-9.84-4.13-15.84c-2.19-8.71-5.07-12.15-7.48-18.88C214.76,425.23,217.47,415.71,217.47,413.33Z"/><path class="cls-12" d="M239.71,380.31H206.59l-3-.37-15.31,13.43s7.29,2.76,10.79,9.08c3.37,6.08,6.09,8.05,6.09,8.05l10.26-6.79-.61,12s4-4.35,12-1.68a24.11,24.11,0,0,1,11.61,8.47s4.85-18.93,4.79-23.78C243.08,390.89,239.71,380.31,239.71,380.31Z"/><path class="cls-5" d="M205.15,327.3a8.27,8.27,0,0,0-10.47,3c-2.56,3.56.21,8.45-.88,10.83-3.79,8.29-6.23,13.05-7.51,19.07-1.15,5.4-3.59,11.75-5.7,13.86s-9.4,6.55-9.87,10.73c-1,8.49,1.84,10,3.65,8.47S197.81,362,197.81,362s4.42-13.4,5.52-21S205.15,327.3,205.15,327.3Z"/><path class="cls-11" d="M219.79,327.3a20.19,20.19,0,0,1-3.52,5.75c-2,2.25-5.14,4.11-6.75,4.37-1.12.18-3.43-4.65-3.43-4.65l-3.57,2.15a93.06,93.06,0,0,0-2.4,11.77c-.42,4.45,2.76,18.23,3.79,23.4.56,2.83-3.86,5.08-1,8.31-1.3,2.11-2.84,4.93-2.84,4.93s11.51,14.91,20.78,11.12c6.2-2.53,11-6.72,15.23-8.75,2.1-1,5.35.89,5.35.89s1.33-2.64-.85-7.35c-1.83-3.93-.2-3.79-1.69-5.89a19.16,19.16,0,0,1-3-7.27c-.56-4.26-2-24.05-5.19-29.24A26.67,26.67,0,0,0,219.79,327.3Z"/><path class="cls-17" d="M206.09,369.75a12.79,12.79,0,0,0,5.3,5.56c4.1,2.49,11.58,3.44,11.58,3.44s-11.69-6.84-13.06-9.27-4.32-8.74-4.32-8.74-2.12,1.37-2,1.32S204.62,366.81,206.09,369.75Z"/><path class="cls-12" d="M211,343.24a16.16,16.16,0,0,0-3.08-.08l-4.36,3.67,1.65,2.52,2.74-2.63s1.38,11.78,1.26,14.55a19,19,0,0,0,3.08-.42Z"/><path class="cls-6" d="M228.34,337.24c-3-2.53-7.62-1.62-9.92,1.08a113.59,113.59,0,0,0-6.65,9.89s-8.41,2.51-11.72,8.41a101.65,101.65,0,0,1-10.46,14.74c-2.64,3.23-3.54,7.92-8.5,8.91-3.3.66-3.14,1.65-4.14,2.43-2.62,2-3.92,4.19-5.61,9.46-.53,1.68-1.45,2.64.8,3.15-1.44,1.34.18,2.82,2,.92-.28,2.21-.28,2.21,2.31.42,6.4-4.41,6.48-9.17,8.41-10.72,2.11-1.68,14.48-9.3,18.77-16.52,4.77-8,12.21-8.39,16.25-13.44a9.57,9.57,0,0,0,10.15-.6C232.13,353.69,234.24,342.29,228.34,337.24Z"/><path class="cls-6" d="M213.46,310.09c-3.56-2.91-14.4-3.89-17.56,5.06-.7,2-.12,5.49.08,7.52.74,7.63,6.8,14.62,10.37,13,2.54-1.11,7.87-5.07,9.37-10C217.41,320.13,218.09,313.88,213.46,310.09Z"/><path class="cls-4" d="M190.16,442A6.8,6.8,0,0,0,189,442c-1.37,1.44-3.55,3.67-5.64,5.61-2.33,2.18-3.63,4.26-6.08,6-2.12,1.53.92,3.44,4.38,4.5a12.17,12.17,0,0,0,6-.28c2.5-.69,2.92-2.09,6.1-5.07,0-1.29,0-2.61,0-3.82A8.09,8.09,0,0,0,190.16,442Z"/><path class="cls-10" d="M200.3,448.87a10.74,10.74,0,0,0,3.39-3.74s-.22-6.61-2.44-6.83c-1.49-.15-.49,4.56-2.79,4.34-2.75-.27-6.19-2.73-8.09-2.15,0,0-.55.59-1.41,1.48a6.8,6.8,0,0,1,1.2.06,8.09,8.09,0,0,1,3.58,6.92c0,1.21,0,2.53,0,3.82.07-.06.11-.11.18-.18C195.54,451.12,198.43,450,200.3,448.87Z"/><path class="cls-11" d="M191.39,446.46a18,18,0,0,1,0,5.9,13.64,13.64,0,0,1-1.65,4.44l2.8-2.84S193.81,448.36,191.39,446.46Z"/><path class="cls-11" d="M193.76,443.75a14.43,14.43,0,0,1,1.59,7.47c-.28,4.19,1.88-1,1.88-1S196.77,444.83,193.76,443.75Z"/><path class="cls-11" d="M191.39,440.43c-2.12,1.74-3.53,4-5,5.84s.2,2.93,2,1.13c2-2,5.38-6.3,5.38-6.3S192,440.26,191.39,440.43Z"/><path class="cls-12" d="M176.55,454.58a4.3,4.3,0,0,1,3.5,1.22c1.4,1.52,3,2.09,5.9,1.83s4.74-3.21,7.87-5.43,6.1-3.12,7.34-4c1.62-1.17,2.33-5.19,2.33-5.19a10.13,10.13,0,0,1,.73,2.91,5.64,5.64,0,0,1-1.94,3.28,9.26,9.26,0,0,1-3.9,2.23,19.36,19.36,0,0,0-4.58,2.48c-1,.83-3.09,4.47-6.58,5.16s-7.4.23-9.39-1.66S176.55,454.58,176.55,454.58Z"/><path class="cls-5" d="M172.53,384s.88.06,1.21,1.86.82,4.41,2.36,3.14.1-4,0-5a6.65,6.65,0,0,1,.5-2.45Z"/><path class="cls-5" d="M219.88,356a52.18,52.18,0,0,1,3.83-3.69c1-.7,6.32,3.09,6.32,3.09A8.32,8.32,0,0,1,219.88,356Z"/><path class="cls-5" d="M207.28,362.06a23.67,23.67,0,0,0-5.84,5.53c-1.46,2-5.54,7.72-5.54,7.72s3.52-4,6.32-7.12S207.28,362.06,207.28,362.06Z"/><path class="cls-12" d="M222.47,357.09s1.1,5.3,1.66,8.11-.14,6.46,2.24,8.85,3.52,3.09,3.66,4.49-1.55,1.26-1.13,3.09,1.27,2,2,2.67a8.45,8.45,0,0,1,1.32,2.29,6.2,6.2,0,0,1,3.59-2.29,5.81,5.81,0,0,1,3.37.42s0-2.11-.56-2.81-2.53-2.39-1.68-3.51,1.82-2.53.56-3.09-5.65-4.07-5.28-5.47a34.1,34.1,0,0,0,1.07-7.17c-.15-1.54-3.23-7.3-3.23-7.3S227.42,357.82,222.47,357.09Z"/><path class="cls-17" d="M200.05,383.33a15.35,15.35,0,0,1,.76-1.36c2.76,2.21,4.95,8.83,12.65,10.19,5.7,1,14.41-4.9,18.37-6.38s5.36-2.75,7.32-1.76,2.66,1.26,2.66,1.26l-.4,1.31s-4.5-1.94-7.69.39c-4.95,3.63-7,7-13.84,8.34s-10.28-.82-13.79-4.19A39.64,39.64,0,0,1,200.05,383.33Z"/><path class="cls-17" d="M203.58,379.94s3.07,7.45,7.91,7.87a24.51,24.51,0,0,0,9.34-1.22S210.42,385.53,203.58,379.94Z"/><path class="cls-5" d="M218.68,429.07c1.24.7,3.76,1.78,4.18,3.66l.43,1.88s-3-2.13-4.11-3.16A2.2,2.2,0,0,1,218.68,429.07Z"/><path class="cls-5" d="M178.78,407.27a16.94,16.94,0,0,1,2.95,3.74l.64,1.47S179.89,411.68,178.78,407.27Z"/><path class="cls-11" d="M227.19,412.12l.26-1.27s4-.69,6.29,1.13a13.19,13.19,0,0,1,3,2.85l-.72,1.66a12.61,12.61,0,0,0-3.29-2.88A26,26,0,0,0,227.19,412.12Z"/><path class="cls-5" d="M211.28,319.25a1.66,1.66,0,0,1,2.47.74c.6,1.18.48,4.21.48,4.21s2.05-3.13.74-5.47C214.23,317.41,212.12,316.94,211.28,319.25Z"/><path class="cls-8" d="M175.77,354.21a13.45,13.45,0,0,1,.2,2.21,13.1,13.1,0,0,1-23.61,7.83,13.11,13.11,0,1,0,23.41-10Z"/><path class="cls-7" d="M162.86,369.53A13.11,13.11,0,0,0,176,356.42a13.45,13.45,0,0,0-.2-2.21,13.1,13.1,0,0,0-23.61,7.84,12.25,12.25,0,0,0,.2,2.2A13.07,13.07,0,0,0,162.86,369.53Z"/><path class="cls-13" d="M158.35,368.73s1.79-9.28,7-13.23,9.1-2.8,10.4-1.29a13.38,13.38,0,0,1,2.14,4.36s-1.93,12-11.07,12C160.42,370.58,158.35,368.73,158.35,368.73Z"/></g></svg>