<svg xmlns="http://www.w3.org/2000/svg" xmlns:xlink="http://www.w3.org/1999/xlink" viewBox="0 0 1920 1080"><defs><style>.cls-1{fill:#a1d9ff;}.cls-2{fill:url(#linear-gradient);}.cls-3{fill:url(#linear-gradient-2);}.cls-4{fill:url(#linear-gradient-3);}.cls-5{fill:url(#linear-gradient-4);}.cls-6{fill:url(#linear-gradient-5);}.cls-7{fill:#acd991;}.cls-8{fill:#59ad71;}.cls-9{fill:#6fb884;}.cls-10{fill:#398b7d;}.cls-11{fill:#3f9974;}.cls-12{opacity:0.75;fill:url(#radial-gradient);}.cls-13,.cls-14{fill:#fff;}.cls-14{opacity:0.1;}</style><linearGradient id="linear-gradient" x1="629.52" y1="527.16" x2="629.52" y2="222.58" gradientUnits="userSpaceOnUse"><stop offset="0" stop-color="#398b7d"/><stop offset="1" stop-color="#3f9974"/></linearGradient><linearGradient id="linear-gradient-2" x1="1169.49" y1="296.04" x2="1169.49" y2="640.51" gradientUnits="userSpaceOnUse"><stop offset="0" stop-color="#9fd17f"/><stop offset="1" stop-color="#3f9974"/></linearGradient><linearGradient id="linear-gradient-3" x1="1920.35" y1="296.04" x2="1920.35" y2="640.51" gradientTransform="matrix(-1, 0, 0, 1, 3745.71, 0)" xlink:href="#linear-gradient-2"/><linearGradient id="linear-gradient-4" x1="1.63" y1="866.85" x2="2202.98" y2="866.85" gradientUnits="userSpaceOnUse"><stop offset="0" stop-color="#acd991"/><stop offset="1" stop-color="#7eba68"/></linearGradient><linearGradient id="linear-gradient-5" x1="623.63" y1="782.04" x2="623.63" y2="380.26" gradientUnits="userSpaceOnUse"><stop offset="0" stop-color="#59ad71"/><stop offset="1" stop-color="#97c979"/></linearGradient><radialGradient id="radial-gradient" cx="1160.52" cy="230.16" r="230.37" gradientUnits="userSpaceOnUse"><stop offset="0" stop-color="#fff"/><stop offset="1" stop-color="#fff" stop-opacity="0"/></radialGradient></defs><g id="BACKGROUND"><rect class="cls-1" x="1.63" width="1920.23" height="1080"/></g><g id="OBJECTS"><path class="cls-2" d="M196.8,584v-148L519.46,154.62a18.6,18.6,0,0,1,25.14.65l251.24,243,49.55-28.61a23.43,23.43,0,0,1,24.13.42l192.72,120.35L1021.92,584Z"/><path class="cls-3" d="M717.36,653.71,1087,440.29a36.25,36.25,0,0,1,36.29,0l103.32,59.65,244-140.87a48.54,48.54,0,0,1,46.79-1l104.22,54.57v241Z"/><path class="cls-4" d="M2277.49,653.71,1907.83,440.29a36.25,36.25,0,0,0-36.29,0l-103.31,59.65-244-140.87a48.54,48.54,0,0,0-46.79-1l-104.22,54.57v241Z"/><rect class="cls-5" x="1.63" y="653.71" width="1918.38" height="426.29"/><path class="cls-6" d="M1243.26,653.71,652.87,472.52a52.63,52.63,0,0,0-41.76,4.74L502.44,540,215.57,389.73a43.05,43.05,0,0,0-42.67,1.56L4,496.2V653.71Z"/><polygon class="cls-7" points="1729.25 816.6 738.59 854.04 1729.25 880.68 1729.25 816.6"/><polygon class="cls-7" points="1.63 702.12 1182.91 738.84 1.63 738.84 1.63 702.12"/><path class="cls-8" d="M327.44,1003.52a61.25,61.25,0,0,0-34.64,10.68,69.05,69.05,0,0,0-88.55-66A154.45,154.45,0,1,0,58.92,1155H389v-90A61.52,61.52,0,0,0,327.44,1003.52Z"/><path class="cls-9" d="M327.44,1003.52a61.25,61.25,0,0,0-34.64,10.68,69.05,69.05,0,0,0-88.55-66A154.46,154.46,0,0,0-88,952.93a154.41,154.41,0,0,1,252.29,59,69.05,69.05,0,0,1,88.55,66A61.52,61.52,0,0,1,349,1128.76V1155h40v-90A61.52,61.52,0,0,0,327.44,1003.52Z"/><path class="cls-10" d="M1137.66,1017.75a62.24,62.24,0,0,0-107.32-42.92,67.65,67.65,0,0,0-76-8.42A110.5,110.5,0,0,0,765,959.88a67.25,67.25,0,0,0-68.49,12.55,134.3,134.3,0,0,0-231.61,45.46A66,66,0,0,0,372,1078.18v114.14h765.7v-151.8l-4.4.22A62.29,62.29,0,0,0,1137.66,1017.75Z"/><path class="cls-11" d="M1137.66,1017.75a62.24,62.24,0,0,0-107.32-42.92,67.65,67.65,0,0,0-76-8.42A110.5,110.5,0,0,0,765,959.88a67.25,67.25,0,0,0-68.49,12.55,134.3,134.3,0,0,0-231.61,45.46A66,66,0,0,0,372,1078.18v81a66,66,0,0,1,92.91-60.29,134.3,134.3,0,0,1,231.61-45.46A67.25,67.25,0,0,1,765,1040.88a110.5,110.5,0,0,1,189.37,6.53,67.65,67.65,0,0,1,76,8.42,62.24,62.24,0,0,1,107.32,42.92v-58.23l-4.4.22A62.29,62.29,0,0,0,1137.66,1017.75Z"/><path class="cls-10" d="M1545.35,992.82c0-2.86-.15-5.69-.36-8.5v-.43h0a112.1,112.1,0,0,0-178.22-81.39,55.67,55.67,0,0,0-76.84,3.86,122.38,122.38,0,0,0-165,92.17,90.49,90.49,0,0,0,5.22,180.82H1545v-178C1545.2,998.51,1545.35,995.68,1545.35,992.82Z"/><path class="cls-11" d="M1078.5,1156.91a90.49,90.49,0,0,1,85.27-90.33,122.38,122.38,0,0,1,165-92.17,55.67,55.67,0,0,1,76.84-3.86,112.06,112.06,0,0,1,138.21,4.16,112.09,112.09,0,0,0-177.09-72.2,55.67,55.67,0,0,0-76.84,3.86,122.38,122.38,0,0,0-165,92.17,90.48,90.48,0,0,0-46.13,164.83C1078.61,1161.23,1078.5,1159.09,1078.5,1156.91Z"/><path class="cls-8" d="M1748.33,794.16a173.49,173.49,0,0,0-155.53,96.59,99.93,99.93,0,0,0-118.73,95.89,91.78,91.78,0,1,0-22.33,180.81h470.11V967.68A173.52,173.52,0,0,0,1748.33,794.16Z"/><path class="cls-9" d="M1426.2,1147.67a91.81,91.81,0,0,1,114.11-89A99.92,99.92,0,0,1,1659,962.75,173.55,173.55,0,0,1,1904,891a173.52,173.52,0,0,0-311.17-.2,99.93,99.93,0,0,0-118.73,95.89,91.78,91.78,0,0,0-46.34,177.61A91.54,91.54,0,0,1,1426.2,1147.67Z"/><circle class="cls-12" cx="1160.52" cy="230.16" r="230.37"/><circle class="cls-13" cx="1160.52" cy="230.16" r="98.28"/><circle class="cls-14" cx="59.37" cy="996.69" r="3.51"/><circle class="cls-14" cx="1505.92" cy="1007.22" r="3.51"/><circle class="cls-14" cx="1206.87" cy="937.56" r="3.51"/><circle class="cls-14" cx="987.36" cy="1010.73" r="3.51"/><circle class="cls-14" cx="728.16" cy="996.69" r="3.51"/><circle class="cls-14" cx="509.19" cy="1048.26" r="3.51"/><circle class="cls-14" cx="777.03" cy="1041.24" r="3.51"/><circle class="cls-14" cx="598.56" cy="970.5" r="3.51"/><circle class="cls-14" cx="325.05" cy="861.06" r="3.51"/><circle class="cls-14" cx="476.16" cy="819.57" r="3.51"/><circle class="cls-14" cx="690.09" cy="607.71" r="3.51"/><circle class="cls-14" cx="1103.19" cy="575.4" r="3.51"/><circle class="cls-14" cx="888" cy="501.33" r="3.51"/><circle class="cls-14" cx="704.49" cy="458.76" r="3.51"/><circle class="cls-14" cx="591.54" cy="451.74" r="3.51"/><circle class="cls-14" cx="396.96" cy="416.37" r="3.51"/><circle class="cls-14" cx="818.64" cy="504.84" r="3.51"/><circle class="cls-14" cx="630.24" cy="376.68" r="3.51"/><circle class="cls-14" cx="479.67" cy="486.93" r="3.51"/><circle class="cls-14" cx="501.27" cy="380.19" r="3.51"/><circle class="cls-14" cx="531.69" cy="288.84" r="3.51"/><circle class="cls-14" cx="1274.64" cy="578.91" r="3.51"/><circle class="cls-14" cx="1396.95" cy="611.22" r="3.51"/><circle class="cls-14" cx="1188.78" cy="604.2" r="3.51"/><circle class="cls-14" cx="1393.44" cy="527.97" r="3.51"/><circle class="cls-14" cx="811.62" cy="618.69" r="3.51"/><circle class="cls-14" cx="434.58" cy="630.12" r="3.51"/><circle class="cls-14" cx="198.87" cy="593.67" r="3.51"/><circle class="cls-14" cx="571.83" cy="600.69" r="3.51"/><circle class="cls-14" cx="280.59" cy="529.32" r="3.51"/><circle class="cls-14" cx="26.16" cy="590.16" r="3.51"/><circle class="cls-14" cx="1181.76" cy="782.04" r="3.51"/><circle class="cls-14" cx="1359.96" cy="848.73" r="3.51"/><circle class="cls-14" cx="1488.48" cy="557.4" r="3.51"/><circle class="cls-14" cx="1294.89" cy="793.92" r="3.51"/><circle class="cls-14" cx="1359.96" cy="739.65" r="3.51"/><circle class="cls-14" cx="1491.99" cy="698.88" r="3.51"/><circle class="cls-14" cx="1298.4" cy="662.43" r="3.51"/><circle class="cls-14" cx="1543.83" cy="622.2" r="3.51"/><circle class="cls-14" cx="1446.36" cy="800.94" r="3.51"/><circle class="cls-14" cx="1570.29" cy="746.67" r="3.51"/><circle class="cls-14" cx="273.57" cy="733.8" r="3.51"/><circle class="cls-14" cx="250.08" cy="911.55" r="3.51"/><circle class="cls-14" cx="438.09" cy="918.57" r="3.51"/><circle class="cls-14" cx="1142.88" cy="864.57" r="3.51"/><circle class="cls-14" cx="153.6" cy="834.6" r="3.51"/><circle class="cls-14" cx="108.33" cy="604.2" r="3.51"/><circle class="cls-14" cx="69.9" cy="711.57" r="3.51"/><circle class="cls-14" cx="369.6" cy="1051.77" r="3.51"/><circle class="cls-14" cx="863.43" cy="963.48" r="3.51"/><circle class="cls-14" cx="1343.93" cy="1014.24" r="3.51"/><circle class="cls-14" cx="1502.41" cy="861.06" r="3.51"/><circle class="cls-14" cx="1123.44" cy="1037.73" r="3.51"/><circle class="cls-14" cx="246.57" cy="1003.71" r="3.51"/><circle class="cls-14" cx="90.11" cy="893.19" r="3.51"/></g></svg>