<svg id="OBJECTS" xmlns="http://www.w3.org/2000/svg" xmlns:xlink="http://www.w3.org/1999/xlink" viewBox="0 0 674 421.75"><defs><style>.cls-1{fill:none;}.cls-2{opacity:0.8;}.cls-3{opacity:0.5;}.cls-4{fill:#ced3e6;}.cls-5{fill:#fff;}.cls-6{fill:#585859;}.cls-7{fill:#39393b;}.cls-8{fill:#df615c;}.cls-9{fill:#5392f3;}.cls-10{fill:#d2dcec;}.cls-11{clip-path:url(#clip-path);}.cls-12{fill:#ea9b7a;}.cls-13{fill:#d96c63;}.cls-14{fill:#faaf3a;}.cls-15{fill:#c77e2e;}.cls-16{fill:#0875f7;}.cls-17{fill:#084fc7;}.cls-18{fill:#21b573;}.cls-19{fill:#217c58;}.cls-20{fill:#b11722;}</style><clipPath id="clip-path" transform="translate(-20.46 -18.2)"><path class="cls-1" d="M320.85,235.44c-1.31,4-1.31,4.73-1.31,4l0-115.12c0-.7,0-.59,0-83.95H578.41l0,195Z"/></clipPath></defs><g class="cls-2"><g class="cls-3"><path class="cls-4" d="M363.53,141.39a145.41,145.41,0,0,1-66.32-28.11c-29.29-22.11-90.59-59.73-149.07-41-80.65,25.85-81,100.63-60,141.24s170,159.57,363.14,140.64C624.1,337.24,657.78,143.37,565.6,108.3,485.65,77.87,458.38,155.39,363.53,141.39Z" transform="translate(-20.46 -18.2)"/></g><g class="cls-3"><ellipse class="cls-4" cx="591.88" cy="94.5" rx="7.49" ry="8.07"/></g><path class="cls-4" d="M123.06,59.56a4.87,4.87,0,0,1,5.44,3c1.38,3.75-2.24,7.94-7.1,6.06h0C117.2,65.55,119,60.3,123.06,59.56Z" transform="translate(-20.46 -18.2)"/><circle class="cls-4" cx="591.88" cy="40.6" r="9.76" transform="translate(436.25 600.07) rotate(-80.75)"/><g class="cls-2"><path class="cls-4" d="M152.66,51.86A9.87,9.87,0,1,1,140.5,45,9.86,9.86,0,0,1,152.66,51.86Z" transform="translate(-20.46 -18.2)"/></g><path class="cls-4" d="M542.85,345.67a4.88,4.88,0,0,1,5.91,2c2,3.42-.72,8.21-5.85,7.27h0C538.2,352.65,539,347.15,542.85,345.67Z" transform="translate(-20.46 -18.2)"/><path class="cls-4" d="M570.5,332.61a9.86,9.86,0,1,1-13.22-4.46A9.86,9.86,0,0,1,570.5,332.61Z" transform="translate(-20.46 -18.2)"/><circle class="cls-4" cx="553.03" cy="7.46" r="6.01"/></g><g class="cls-2"><path class="cls-4" d="M595.49,134.45c0-53.65-44.68-112.44-100.27-116l-3-.16c-79.71-3.72-85.78,93.5-157.89,104.46s-127.19-44.39-213.48-8.27c-77.49,32.43-98.48,214.68,129.22,222C432.29,342.32,595.52,294.53,595.49,134.45Z" transform="translate(-20.46 -18.2)"/></g><ellipse class="cls-4" cx="432.17" cy="374.23" rx="175.71" ry="9.06"/><path class="cls-4" d="M571.65,367.05H547.3v25.33h28.47v-21.2A4.12,4.12,0,0,0,571.65,367.05Z" transform="translate(-20.46 -18.2)"/><rect class="cls-4" x="396.58" y="294.6" width="84.52" height="54.26"/><path class="cls-5" d="M328.48,348.86H529.8a15.92,15.92,0,0,1,15.92,15.92v9.4a0,0,0,0,1,0,0H312.56a0,0,0,0,1,0,0v-9.4A15.92,15.92,0,0,1,328.48,348.86Z"/><rect class="cls-5" x="386.23" y="294.6" width="84.52" height="54.26"/><polygon class="cls-4" points="386.23 311.26 470.75 304.49 470.76 294.6 386.34 294.6 386.23 311.26"/><rect class="cls-4" x="237.29" y="59.24" width="383.46" height="235.37" rx="11.29"/><path class="cls-6" d="M641.22,88.73v197H606.31V77.44h23.62A11.29,11.29,0,0,1,641.22,88.73Z" transform="translate(-20.46 -18.2)"/><path class="cls-5" d="M626.86,88.73V301.51a11.29,11.29,0,0,1-11.29,11.3H269.05a11.29,11.29,0,0,1-11.29-11.3V88.73a11.28,11.28,0,0,1,11.29-11.29h347l.37,0h0l.26,0,.44.06.28,0,.14,0,.27.06A11.29,11.29,0,0,1,626.86,88.73Z" transform="translate(-20.46 -18.2)"/><path class="cls-7" d="M617.84,77.67l-.27-.06-.14,0-.28,0-.44-.06-.26,0h0l-.37,0h-347a11.28,11.28,0,0,0-11.29,11.29v197h369.1v-197A11.29,11.29,0,0,0,617.84,77.67ZM612.22,266.1a3.07,3.07,0,0,1-3.07,3.07H275.47a3.07,3.07,0,0,1-3.07-3.07v-171a3.06,3.06,0,0,1,3.07-3.07H609.15a3.06,3.06,0,0,1,3.07,3.07Z" transform="translate(-20.46 -18.2)"/><rect class="cls-4" x="251.93" y="73.88" width="339.82" height="177.09" rx="3.07"/><path class="cls-5" d="M612.22,95.15v16.13H272.4V95.15a3.06,3.06,0,0,1,3.07-3.07H609.15A3.06,3.06,0,0,1,612.22,95.15Z" transform="translate(-20.46 -18.2)"/><path class="cls-8" d="M585.9,101.42a2.61,2.61,0,1,1-2.61-2.61A2.61,2.61,0,0,1,585.9,101.42Z" transform="translate(-20.46 -18.2)"/><circle class="cls-9" cx="571.28" cy="83.22" r="2.61"/><rect class="cls-10" x="281.61" y="80.46" width="270.34" height="5.52" rx="2.43"/><path d="M284.67,101.42V104a.47.47,0,0,1-.71.4l-2.21-1.28-2.21-1.27a.48.48,0,0,1,0-.82l2.21-1.27L284,98.46a.47.47,0,0,1,.71.4Z" transform="translate(-20.46 -18.2)"/><path d="M288.56,101.42V104a.46.46,0,0,0,.7.4l2.21-1.28,2.21-1.27a.47.47,0,0,0,0-.82l-2.21-1.27-2.21-1.28a.46.46,0,0,0-.7.4Z" transform="translate(-20.46 -18.2)"/><rect class="cls-7" x="596.9" y="100.59" width="6.27" height="1.47" rx="0.65" transform="translate(83.63 435.77) rotate(-45)"/><rect class="cls-7" x="599.29" y="98.19" width="1.47" height="6.27" rx="0.65" transform="translate(83.63 435.77) rotate(-45)"/><rect class="cls-5" x="290.35" y="96.98" width="262.09" height="147.12" rx="6.42"/><path class="cls-4" d="M386.67,190.45H329.21a1.6,1.6,0,0,1-1.6-1.6h0a1.6,1.6,0,0,1,1.6-1.6h57.46a1.6,1.6,0,0,1,1.6,1.6h0A1.6,1.6,0,0,1,386.67,190.45Z" transform="translate(-20.46 -18.2)"/><path class="cls-4" d="M386.67,176.94H329.21a1.6,1.6,0,0,1-1.6-1.6h0a1.6,1.6,0,0,1,1.6-1.59h57.46a1.6,1.6,0,0,1,1.6,1.59h0A1.6,1.6,0,0,1,386.67,176.94Z" transform="translate(-20.46 -18.2)"/><path class="cls-4" d="M386.67,204H329.21a1.6,1.6,0,0,1-1.6-1.59h0a1.6,1.6,0,0,1,1.6-1.6h57.46a1.6,1.6,0,0,1,1.6,1.6h0A1.6,1.6,0,0,1,386.67,204Z" transform="translate(-20.46 -18.2)"/><path class="cls-4" d="M563.23,190.45H505.77a1.6,1.6,0,0,1-1.59-1.6h0a1.6,1.6,0,0,1,1.59-1.6h57.46a1.6,1.6,0,0,1,1.6,1.6h0A1.6,1.6,0,0,1,563.23,190.45Z" transform="translate(-20.46 -18.2)"/><path class="cls-4" d="M563.23,176.94H505.77a1.59,1.59,0,0,1-1.59-1.6h0a1.59,1.59,0,0,1,1.59-1.59h57.46a1.59,1.59,0,0,1,1.6,1.59h0A1.59,1.59,0,0,1,563.23,176.94Z" transform="translate(-20.46 -18.2)"/><path class="cls-4" d="M563.23,204H505.77a1.59,1.59,0,0,1-1.59-1.59h0a1.6,1.6,0,0,1,1.59-1.6h57.46a1.6,1.6,0,0,1,1.6,1.6h0A1.59,1.59,0,0,1,563.23,204Z" transform="translate(-20.46 -18.2)"/><path class="cls-7" d="M310.81,239.44H572.9v21.49a1.36,1.36,0,0,1-1.36,1.36H312.17a1.36,1.36,0,0,1-1.36-1.36Z" transform="translate(-20.46 -18.2)"/><path class="cls-5" d="M547.16,247.91V246h2.42v-1.72h-3.29a.87.87,0,0,0-.86.86v2.8Z" transform="translate(-20.46 -18.2)"/><path class="cls-5" d="M547.16,251.36h-1.73v2.94a.87.87,0,0,0,.86.87h3.29v-1.73h-2.42Z" transform="translate(-20.46 -18.2)"/><path class="cls-5" d="M554.62,247.91h1.73v-2.8a.87.87,0,0,0-.86-.86h-3.16V246h2.29Z" transform="translate(-20.46 -18.2)"/><path class="cls-5" d="M554.62,251.36v2.08h-2.29v1.73h3.16a.87.87,0,0,0,.86-.87v-2.94Z" transform="translate(-20.46 -18.2)"/><polygon class="cls-5" points="305.61 231.88 305.61 226.44 310.33 229.16 315.04 231.88 310.33 234.61 305.61 237.33 305.61 231.88"/><rect class="cls-5" x="329.67" y="226.99" width="2.92" height="9.91" rx="0.84"/><rect class="cls-5" x="335.77" y="226.99" width="2.92" height="9.91" rx="0.84"/><rect class="cls-4" x="290.35" y="216.95" width="262.09" height="4.3"/><rect class="cls-8" x="290.35" y="216.95" width="134.48" height="4.3"/><path class="cls-7" d="M531,218.43h3v6.48h4v2.29H531Z" transform="translate(-20.46 -18.2)"/><path class="cls-7" d="M538.72,218.43h3v8.77h-3Z" transform="translate(-20.46 -18.2)"/><path class="cls-7" d="M552.47,218.43l-3.7,8.77h-2.91l-3.71-8.77h3.18l2.1,5.13,2.14-5.13Z" transform="translate(-20.46 -18.2)"/><path class="cls-7" d="M560.05,225v2.23h-7.29v-8.77h7.13v2.23h-4.22v1h3.71v2.13h-3.71V225Z" transform="translate(-20.46 -18.2)"/><path class="cls-8" d="M526.12,222.75a3.61,3.61,0,1,1-3.6-3.61A3.6,3.6,0,0,1,526.12,222.75Z" transform="translate(-20.46 -18.2)"/><path class="cls-7" d="M342.82,225.19c0,2-1.9,3.29-4.62,3.29s-4.62-1.29-4.62-3.29a2.69,2.69,0,0,1,1.38-2.37,2.52,2.52,0,0,1-1-2c0-1.87,1.75-3.07,4.25-3.07s4.26,1.2,4.26,3.07a2.53,2.53,0,0,1-1,2A2.69,2.69,0,0,1,342.82,225.19Zm-3.49-.12a1.13,1.13,0,1,0-1.13,1.07A1,1,0,0,0,339.33,225.07Zm-1.95-4.14a.83.83,0,1,0,.82-.88A.8.8,0,0,0,337.38,220.93Z" transform="translate(-20.46 -18.2)"/><path class="cls-7" d="M343.47,223.1c0-3.42,1.94-5.39,4.67-5.39s4.66,2,4.66,5.39-1.94,5.38-4.66,5.38S343.47,226.51,343.47,223.1Zm5.84,0c0-2-.5-2.61-1.17-2.61s-1.18.62-1.18,2.61.5,2.6,1.18,2.6S349.31,225.08,349.31,223.1Z" transform="translate(-20.46 -18.2)"/><path class="cls-8" d="M327.54,220.2a3.17,3.17,0,1,1-3.17-3.17A3.17,3.17,0,0,1,327.54,220.2Z" transform="translate(-20.46 -18.2)"/><path class="cls-8" d="M330.29,228.22H318.45a6.13,6.13,0,0,1,5.83-3.77h.18A6.12,6.12,0,0,1,330.29,228.22Z" transform="translate(-20.46 -18.2)"/><g class="cls-11"><path class="cls-12" d="M360.76,148.69s-1.58,9.66-8.7,11.39c-5.74,1.4-11.16-4.12-13-6.29-.45-.53-.69-.85-.69-.85s-.43,0-1.07,0c-1.5,0-4.16-.32-5.2-2.17-1.49-2.62,3.92-4.41,3.92-4.41s-2.77-2.48-2.08-4.28,4.4-2.14,4.4-2.14-4-2.6-2.66-4.87c2-3.41,6.16.34,6.49.55-.26-.3-5.45-5.67-2.61-6.64,2.48-.84,6.55,2,9.23,4.71l.67.69.44-.31c1.34-.89,5.46-3.29,8.08-1.1C361.12,135.64,360.76,148.69,360.76,148.69Z" transform="translate(-20.46 -18.2)"/><path class="cls-13" d="M353.34,154.62a.56.56,0,0,1-.57,0,.57.57,0,0,1-.15-.78,5.06,5.06,0,0,0,.86-4.23c-.94-3.62-5.78-6.12-5.83-6.15a.56.56,0,1,1,.52-1c.22.11,5.34,2.76,6.4,6.87a6.15,6.15,0,0,1-1,5.14A.66.66,0,0,1,353.34,154.62Z" transform="translate(-20.46 -18.2)"/><path class="cls-13" d="M348.4,140.7a1.73,1.73,0,0,1-.8,1.53,1.84,1.84,0,0,1-.37.19,4,4,0,0,1-1,.23,4.28,4.28,0,0,1,.72.59,2.06,2.06,0,0,1,.44.66,1.49,1.49,0,0,1-.25,1.43c-.91,1.2-3,1.69-4.71,1.89a6,6,0,0,1,2.64,2.68,1.77,1.77,0,0,1-.22,1.72,3.39,3.39,0,0,1-1.23.9,18.14,18.14,0,0,1-4.58,1.26c-.45-.52-.69-.84-.69-.84s-.43,0-1.07,0a.69.69,0,0,1,.29-.12c2.09-.24,5.67-1,6.38-1.91a.64.64,0,0,0,.05-.67c-.38-1.07-2.41-2.5-4.17-2.94a.56.56,0,0,1-.43-.61.58.58,0,0,1,.57-.5c1.4,0,5.24-.21,6.26-1.57.15-.2.11-.31.09-.36a1.86,1.86,0,0,0-.86-.79,13.83,13.83,0,0,0-3.34-1.25.52.52,0,0,1-.29-.18.56.56,0,0,1-.13-.5.58.58,0,0,1,.69-.42c.19,0,.59.15,1.1.3a12.75,12.75,0,0,0,2.55.1,2.36,2.36,0,0,0,1-.26.66.66,0,0,0,.28-.61,3.55,3.55,0,0,0-.61-1.71.54.54,0,0,1,0-.63h0a.55.55,0,0,1,.91,0A4.79,4.79,0,0,1,348.4,140.7Z" transform="translate(-20.46 -18.2)"/><path class="cls-7" d="M344.26,130.12a15.39,15.39,0,0,1,2.64,1.95c.81.76,1.31,1.15,1.86,1.65,0-.06,0,.06,0,0L337.91,87.66a.56.56,0,0,0-1.1.23l7.45,42.23Z" transform="translate(-20.46 -18.2)"/><path class="cls-7" d="M353.7,155.7c-3.77,2.43-4.82.63-4.82.63L347,145.51a1.37,1.37,0,0,0,.16-.18,1.49,1.49,0,0,0,.25-1.43,2.06,2.06,0,0,0-.44-.66,4.21,4.21,0,0,0-.44-.39l0-.23a3.75,3.75,0,0,0,.77-.2,1.84,1.84,0,0,0,.37-.19,1.67,1.67,0,0,0,.7-.91,2.78,2.78,0,0,0,1.69.76,5,5,0,0,0,.55,0Z" transform="translate(-20.46 -18.2)"/><path class="cls-13" d="M357,138.81a18.42,18.42,0,0,1-3.71,2.49,6.34,6.34,0,0,1-3.27.78,2.83,2.83,0,0,1-2-1.15c-1.79-2.41-.26-5.55.81-7.21l.67.69.44-.31c-.92,1.37-2.47,4.2-1,6.15a1.73,1.73,0,0,0,1.26.71c2,.21,5.09-2.09,6.11-3a.57.57,0,0,1,.75.85Z" transform="translate(-20.46 -18.2)"/><path class="cls-14" d="M415.08,127.64v0h0v.06l0,.14-.07.33-.15.74c-.05.25-.11.5-.17.76s-.11.52-.17.79c-.24,1-.51,2.12-.79,3.19-.59,2.13-1.21,4.29-1.93,6.4s-1.48,4.22-2.34,6.27c-.43,1-.86,2.05-1.33,3.06s-.93,2-1.4,3c-1,2-2,3.91-3.15,5.78-.26.48-.56.93-.84,1.39s-.56.93-.87,1.38c-.6.9-1.18,1.81-1.81,2.68-1.22,1.78-2.57,3.44-3.91,5.09s-2.81,3.19-4.32,4.66c-.38.37-.75.75-1.13,1.11l-1.17,1.06-.58.53-.15.14.07-.07.11-.09a4.73,4.73,0,0,1,.43-.31,6.84,6.84,0,0,1,2.11-1c.18,0,.33-.1.5-.13l.25,0,.21,0a3.07,3.07,0,0,1,.42,0,1.82,1.82,0,0,1,.33,0h.27l.22,0,.14,0,.06,0h0c.16.05-.16,0-.65-.21a17,17,0,0,1-1.89-1c-.72-.43-1.5-.94-2.3-1.52-1.61-1.13-3.3-2.5-5-3.94s-3.38-3-5.07-4.64-3.38-3.28-5.05-5-3.33-3.46-5-5.23c-.83-.88-1.65-1.77-2.45-2.66l-2.36-2.58L346,161.46l.6.91.58.86,1.15,1.67c.78,1.1,1.56,2.18,2.35,3.27,1.6,2.15,3.24,4.28,4.95,6.37s3.47,4.17,5.31,6.22c.93,1,1.87,2,2.84,3s2,2,3,3a82.07,82.07,0,0,0,6.71,5.86c1.23,1,2.53,1.9,4,2.83a40.86,40.86,0,0,0,4.8,2.71,29.28,29.28,0,0,0,6.56,2.24l.49.1.54.08,1.08.15,1.17.1.6,0h.63l1.28,0c.45,0,.91-.08,1.37-.14l.68-.09.72-.14c.48-.11.95-.2,1.43-.35a19.62,19.62,0,0,0,5.55-2.58c.4-.29.8-.58,1.19-.89l.29-.23.26-.22.21-.18.84-.75,1.67-1.49c.54-.51,1.07-1,1.6-1.55a89,89,0,0,0,6.07-6.53c1.87-2.29,3.68-4.62,5.33-7.06s3.19-4.91,4.63-7.44l1-1.92c.34-.64.66-1.29,1-1.93s.66-1.3,1-1.95l.92-2a106.6,106.6,0,0,0,5.78-16.19c.74-2.76,1.39-5.54,1.9-8.37.25-1.42.49-2.84.68-4.3.05-.36.09-.73.13-1.1s.09-.74.13-1.12.08-.77.11-1.16l.11-1.39Z" transform="translate(-20.46 -18.2)"/><path class="cls-15" d="M357.87,158.68a1.57,1.57,0,1,0,1.43-1.7A1.57,1.57,0,0,0,357.87,158.68Z" transform="translate(-20.46 -18.2)"/><path class="cls-15" d="M390.54,185.68a.67.67,0,0,0,.65-.51,50.31,50.31,0,0,0,1.09-11.63.67.67,0,1,0-1.34,0,50.2,50.2,0,0,1-1.06,11.28.67.67,0,0,0,.49.81Z" transform="translate(-20.46 -18.2)"/><path class="cls-15" d="M394.83,180.82a.66.66,0,0,0,.3-.07.67.67,0,0,0,.3-.9,52.48,52.48,0,0,0-3.29-5.82.67.67,0,0,0-.94-.11.68.68,0,0,0-.11,1,53.68,53.68,0,0,1,3.14,5.58A.68.68,0,0,0,394.83,180.82Z" transform="translate(-20.46 -18.2)"/><path class="cls-15" d="M353,171.72a.69.69,0,0,0,.48-.2c5.62-5.8,18.31-15,18.43-15.05a.67.67,0,1,0-.78-1.09c-.13.09-12.91,9.32-18.61,15.2a.67.67,0,0,0,0,.95A.66.66,0,0,0,353,171.72Z" transform="translate(-20.46 -18.2)"/><path class="cls-15" d="M358.47,166.76a.7.7,0,0,0,.43-.15.68.68,0,0,0,.08-1l-6.78-8.14a.68.68,0,0,0-.95-.08.67.67,0,0,0-.08.94l6.78,8.14A.69.69,0,0,0,358.47,166.76Z" transform="translate(-20.46 -18.2)"/><path class="cls-7" d="M431.67,325.18l9.1-53.68.74-4.39-26.18-9.24-1.49-.53-6.24-2.2s-.5,2.3-1.27,6.25c-.1.47-.19,1-.3,1.5-2.45,12.69-7.06,38.86-8.31,62.29Z" transform="translate(-20.46 -18.2)"/><path class="cls-6" d="M427,325.18c3.94-21.4,9-52.68,9.29-54.51a.71.71,0,1,0-1.4-.22c-.07.45-5.32,32.92-9.33,54.73Z" transform="translate(-20.46 -18.2)"/><path class="cls-7" d="M484.65,238s2,18.69-2.28,29.1-59.32,5.05-73.35-4.31c-5.76-3.85,6.5-39.3,6.5-39.3Z" transform="translate(-20.46 -18.2)"/><path class="cls-6" d="M406,262.89a16.67,16.67,0,0,0,2.43-.63,15.9,15.9,0,0,0,3.62-1.75,19,19,0,0,0,3.24-2.64c6.07-6.12,7.86-15.38,7.94-15.83a.71.71,0,1,0-1.39-.26c0,.11-1.88,9.74-8,15.56a17.51,17.51,0,0,1-2.52,2,14.8,14.8,0,0,1-3.46,1.64,13.3,13.3,0,0,1-1.53.42C406.23,261.86,406.13,262.36,406,262.89Z" transform="translate(-20.46 -18.2)"/><path class="cls-6" d="M440,268.12a.69.69,0,0,0,.67.71h0a.71.71,0,0,0,.74-.65c.13-2.56.28-5.18.44-7.79L442,259c.56-8.55,1.26-16.93,1.79-22.86.05-.47.09-.94.13-1.39.12-1.3.23-2.45.32-3.42l-1.4-.23c-.09,1-.2,2.14-.32,3.45,0,.45-.08.91-.13,1.39-.52,5.87-1.23,14.19-1.78,22.68l-.09,1.41C440.3,262.76,440.14,265.47,440,268.12Z" transform="translate(-20.46 -18.2)"/><path class="cls-6" d="M438,259.1a17.51,17.51,0,0,0,2.47.95c.44.13.91.25,1.39.35a10,10,0,0,0,1.34.17,4.86,4.86,0,0,0,2.37-.37,2.88,2.88,0,0,0,1.61-2.16c.51-2.63,1.59-13.52,2.32-21.22,0-.47.09-.93.13-1.38.12-1.23.22-2.35.31-3.3l-1.41-.18c-.09,1-.19,2.09-.31,3.34,0,.45-.09.91-.13,1.38-.73,7.68-1.8,18.55-2.3,21.11a1.51,1.51,0,0,1-.85,1.19,5,5,0,0,1-3,0c-.47-.1-.95-.24-1.39-.38a16.45,16.45,0,0,1-1.94-.76.72.72,0,0,0-.95.31A.68.68,0,0,0,438,259.1Z" transform="translate(-20.46 -18.2)"/><path class="cls-7" d="M477.81,325.18c2.18-19.92,4.7-46.58,6.12-62,.05-.48.09-.95.13-1.41.63-6.82,1-11.11,1-11.11-3.37-1.41-9.5-.44-16,1.41l-1.42.41a194.62,194.62,0,0,0-23.86,9.33v63.4Z" transform="translate(-20.46 -18.2)"/><path class="cls-6" d="M474.48,325.18c1.88-22.15,4.11-54.15,4.14-54.57a.69.69,0,0,0-.65-.75.7.7,0,0,0-.76.65c0,.42-2.27,32.54-4.15,54.67Z" transform="translate(-20.46 -18.2)"/><path class="cls-6" d="M463.72,242a37.27,37.27,0,0,0,3.91,10.41,22.73,22.73,0,0,0,7.27,8.06,16.58,16.58,0,0,0,9,2.64c.05-.48.09-.95.13-1.41a15.2,15.2,0,0,1-8.39-2.42,21.06,21.06,0,0,1-6.62-7.28,36.14,36.14,0,0,1-3.93-10.26.71.71,0,0,0-1.4.26Z" transform="translate(-20.46 -18.2)"/><path class="cls-14" d="M407.09,236.83c15.24,14.22,51.29,21.79,79.07,8.26,3-8.33,6.4-38.05,7.3-46.94.18-1.77.32-3.54.44-5.31a233.93,233.93,0,0,0,0-26.09c0-.49-.05-1-.07-1.47-.36-7.38-.91-15.05-1.42-23.18-1-16.11-6.39-26-15.73-27.52a38.08,38.08,0,0,1-10.31-3.11c-.31-.14-.6-.29-.88-.43a29.79,29.79,0,0,1-4.72-2.92H440a15.88,15.88,0,0,1-6.48,5.42l-.82.37c-7.39,3.19-16,2.56-17.79,11.47-1.12,5.6,3.17,17.12,2.72,40.47,0,1.71-.09,3.49-.18,5.33s-.19,3.51-.33,5.35-.28,3.49-.46,5.31c-.16,1.59-.34,3.22-.54,4.9s-.44,3.48-.7,5.29C414,201.73,410.28,224.35,407.09,236.83Z" transform="translate(-20.46 -18.2)"/><path class="cls-15" d="M478.48,241.69l-.17,0a.63.63,0,0,1-.43-.77c11.56-42.42,9.23-85.53,9.2-86a.63.63,0,0,1,.59-.66.62.62,0,0,1,.66.58c0,.44,2.37,43.76-9.25,86.37A.62.62,0,0,1,478.48,241.69Z" transform="translate(-20.46 -18.2)"/><path class="cls-15" d="M415.71,186.6a.68.68,0,0,0,.66-.6c1.39-12.27,1.4-36.67,1.4-36.92a.67.67,0,0,0-1.34,0c0,.25,0,24.58-1.39,36.77a.67.67,0,0,0,.59.74Z" transform="translate(-20.46 -18.2)"/><path class="cls-15" d="M444.24,232.8a1.57,1.57,0,1,0,1.43-1.7A1.58,1.58,0,0,0,444.24,232.8Z" transform="translate(-20.46 -18.2)"/><path class="cls-15" d="M444,240.4a1.57,1.57,0,1,0,1.43-1.7A1.56,1.56,0,0,0,444,240.4Z" transform="translate(-20.46 -18.2)"/><path class="cls-15" d="M425.65,156.83c-4.09-4.75-2.55-15.32-2.49-15.77a.67.67,0,0,1,.67-.57H437.7a.67.67,0,0,1,.66.57c.07.45,1.6,11-2.49,15.77a6.89,6.89,0,0,1-10.22,0Zm-1.23-15c-.26,2.23-.94,10.42,2.25,14.12a5.53,5.53,0,0,0,8.18,0c3.19-3.7,2.51-11.89,2.26-14.12Z" transform="translate(-20.46 -18.2)"/><path class="cls-7" d="M462.68,56.76c-3.88-2.51-16.1-3.77-16.1-3.77s-2-5.29-4.28-6.8c-5.15-3.43-5.79,3.53-5.79,3.53s-5-7-9.56-5,1.26,8.56,1.26,8.56-6.8-1.26-6,4.53,7.29,8.3,7.29,8.3-2,3.27-1,8.56,3.27,5.54,3.27,5.54l28.18,2.51s5.79,0,7.3-7.3-3.52-10.31-3.52-10.31S467,59.53,462.68,56.76Z" transform="translate(-20.46 -18.2)"/><path class="cls-12" d="M439.66,104.58v5.29a15.5,15.5,0,0,0,1.87,1.31c9.2,5.53,19.11-1.31,19.11-1.31V91.51L442.16,103Z" transform="translate(-20.46 -18.2)"/><path class="cls-7" d="M439.66,104.42v5.45a15.5,15.5,0,0,0,1.87,1.31c7.83-3.1,13.53-11.31,13.53-11.31L442.16,103Z" transform="translate(-20.46 -18.2)"/><path class="cls-14" d="M460.6,104.49a10.48,10.48,0,0,1,7.88,8.12c-6,6.31-11.35,11.77-20,13.37V113.31A22.32,22.32,0,0,0,460.6,104.49Z" transform="translate(-20.46 -18.2)"/><path class="cls-14" d="M439.47,106.32s-5.53,1.19-7.68,8.26c5.57,6.78,8.55,9.33,16.71,11.4V113.31S444,113.24,439.47,106.32Z" transform="translate(-20.46 -18.2)"/><polygon class="cls-7" points="415.89 186.58 419.47 195.23 419.47 195.23 421.08 199.11 425.62 210.09 427.81 205.85 428.59 204.35 430.36 200.95 431.13 199.45 432.89 196.05 433.67 194.55 435.43 191.15 435.43 191.15 436.21 189.65 437.86 186.46 437.83 186.11 437.57 183.58 436.98 177.83 436.73 175.29 436.14 169.55 435.88 167.01 435.3 161.27 435.04 158.74 434.45 152.99 434.2 150.45 433.61 144.71 433.35 142.17 432.77 136.43 432.51 133.89 431.93 128.15 431.67 125.61 431.08 119.86 430.82 117.33 430.22 111.39 425.83 111.22 425.7 112.21 425.44 114.22 424.83 118.78 424.57 120.79 423.97 125.35 423.7 127.36 423.1 131.92 422.83 133.93 422.23 138.49 421.97 140.5 421.37 145.06 421.1 147.07 420.5 151.63 420.23 153.64 419.63 158.2 419.37 160.21 418.76 164.77 418.5 166.78 417.9 171.34 417.63 173.36 417.03 177.91 416.76 179.93 416.16 184.48 415.9 186.5 415.89 186.58"/><polygon class="cls-6" points="425.44 114.22 431.08 119.86 430.82 117.33 425.7 112.21 425.44 114.22"/><polygon class="cls-6" points="424.57 120.79 431.93 128.15 431.67 125.61 424.83 118.78 424.57 120.79"/><polygon class="cls-6" points="423.7 127.36 432.77 136.43 432.51 133.89 423.97 125.35 423.7 127.36"/><polygon class="cls-6" points="422.83 133.93 433.61 144.71 433.35 142.17 423.1 131.92 422.83 133.93"/><polygon class="cls-6" points="421.97 140.5 434.45 152.99 434.2 150.45 422.23 138.49 421.97 140.5"/><polygon class="cls-6" points="421.1 147.07 435.3 161.27 435.04 158.74 421.37 145.06 421.1 147.07"/><polygon class="cls-6" points="420.23 153.64 436.14 169.55 435.88 167.01 420.5 151.63 420.23 153.64"/><polygon class="cls-6" points="419.37 160.21 436.98 177.83 436.73 175.29 419.63 158.2 419.37 160.21"/><polygon class="cls-6" points="418.5 166.78 437.83 186.11 437.57 183.58 418.76 164.77 418.5 166.78"/><polygon class="cls-6" points="417.63 173.36 435.43 191.15 436.21 189.65 417.9 171.34 417.63 173.36"/><polygon class="cls-6" points="416.76 179.93 432.89 196.05 433.67 194.55 417.03 177.91 416.76 179.93"/><polygon class="cls-6" points="415.9 186.5 430.36 200.95 431.13 199.45 416.16 184.48 415.9 186.5"/><polygon class="cls-6" points="419.47 195.23 421.08 199.11 427.81 205.85 428.59 204.35 419.47 195.23"/><polygon class="cls-6" points="430.22 111.39 428.04 114.64 425.83 111.22 425.45 114.14 428 116.74 430.45 113.65 430.22 111.39"/><polygon class="cls-7" points="433.89 105.94 428.04 114.64 422.43 105.94 428.04 98.67 433.89 105.94"/><path class="cls-15" d="M457.76,130.09a.72.72,0,0,0,.42-.15c5.79-4.62,10.73-16.57,10.94-17.08a.67.67,0,0,0-1.24-.51c-.05.12-4.7,11.37-10,16.09l-8.81-12a.67.67,0,0,0-.55-.27.66.66,0,0,0-.54.28l-8.23,11.68c-1.26-2.26-4.56-8.29-7.33-13.87a.68.68,0,0,0-1.21.6c3.51,7.05,7.84,14.79,7.89,14.86a.66.66,0,0,0,.55.34.64.64,0,0,0,.58-.28L448.53,118l8.69,11.8a.65.65,0,0,0,.45.27Z" transform="translate(-20.46 -18.2)"/><path class="cls-15" d="M448.52,117.53a.67.67,0,0,0,.67-.67v-3a.68.68,0,0,0-1.35,0v3A.67.67,0,0,0,448.52,117.53Z" transform="translate(-20.46 -18.2)"/><path class="cls-13" d="M433,81.11s-3-3.55-4.71,0-.39,10.75,4.19,9.57Z" transform="translate(-20.46 -18.2)"/><path class="cls-12" d="M429.83,93.57s0,11,11.38,10.92,19-8.91,19.42-9.32h0l.12-2.3.64-11.94.35-6.38S463.2,63.05,452.28,61c-8-1.53-15.46-.21-19.24,4-.12.13-.24.27-.35.41a9.79,9.79,0,0,0-2.15,5.35l-.35,11.47L430.1,85Z" transform="translate(-20.46 -18.2)"/><path class="cls-7" d="M442.91,73.91s4.77,3.56,7.62,1.29-3.78-4.74-6-4.55S441.49,73.11,442.91,73.91Z" transform="translate(-20.46 -18.2)"/><path class="cls-7" d="M437.71,73.91s-4.78,3.56-7.62,1.29,3.78-4.74,6-4.55S439.13,73.11,437.71,73.91Z" transform="translate(-20.46 -18.2)"/><path class="cls-13" d="M441.47,95a4.77,4.77,0,0,0,3.26-1,.51.51,0,0,0-.66-.77,3.49,3.49,0,0,1-3.5.55.49.49,0,0,0-.66.25.51.51,0,0,0,.25.67A4.31,4.31,0,0,0,441.47,95Z" transform="translate(-20.46 -18.2)"/><path class="cls-5" d="M446.41,87.19s-7,1.39-10.46,1.08c0,0,1.31,5.17,6.48,3.86A5.17,5.17,0,0,0,446.41,87.19Z" transform="translate(-20.46 -18.2)"/><path class="cls-7" d="M432.69,65.32c1.79-.63,3.08,0,5.86,1.18,4,1.76,8.52.17,12.5-1.86s6.36.8,5,2.65-1.2,3.36.3,5.73-2.84,3.46-.44,5.32a2.45,2.45,0,0,1,.54,3,1.63,1.63,0,0,0,1.84,2.17h0c1.3-.32,3.12-2.62,3.12-2.62l.35-6.38S463.2,63.05,452.28,61c-8-1.53-15.46-.21-19.24,4C432.92,65,432.8,65.18,432.69,65.32Z" transform="translate(-20.46 -18.2)"/><path class="cls-13" d="M445,83.54c0,.8,1.64,1.45,3.66,1.45s3.67-.65,3.67-1.45-1.64-1.44-3.67-1.44S445,82.75,445,83.54Z" transform="translate(-20.46 -18.2)"/><path class="cls-13" d="M430.1,85c.28,0,.58,0,.88,0,2,0,3.67-.65,3.67-1.45S433,82.1,431,82.1a6.74,6.74,0,0,0-.79,0Z" transform="translate(-20.46 -18.2)"/><path class="cls-7" d="M443.45,79.16c0,1.09.5,2,1.11,2s1.11-.89,1.11-2-.5-2-1.11-2S443.45,78.06,443.45,79.16Z" transform="translate(-20.46 -18.2)"/><path class="cls-7" d="M432.45,79.16c0,1.09.5,2,1.11,2s1.11-.89,1.11-2-.5-2-1.11-2S432.45,78.06,432.45,79.16Z" transform="translate(-20.46 -18.2)"/><path class="cls-7" d="M457.07,90.73c.05.12,1.49,3.46,3.56,4.44h0l.13-2.3A7.89,7.89,0,0,1,457.07,90.73Z" transform="translate(-20.46 -18.2)"/><path class="cls-12" d="M459.07,83.13s4.38-5.88,7.59-1.26c2.64,3.81-2.36,13.73-7.59,10.33Z" transform="translate(-20.46 -18.2)"/><path class="cls-7" d="M459.67,90.43a.45.45,0,0,0,.45-.4A7.55,7.55,0,0,1,464.49,84a.45.45,0,0,0,.25-.58.44.44,0,0,0-.58-.25,8.42,8.42,0,0,0-4.94,6.8.47.47,0,0,0,.4.5Z" transform="translate(-20.46 -18.2)"/><path class="cls-7" d="M463.88,87.7a.42.42,0,0,0,.34-.17.45.45,0,0,0-.06-.63c-.18-.15-1.8-1.42-3.15-1.07a.44.44,0,0,0-.32.54.45.45,0,0,0,.55.33c.77-.2,2,.58,2.35.9A.45.45,0,0,0,463.88,87.7Z" transform="translate(-20.46 -18.2)"/><path class="cls-7" d="M439.9,84.67a.45.45,0,0,0,0-.9,3.09,3.09,0,0,1-2.69-1.26c1.79-3.7,3.58-7.43,3.6-7.47a.46.46,0,0,0-.21-.6.45.45,0,0,0-.6.21s-1.88,3.92-3.71,7.69a.42.42,0,0,0,0,.38A3.86,3.86,0,0,0,439.9,84.67Z" transform="translate(-20.46 -18.2)"/><path class="cls-12" d="M548.85,125.26s6.06,6.12,12,3.73c4.83-1.93,5.9-8.65,6.14-11.16.05-.6.06-1,.06-1s.33-.19.78-.52c1.07-.78,2.82-2.36,2.63-4.21-.27-2.64-5.07-1.17-5.07-1.17s.73-3.19-.69-4.13-4.25.71-4.25.71,1.55-3.91-.57-4.85c-3.19-1.42-4.24,3.39-4.38,3.7,0-.34,1.56-15.07-1-14.32-2.21.66-4.25,13-4.76,16.32-.08.53-.12.84-.12.84h-.48c-1.42,0-5.59.42-6.36,3.32C541.94,116.08,548.85,125.26,548.85,125.26Z" transform="translate(-20.46 -18.2)"/><path class="cls-13" d="M561.25,114.85a5.29,5.29,0,0,0-.52,3.26,1.57,1.57,0,0,0,1,1.13,3,3,0,0,0,1.34,0,15.91,15.91,0,0,0,3.93-1.42c.06-.61.07-1,.07-1s.33-.19.78-.52a.45.45,0,0,0-.27.06c-1.62.89-4.56,2.19-5.55,1.88a.59.59,0,0,1-.38-.45c-.27-1,.46-3,1.5-4.24a.49.49,0,0,0-.67-.72c-1,.73-3.86,2.52-5.29,2.06-.21-.07-.24-.16-.25-.21a1.67,1.67,0,0,1,.21-1,12.33,12.33,0,0,1,1.76-2.61.47.47,0,0,0,.12-.27.5.5,0,0,0-.16-.43.51.51,0,0,0-.71,0,13.42,13.42,0,0,0-1.79,2.59,4.23,4.23,0,0,0-.42,1.24,1.63,1.63,0,0,0,0,.7,1.27,1.27,0,0,0,.9.89C558.18,116.29,559.93,115.58,561.25,114.85Z" transform="translate(-20.46 -18.2)"/><path class="cls-13" d="M553.65,110.66a.5.5,0,0,1,.36.43,3.17,3.17,0,0,0,.43,1.54.56.56,0,0,0,.51.29,2,2,0,0,0,.82-.3,14.64,14.64,0,0,0,2.66-2.21.53.53,0,0,1-.12.28,12,12,0,0,0-1.76,2.6l-.29.18a3.83,3.83,0,0,1-.91.39,1.48,1.48,0,0,1-.35,0,1.52,1.52,0,0,1-1.36-.7,4.2,4.2,0,0,1-.63-2,.48.48,0,0,1,.62-.51Z" transform="translate(-20.46 -18.2)"/><path class="cls-13" d="M546.53,116.23a16.1,16.1,0,0,0,3.93-.1A5.55,5.55,0,0,0,553.2,115a2.47,2.47,0,0,0,.88-1.87c.06-2.64-2.64-4.11-4.26-4.75-.08.53-.12.84-.12.84h-.48c1.36.51,3.91,1.75,3.87,3.89a1.5,1.5,0,0,1-.54,1.14c-1.33,1.17-4.72,1.1-5.91,1a.49.49,0,1,0-.11,1Z" transform="translate(-20.46 -18.2)"/><path class="cls-13" d="M557.2,125.72a.47.47,0,0,0,.38-.31.49.49,0,0,0-.29-.64,4.48,4.48,0,0,1-2.77-2.6c-1.17-3.07,1-7.33,1-7.38a.49.49,0,0,0-.21-.67.51.51,0,0,0-.67.21c-.1.19-2.42,4.71-1.09,8.2a5.44,5.44,0,0,0,3.35,3.17A.47.47,0,0,0,557.2,125.72Z" transform="translate(-20.46 -18.2)"/><path class="cls-14" d="M483.42,118.11l10.37,9c1.65,1.55,3.32,3.08,5,4.61s3.33,3.05,5,4.55,3.33,3,5,4.45,3.33,2.89,5,4.27,3.28,2.7,4.82,3.85c.77.56,1.51,1.08,2.11,1.48l.4.25.17.1.06.06a.64.64,0,0,1,.12.13c.06.07.05.13.12.18s.22.1.51.08A8,8,0,0,0,525,150a25.59,25.59,0,0,0,4-3,54.78,54.78,0,0,0,4.09-4.11,100.65,100.65,0,0,0,7.73-10c2.46-3.55,4.2-6.29,6.42-10.07a16.63,16.63,0,0,0,15.1,5.78,134.26,134.26,0,0,1-5.84,13.47,104.26,104.26,0,0,1-7.68,13.06,68,68,0,0,1-5,6.35,47.06,47.06,0,0,1-6.49,6.07,33.5,33.5,0,0,1-4.23,2.74,28.25,28.25,0,0,1-5.25,2.19,24.11,24.11,0,0,1-6.34,1,23.61,23.61,0,0,1-9.81-2l-.72-.32-.61-.3-.57-.29-.54-.29c-1.41-.76-2.61-1.49-3.76-2.21-2.28-1.46-4.33-2.9-6.34-4.35s-3.92-2.94-5.81-4.43-3.76-3-5.59-4.49-3.65-3-5.44-4.57-3.57-3.09-5.33-4.65-3.5-3.14-5.23-4.73l-2.59-2.4-1.28-1.22-1.31-1.25Z" transform="translate(-20.46 -18.2)"/><path class="cls-15" d="M493.31,160.62a.69.69,0,0,1-.36-.11c-6.84-4.79-19-14.88-19.12-15a.62.62,0,1,1,.79-1c.13.1,12.25,10.15,19.05,14.91a.63.63,0,0,1-.36,1.14Z" transform="translate(-20.46 -18.2)"/><path class="cls-15" d="M479.16,149.71h-.09l-4.82-.7a.63.63,0,0,1,.18-1.24l4.82.7a.63.63,0,0,1-.09,1.25Z" transform="translate(-20.46 -18.2)"/><path class="cls-15" d="M558.92,136.43a.61.61,0,0,0,.32-.7.62.62,0,0,0-.75-.48c-9.08,2-13.6-6.68-13.64-6.77a.65.65,0,0,0-.86-.28h0a.65.65,0,0,0-.28.86c0,.09,5,9.62,15,7.43A.52.52,0,0,0,558.92,136.43Z" transform="translate(-20.46 -18.2)"/><path class="cls-15" d="M554.25,136.6a.59.59,0,0,0,.29-.31l3-7a.63.63,0,0,0-.33-.83.64.64,0,0,0-.84.33l-3,7a.63.63,0,0,0,.34.83A.6.6,0,0,0,554.25,136.6Z" transform="translate(-20.46 -18.2)"/><path class="cls-15" d="M548.9,129.89a1.1,1.1,0,0,0,2-1,1.11,1.11,0,0,0-1.49-.47A1.1,1.1,0,0,0,548.9,129.89Z" transform="translate(-20.46 -18.2)"/><path class="cls-15" d="M520.1,158.88a.62.62,0,0,0,.33-.46,28,28,0,0,1,1.86-6.34.63.63,0,0,0-1.13-.57,27.39,27.39,0,0,0-2,6.7.62.62,0,0,0,.52.73A.61.61,0,0,0,520.1,158.88Z" transform="translate(-20.46 -18.2)"/><path class="cls-15" d="M524.23,157.45l.12-.08a.63.63,0,0,0,.08-.89,11.84,11.84,0,0,1-2.22-4.24.63.63,0,1,0-1.24.25,12.78,12.78,0,0,0,2.48,4.8A.63.63,0,0,0,524.23,157.45Z" transform="translate(-20.46 -18.2)"/></g><ellipse class="cls-4" cx="144.84" cy="412.94" rx="144.84" ry="8.81"/><path class="cls-12" d="M156.27,185.8l14.63,53.49-5.22-6a26.31,26.31,0,0,0,6.65,2.37,48,48,0,0,0,8,1c2.82.14,5.76.12,8.77,0s6.08-.35,9.19-.62h0a8.36,8.36,0,0,1,2,16.59c-3.22.51-6.49,1-9.85,1.39s-6.79.68-10.36.76a67.66,67.66,0,0,1-11.06-.61A46,46,0,0,1,157.44,251a9.13,9.13,0,0,1-5-5.46l-.18-.55-17.56-52.61a11.29,11.29,0,0,1,21.42-7.15C156.15,185.39,156.22,185.61,156.27,185.8Z" transform="translate(-20.46 -18.2)"/><path class="cls-15" d="M161.9,379.73a1.81,1.81,0,0,1-.65-.11L84.6,352a1.93,1.93,0,0,1,1.31-3.63L162.56,376a1.93,1.93,0,0,1-.66,3.75Z" transform="translate(-20.46 -18.2)"/><path class="cls-15" d="M82.07,379.73a1.93,1.93,0,0,1-.65-3.75L159,347.89a1.94,1.94,0,0,1,1.32,3.64L82.73,379.62A1.91,1.91,0,0,1,82.07,379.73Z" transform="translate(-20.46 -18.2)"/><path class="cls-14" d="M168.72,429.12a3.32,3.32,0,0,1-3.28-2.87L151.6,322.88H93.67L80,426.24a3.31,3.31,0,1,1-6.56-.86l14-106.24a3.31,3.31,0,0,1,3.28-2.88h63.72a3.31,3.31,0,0,1,3.28,2.87L172,425.37a3.32,3.32,0,0,1-2.84,3.72A3.25,3.25,0,0,1,168.72,429.12Z" transform="translate(-20.46 -18.2)"/><path class="cls-14" d="M136,319.57H94.65c-13.11,0-27.15-7.17-29.17-20.13a246,246,0,0,1-2.6-49.5,60.26,60.26,0,0,1,22.85-44.41h0s8.27,36-2.13,85.75C87.57,310.18,136,319.57,136,319.57Z" transform="translate(-20.46 -18.2)"/><path class="cls-7" d="M127.41,108.26s-4.92-11.85-17.94-9.62c-9.11,1.56-13,12.9-12.45,30.41.78,25.49-7.84,40.85-7.84,40.85l11.44,2.6S129.75,128.81,127.41,108.26Z" transform="translate(-20.46 -18.2)"/><path class="cls-7" d="M231.79,384.82H213.3s-4.27-20.51-5.71-32S205.41,314,205.41,314s-14.73,4.78-45.57,3c-68.33-4-42.42-54.2-42.42-54.2,2.31,3.19,16.45,1,26.11,2.51,29.67,2.84,55.4,14.49,70.84,21.15a77.49,77.49,0,0,1,9.92,5.08c3.72,2.3,6.05,9.26,7.45,18.42C236,337.48,231.79,384.82,231.79,384.82Z" transform="translate(-20.46 -18.2)"/><path class="cls-6" d="M215.6,374.94a.66.66,0,0,1-.65-.53c-2.67-13.2-3.56-29.63-4.28-42.83-.6-10.95-1.16-21.29-2.57-22.53-1.14-1-5.87-.22-11.85.77-11.91,2-29.91,5-49.76.35-10.81-2.52-18.75-7.77-23.62-15.61-8.39-13.52-4.56-30.29-4.52-30.46a.66.66,0,0,1,.79-.49.67.67,0,0,1,.5.8c0,.16-3.74,16.41,4.36,29.46,4.67,7.53,12.34,12.58,22.79,15,19.59,4.56,37.43,1.6,49.24-.36,7.07-1.18,11.34-1.89,12.95-.46s2.23,9.09,3,23.44c.72,13.16,1.61,29.54,4.26,42.64a.66.66,0,0,1-.52.78Z" transform="translate(-20.46 -18.2)"/><path class="cls-6" d="M232.14,375.29h0l-20.56-.44a.67.67,0,0,1-.65-.67.66.66,0,0,1,.68-.65l20.56.44a.67.67,0,0,1,0,1.33Z" transform="translate(-20.46 -18.2)"/><polygon class="cls-12" points="210.82 390.31 197.77 390.31 195.25 375.01 193.88 366.63 210.09 366.63 210.35 375.01 210.82 390.31"/><polygon class="cls-14" points="210.82 390.31 197.77 390.31 195.9 378.92 195.25 375.01 210.35 375.01 210.47 379.06 210.82 390.31"/><polygon class="cls-15" points="210.47 379.06 195.9 378.92 195.25 375.01 210.35 375.01 210.47 379.06"/><path class="cls-16" d="M263.48,429.12H214.13a6.85,6.85,0,0,1-.65-2.74c-.31-4.18,1-10.84,1.67-15,.08-.49.15-.95.2-1.36a15,15,0,0,0,.15-1.72c0-3.43,3-2.84,3-2.84,5,4.9,10.64-2.45,14,0l.43.34c.28.21.7.55,1.29,1,.84.71,2,1.73,3.62,3.17,3.91,3.52,10.58,5.85,16.25,8.22.72.3,1.39.61,2,.91.47.22.92.45,1.34.68,4.63,2.5,6.11,4.9,6.45,6.64A3.84,3.84,0,0,1,263.48,429.12Z" transform="translate(-20.46 -18.2)"/><path class="cls-17" d="M257.44,419.74c-1.27,1-4.1,3-6.37,3l-.3,0c-1.6-.13-7.48-3-12.26-5.65-2.75-1.51-5.25-3-7-4.18-3-1.95-3.47-2.69-3.58-3.21-.44-1.94,2.78-3.3,5-4,.28.21.7.55,1.29,1-2.81.77-5.11,2-5,2.65.28.58,3.2,2.8,10.18,6.63,5.33,2.91,10.39,5.27,11.51,5.36,1.52.13,3.75-1.26,5.21-2.34C256.57,419.28,257,419.51,257.44,419.74Z" transform="translate(-20.46 -18.2)"/><path class="cls-17" d="M263.48,429.12H214.13a6.85,6.85,0,0,1-.65-2.74h50.41A3.86,3.86,0,0,1,263.48,429.12Z" transform="translate(-20.46 -18.2)"/><path class="cls-17" d="M219.16,429.12H217.7a10.85,10.85,0,0,0,2.65-7.91,13.89,13.89,0,0,0-5.2-9.87c.08-.49.15-.95.2-1.36a15.13,15.13,0,0,1,6.18,11.18A12,12,0,0,1,219.16,429.12Z" transform="translate(-20.46 -18.2)"/><path class="cls-5" d="M237,412.84a.82.82,0,0,1-.2-1.61l3.09-.76a.81.81,0,0,1,.39,1.58l-3.08.76Z" transform="translate(-20.46 -18.2)"/><path class="cls-5" d="M233.93,410.27a.81.81,0,0,1-.2-1.6l3.08-.77a.81.81,0,1,1,.39,1.58l-3.08.77Z" transform="translate(-20.46 -18.2)"/><path class="cls-5" d="M240.07,414.63a.83.83,0,0,1-.79-.62.81.81,0,0,1,.6-1l3.08-.77a.81.81,0,0,1,.39,1.58l-3.08.76A.69.69,0,0,1,240.07,414.63Z" transform="translate(-20.46 -18.2)"/><path class="cls-5" d="M243.15,416.35a.81.81,0,0,1-.19-1.6L246,414a.81.81,0,1,1,.39,1.58l-3.08.77Z" transform="translate(-20.46 -18.2)"/><path class="cls-5" d="M246.52,417.94a.8.8,0,0,1-.79-.61.82.82,0,0,1,.59-1l3.08-.76a.81.81,0,0,1,.4,1.58l-3.09.76A.62.62,0,0,1,246.52,417.94Z" transform="translate(-20.46 -18.2)"/><path class="cls-5" d="M250.16,419.3a.81.81,0,0,1-.19-1.6l3.08-.76a.81.81,0,1,1,.39,1.57l-3.08.77A.68.68,0,0,1,250.16,419.3Z" transform="translate(-20.46 -18.2)"/><path class="cls-17" d="M83.2,246.89s-.59,4,4.76,5.11l55.67,1.85a6.29,6.29,0,0,0,3.09-6.55S123.21,234.1,83.2,246.89Z" transform="translate(-20.46 -18.2)"/><path class="cls-12" d="M144.4,265.31c-28.91,15.89-60.46,3.09-60.46,3.09a88.19,88.19,0,0,0,3.52-13.28c1-5,1.5-9.47,1.75-11.8,12.29-.68,42.42-2,54.23.84l.09,4.74Z" transform="translate(-20.46 -18.2)"/><path class="cls-13" d="M123.05,257.68c-.22,1.49-.89,2.63-1.5,2.54s-1-1.37-.73-2.86.88-2.63,1.5-2.54S123.26,256.19,123.05,257.68Z" transform="translate(-20.46 -18.2)"/><path class="cls-13" d="M143.53,248.9c-12.3-.75-36.52-1-56.07,6.22,1-5,1.5-9.47,1.75-11.8,12.29-.68,42.42-2,54.23.84Z" transform="translate(-20.46 -18.2)"/><path class="cls-16" d="M157.26,226a6,6,0,0,1-.41,1l-.18.36a27.46,27.46,0,0,1-5.95,7.12c-.42.37-.82.71-1.19,1-.75.6-1.37,1.07-1.81,1.38s-.63.43-.63.43v.08c0,.22,0,.44-.06.68-.07.91-.13,2-.18,3.23,0,1-.06,2.09-.09,3.26,0,.87,0,1.78,0,2.72-16.34-7.3-50-2.69-63.52-.41.25-1.17.47-2.31.68-3.43a106.23,106.23,0,0,0,1.71-14,147.8,147.8,0,0,0-1.53-25.15l-.27-1.88-.18-1.22c-.47-3-1-6.05-1.62-9-2.67-12.81-.79-26.26,12.2-27.86.94-.11,1.87-.22,2.77-.31,6.13-.66,11.17-.88,12.57-.93l.39,0,25.12,7.3,2.38.69c1.38.44,2.65.87,3.82,1.29l1.45.53c1.22.46,2.33.9,3.33,1.35a27,27,0,0,1,4.86,2.65c5.52,3.91,4.66,8.33,4.52,17.06v.12c0,.11,0,.22,0,.33v1.22c0,1.13.05,2.25.12,3.37.09,1.65.24,3.29.42,4.9.07.64.14,1.28.22,1.91s.15,1.19.23,1.78C157.38,215.25,158.63,222,157.26,226Z" transform="translate(-20.46 -18.2)"/><path class="cls-17" d="M155.4,194.1c0,.11,0,.22,0,.33v1.22L150.11,199a.72.72,0,0,1-.51.1.74.74,0,0,1-.27-1.35l5.6-3.51A.72.72,0,0,1,155.4,194.1Z" transform="translate(-20.46 -18.2)"/><path class="cls-17" d="M120.6,222.37a.72.72,0,0,1-.55-.24.74.74,0,0,1,0-1l4.91-4.42a.74.74,0,1,1,1,1.09l-4.91,4.42A.72.72,0,0,1,120.6,222.37Z" transform="translate(-20.46 -18.2)"/><path class="cls-17" d="M156.38,207.61l-3.37,3a.7.7,0,0,1-.49.19.74.74,0,0,1-.49-1.29l4.12-3.71C156.22,206.43,156.3,207,156.38,207.61Z" transform="translate(-20.46 -18.2)"/><path class="cls-17" d="M110.64,204.6a.72.72,0,0,1-.12-.59.74.74,0,0,1,.89-.55l6.43,1.52a.73.73,0,1,1-.34,1.43l-6.43-1.52A.73.73,0,0,1,110.64,204.6Z" transform="translate(-20.46 -18.2)"/><path class="cls-17" d="M87.69,217.21a.75.75,0,0,1-.55-.24.73.73,0,0,1,.06-1l4.91-4.42a.74.74,0,0,1,1,.05.73.73,0,0,1-.06,1L88.18,217A.7.7,0,0,1,87.69,217.21Z" transform="translate(-20.46 -18.2)"/><path class="cls-17" d="M144.85,216.16a.77.77,0,0,1,.41-.44.74.74,0,0,1,1,.38l2.64,6.06a.74.74,0,0,1-1.35.59l-2.64-6.06A.75.75,0,0,1,144.85,216.16Z" transform="translate(-20.46 -18.2)"/><path class="cls-17" d="M157.26,226a6,6,0,0,1-.41,1l-.18.36-3.59-1.14a.7.7,0,0,1-.42-.33.71.71,0,0,1-.06-.59.73.73,0,0,1,.92-.48Z" transform="translate(-20.46 -18.2)"/><path class="cls-17" d="M137,226.56a.71.71,0,0,1,.57.19.72.72,0,0,1,0,1l-4.44,4.89a.74.74,0,1,1-1.09-1l4.44-4.89A.77.77,0,0,1,137,226.56Z" transform="translate(-20.46 -18.2)"/><path class="cls-17" d="M134.37,215.28a.75.75,0,0,1-.5-.34.74.74,0,0,1,.23-1l5.6-3.52a.74.74,0,0,1,1,.24.73.73,0,0,1-.24,1l-5.59,3.51A.75.75,0,0,1,134.37,215.28Z" transform="translate(-20.46 -18.2)"/><path class="cls-17" d="M137.94,194a.76.76,0,0,1,.18.57.74.74,0,0,1-.81.65l-6.57-.72a.72.72,0,0,1-.65-.81.73.73,0,0,1,.81-.65l6.57.72A.76.76,0,0,1,137.94,194Z" transform="translate(-20.46 -18.2)"/><path class="cls-17" d="M128.39,179.75a.72.72,0,0,1,.36-.48.75.75,0,0,1,1,.3l3.13,5.83a.74.74,0,0,1-.3,1,.73.73,0,0,1-1-.3l-3.13-5.82A.68.68,0,0,1,128.39,179.75Z" transform="translate(-20.46 -18.2)"/><path class="cls-17" d="M150.72,234.51c-.42.37-.82.71-1.19,1l-.87-2.2a.75.75,0,0,1,.42-1,.73.73,0,0,1,.95.42Z" transform="translate(-20.46 -18.2)"/><path class="cls-17" d="M90.32,223.32a.73.73,0,0,1,.9-1l6.21,2.23a.74.74,0,1,1-.5,1.39l-6.21-2.24A.71.71,0,0,1,90.32,223.32Z" transform="translate(-20.46 -18.2)"/><path class="cls-17" d="M93.36,231.72a.8.8,0,0,1,.55.25.73.73,0,0,1-.07,1l-4.94,4.38a.74.74,0,0,1-1-.06.73.73,0,0,1,.06-1l5-4.38A.72.72,0,0,1,93.36,231.72Z" transform="translate(-20.46 -18.2)"/><path class="cls-17" d="M102.33,238.68a.76.76,0,0,1,.15.58.74.74,0,0,1-.85.6l-6.52-1.11a.74.74,0,0,1,.25-1.45l6.52,1.11A.73.73,0,0,1,102.33,238.68Z" transform="translate(-20.46 -18.2)"/><path class="cls-17" d="M107.78,176.82a.72.72,0,0,1,.09-.6.74.74,0,0,1,1-.22l5.55,3.59a.73.73,0,1,1-.8,1.23l-5.55-3.58A.68.68,0,0,1,107.78,176.82Z" transform="translate(-20.46 -18.2)"/><path class="cls-17" d="M145.66,181a.73.73,0,0,1,.6,0,.75.75,0,0,1,.45.94l-2.21,6.23a.75.75,0,0,1-.94.45.73.73,0,0,1-.45-.94l2.21-6.23A.71.71,0,0,1,145.66,181Z" transform="translate(-20.46 -18.2)"/><path class="cls-17" d="M142.69,172.92l-3.41,4.38a.74.74,0,0,1-1.16-.91l3.12-4Z" transform="translate(-20.46 -18.2)"/><path class="cls-17" d="M109.32,233.36a.64.64,0,0,0,.46.4.61.61,0,0,0,.3,0,34.69,34.69,0,0,1,22,1.16,37.56,37.56,0,0,0,14.9,3.19c0-.24,0-.46.06-.68v-.08s.24-.15.63-.43a36,36,0,0,1-15.13-3.11,35.24,35.24,0,0,0-22.88-1.19A.6.6,0,0,0,109.32,233.36Z" transform="translate(-20.46 -18.2)"/><path class="cls-17" d="M135,170.41c-1.4,2.18-4.31,4.65-10.19,4.23-8.11-.59-13.45-8.33-15.31-11.51l.38,0Z" transform="translate(-20.46 -18.2)"/><path class="cls-5" d="M126.41,184.77a5.77,5.77,0,0,0,.71.1,6.26,6.26,0,0,0,5.4-1.93c3.9-4.27,2.3-14,2.23-14.39a.6.6,0,0,0-1.18.2c0,.09,1.57,9.55-1.93,13.38a5.07,5.07,0,0,1-4.42,1.54c-7.86-.63-16.67-20.6-16.75-20.8a.62.62,0,0,0-.8-.31.61.61,0,0,0-.31.79C109.72,164.18,118.08,183.08,126.41,184.77Z" transform="translate(-20.46 -18.2)"/><path class="cls-12" d="M150.89,176.92a43.68,43.68,0,0,0,4.62,22.1q-.13-2.21-.12-4.44v-.15c0-.15,0-.3,0-.45C155.54,185.25,156.39,180.83,150.89,176.92Z" transform="translate(-20.46 -18.2)"/><path class="cls-12" d="M104.68,187.06c-2.88,11.12-13.42,20-20.62,17.26l-.27-1.88-.18-1.22c-.47-3-1-6.05-1.62-9-2.67-12.81-.79-26.26,12.2-27.85.94-.12,1.87-.23,2.77-.32C103.47,166.83,108,174.25,104.68,187.06Z" transform="translate(-20.46 -18.2)"/><path class="cls-12" d="M106.16,178.58l16.89,61.74-6-6.94a30.78,30.78,0,0,0,7.67,2.74,55.76,55.76,0,0,0,9.22,1.18c3.26.17,6.65.14,10.12,0s7-.4,10.61-.71h0A9.65,9.65,0,0,1,157,255.72c-3.71.6-7.49,1.16-11.36,1.6s-7.84.79-12,.88a76.74,76.74,0,0,1-12.78-.7,53.13,53.13,0,0,1-13.4-3.71,10.49,10.49,0,0,1-5.81-6.29l-.21-.65L81.24,186.14A13,13,0,0,1,106,177.89C106,178.11,106.1,178.36,106.16,178.58Z" transform="translate(-20.46 -18.2)"/><path class="cls-13" d="M113.72,238.34a.5.5,0,0,1-.25-.93,21.07,21.07,0,0,1,7.71-2.48.5.5,0,0,1,.54.46.5.5,0,0,1-.46.54,20.33,20.33,0,0,0-7.29,2.35A.57.57,0,0,1,113.72,238.34Z" transform="translate(-20.46 -18.2)"/><path class="cls-13" d="M119.86,236.11a.48.48,0,0,1-.26-.07,13.21,13.21,0,0,0-5.18-1.63.5.5,0,0,1,.07-1,14.1,14.1,0,0,1,5.63,1.78.49.49,0,0,1,.16.68A.48.48,0,0,1,119.86,236.11Z" transform="translate(-20.46 -18.2)"/><path class="cls-17" d="M134.91,203.57c7.47,1.52,10.74-6.21,10.78-6.29a.6.6,0,0,0-.33-.78.61.61,0,0,0-.79.32c-.12.29-2.93,6.89-9.42,5.57-6.81-1.38-19.5-14.77-19.63-14.91a.6.6,0,0,0-.85,0,.61.61,0,0,0,0,.85C115.17,188.87,127.74,202.12,134.91,203.57Z" transform="translate(-20.46 -18.2)"/><path class="cls-7" d="M123.17,155s-12-2.26-15.38-14.36c-3.22-11.52-.74-17.5,2.61-23.73,2.52-4.68,10.52-11,21.73-8.74s19.79,8.1,21,17.41C155.51,143,141.46,164.21,123.17,155Z" transform="translate(-20.46 -18.2)"/><path class="cls-14" d="M108.36,142.45a.63.63,0,0,1-.54-.31,27.16,27.16,0,0,1-1.07-21.4,19.58,19.58,0,0,1,11.63-12.28,21.19,21.19,0,0,1,7.85-1.45.63.63,0,1,1-.07,1.25h0a20.15,20.15,0,0,0-7.37,1.39,18.14,18.14,0,0,0-10.86,11.51,26.36,26.36,0,0,0,1,20.36.62.62,0,0,1-.24.85A.58.58,0,0,1,108.36,142.45Z" transform="translate(-20.46 -18.2)"/><path class="cls-13" d="M146.42,142.65s3.9-3.08,4.93,1-1.87,11.33-6.41,9.13Z" transform="translate(-20.46 -18.2)"/><path class="cls-14" d="M142.61,150.15a6.22,6.22,0,0,0-4.09,4.49,5.89,5.89,0,1,0,6.93-4.59h-.06a1,1,0,0,0,.17,1,5,5,0,0,1,3.59,5.78,5,5,0,0,1-9.73-2,4.82,4.82,0,0,1,3.65-3.77Z" transform="translate(-20.46 -18.2)"/><path class="cls-12" d="M134.6,160.13,133,170.35s-7.65,7.8-21.62-6.2c3.75-2.8,5.18-9.27,4.74-13.45a20.55,20.55,0,0,1,2.8,2.19,10.93,10.93,0,0,0,1.17.82C123.75,156.22,129.41,159.49,134.6,160.13Z" transform="translate(-20.46 -18.2)"/><path class="cls-7" d="M134.6,160.13l-.78,4.84c-4.19-1.86-11.59-5.86-14.93-12.08l1.17.82C123.75,156.22,129.41,159.49,134.6,160.13Z" transform="translate(-20.46 -18.2)"/><path class="cls-12" d="M150.2,140.19c-.22,1.08-.42,2.11-.63,3.08s-.43,2.07-.63,3c-1.55,7.07-2.83,10.85-4.89,12.27-10.43,7.17-27.4-7.35-28-7.82h0c0-.83,0-1.66,0-2.47a63.89,63.89,0,0,1,3.16-18.77,14.41,14.41,0,0,1,12-12.18c6.46-1,11.32,2.77,14.36,4.42C150.2,124.22,152,131.17,150.2,140.19Z" transform="translate(-20.46 -18.2)"/><path class="cls-7" d="M119.61,123.07s7.3-14,21.86-10.12S156.8,123.63,157.06,127s-7.54-2.61-7.54-2.61-.27,6.76-2.87,4.68c-3.19-2.56-6.75-8.07-6.75-8.07s-8.67,8.52-16.92,6.22C118.3,125.93,119.61,123.07,119.61,123.07Z" transform="translate(-20.46 -18.2)"/><path class="cls-13" d="M137.49,154a4.89,4.89,0,0,1-3.25-1.38.52.52,0,1,1,.75-.73,3.61,3.61,0,0,0,3.55.89.52.52,0,1,1,.33,1A4.1,4.1,0,0,1,137.49,154Z" transform="translate(-20.46 -18.2)"/><path class="cls-5" d="M133.14,145.45s7,2.09,10.66,2.09c0,0-1.82,5.2-7,3.38A5.36,5.36,0,0,1,133.14,145.45Z" transform="translate(-20.46 -18.2)"/><path class="cls-7" d="M146.17,130.84s-1.83-.19-1.53,1.58,4.25.69,6.21,4.23C150.85,136.65,152.74,132.94,146.17,130.84Z" transform="translate(-20.46 -18.2)"/><path class="cls-7" d="M138.06,129.2s1.76.54.8,2.05-4.19-1-7.37,1.48C131.49,132.73,131.2,128.57,138.06,129.2Z" transform="translate(-20.46 -18.2)"/><path class="cls-13" d="M134.9,141.87c-.17.83-2,1.16-4.15.73s-3.7-1.45-3.53-2.29,2-1.16,4.14-.73S135.07,141,134.9,141.87Z" transform="translate(-20.46 -18.2)"/><path class="cls-5" d="M155.62,142.42l-5.67-1c0,.24-.09.48-.14.71,0,0,0,.08,0,.12l5.71,1a.42.42,0,0,0,.49-.34A.42.42,0,0,0,155.62,142.42Z" transform="translate(-20.46 -18.2)"/><path class="cls-5" d="M140.48,137.57a4.91,4.91,0,0,0,0-.86,7.07,7.07,0,0,0-1.91-4.06,7.16,7.16,0,0,0-3.66-2.07h-.07a7.16,7.16,0,0,0-7.95,4,6.16,6.16,0,0,0-.3.79c-.08.24-.14.48-.2.74a7.15,7.15,0,0,0,.92,5.19,7.62,7.62,0,0,0,1.13,1.4,7,7,0,0,0,3.5,1.85,7.16,7.16,0,0,0,8.45-5.55v0A7.68,7.68,0,0,0,140.48,137.57Zm-8.41,6.16-.11,0a6.31,6.31,0,0,1-4.79-7.42,7.26,7.26,0,0,1,.27-.94.08.08,0,0,0,0,0,6.34,6.34,0,0,1,5.5-4,6.59,6.59,0,0,1,1.65.12,6.17,6.17,0,0,1,3.07,1.62,6.29,6.29,0,0,1-5.61,10.72Z" transform="translate(-20.46 -18.2)"/><path class="cls-5" d="M153.19,134.65l-.6-.28a6.44,6.44,0,0,0-.74-.25,5.36,5.36,0,0,0-.54-.14,7,7,0,0,0-1-.13,6.87,6.87,0,0,0-1.2,0,7.17,7.17,0,0,0-3,1,7.05,7.05,0,0,0-2.43,2.54,6.52,6.52,0,0,0-.41.84s0,0,0,0a6.8,6.8,0,0,0-.35,1.19,7.15,7.15,0,0,0,2.63,7.1,6.72,6.72,0,0,0,2.32,1.19l.4.11.2,0a7,7,0,0,0,2,.12,1.66,1.66,0,0,0,.32,0,6.09,6.09,0,0,0,.87-.17,7.24,7.24,0,0,0,1.53-.59,7.14,7.14,0,0,0,0-12.65Zm2.84,7.6c0,.14-.06.27-.1.4a5.22,5.22,0,0,1-.18.56,6.3,6.3,0,0,1-2.58,3.12,6.64,6.64,0,0,1-1.35.63,5.9,5.9,0,0,1-.92.23l-.27,0a6.11,6.11,0,0,1-2-.09l-.19,0-.12,0a6.46,6.46,0,0,1-2.64-1.43l-.31-.3a6.29,6.29,0,0,1-1.63-5.65,5.77,5.77,0,0,1,.44-1.35,6.3,6.3,0,0,1,3.06-3.07,6.21,6.21,0,0,1,2.67-.6l.45,0a6,6,0,0,1,.82.11,5.29,5.29,0,0,1,.57.15,4.6,4.6,0,0,1,.76.29,3.81,3.81,0,0,1,.57.29A6.31,6.31,0,0,1,156,142.25Z" transform="translate(-20.46 -18.2)"/><path class="cls-5" d="M117.81,135.87a.35.35,0,0,1-.14-.06.41.41,0,0,1-.13-.58c2.84-4.44,9.67-.45,9.73-.41a.42.42,0,1,1-.43.72c-.06,0-6.19-3.6-8.59.15A.4.4,0,0,1,117.81,135.87Z" transform="translate(-20.46 -18.2)"/><path class="cls-5" d="M143.55,138.54a.44.44,0,0,1-.27-.18c-.9-1.4-2.85-.78-2.87-.77a.41.41,0,0,1-.53-.27.41.41,0,0,1,.27-.53A3.33,3.33,0,0,1,144,137.9a.42.42,0,0,1-.44.64Z" transform="translate(-20.46 -18.2)"/><g class="cls-2"><path class="cls-13" d="M149.57,143.27c-.21,1.06-.43,2.07-.63,3-1.93-.47-3.32-1.42-3.16-2.21S147.6,143,149.57,143.27Z" transform="translate(-20.46 -18.2)"/></g><path class="cls-7" d="M136.39,137.68c-.23,1.14-.94,2-1.58,1.84s-1-1.17-.74-2.31.94-2,1.58-1.84S136.62,136.53,136.39,137.68Z" transform="translate(-20.46 -18.2)"/><path class="cls-7" d="M147.73,140c-.23,1.15-.94,2-1.58,1.84s-1-1.16-.74-2.31.94-2,1.58-1.84S148,138.83,147.73,140Z" transform="translate(-20.46 -18.2)"/><path class="cls-7" d="M141.87,143.05a4.35,4.35,0,0,0,1,.09.45.45,0,0,0,.34-.17.46.46,0,0,0,.11-.37l-.73-5.35a.48.48,0,1,0-1,.13l.65,4.76a3.73,3.73,0,0,1-1.84-.81.48.48,0,0,0-.62.74A4.71,4.71,0,0,0,141.87,143.05Z" transform="translate(-20.46 -18.2)"/><path class="cls-7" d="M120.78,146.84c-.08.12-2.3,3.31-4.67,3.89h0c0-.83,0-1.66,0-2.47A9,9,0,0,0,120.78,146.84Z" transform="translate(-20.46 -18.2)"/><path class="cls-12" d="M120.29,138.45s-3.34-7.08-7.67-2.92C109,139,112.17,150.4,118.37,148Z" transform="translate(-20.46 -18.2)"/><path class="cls-14" d="M112.08,144.56a6.19,6.19,0,0,0-4.09,4.5,5.86,5.86,0,1,0,6.93-4.6h-.06a1,1,0,0,0,.16,1,4.81,4.81,0,0,1,1.73.84,5,5,0,1,1-7.86,3,4.79,4.79,0,0,1,3.65-3.77Z" transform="translate(-20.46 -18.2)"/><path class="cls-7" d="M118.11,146h.06a.48.48,0,0,0,.52-.44,9,9,0,0,0-3.72-8.17.48.48,0,1,0-.53.81h0a8,8,0,0,1,3.29,7.28A.49.49,0,0,0,118.11,146Z" transform="translate(-20.46 -18.2)"/><path class="cls-7" d="M114.29,142.22a.5.5,0,0,0,.32,0c.48-.25,1.89-.82,2.66-.45a.48.48,0,1,0,.42-.86c-1.35-.65-3.31.34-3.53.45a.49.49,0,0,0-.2.65A.48.48,0,0,0,114.29,142.22Z" transform="translate(-20.46 -18.2)"/><path class="cls-7" d="M124.59,126.44s-4.49,12.19-4.73,14.65c-.34,3.35-4.76-8.13-.31-17.93Z" transform="translate(-20.46 -18.2)"/><path class="cls-7" d="M199.61,384.89H181.12s-4.28-20.52-5.71-32-2.18-38.78-2.18-38.78-14.74,4.78-45.57,3c-68.33-4-42.42-54.19-42.42-54.19,2.3,3.19,19.62,7.58,29.29,9.1,29.66,2.85,52.21,7.89,67.66,14.55a76.06,76.06,0,0,1,9.91,5.09c3.73,2.29,6.06,9.25,7.46,18.41C203.78,337.54,199.61,384.89,199.61,384.89Z" transform="translate(-20.46 -18.2)"/><path class="cls-6" d="M183.41,375a.65.65,0,0,1-.64-.53c-2.67-13.2-3.57-29.63-4.29-42.83-.59-10.95-1.16-21.29-2.56-22.53-1.14-1-5.87-.22-11.86.77-11.91,2-29.9,5-49.75.35-10.81-2.51-18.76-7.76-23.62-15.61-8.39-13.52-4.56-30.28-4.53-30.45a.66.66,0,0,1,.8-.49.65.65,0,0,1,.49.79c0,.16-3.73,16.42,4.37,29.47,4.67,7.52,12.34,12.57,22.79,15,19.59,4.56,37.43,1.6,49.24-.36,7.07-1.17,11.33-1.88,12.94-.46s2.23,9.1,3,23.45c.71,13.16,1.61,29.53,4.25,42.64a.66.66,0,0,1-.51.78Z" transform="translate(-20.46 -18.2)"/><path class="cls-6" d="M200,375.35h0l-20.56-.44a.67.67,0,0,1,0-1.33L200,374a.65.65,0,0,1,.65.67A.66.66,0,0,1,200,375.35Z" transform="translate(-20.46 -18.2)"/><polygon class="cls-12" points="178.63 390.38 165.59 390.38 163.07 375.07 161.7 366.69 177.91 366.69 178.16 375.07 178.63 390.38"/><polygon class="cls-14" points="178.63 390.38 165.59 390.38 163.71 378.98 163.07 375.07 178.16 375.07 178.29 379.13 178.63 390.38"/><polygon class="cls-15" points="178.29 379.13 163.71 378.98 163.07 375.07 178.16 375.07 178.29 379.13"/><path class="cls-16" d="M231.3,429.18H181.94a7,7,0,0,1-.64-2.74c-.31-4.18,1-10.84,1.67-15,.08-.49.15-.95.2-1.36a14.8,14.8,0,0,0,.15-1.72c0-3.42,3-2.84,3-2.84,5,4.9,10.65-2.44,14,0,0,0,.14.09.44.33s.7.56,1.28,1.05c.84.7,2,1.72,3.62,3.16,3.92,3.52,10.58,5.85,16.26,8.22.72.31,1.39.61,2,.91s.92.46,1.34.68c4.64,2.51,6.12,4.9,6.45,6.64A3.87,3.87,0,0,1,231.3,429.18Z" transform="translate(-20.46 -18.2)"/><path class="cls-17" d="M225.25,419.8c-1.27,1-4.09,3-6.36,3h-.3c-1.6-.14-7.48-3-12.27-5.66-2.74-1.5-5.24-3-7-4.18-3-1.94-3.46-2.69-3.58-3.2-.43-2,2.79-3.31,5.05-4,.28.22.7.56,1.28,1.05-2.8.76-5.11,2-5,2.64.28.58,3.2,2.81,10.18,6.63,5.33,2.92,10.38,5.28,11.5,5.37,1.52.12,3.76-1.26,5.21-2.35C224.39,419.35,224.83,419.58,225.25,419.8Z" transform="translate(-20.46 -18.2)"/><path class="cls-17" d="M231.3,429.18H181.94a7,7,0,0,1-.64-2.74h50.4A3.87,3.87,0,0,1,231.3,429.18Z" transform="translate(-20.46 -18.2)"/><path class="cls-17" d="M187,429.18h-1.47a10.8,10.8,0,0,0,2.66-7.9,13.93,13.93,0,0,0-5.2-9.88c.08-.49.15-.95.2-1.36a15.12,15.12,0,0,1,6.17,11.18A12,12,0,0,1,187,429.18Z" transform="translate(-20.46 -18.2)"/><path class="cls-5" d="M204.81,412.9a.81.81,0,0,1-.2-1.6l3.08-.77a.81.81,0,0,1,.4,1.58l-3.09.77Z" transform="translate(-20.46 -18.2)"/><path class="cls-5" d="M201.74,410.33a.81.81,0,0,1-.19-1.6l3.08-.76a.81.81,0,1,1,.39,1.57l-3.08.77A.68.68,0,0,1,201.74,410.33Z" transform="translate(-20.46 -18.2)"/><path class="cls-5" d="M207.89,414.69a.8.8,0,0,1-.79-.61.82.82,0,0,1,.59-1l3.09-.77a.82.82,0,0,1,1,.6.81.81,0,0,1-.59,1l-3.08.77Z" transform="translate(-20.46 -18.2)"/><path class="cls-5" d="M211,416.42a.82.82,0,0,1-.19-1.61l3.08-.76a.8.8,0,0,1,1,.59.81.81,0,0,1-.59,1l-3.08.76A.69.69,0,0,1,211,416.42Z" transform="translate(-20.46 -18.2)"/><path class="cls-5" d="M214.33,418a.83.83,0,0,1-.79-.62.81.81,0,0,1,.6-1l3.08-.77a.81.81,0,1,1,.39,1.58l-3.08.76A.69.69,0,0,1,214.33,418Z" transform="translate(-20.46 -18.2)"/><path class="cls-5" d="M218,419.37a.82.82,0,0,1-.2-1.61l3.09-.76a.81.81,0,0,1,.39,1.58l-3.09.76A.63.63,0,0,1,218,419.37Z" transform="translate(-20.46 -18.2)"/><path class="cls-18" d="M267.71,262.13v4.1c0,2.36-1.43,4.27-3.19,4.27H43.06c-1.76,0-3.18-1.91-3.18-4.27v-4.1c0-2.35,1.42-4.27,3.18-4.27H264.52C266.28,257.86,267.71,259.78,267.71,262.13Z" transform="translate(-20.46 -18.2)"/><rect class="cls-19" x="19.41" y="245.24" width="227.83" height="1.88"/><path class="cls-19" d="M261.05,281H52.88a1.68,1.68,0,0,1-1.69-1.68v-8.9H262.74v8.9A1.69,1.69,0,0,1,261.05,281Z" transform="translate(-20.46 -18.2)"/><rect class="cls-19" x="45.07" y="315.08" width="186.17" height="7.26"/><polygon class="cls-18" points="31.65 412.28 67.69 262.84 55.03 262.84 18.99 412.28 31.65 412.28"/><polygon class="cls-18" points="244.41 412.28 208.37 262.84 221.03 262.84 257.07 412.28 244.41 412.28"/><rect class="cls-14" x="58.43" y="223.63" width="3.95" height="29.81" transform="translate(-55.89 -6.3) rotate(-8.71)"/><polygon class="cls-12" points="39.64 205.31 35.73 205.91 36.59 202.93 37.04 201.38 37.93 202.72 39.64 205.31"/><rect class="cls-7" x="60.52" y="251.12" width="3.95" height="2.17" transform="translate(-57.94 -5.82) rotate(-8.71)"/><path class="cls-8" d="M64.62,254.72l-3.39.52a.27.27,0,0,1-.3-.22l-.22-1.45,3.91-.6.22,1.45A.27.27,0,0,1,64.62,254.72Z" transform="translate(-20.46 -18.2)"/><polygon class="cls-7" points="37.93 202.72 36.59 202.93 37.04 201.38 37.93 202.72"/><rect class="cls-15" x="60.24" y="249.59" width="3.95" height="1.55" transform="translate(-57.65 -5.89) rotate(-8.71)"/><path class="cls-15" d="M57.39,225.41l3.34,21.82a.31.31,0,0,0,.35.25h0a.3.3,0,0,0,.25-.34L58,225.32a.31.31,0,0,0-.35-.26h0A.31.31,0,0,0,57.39,225.41Z" transform="translate(-20.46 -18.2)"/><path class="cls-15" d="M58.92,225.17,62.26,247a.3.3,0,0,0,.35.25h0a.3.3,0,0,0,.25-.34l-3.34-21.82a.31.31,0,0,0-.35-.25h0A.3.3,0,0,0,58.92,225.17Z" transform="translate(-20.46 -18.2)"/><rect class="cls-18" x="63.27" y="223.65" width="3.95" height="29.81" transform="translate(-21.25 -17.98) rotate(-0.19)"/><polygon class="cls-12" points="46.71 205.45 42.75 205.46 44.05 202.64 44.72 201.17 45.4 202.63 46.71 205.45"/><rect class="cls-7" x="63.31" y="251.29" width="3.95" height="2.17" transform="translate(-21.29 -17.98) rotate(-0.19)"/><path class="cls-8" d="M67,255.18H63.58a.26.26,0,0,1-.26-.26v-1.47h4v1.46A.26.26,0,0,1,67,255.18Z" transform="translate(-20.46 -18.2)"/><polygon class="cls-7" points="45.4 202.63 44.05 202.64 44.72 201.17 45.4 202.63"/><rect class="cls-19" x="63.3" y="249.74" width="3.95" height="1.55" transform="translate(-21.29 -17.98) rotate(-0.19)"/><path class="cls-19" d="M64.2,225.12l.08,22.07a.3.3,0,0,0,.3.31h0a.3.3,0,0,0,.3-.31l-.07-22.07a.3.3,0,0,0-.3-.3h0A.3.3,0,0,0,64.2,225.12Z" transform="translate(-20.46 -18.2)"/><path class="cls-19" d="M65.75,225.11l.07,22.08a.31.31,0,0,0,.31.3h0a.31.31,0,0,0,.3-.3l-.08-22.08a.3.3,0,0,0-.3-.3h0A.31.31,0,0,0,65.75,225.11Z" transform="translate(-20.46 -18.2)"/><rect class="cls-16" x="55.03" y="236.56" width="29.81" height="3.95" transform="translate(-196.53 256.04) rotate(-81.91)"/><polygon class="cls-12" points="53.53 205.87 49.61 205.31 51.3 202.7 52.17 201.35 52.63 202.89 53.53 205.87"/><rect class="cls-7" x="66.02" y="251.14" width="3.95" height="2.17" transform="translate(15.69 -25.25) rotate(8.09)"/><path class="cls-8" d="M69.3,255.25l-3.4-.49a.26.26,0,0,1-.22-.29l.21-1.45,3.91.55L69.59,255A.26.26,0,0,1,69.3,255.25Z" transform="translate(-20.46 -18.2)"/><polygon class="cls-7" points="52.63 202.89 51.3 202.7 52.17 201.35 52.63 202.89"/><rect class="cls-17" x="67.48" y="248.41" width="1.55" height="3.95" transform="translate(-209.7 264.54) rotate(-81.91)"/><path class="cls-17" d="M70.84,225.1,67.74,247a.3.3,0,0,0,.26.34h0a.3.3,0,0,0,.34-.25l3.1-21.86a.3.3,0,0,0-.25-.34h0A.31.31,0,0,0,70.84,225.1Z" transform="translate(-20.46 -18.2)"/><path class="cls-17" d="M72.38,225.31l-3.11,21.86a.3.3,0,0,0,.26.34h0a.3.3,0,0,0,.34-.26L73,225.4a.29.29,0,0,0-.25-.34h0A.29.29,0,0,0,72.38,225.31Z" transform="translate(-20.46 -18.2)"/><polygon class="cls-8" points="54.81 217.24 54.61 218.84 54.42 220.29 54.13 222.49 53.95 223.93 53.66 226.15 53.48 227.57 53.19 229.81 53.01 231.21 52.72 233.47 52.54 234.85 52.24 237.13 52.07 238.49 51.92 239.67 36.38 239.67 36.23 238.49 36.05 237.13 35.76 234.85 35.58 233.47 35.29 231.21 35.1 229.81 34.82 227.57 34.63 226.15 34.34 223.93 34.16 222.49 33.88 220.29 33.69 218.84 33.48 217.24 54.81 217.24"/><polygon class="cls-20" points="54.61 218.84 54.42 220.29 33.88 220.29 33.69 218.84 54.61 218.84"/><polygon class="cls-20" points="54.13 222.49 53.95 223.93 34.34 223.93 34.16 222.49 54.13 222.49"/><polygon class="cls-20" points="53.66 226.15 53.48 227.57 34.82 227.57 34.63 226.15 53.66 226.15"/><polygon class="cls-20" points="53.19 229.81 53.01 231.21 35.29 231.21 35.1 229.81 53.19 229.81"/><polygon class="cls-20" points="52.72 233.47 52.54 234.85 35.76 234.85 35.58 233.47 52.72 233.47"/><polygon class="cls-20" points="52.24 237.13 52.07 238.49 36.23 238.49 36.05 237.13 52.24 237.13"/><path class="cls-7" d="M266.42,178.61l-13.26,56-.34,1.47-.9,3.78a3.61,3.61,0,0,1-3.52,2.78H159.14a3.62,3.62,0,0,1-3.52-4.45L170.11,177a3.61,3.61,0,0,1,3.52-2.79h89.26A3.63,3.63,0,0,1,266.42,178.61Z" transform="translate(-20.46 -18.2)"/><polygon class="cls-6" points="232.7 216.45 232.35 217.93 139.67 217.93 139.67 216.45 232.7 216.45"/><path class="cls-14" d="M195.11,188a9.07,9.07,0,0,1-8.53,7.19,5.8,5.8,0,0,1-5.85-7.19,9.07,9.07,0,0,1,8.53-7.19A5.8,5.8,0,0,1,195.11,188Z" transform="translate(-20.46 -18.2)"/><path class="cls-7" d="M187,186.65c-.15.8-.55,1.44-.89,1.44s-.51-.64-.36-1.44.55-1.43.89-1.43S187.14,185.86,187,186.65Z" transform="translate(-20.46 -18.2)"/><path class="cls-7" d="M190.74,186.65c-.15.8-.55,1.44-.89,1.44s-.51-.64-.36-1.44.55-1.43.9-1.43S190.89,185.86,190.74,186.65Z" transform="translate(-20.46 -18.2)"/><path class="cls-7" d="M187.33,191.53a3.18,3.18,0,0,1-3.22-3.12.37.37,0,0,1,.3-.37.25.25,0,0,1,.33.24,2.66,2.66,0,0,0,2.71,2.63,4.28,4.28,0,0,0,3.69-2.64.37.37,0,0,1,.41-.23.26.26,0,0,1,.17.37S190.42,191.53,187.33,191.53Z" transform="translate(-20.46 -18.2)"/><path class="cls-8" d="M236.38,221.61c.07,3.72,6.38,8.37,6.38,8.37s7.32-4.65,8.21-8.37c1-4-3.64-5.27-7.06-2.23C241.17,216.34,236.29,217.57,236.38,221.61Z" transform="translate(-20.46 -18.2)"/><path class="cls-6" d="M223,210.82a8,8,0,0,1-7.75,7,6.14,6.14,0,0,1-6.22-7,8,8,0,0,1,7.76-7A6.13,6.13,0,0,1,223,210.82Z" transform="translate(-20.46 -18.2)"/><path class="cls-6" d="M177.17,174.16l-15.43,68.52h-2.6a3.61,3.61,0,0,1-3.52-4.45L170.11,177a3.61,3.61,0,0,1,3.52-2.79Z" transform="translate(-20.46 -18.2)"/><polygon class="cls-5" points="182.56 224.49 179.85 239.72 188.79 239.72 191.5 224.49 182.56 224.49"/><path class="cls-5" d="M186.93,255.29l1.83-2.57a3.48,3.48,0,0,1,2.84-1.47h24.52a3.48,3.48,0,0,1,3.09,1.87l1.23,2.36a1.66,1.66,0,0,1-1.47,2.43H188.28A1.66,1.66,0,0,1,186.93,255.29Z" transform="translate(-20.46 -18.2)"/><path class="cls-5" d="M135.84,257.9H209.5l.8-2.78a2.74,2.74,0,0,0-2.63-3.49h-68a2.74,2.74,0,0,0-2.63,2Z" transform="translate(-20.46 -18.2)"/><rect class="cls-8" x="177.1" y="113.07" width="37.15" height="24.59" rx="2.29"/><polygon class="cls-8" points="210.02 133.98 207.04 145.2 201.85 134.65 210.02 133.98"/><path class="cls-5" d="M224.37,141.74c-.67,4.21-8.51,9.47-8.51,9.47s-7.55-5.27-8-9.48c-.47-4.56,4.93-5.95,8.31-2.51C219.77,135.78,225.09,137.19,224.37,141.74Z" transform="translate(-20.46 -18.2)"/><ellipse class="cls-4" cx="618.53" cy="413.34" rx="55.48" ry="5.48"/><rect class="cls-7" x="580.05" y="367.78" width="74.86" height="5.93" rx="2.41"/><rect class="cls-6" x="581.28" y="302.09" width="72.55" height="12.53" rx="2.06"/><path class="cls-18" d="M620,267s-28.85-5.71-36.91-25.84,21.39-35.22,36.91-24.41C636.56,228.3,620,267,620,267Z" transform="translate(-20.46 -18.2)"/><path class="cls-7" d="M637.12,319.87a.53.53,0,0,1-.52-.45c-2.76-18.69-13.91-45.59-22.77-64.87-9.6-20.9-18.67-37.58-18.76-37.74a.52.52,0,0,1,.92-.5c.09.16,9.17,16.87,18.79,37.81,8.89,19.33,20.07,46.33,22.85,65.15a.53.53,0,0,1-.44.6Z" transform="translate(-20.46 -18.2)"/><path class="cls-7" d="M618.88,265a.51.51,0,0,1-.46-.28c-12.55-23.37-32.93-40.33-33.14-40.5a.52.52,0,1,1,.67-.8c.2.17,20.74,17.25,33.38,40.81a.52.52,0,0,1-.21.71A.53.53,0,0,1,618.88,265Z" transform="translate(-20.46 -18.2)"/><path class="cls-7" d="M619.45,266.71a.52.52,0,0,1-.4-.18,100.22,100.22,0,0,0-24.78-21.19,63,63,0,0,0-11.49-5.56.52.52,0,1,1,.31-1,61.17,61.17,0,0,1,11.68,5.63,101.13,101.13,0,0,1,25.07,21.43.52.52,0,0,1-.06.74A.5.5,0,0,1,619.45,266.71Z" transform="translate(-20.46 -18.2)"/><path class="cls-7" d="M616.91,260.58a.53.53,0,0,1-.5-.35c-7-20.65-4.44-45.74-4.42-46a.52.52,0,0,1,1,.11c0,.25-2.59,25.12,4.37,45.54a.53.53,0,0,1-.33.67A.44.44,0,0,1,616.91,260.58Z" transform="translate(-20.46 -18.2)"/><path class="cls-7" d="M618.68,264.67a.52.52,0,0,1-.52-.44,72.65,72.65,0,0,1,1.27-30.37,48.3,48.3,0,0,1,4.42-11.44.52.52,0,1,1,.89.53,48.86,48.86,0,0,0-4.31,11.22,71.52,71.52,0,0,0-1.24,29.89.51.51,0,0,1-.43.6Z" transform="translate(-20.46 -18.2)"/><path class="cls-18" d="M650.39,272.25s29.14-4,38.37-23.61-19.26-36.43-35.39-26.56C636.11,232.64,650.39,272.25,650.39,272.25Z" transform="translate(-20.46 -18.2)"/><path class="cls-7" d="M639.34,318.16h0a.52.52,0,0,1-.52-.53c.11-9.63,2.21-20.6,6.24-32.6a214.56,214.56,0,0,1,13.22-30.52A281.91,281.91,0,0,1,677.34,223a.52.52,0,0,1,.73-.11.52.52,0,0,1,.12.73,277.1,277.1,0,0,0-19,31.35c-8.68,16.66-19.08,41.06-19.34,62.63A.52.52,0,0,1,639.34,318.16Z" transform="translate(-20.46 -18.2)"/><path class="cls-7" d="M651.62,270.37a.53.53,0,0,1-.27-.08.52.52,0,0,1-.17-.72c14-22.77,35.53-38.61,35.74-38.76a.52.52,0,0,1,.62.84c-.21.15-21.56,15.88-35.47,38.47A.53.53,0,0,1,651.62,270.37Z" transform="translate(-20.46 -18.2)"/><path class="cls-7" d="M651,272a.54.54,0,0,1-.36-.14.53.53,0,0,1,0-.74,101.06,101.06,0,0,1,26.29-19.91,62.57,62.57,0,0,1,12-4.93.53.53,0,0,1,.64.38.52.52,0,0,1-.38.63,62.23,62.23,0,0,0-11.8,4.86,100.35,100.35,0,0,0-26,19.69A.51.51,0,0,1,651,272Z" transform="translate(-20.46 -18.2)"/><path class="cls-7" d="M653.85,266a.79.79,0,0,1-.2,0,.53.53,0,0,1-.28-.68c8.15-20,7.07-45,7.06-45.21a.51.51,0,0,1,.49-.54.52.52,0,0,1,.55.49c0,.26,1.11,25.46-7.14,45.65A.52.52,0,0,1,653.85,266Z" transform="translate(-20.46 -18.2)"/><path class="cls-7" d="M651.84,270h-.11a.53.53,0,0,1-.4-.63,71.67,71.67,0,0,0,.54-29.91A47.77,47.77,0,0,0,648.22,228a.53.53,0,0,1,.93-.49,48.72,48.72,0,0,1,3.73,11.69,72.71,72.71,0,0,1-.53,30.39A.51.51,0,0,1,651.84,270Z" transform="translate(-20.46 -18.2)"/><path class="cls-18" d="M639.17,234.28s-24.69-16-24.71-37.66,32.91-24.8,43.32-9C668.92,204.49,639.17,234.28,639.17,234.28Z" transform="translate(-20.46 -18.2)"/><path class="cls-7" d="M635.72,289.8h-.12a.52.52,0,0,1-.38-.63c4.35-18.39,4-47.51,2.87-68.69-1.18-23-3.43-41.83-3.45-42a.52.52,0,1,1,1-.12c0,.19,2.28,19.08,3.46,42.08,1.1,21.26,1.49,50.48-2.9,69A.52.52,0,0,1,635.72,289.8Z" transform="translate(-20.46 -18.2)"/><path class="cls-7" d="M639.08,232.11a.53.53,0,0,1-.52-.46c-3-26.36-15.65-49.66-15.78-49.89a.53.53,0,0,1,.21-.71.52.52,0,0,1,.71.2c.13.24,12.88,23.71,15.9,50.28a.52.52,0,0,1-.46.58Z" transform="translate(-20.46 -18.2)"/><path class="cls-7" d="M639,233.88a.51.51,0,0,1-.49-.36,100.18,100.18,0,0,0-15.17-28.86,62.19,62.19,0,0,0-8.62-9.41.52.52,0,0,1,.66-.81,61.69,61.69,0,0,1,8.76,9.55,101.31,101.31,0,0,1,15.36,29.2.53.53,0,0,1-.33.66A.51.51,0,0,1,639,233.88Z" transform="translate(-20.46 -18.2)"/><path class="cls-7" d="M638.9,227.24h0a.52.52,0,0,1-.5-.54c1.11-21.79,12.81-44.14,12.93-44.36a.52.52,0,0,1,.7-.22.53.53,0,0,1,.22.71c-.12.22-11.71,22.37-12.81,43.92A.51.51,0,0,1,638.9,227.24Z" transform="translate(-20.46 -18.2)"/><path class="cls-7" d="M639,231.7l-.11,0a.52.52,0,0,1-.4-.62A73.7,73.7,0,0,1,651,203.19a49.83,49.83,0,0,1,8.37-9.13.52.52,0,1,1,.64.82,50.16,50.16,0,0,0-8.19,9,72.61,72.61,0,0,0-12.26,27.45A.52.52,0,0,1,639,231.7Z" transform="translate(-20.46 -18.2)"/><path class="cls-16" d="M669.34,287l-.86,2.29-.54,1.44-1.57,4.15-.54,1.45-1.61,4.25-.54,1.45-6.88,18.26H619.23L612.35,302l-.54-1.45-1.61-4.25-.54-1.45-1.57-4.15-.54-1.44-.86-2.29a2.39,2.39,0,0,1,2.24-3.23H667.1A2.39,2.39,0,0,1,669.34,287Z" transform="translate(-20.46 -18.2)"/><polygon class="cls-17" points="648.01 271.08 647.47 272.53 587.63 272.53 587.09 271.08 648.01 271.08"/><polygon class="cls-17" points="645.91 276.67 645.36 278.12 589.74 278.12 589.19 276.67 645.91 276.67"/><polygon class="cls-17" points="643.76 282.38 643.22 283.82 591.88 283.82 591.34 282.38 643.76 282.38"/><polygon class="cls-7" points="607.49 314.61 605.4 321.33 576.39 414.83 570.73 414.83 589.12 323.24 590.85 314.61 607.49 314.61"/><polygon class="cls-7" points="664.55 414.83 658.88 414.83 629.01 318.56 627.79 314.61 644.41 314.61 644.84 316.71 644.84 316.71 664.55 414.83"/><rect class="cls-6" x="580.05" y="354.89" width="74.86" height="5.93" rx="2.41"/><ellipse class="cls-4" cx="195.8" cy="47.56" rx="27.12" ry="26.78"/><ellipse class="cls-16" cx="195.8" cy="44.08" rx="27.12" ry="26.78"/><ellipse class="cls-5" cx="195.8" cy="44.08" rx="22.04" ry="21.77"/><path class="cls-4" d="M238.31,62.27c0,.58,0,1.16-.07,1.72a22.07,22.07,0,0,0-44,0c0-.56-.07-1.14-.07-1.72a22,22,0,0,1,44.09,0Z" transform="translate(-20.46 -18.2)"/><path class="cls-7" d="M216.27,64.54a.58.58,0,0,1-.45-.22L205,49.94a.54.54,0,0,1,.11-.76.55.55,0,0,1,.77.11l10.56,14,12-5.2a.54.54,0,0,1,.72.28.53.53,0,0,1-.28.72l-12.39,5.37A.59.59,0,0,1,216.27,64.54Z" transform="translate(-20.46 -18.2)"/></svg>