<svg xmlns="http://www.w3.org/2000/svg" viewBox="0 0 761.39 416.53"><defs><style>.cls-1{isolation:isolate;}.cls-2{fill:#c74781;}.cls-24,.cls-3{fill:#2edef5;}.cls-11,.cls-23,.cls-3{mix-blend-mode:multiply;}.cls-4{fill:#43a72b;}.cls-5{fill:#007257;}.cls-6{fill:#018c6d;}.cls-7{fill:#006049;}.cls-8{fill:#00775b;}.cls-11,.cls-9{fill:#ffbf3e;}.cls-10{fill:#fff;}.cls-11{opacity:0.43;}.cls-12{fill:#ffc969;}.cls-13{fill:#ff9831;}.cls-14{fill:#f9eeaa;}.cls-15{fill:#f9b017;}.cls-16{fill:#0056a5;}.cls-17{fill:#bf041f;}.cls-18{fill:#db192c;}.cls-19{fill:#fddc18;}.cls-20{fill:#000b4a;}.cls-21{fill:#017acb;}.cls-22{fill:#0478cd;}.cls-25{opacity:0.35;}.cls-26{fill:#0cf;}.cls-27{fill:#fcfc1a;}.cls-28{fill:#ffd122;}.cls-29{fill:#ffe183;}.cls-30{fill:#fd3976;}.cls-31{fill:#ffb83b;}.cls-32{fill:#ffa300;}.cls-33{fill:#f2de7c;}.cls-34{fill:#e81360;}.cls-35{fill:#ffeec5;}.cls-36{fill:#fff577;}.cls-37{fill:#ffe300;}</style></defs><g class="cls-1"><g id="OBJECTS"><path class="cls-2" d="M643,205.56a96.9,96.9,0,0,0,6,20,211.5,211.5,0,0,0,9.42,19.4c2.45,4.54,4.92,9.12,7,13.88,0-1.25-.09-2.51-.22-3.79-1.1-2.31-2.27-4.58-3.47-6.83-3.5-6.56-7.1-13.06-10.14-19.85a113.14,113.14,0,0,1-6.94-20,64.86,64.86,0,0,1-1.79-19.87L643,188a.3.3,0,0,0,0-.25v-.1c.09-.85.19-1.71.31-2.56,0-.38-.55-.41-.6,0-.16,1.13-.28,2.25-.38,3.38-2.8,12.37-1.43,25.12,1.42,37.37,3.05,13.1,7.7,25.78,10.43,39a110.29,110.29,0,0,1,1.78,11.26c.18,1.79.27,3.58.33,5.36.4-.4.78-.81,1.16-1.24,0-.87-.1-1.75-.17-2.61a93.22,93.22,0,0,0-1.33-10,198.9,198.9,0,0,0-5-19.94c-3.65-12.55-7.73-25.1-9-38.17a70.48,70.48,0,0,1,.14-16.23A67.11,67.11,0,0,0,643,205.56Z" transform="translate(-13.02 -40.96)"/><path class="cls-3" d="M352.8,421.81c0-6.15-53.07-11.13-118.53-11.13-58.37,0-106.86,4-116.68,9.18-44.81,1.22-78,5.61-78,10.83,0,6.17,46.21,11.17,103.21,11.17,50,0,91.64-3.85,101.15-8.95C304.87,432.45,352.8,427.66,352.8,421.81Z" transform="translate(-13.02 -40.96)"/><ellipse class="cls-3" cx="620.81" cy="376.87" rx="129.79" ry="11.23"/><path class="cls-4" d="M84.09,373.38A85.17,85.17,0,0,1,55.52,339c-3.13-6.95-5.64-14.27-6.09-21.51-.06-.91,2-1.09,2.23-.17,1.75,6.24,3.11,12.48,5.63,18.62a81.42,81.42,0,0,0,9.93,17.69c8.63,11.68,21.49,22.11,38.13,29.6a123.35,123.35,0,0,0,31.41,9.29c1.19.19,1,1.39-.25,1.21C116,390.75,98,383.32,84.09,373.38Z" transform="translate(-13.02 -40.96)"/><path class="cls-5" d="M107.49,350.26c2.46,4.1,1.34,9.78-3.6,14.9A30.74,30.74,0,0,1,84.62,374c-2.46-4.11-1.34-9.79,3.6-14.9A30.74,30.74,0,0,1,107.49,350.26Z" transform="translate(-13.02 -40.96)"/><path class="cls-6" d="M88.22,359.07a30.74,30.74,0,0,1,19.27-8.81l.15.29L85.09,373.93l-.47,0C82.16,369.86,83.28,364.18,88.22,359.07Z" transform="translate(-13.02 -40.96)"/><ellipse class="cls-5" cx="79.55" cy="344.63" rx="17.48" ry="7.31" transform="translate(-198.47 69.42) rotate(-35.53)"/><path class="cls-6" d="M72.1,341.21a33.16,33.16,0,0,1,20.29-7.84l.12.3-25.33,22.2-.47,0C64.75,351.68,66.56,346.07,72.1,341.21Z" transform="translate(-13.02 -40.96)"/><path class="cls-5" d="M82.66,316.53c1.74,4.26-.35,9.83-6.13,14.57a34.06,34.06,0,0,1-20.67,7.43c-1.74-4.25.35-9.82,6.13-14.57A34.15,34.15,0,0,1,82.66,316.53Z" transform="translate(-13.02 -40.96)"/><path class="cls-6" d="M62,324a34.15,34.15,0,0,1,20.67-7.43c0,.1.07.2.1.3L56.34,338.52h-.48C54.12,334.28,56.21,328.71,62,324Z" transform="translate(-13.02 -40.96)"/><path class="cls-5" d="M42.48,372c3.68,3.72,11.5,6.58,20.9,7.17s17.95-1.24,22.7-4.44c-3.68-3.72-11.49-6.58-20.9-7.17S47.24,368.78,42.48,372Z" transform="translate(-13.02 -40.96)"/><path class="cls-6" d="M65.18,367.53c-9.4-.59-17.94,1.25-22.7,4.44l.27.25,43,2.69.34-.21C82.4,371,74.59,368.12,65.18,367.53Z" transform="translate(-13.02 -40.96)"/><path class="cls-5" d="M23,356.41c4.27,3.46,12.52,5.77,22,5.73s17.64-2.45,21.83-5.94c-4.27-3.46-12.52-5.77-22-5.73S27.2,352.92,23,356.41Z" transform="translate(-13.02 -40.96)"/><path class="cls-6" d="M44.84,350.47c-9.45,0-17.64,2.45-21.83,5.94a3.55,3.55,0,0,0,.31.23l43.19-.21.31-.23C62.54,352.74,54.29,350.43,44.84,350.47Z" transform="translate(-13.02 -40.96)"/><path class="cls-5" d="M16.93,326.72c1.08,4.34,6.51,8.91,14.79,11.79s17.28,3.32,23.63,1.57c-1.08-4.34-6.51-8.92-14.8-11.8S23.27,325,16.93,326.72Z" transform="translate(-13.02 -40.96)"/><path class="cls-6" d="M40.55,328.28c-8.28-2.88-17.28-3.32-23.62-1.56,0,.1.06.2.09.3L54.9,340.19l.45-.11C54.27,335.74,48.84,331.16,40.55,328.28Z" transform="translate(-13.02 -40.96)"/><path class="cls-5" d="M48,290.56a14.4,14.4,0,0,0-7.45,14.32c.73,6,5.08,11,10.87,13.4A14.39,14.39,0,0,0,58.85,304C58.11,298,53.77,293,48,290.56Z" transform="translate(-13.02 -40.96)"/><path class="cls-6" d="M58.85,304c-.74-6-5.08-11-10.87-13.41l-.34.22L51,318.11l.4.17A14.39,14.39,0,0,0,58.85,304Z" transform="translate(-13.02 -40.96)"/><path class="cls-4" d="M729.12,290.05c4.81-14.59,3.25-29.8-2.33-44.21a84.83,84.83,0,0,0-13.1-23.44c-.75-.92-2.92-.37-2.36.62,3.82,6.8,8,13.45,11,20.43a78.88,78.88,0,0,1,5.91,21,58.87,58.87,0,0,1-11.38,42.91,78,78,0,0,1-22.78,20.43c-1,.6.29,1.71,1.33,1.1C713,318.65,724.25,304.84,729.12,290.05Z" transform="translate(-13.02 -40.96)"/><ellipse class="cls-5" cx="693.74" cy="304.11" rx="7.24" ry="22.85" transform="translate(161.26 814.44) rotate(-70.37)"/><path class="cls-6" d="M699.45,298.54c-9-3.72-19.16-4.71-26.6-3.06,0,.11,0,.23.07.34l41.19,17,.52-.1C714,307.75,708.46,302.27,699.45,298.54Z" transform="translate(-13.02 -40.96)"/><path class="cls-5" d="M685.44,275.58c1.22,4.94,7.38,10.15,16.8,13.44s19.65,3.8,26.88,1.81c-1.22-4.94-7.38-10.15-16.8-13.44S692.67,273.59,685.44,275.58Z" transform="translate(-13.02 -40.96)"/><path class="cls-6" d="M712.32,277.39c-9.42-3.29-19.65-3.8-26.88-1.81,0,.11.07.22.11.34l43.06,15,.51-.12C727.9,285.89,721.74,280.68,712.32,277.39Z" transform="translate(-13.02 -40.96)"/><path class="cls-5" d="M685.36,253.48c1.81,4.87,8.58,9.76,18.38,12.58s20,2.83,27,.49c-1.82-4.87-8.59-9.76-18.38-12.58S692.32,251.14,685.36,253.48Z" transform="translate(-13.02 -40.96)"/><path class="cls-6" d="M712.38,254c-9.8-2.82-20.06-2.83-27-.49,0,.11.09.22.14.34l44.77,12.88.49-.15C728.94,261.68,722.17,256.79,712.38,254Z" transform="translate(-13.02 -40.96)"/><path class="cls-5" d="M680,233.36c2.06,4.83,9.08,9.58,19,12.2s20.19,2.42,27-.06c-2.06-4.82-9.08-9.58-19-12.2S686.85,230.88,680,233.36Z" transform="translate(-13.02 -40.96)"/><path class="cls-6" d="M707,233.3c-9.92-2.62-20.18-2.42-27,.06l.16.33,45.39,12,.49-.16C724,240.68,717,235.92,707,233.3Z" transform="translate(-13.02 -40.96)"/><path class="cls-5" d="M763.16,311.85c-4.69,4-14,6.82-24.71,7s-20.19-2.42-25.13-6.31c4.69-4,13.95-6.82,24.7-7S758.21,308,763.16,311.85Z" transform="translate(-13.02 -40.96)"/><path class="cls-6" d="M738,305.54c10.75-.14,20.19,2.42,25.14,6.31l-.34.27-49.15.64-.35-.26C718,308.48,727.27,305.68,738,305.54Z" transform="translate(-13.02 -40.96)"/><ellipse class="cls-5" cx="748.66" cy="282.92" rx="22.57" ry="7.33" transform="translate(-64.67 248.31) rotate(-21.16)"/><path class="cls-6" d="M742.61,277.5c8.77-3.94,18.84-5.19,26.38-3.74,0,.12,0,.23,0,.35l-40.09,18.05-.53-.09C728.65,287.08,733.84,281.45,742.61,277.5Z" transform="translate(-13.02 -40.96)"/><path class="cls-5" d="M774.41,251.42c-1.16,4.94-7.25,10.19-16.63,13.52s-19.61,3.9-26.86,1.95c1.16-4.95,7.25-10.19,16.63-13.53S767.16,249.46,774.41,251.42Z" transform="translate(-13.02 -40.96)"/><path class="cls-6" d="M747.55,253.36c9.38-3.33,19.61-3.9,26.86-1.94,0,.11-.07.22-.1.34L731.43,267l-.51-.12C732.08,261.94,738.17,256.7,747.55,253.36Z" transform="translate(-13.02 -40.96)"/><path class="cls-5" d="M754,219.9c2.79,4.67,1.49,11.13-4.14,16.95a35.07,35.07,0,0,1-22,10c-2.79-4.68-1.49-11.14,4.14-16.95A35,35,0,0,1,754,219.9Z" transform="translate(-13.02 -40.96)"/><path class="cls-6" d="M732.06,229.9a35,35,0,0,1,22-10c.06.1.12.22.17.32L728.46,246.8l-.54,0C725.13,242.17,726.43,235.71,732.06,229.9Z" transform="translate(-13.02 -40.96)"/><ellipse class="cls-5" cx="701.82" cy="209.59" rx="9.06" ry="18.25" transform="translate(37.38 503.48) rotate(-43.83)"/><path class="cls-6" d="M692.37,212.42c-4.59-6.17-4.76-12.69-1.18-17.14.18,0,.36.06.53.09l21,28.21-.23.31C704.76,222.81,697,218.59,692.37,212.42Z" transform="translate(-13.02 -40.96)"/><ellipse class="cls-5" cx="67.69" cy="398.77" rx="10.56" ry="25.75" transform="translate(-312.54 188.24) rotate(-55.58)"/><path class="cls-6" d="M78.38,393.63a49.32,49.32,0,0,0-30-11c-.06.14-.1.29-.15.43L86.3,414.91l.69,0C89.63,408.74,86.71,400.6,78.38,393.63Z" transform="translate(-13.02 -40.96)"/><path class="cls-7" d="M22.86,416.46C29,421.53,41,425,54.82,425s25.78-3.44,32-8.51c-6.18-5.07-18.17-8.5-32-8.5S29,411.39,22.86,416.46Z" transform="translate(-13.02 -40.96)"/><path class="cls-8" d="M54.82,408c-13.78,0-25.78,3.43-32,8.5l.45.34h63c.15-.11.31-.22.45-.34C80.6,411.39,68.61,408,54.82,408Z" transform="translate(-13.02 -40.96)"/><path class="cls-5" d="M299.88,418.94c2.66,6.18,11.68,12.26,24.43,15.6s25.9,3.06,34.66-.13c-2.67-6.18-11.69-12.26-24.44-15.6S308.64,415.75,299.88,418.94Z" transform="translate(-13.02 -40.96)"/><path class="cls-6" d="M334.53,418.81c-12.74-3.34-25.89-3.06-34.65.13.06.14.14.28.21.42l58.26,15.26.62-.21C356.3,428.23,347.28,422.15,334.53,418.81Z" transform="translate(-13.02 -40.96)"/><path class="cls-3" d="M656.29,250.63c-2-2.28-5.14-4-8.42-5.51-17.9-8-46-8.92-61.47,2,17.45-.95,33.65,6.32,48,14.46,7.88,1.88,20.31,2.75,23.47-3.29C659.19,255.76,658.33,252.91,656.29,250.63Z" transform="translate(-13.02 -40.96)"/><path class="cls-3" d="M213.74,382.38a12.82,12.82,0,0,1-1.64-7.83c.93-14.47,16.48-30.26,38.68-32.22-11.45,8.92-12.3,22-11,34.62-2.4,5.39-8.7,12.66-17.81,10.81A12.63,12.63,0,0,1,213.74,382.38Z" transform="translate(-13.02 -40.96)"/><path class="cls-3" d="M588.92,158.1c8.81,1.48,16.88,4.9,22.68,9.61,5.51,4.47,8.92,10,14.22,14.56,4.94,4.29,17.34,10.78,25.13,5.79a7.63,7.63,0,0,0,3.74-7.29c-.28-2.65-1.85-5.17-3.78-7.49-11.54-13.83-39.78-23.77-62-15.19Z" transform="translate(-13.02 -40.96)"/><path class="cls-3" d="M597.22,236a39.47,39.47,0,0,1,17.07-3.61c5.77,0,11.39,1.25,17.15,1.42,5.38.16,15.66-1.28,15.24-6.11-.15-1.77-1.77-3.38-3.9-4.43a23.64,23.64,0,0,0-7.29-1.94c-15.45-2-35.17,3.36-38.3,14.69Z" transform="translate(-13.02 -40.96)"/><path class="cls-3" d="M545.7,354.87c10.07,7.56,13.47,18.14,21.9,26.56a22.88,22.88,0,0,0,9.52,6,22.42,22.42,0,0,0,9.18.75c4.13-.53,6.76-2.41,8.32-5,3.81-6.22-2.6-12.68-9-16.89C575,359.4,560.48,355.21,545.7,354.87Z" transform="translate(-13.02 -40.96)"/><path class="cls-3" d="M123.06,249.21s-8.56.63-10.64.95-4.42.7-6.89,1.18c-10.15,2-20.14,5.78-27.31,11.19-3.92,3-8.16,7.42-7.51,11.83,1.05,7.1,11.47,5,16.65,2.1,9.45-5.36,15.54-12.77,23.77-18.91,1.58-1.19,3.08-2.35,4.51-3.34S123.06,249.21,123.06,249.21Z" transform="translate(-13.02 -40.96)"/><path class="cls-3" d="M212.8,351.72s-8.55.63-10.64.95-4.42.7-6.89,1.18c-10.15,2-20.14,5.78-27.3,11.19-3.93,3-8.17,7.42-7.52,11.83,1.05,7.11,11.47,5,16.65,2.1,9.45-5.35,15.54-12.76,23.77-18.91,1.59-1.19,3.08-2.34,4.51-3.34S212.8,351.72,212.8,351.72Z" transform="translate(-13.02 -40.96)"/><path class="cls-3" d="M244.42,144.19a42.31,42.31,0,0,0-12.51-6.29,80.19,80.19,0,0,0-15.21-3c-5.48-.55-11.58-.39-15.85,2-1.27.71-2.38,1.68-2.41,2.8-.17,6.17,18.95,4.49,24.2,4.29A154.26,154.26,0,0,1,244.42,144.19Z" transform="translate(-13.02 -40.96)"/><path class="cls-3" d="M639.62,284.27c-7.87-11.19-22.6-19.62-39.11-24.69-20.14-6.18-42.29-5.6-63.89-6.25-5.55-.16-11.14-.37-16.64-1-3.05-.32-9-.67-11.06-2.48-5.6-4.82,14.73-10.34,19.12-11.5,18.53-4.91,38.81-6.17,56.46-12.73,15.72-5.85,28.75-15.38,30.19-27.91,1.35-11.83-7.71-23.47-21.11-30.84-34.39-18.9-82-5.46-111.68,11.14-7.93,4.44-15.29,9.3-22.71,14.12-6.32,4.11-15,10.33-24.73,9.26-10.61-1.16-7.5-6.3-6.65-11.68,1-6-1.06-12.26-5-17.65-7.74-10.48-23.2-18.4-40.6-19.76-16.77-1.3-32.77,4.43-43,13.09-5.36,4.54-9,9.93-10.59,15.58-16.05-14.3-40-24.15-66.17-28.05a176.23,176.23,0,0,0-48.77-.65c-16,2.09-34.51,6.59-45.22,15.21-12.53,10.09-8.14,23.44,2.76,33.2,12.17,10.91,31.66,15.44,47,23.74,5.32,2.86,17.21,9.74,6.57,13-8.93,2.7-20.25,2.84-29.76,4.3-20.27,3.11-40.33,7.77-57.53,15.78-30,14-49.53,38.83-35.43,63.05,6.2,10.65,18.94,19.56,35.36,23,19.27,4,39.22.35,56.73-5.51,9.1-3,17.72-6.72,26.18-10.51s16.62-8,26.34-10c7.73-1.62,17.38-1.78,20.89,4.19,3.62,6.16-1.3,13.27-5.54,18.63-9.46,12-17.23,23.16-10.18,36.78,6.2,12,21.31,20.52,39.95,22.5,19.6,2.09,37.5-3.68,50-13.68s18.89-23.58,33.73-32.37a38.32,38.32,0,0,1,22.32-5.36c10.53.77,14,5.53,16.13,11.94,3.83,11.46,11.47,21.48,24.53,29.46,24.29,14.83,68.51,22.11,94.93,5.26,14.68-9.37,14.45-23.23,6.17-34.86-4.08-5.75-10.06-10.75-16.23-15.53-3.17-2.44-6.43-4.84-9.52-7.32-1.54-1.24-3.06-2.49-4.49-3.78-1.76-1.59-3.17-4.11-5.21-5.47l-1-1.29c1.79-.1,3.22-.3,5.13-.26A91.89,91.89,0,0,1,522,327.69c10,1.67,19.53,4.34,29.14,6.75,17.25,4.32,36.3,8.45,54.73,5C640.35,333,654.24,305.05,639.62,284.27Z" transform="translate(-13.02 -40.96)"/><path class="cls-9" d="M723.26,315.25c1.51,1.74,2.88,3.46,4.09,5.16,7.5,10.27,28.3,49.8-57.05,80.06s-131.62.74-138.31-5.66c-2-1.88-3.75-3.77-5.34-5.61l38.1-14.33Z" transform="translate(-13.02 -40.96)"/><path class="cls-10" d="M733.13,331.52a42.55,42.55,0,0,0-5.78-11.11c-1.21-1.7-2.58-3.42-4.09-5.16L564.75,374.87l-38.1,14.33c1.59,1.84,3.37,3.73,5.34,5.61a44,44,0,0,0,8.4,5.75C615.06,393.32,705.17,352.82,733.13,331.52Z" transform="translate(-13.02 -40.96)"/><path class="cls-11" d="M708,382.66c-80,20.08-140.61-5.59-140.61-5.59l-3.29-2L526.65,389.2c1.59,1.84,3.37,3.73,5.34,5.61,6.69,6.4,53,35.91,138.31,5.66C686.36,394.78,698.66,388.75,708,382.66Z" transform="translate(-13.02 -40.96)"/><path class="cls-12" d="M612.55,337.86c-43.94,15.85-106,46.46-85.9,51.35,33.71,8.19,206.29-56.94,196.61-74C717.23,304.65,661.63,320.16,612.55,337.86Z" transform="translate(-13.02 -40.96)"/><path class="cls-13" d="M615.3,341.11c-32.48,11.66-87.85,34.54-78.77,41.26,12,8.91,178.31-52.49,172.42-63.59C705.28,311.86,651.57,328.08,615.3,341.11Z" transform="translate(-13.02 -40.96)"/><path class="cls-14" d="M666.25,382s1.82-2.49-1.69-5.93-9.37-4.44-9.37-4.44-2.91,3.08-1.2,6.08,5.87,5.48,5.87,5.48a12.22,12.22,0,0,0-7.55-.73c-4.68.83-8.8,5-8.8,5a24,24,0,0,0,9.92,1.05,28.45,28.45,0,0,0,8.79-2.16s-3.73,2-4,5.3,2.82,6.9,2.82,6.9,4.48-2.84,6-5.19.71-6.3.71-6.3a7.9,7.9,0,0,0,6.28,4.31c4.85.73,14.57-1.34,14.57-1.34s-4.63-4.41-10-5.44a37.73,37.73,0,0,0-8.19-.88,34,34,0,0,0,9.7-3.1c4.36-2.34,3.3-7.52,3.3-7.52S670.83,372,666.25,382Z" transform="translate(-13.02 -40.96)"/><path class="cls-15" d="M669.77,383.79c0,1.69-2.16,3.06-4.83,3.06s-4.83-1.37-4.83-3.06,2.16-3.06,4.83-3.06S669.77,382.1,669.77,383.79Z" transform="translate(-13.02 -40.96)"/><path class="cls-14" d="M704.56,363.25a3.63,3.63,0,0,0,1.28-4.36c-1-2.95-4.62-4.6-4.62-4.6s-3.27,1.63-3.32,4a8.88,8.88,0,0,0,1.78,4.74s-1.33-1.56-4.89-1.76-8.11,2-8.11,2a13.85,13.85,0,0,0,6.39,2.37,24.19,24.19,0,0,0,6.93,0s-3.37.73-4.92,3a7.44,7.44,0,0,0-.91,5.21,28.82,28.82,0,0,0,6.26-2.57,10.13,10.13,0,0,0,3.08-4.22,3.79,3.79,0,0,0,2.55,4c3,1.3,10.57,1.49,10.57,1.49s-1.38-3.8-4.6-5.39a22.39,22.39,0,0,0-5.28-2,29.68,29.68,0,0,0,8-.53,7.92,7.92,0,0,0,5.36-4.62A16.93,16.93,0,0,0,704.56,363.25Z" transform="translate(-13.02 -40.96)"/><path class="cls-15" d="M706.24,365.07c-.7,1.16-2.75,1.75-4.58,1.31s-2.76-1.75-2.06-2.91,2.75-1.75,4.58-1.31S706.93,363.91,706.24,365.07Z" transform="translate(-13.02 -40.96)"/><path class="cls-14" d="M618.88,399.15a11.11,11.11,0,0,1-6.82-1c-3.88-1.74-4.86-4.51-4.86-4.51a13.93,13.93,0,0,1,7.08-.37,20.26,20.26,0,0,1,6.16,2.9,2.83,2.83,0,0,1-.62-3.54c1.11-2.16,6-4,6-4a5.21,5.21,0,0,1,.92,4.66,9,9,0,0,1-2.76,4,11.67,11.67,0,0,1,6.25-1.7,25.31,25.31,0,0,1,7.91,1.51,27.3,27.3,0,0,1-6.19,2.65,28.58,28.58,0,0,1-7.32.14s4.11.78,4.81,3.06-2,6.75-2,6.75-5-2.29-6-4.8a7.52,7.52,0,0,1-.77-3.85,11.62,11.62,0,0,1-3.89,4.43c-2.83,2-8.8,1.31-8.8,1.31S607.19,401,618.88,399.15Z" transform="translate(-13.02 -40.96)"/><path class="cls-15" d="M620.85,400.84c2,.05,3.62-.92,3.7-2.16s-1.45-2.29-3.41-2.34-3.61.91-3.69,2.16S618.9,400.79,620.85,400.84Z" transform="translate(-13.02 -40.96)"/><path class="cls-10" d="M589.86,400.83c-6.18,0-6.19,6.09,0,6.09S596,400.83,589.86,400.83Z" transform="translate(-13.02 -40.96)"/><path class="cls-10" d="M722.86,347.41c-6.17,0-6.18,6.09,0,6.09S729.05,347.41,722.86,347.41Z" transform="translate(-13.02 -40.96)"/><path class="cls-16" d="M417.51,212.06c-4.16-1.61-9.58-.78-12.12,1.85h0c-2.54,2.64-1.24,6.08,2.92,7.69l31.41,12.2c4.58,1.78,6.64,5.38,4.7,8.55-2.05,3.37-2.85,8,3.07,12.69,11.15,8.78,16.66,8.92,33.19,17.76,16.72,8.95-5.63,39.23-11.41,43.95-1.24,1-.81,2.48.91,3.15l47.13,18.31c1.91.74,4.4.13,5-1.23,6.26-13.64,9.29-38.73,6.65-44-.68-1.38,1.69-2.55,3.63-1.8l7.83,3c10.91,4.23,25.16,2,31.84-4.87h0c6.67-6.93,3.23-16-7.68-20.21l-2.29-.89-97.81-38Z" transform="translate(-13.02 -40.96)"/><path class="cls-17" d="M443.93,240.63,429,234.84c-7.26-2.82-9.54-8.84-5.1-13.44h0c4.45-4.61,13.94-6.06,21.19-3.24L460,224Z" transform="translate(-13.02 -40.96)"/><path class="cls-18" d="M445.13,218.16,460,224l-10.1,10.47L422.34,223.7a8.4,8.4,0,0,1,1.6-2.3C428.39,216.79,437.88,215.34,445.13,218.16Z" transform="translate(-13.02 -40.96)"/><path class="cls-16" d="M455.53,253.48c3.1,0,5,1.62,5.2,3.45.59,4.91-1,10.15-3.42,14.8a41.27,41.27,0,0,1-8.07,10.55c12,5,24.26,9.86,36.71,14.43,2.25.83,2.91,2.81,1.59,4.18s-4.29,1.77-6.59,1q-21.7-7.23-42.14-15.8c-2.21-.94-3.62-3.19-1.78-4.7a38,38,0,0,0,9.9-11.57,30.82,30.82,0,0,0,3.17-13C450.21,255,452.63,253.44,455.53,253.48Z" transform="translate(-13.02 -40.96)"/><path class="cls-17" d="M465.56,264.18l14.4,5.58s1.47,8.74-8.31,15.82l-9.89-3.84c-2.18-.85-2.85-2.67-1.44-4C463.25,274.9,467.19,269.86,465.56,264.18Z" transform="translate(-13.02 -40.96)"/><polygon class="cls-16" points="465.66 190.78 498.04 177.96 558.94 201.63 561.26 222.54 547.28 217.11 546.42 205.97 499.52 187.74 478.1 195.61 465.66 190.78"/><path class="cls-19" d="M490.91,226.71l112.84,43.81c37.75,14.68.21,50.13-35.08,36.42L455.83,263.12c-16.93-6.57-22.8-20.05-13.12-30.1S474,220.14,490.91,226.71Z" transform="translate(-13.02 -40.96)"/><path class="cls-20" d="M517,297.44s3.21,20.31-5,30.07c-2.28-.12-27.07-10.52-27.07-10.52s8.67-16.45,10.58-27.14C494.05,290.06,517,297.44,517,297.44Z" transform="translate(-13.02 -40.96)"/><polygon class="cls-10" points="543.99 211.41 561.91 218.37 526.78 254.77 508.86 247.81 543.99 211.41"/><path class="cls-10" d="M603.77,270.53l-35.13,36.39-17.93-7,35.13-36.39,17.91,6.95Z" transform="translate(-13.02 -40.96)"/><path class="cls-11" d="M588.07,304.12A67.93,67.93,0,0,0,600,307.55a45.54,45.54,0,0,1-31.32-.61L455.83,263.12c-10.22-4-16.39-10.44-17.57-17.16Z" transform="translate(-13.02 -40.96)"/><path class="cls-21" d="M490.91,226.71l59.78,23.21a5,5,0,0,1-1.47,2.9c-2.94,3-9.28,4-14.08,2.14l-77.4-30.08A55.46,55.46,0,0,1,490.91,226.71Z" transform="translate(-13.02 -40.96)"/><path class="cls-18" d="M510.17,262.79l6.11,2.38c2.64,1,6.13.49,7.75-1.19h0c1.62-1.67.78-3.88-1.86-4.91l-6.12-2.38c-2.64-1-6.13-.49-7.74,1.18h0C506.69,259.55,507.52,261.76,510.17,262.79Z" transform="translate(-13.02 -40.96)"/><path class="cls-21" d="M487.89,254.13l6.12,2.38c2.64,1,6.13.49,7.74-1.18h0c1.62-1.68.79-3.89-1.86-4.92L493.78,248c-2.64-1-6.13-.49-7.75,1.18h0C484.41,250.89,485.25,253.1,487.89,254.13Z" transform="translate(-13.02 -40.96)"/><path class="cls-18" d="M465.62,245.47l6.11,2.38c2.65,1,6.13.49,7.75-1.18h0c1.62-1.68.78-3.89-1.86-4.92l-6.11-2.38c-2.65-1-6.13-.49-7.75,1.19h0C462.14,242.23,463,244.44,465.62,245.47Z" transform="translate(-13.02 -40.96)"/><path class="cls-10" d="M391.7,215.8s-45.07-13.65-46.1.65S391.7,215.8,391.7,215.8Z" transform="translate(-13.02 -40.96)"/><path class="cls-10" d="M381.26,202.56s-42.1-35.79-54.29-22.11C313.66,195.4,381.26,202.56,381.26,202.56Z" transform="translate(-13.02 -40.96)"/><path class="cls-10" d="M400.18,200.36s-20.48-24.05-2.05-24.7S400.18,200.36,400.18,200.36Z" transform="translate(-13.02 -40.96)"/><path class="cls-22" d="M617.57,362.69s-19.28-11.91-56.84-13S485.27,365,442.37,358.6,388,308.69,368.71,313.22s29.32,29,2.15,34-62.22-5-83-35.4-20-76.24-35-77.6S265,263.76,245,268.75s-21.46-34.94-20-49.92,22.17-35.39,2.15-39.93S194.94,213.84,200,229.27s-6.44,31.31-21.46,16.34-19.3-33.13-30.75-12.71,20.74,52.64,57.21,80.32,83.67,31.32,76.52,41.3-37.9-15.43-39.33,1.82,60.07,39,108.69,38.12,108-15,112.27-7.27-44.33.91-23.6,13.16,103.69-16.33,120.86-20S617.57,362.69,617.57,362.69Z" transform="translate(-13.02 -40.96)"/><g class="cls-23"><path class="cls-24" d="M560.36,380.39c3.6-.76,8.21-2,13.24-3.44-.31-.14-.6-.29-.93-.42l-.27-.09c-11-9.15-31.33-13.19-48.68-9.53-11.22,2.36-19.8,7.68-28.08,12.8-2,1.22-4,2.45-6,3.63-1.71,1-3.93,2.54-6.42,2.7a4.47,4.47,0,0,0-.7.1c-.43-.22.36-1.56.45-1.85a7.35,7.35,0,0,0-.06-5.36c-3.16-7.6-16.15-11.09-27.54-10.59-7.15.31-14,1.69-20.82,3s-13.67,2.52-20.57,3.63c-25.5,4.09-52.36,6.52-78.49,3.37a147.2,147.2,0,0,1-34.13-8c-4.12-1.55-8.71-3.24-10.6-6.21-.44-.69-.84-1.62-.16-2a8.34,8.34,0,0,1,3-.48,21.44,21.44,0,0,0,4.31-.73c4.55-1.36,6.92-4.55,7.32-7.6.47-3.55-2.17-6.75-5.89-9.3-4-2.72-9.13-4.74-13.83-6.92-5.39-2.51-10.74-5.06-16-7.69a470.39,470.39,0,0,1-58-34.09c-6.47-4.49-15.61-11.71-12.05-18.27,1.65-3,6.25-4.91,9.36-7.29,3.64-2.78,5.61-6.25,3.72-9.82-1.73-3.28-5.62-5.69-8.85-8.39a14.23,14.23,0,0,1-4.49-6c-3.54,6.83-11.41,9.27-20.63.08-15-15-19.3-33.13-30.75-12.71s20.74,52.64,57.21,80.32,83.67,31.32,76.52,41.3-37.9-15.43-39.33,1.82,60.07,39,108.69,38.12,108-15,112.27-7.27-44.33.91-23.6,13.16S543.19,384,560.36,380.39Z" transform="translate(-13.02 -40.96)"/></g><g class="cls-25"><path class="cls-26" d="M330.27,350.78s5.37,5.44,28.43,5.44,29.5-6.46,29.5-6.46,1.61,7.82-15.56,11.91S338.85,360.31,330.27,350.78Z" transform="translate(-13.02 -40.96)"/><path class="cls-26" d="M521.21,358.26s44-4.08,66.5,6.47C582.35,351.8,545.34,347.37,521.21,358.26Z" transform="translate(-13.02 -40.96)"/><path class="cls-26" d="M224.62,269.43S223.54,281,238,283.05s16.09-10.55,16.09-10.55S238,286.79,224.62,269.43Z" transform="translate(-13.02 -40.96)"/><path class="cls-26" d="M210.67,192.51s17.17-.68,11.27,13.28C233.2,195.24,224.08,172.09,210.67,192.51Z" transform="translate(-13.02 -40.96)"/><path class="cls-26" d="M166.16,242.89s-7.51,12.25-.54,20.76C150.6,256.5,150.07,244.25,166.16,242.89Z" transform="translate(-13.02 -40.96)"/><path class="cls-26" d="M178.18,266.31a4,4,0,0,0-.65-.52l-.13-.12a4.21,4.21,0,0,0-2.13-.93,7.54,7.54,0,0,0-2.37,0,8.75,8.75,0,0,0-1.17.32,4.75,4.75,0,0,0-1.85,1.17,2.22,2.22,0,0,0-.52,2.34,3.16,3.16,0,0,0,1.7,1.63,7.14,7.14,0,0,0,5.47.16C178.68,269.52,179.49,267.71,178.18,266.31Z" transform="translate(-13.02 -40.96)"/><path class="cls-26" d="M394.21,354.92c-2.35.39-4.24,1.56-4.94,3s0,3.17,1.69,4.41a4.39,4.39,0,0,0,1.12.58c3.64,1.82,9.16.24,10.43-2.46C404,357.38,399.28,354.08,394.21,354.92Z" transform="translate(-13.02 -40.96)"/><path class="cls-26" d="M415.1,359.1a1.92,1.92,0,0,0-.74-.8,3.71,3.71,0,0,0-1.26-.47H413l-.79-.06H412l-.79.06h-.09c-.17,0-.36.09-.51.13a4.5,4.5,0,0,0-.49.14c-.13.05-.27.13-.37.18a3,3,0,0,0-.36.18,1.62,1.62,0,0,0-.35.27,2.22,2.22,0,0,0-.33.28,1.47,1.47,0,0,0-.41,1l.11.52a2,2,0,0,0,.55.66.72.72,0,0,0,.28.3,1.78,1.78,0,0,0,.7.41,4.77,4.77,0,0,0,1.53.27c.27,0,.54,0,.81-.07l.14,0a4.85,4.85,0,0,0,1.64-.6l.1-.07c.18-.13.35-.27.51-.41a2.71,2.71,0,0,0,.4-.57,1.74,1.74,0,0,0,.17-.64A1.82,1.82,0,0,0,415.1,359.1Z" transform="translate(-13.02 -40.96)"/></g><path class="cls-22" d="M332.2,294a12.34,12.34,0,0,0-2.85,7.09c-1.39,13.39,11.27,29,32.63,32.31-9.75-9-8.49-21.11-5.22-32.63-1.49-5.12-6.48-12.24-15.67-11.16A14.13,14.13,0,0,0,332.2,294Z" transform="translate(-13.02 -40.96)"/><path class="cls-22" d="M194,195.27c0-3.77,1.91-7.53,5.4-10.57,3.33-2.89,7.95-5.09,11.41-7.91,3.24-2.64,7.36-8.6,1.42-11a13.53,13.53,0,0,0-7.46-.39,20.33,20.33,0,0,0-6.43,2.65c-11.17,6.73-16,19.58-4.34,27.22Z" transform="translate(-13.02 -40.96)"/><path class="cls-22" d="M137.1,248.76a10,10,0,0,1-1.19-9.26c1.09-2.91,3.54-5.55,4.78-8.44,1.16-2.7,1.31-8.15-4.48-8.76a10.43,10.43,0,0,0-6,1.22,10.63,10.63,0,0,0-3.62,3.36c-5.2,7.48-2.38,18.38,10.49,21.9Z" transform="translate(-13.02 -40.96)"/><rect class="cls-10" x="221.7" y="253.9" width="3.11" height="84.55"/><path class="cls-9" d="M234.71,332.05l-63.19,91.3c44.46,9.55,89.52,9.3,135.15,0L238,332A2.33,2.33,0,0,0,234.71,332.05Z" transform="translate(-13.02 -40.96)"/><path class="cls-13" d="M306.67,423.35l-1.47-2c-22.11-2.09-52-7.75-66.54-22.93-16.17-16.85-8.19-47.34-.72-66.46a2.32,2.32,0,0,0-3.23,0l-63.19,91.3C216,432.9,261,432.65,306.67,423.35Z" transform="translate(-13.02 -40.96)"/><path class="cls-27" d="M234.83,297.56v14.2a30,30,0,0,0,18-.93c10-3.55,24.73-7.85,30-4.3-.58-8.78-13.84-10.65-23.26-10.28S237.77,299.8,234.83,297.56Z" transform="translate(-13.02 -40.96)"/><path class="cls-28" d="M262.07,302.54c-9.51.38-14.29,5.67-27.24,2.42v6.8a30,30,0,0,0,18-.93c10-3.55,24.73-7.85,30-4.3a7.21,7.21,0,0,0-.15-.93C276.84,302.93,268.68,302.28,262.07,302.54Z" transform="translate(-13.02 -40.96)"/><ellipse class="cls-10" cx="223.28" cy="252.49" rx="3.24" ry="2.06"/><path class="cls-29" d="M252.92,362.68c3.84,4.75,22.28,28.86,21.55,30.94s-13.51-3.94-19.54-11.94S249.09,357.92,252.92,362.68Z" transform="translate(-13.02 -40.96)"/><path class="cls-29" d="M248.31,355.75l-.62-.5-.38-.19a4.85,4.85,0,0,0-1.6-.75c-2.62-.7-5.76.42-6.5,2.12a2,2,0,0,0,0,1.57,3.12,3.12,0,0,0,1.22,1.35A5.76,5.76,0,0,0,242,360c.24.06.44.13.69.17a8.82,8.82,0,0,0,1.27.1,5.94,5.94,0,0,0,4.28-1.5,2.33,2.33,0,0,0,.69-1.51A2.41,2.41,0,0,0,248.31,355.75Z" transform="translate(-13.02 -40.96)"/><polygon class="cls-30" points="617.18 70.96 617.13 77.05 626.23 78.96 617.09 80.8 617.04 86.89 611.45 81.94 602.32 83.79 607.99 78.89 602.4 73.95 611.5 75.86 617.18 70.96"/><polygon class="cls-19" points="629.37 89.87 627.43 100.75 643.14 105.29 626.23 107.48 624.28 118.36 615.78 108.83 598.87 111.02 610.52 102.94 602.01 93.41 617.72 97.95 629.37 89.87"/><polygon class="cls-19" points="141.92 103.27 145.97 109.3 156.26 108.72 148.47 113.03 152.51 119.06 143.65 115.69 135.86 120 138.17 113.61 129.31 110.23 139.6 109.66 141.92 103.27"/><polygon class="cls-19" points="455.24 13.37 458.07 21.17 470.63 21.87 459.82 25.99 462.64 33.78 453.13 28.53 442.32 32.65 447.26 25.28 437.75 20.03 450.31 20.73 455.24 13.37"/><polygon class="cls-30" points="394.67 0 397.47 12.99 378.87 18.69 399.2 21.02 402 34.01 411.77 22.45 432.1 24.78 417.8 15.31 427.57 3.76 408.97 9.46 394.67 0"/><polygon class="cls-30" points="118.01 72.87 120.81 85.86 102.2 91.56 122.54 93.88 125.34 106.87 135.1 95.32 155.43 97.64 141.13 88.18 150.91 76.63 132.3 82.33 118.01 72.87"/><path class="cls-14" d="M287,415.14s-3.14-4.49-14.57-5.54A46.58,46.58,0,0,0,252,412.38a32.66,32.66,0,0,0,14.23,8.2A53.39,53.39,0,0,0,282,422s-6.72.6-10.45,5.58.24,13.4.24,13.4,8.58-1.8,13.9-7.23,5.77-10.06,5.77-10.06-.22,5.5,6.53,9.64,18,5.72,18,5.72-.74-7.16-3.94-11.22-12.53-8-12.53-8,8.9.81,16.15-2.47a39.73,39.73,0,0,0,12.24-9.09,41.88,41.88,0,0,0-20.79-.66c-9.36,2.12-11.52,6-11.52,6s2.14-2.88-.78-9.07c-3.68-7.82-13.81-11.8-13.81-11.8S272.35,405,287,415.14Z" transform="translate(-13.02 -40.96)"/><path class="cls-31" d="M294,415c3,1.65,3.26,4.5.67,6.37a10.17,10.17,0,0,1-10,.43c-3-1.64-3.26-4.49-.67-6.37A10.17,10.17,0,0,1,294,415Z" transform="translate(-13.02 -40.96)"/><path class="cls-32" d="M292.05,416.39c1.74,1,1.91,2.63.39,3.74a6,6,0,0,1-5.89.25c-1.74-1-1.91-2.64-.39-3.74A5.94,5.94,0,0,1,292.05,416.39Z" transform="translate(-13.02 -40.96)"/><path class="cls-33" d="M301.31,416.12s14-.91,18.46-6.11C309.85,410.14,301.31,416.12,301.31,416.12Z" transform="translate(-13.02 -40.96)"/><path class="cls-33" d="M297.6,423.6s1.88,8.37,12.2,10.57C305.87,427.27,297.6,423.6,297.6,423.6Z" transform="translate(-13.02 -40.96)"/><path class="cls-33" d="M283.29,426.09s.81,6.83-7.92,10.23C274.85,430.09,283.29,426.09,283.29,426.09Z" transform="translate(-13.02 -40.96)"/><path class="cls-33" d="M277.09,416.56s-12.79,1.34-18.37-3.94C268.26,411.69,277.09,416.56,277.09,416.56Z" transform="translate(-13.02 -40.96)"/><path class="cls-33" d="M288.79,410s-5.55-5.94-5.12-12.35C292.37,403,288.79,410,288.79,410Z" transform="translate(-13.02 -40.96)"/><path class="cls-14" d="M653.38,263.29s1.31-3.46-4.54-7.26-13.7-4.12-13.7-4.12-.89,5.16,2.5,8.7a23.82,23.82,0,0,0,8.1,5.23,16.57,16.57,0,0,0-9.9.29c-5.61,1.82-9.17,7.78-9.17,7.78a32.48,32.48,0,0,0,13-.27c6.84-1.64,10.31-4.18,10.31-4.18s-4,3.1-2.94,7.38,6.36,8.31,6.36,8.31,4.55-4.33,5.53-7.56-1.64-8.12-1.64-8.12a23,23,0,0,0,11,3.09,53.2,53.2,0,0,0,13.36-1.8s-3.18-4.5-11.51-6.2c-6.86-1.4-10.77.21-10.77.21s3.23-1.06,5.86-5.44a10.87,10.87,0,0,0,.25-10.66S652,253.35,653.38,263.29Z" transform="translate(-13.02 -40.96)"/><path class="cls-31" d="M657.49,265.15c.57,1.77-1.24,3.49-4,3.85s-5.51-.79-6.08-2.56,1.25-3.5,4-3.86S656.93,263.38,657.49,265.15Z" transform="translate(-13.02 -40.96)"/><path class="cls-32" d="M655.41,265.41c.33,1-.73,2.06-2.37,2.27s-3.24-.47-3.57-1.51.73-2.05,2.37-2.26S655.08,264.37,655.41,265.41Z" transform="translate(-13.02 -40.96)"/><path class="cls-33" d="M660.92,267.85s8.71,3.4,14.88,1.65C670,266.8,660.92,267.85,660.92,267.85Z" transform="translate(-13.02 -40.96)"/><path class="cls-33" d="M653.59,271.12s-4.74,5.34-.32,9.5A11.27,11.27,0,0,0,653.59,271.12Z" transform="translate(-13.02 -40.96)"/><path class="cls-33" d="M643.62,268.55A16,16,0,0,1,632,272.22C636,268.49,643.62,268.55,643.62,268.55Z" transform="translate(-13.02 -40.96)"/><path class="cls-33" d="M646.67,261.33s-8.29-2.81-7.83-7.41A12.73,12.73,0,0,1,646.67,261.33Z" transform="translate(-13.02 -40.96)"/><path class="cls-33" d="M658,260.81a15.35,15.35,0,0,1,5.63-8.54C664.91,257.78,658,260.81,658,260.81Z" transform="translate(-13.02 -40.96)"/><path class="cls-14" d="M706.12,156.42s-1.62-4.92-12.69-7.53a50.58,50.58,0,0,0-21.41,0A25.38,25.38,0,0,0,683.48,159a50.55,50.55,0,0,0,15.3,3.57,20,20,0,0,0-12.35,4.16c-5.43,4.47-4.31,13.44-4.31,13.44s9.19-.63,16.37-5.34,9.19-9.27,9.19-9.27-2.1,5.47,3.26,10.54,16,8.18,16,8.18,1.69-7.27-.13-11.77S717,162.8,717,162.8a39,39,0,0,0,17-.26,52.94,52.94,0,0,0,15.33-7.42s-8.34-4.52-20.58-3.5c-10.08.84-13.55,4.39-13.55,4.39s3.12-2.59,2.31-9.19c-1-8.33-9.81-13.7-9.81-13.7S694.87,144.29,706.12,156.42Z" transform="translate(-13.02 -40.96)"/><path class="cls-31" d="M713.13,157.22c2.4,2.05,1.73,4.94-1.49,6.46s-7.79,1.1-10.19-1-1.73-4.94,1.5-6.46S710.73,155.17,713.13,157.22Z" transform="translate(-13.02 -40.96)"/><path class="cls-32" d="M710.72,158.36c1.41,1.2,1,2.9-.88,3.79a6,6,0,0,1-6-.55c-1.41-1.21-1-2.9.88-3.8A6,6,0,0,1,710.72,158.36Z" transform="translate(-13.02 -40.96)"/><path class="cls-33" d="M720.08,159.36s14.34,1,20.54-3.59C730.65,154.54,720.08,159.36,720.08,159.36Z" transform="translate(-13.02 -40.96)"/><path class="cls-33" d="M713.82,166.33s-1,8.64,8.62,12.25C720.84,171.14,713.82,166.33,713.82,166.33Z" transform="translate(-13.02 -40.96)"/><path class="cls-33" d="M698.66,166.87s-1.52,6.94-11.4,9.15C688.85,169.71,698.66,166.87,698.66,166.87Z" transform="translate(-13.02 -40.96)"/><path class="cls-33" d="M695.69,156.49s-13.25-.42-17-6.46A30.74,30.74,0,0,1,695.69,156.49Z" transform="translate(-13.02 -40.96)"/><path class="cls-33" d="M709.63,151.5s-3.53-6.7-.92-13.05C715.6,145,709.63,151.5,709.63,151.5Z" transform="translate(-13.02 -40.96)"/><path class="cls-14" d="M59.71,262s-1.53-4.67-12-7.15a47.91,47.91,0,0,0-20.31,0,24,24,0,0,0,10.87,9.63,47.82,47.82,0,0,0,14.52,3.39A19,19,0,0,0,41,271.8c-5.15,4.25-4.09,12.76-4.09,12.76s8.72-.6,15.53-5.07,8.72-8.79,8.72-8.79-2,5.18,3.09,10,15.2,7.76,15.2,7.76,1.6-6.9-.12-11.17-9.31-9.24-9.31-9.24a37,37,0,0,0,16.12-.25,50.22,50.22,0,0,0,14.56-7,37.63,37.63,0,0,0-19.53-3.32c-9.56.79-12.86,4.16-12.86,4.16s3-2.46,2.19-8.72c-1-7.9-9.3-13-9.3-13S49,250.48,59.71,262Z" transform="translate(-13.02 -40.96)"/><path class="cls-31" d="M66.37,262.75c2.27,1.94,1.64,4.69-1.42,6.13s-7.39,1.05-9.67-.9-1.64-4.68,1.42-6.13S64.09,260.81,66.37,262.75Z" transform="translate(-13.02 -40.96)"/><path class="cls-32" d="M64.08,263.83c1.34,1.14,1,2.75-.83,3.6a5.73,5.73,0,0,1-5.68-.52c-1.34-1.15-1-2.76.83-3.61A5.73,5.73,0,0,1,64.08,263.83Z" transform="translate(-13.02 -40.96)"/><path class="cls-33" d="M73,264.79s13.6.95,19.49-3.41C83,260.21,73,264.79,73,264.79Z" transform="translate(-13.02 -40.96)"/><path class="cls-33" d="M67,271.4S66.1,279.6,75.2,283C73.69,276,67,271.4,67,271.4Z" transform="translate(-13.02 -40.96)"/><path class="cls-33" d="M52.63,271.91s-1.44,6.59-10.81,8.68C43.33,274.61,52.63,271.91,52.63,271.91Z" transform="translate(-13.02 -40.96)"/><path class="cls-33" d="M49.82,262.06s-12.58-.4-16.17-6.13A29.14,29.14,0,0,1,49.82,262.06Z" transform="translate(-13.02 -40.96)"/><path class="cls-33" d="M63.05,257.33s-3.35-6.36-.88-12.39C68.71,251.14,63.05,257.33,63.05,257.33Z" transform="translate(-13.02 -40.96)"/><path class="cls-6" d="M522.9,409s-28.91-5.21-46.8,5.6-26.4,19.46-26.4,19.46,33.21,4.32,55.36-5.4S522.9,409,522.9,409Z" transform="translate(-13.02 -40.96)"/><path class="cls-7" d="M522.9,409l-.78-.12c-11.62,3-20.48,8.74-30.57,13.63-11.82,5.72-25.33,8.68-39.67,9.52-1.45,1.29-2.18,2-2.18,2s33.21,4.32,55.36-5.4S522.9,409,522.9,409Z" transform="translate(-13.02 -40.96)"/><path class="cls-6" d="M538.58,408s7.36-12.9,32.07-5.87,46.84,17.84,56.21,17.3C594.49,429.74,547.39,431.75,538.58,408Z" transform="translate(-13.02 -40.96)"/><path class="cls-7" d="M597,421.42c-20-1.49-42-5.53-58.21-13.75-.16.23-.24.37-.24.37,8.18,22,49.31,21.85,81,13.51A156.58,156.58,0,0,1,597,421.42Z" transform="translate(-13.02 -40.96)"/><path class="cls-10" d="M533.06,403.12s5-3.54,2-10.37-12-10.38-12-10.38-6.23,5.7-5.8,11.23a16.6,16.6,0,0,0,4.26,9.42s-3.5-3.53-11.91-3.66S491,404.79,491,404.79a34.55,34.55,0,0,0,15.58,4.94A56,56,0,0,0,522.9,409s-7.75,2.05-10.85,7.48-.89,12.33-.89,12.33,9.7-3.25,14.09-6.64S531.48,412,531.48,412s2.39,5.32,9.82,8.09,17.51,3.28,17.51,3.28.78-6.58-7.3-11.93a23.33,23.33,0,0,0-12.86-4.11s4.86.06,12.34-4c9.45-5.15,11-12.41,11-12.41S541.36,390.87,533.06,403.12Z" transform="translate(-13.02 -40.96)"/><path class="cls-31" d="M536,407c-1.12,2.31-5,3.6-8.61,2.89s-5.67-3.16-4.56-5.46,5-3.61,8.61-2.9S537.14,404.65,536,407Z" transform="translate(-13.02 -40.96)"/><path class="cls-32" d="M533.31,406.43c-.66,1.35-2.93,2.11-5.06,1.7s-3.34-1.86-2.68-3.21,2.92-2.12,5.06-1.7S534,405.07,533.31,406.43Z" transform="translate(-13.02 -40.96)"/><path class="cls-33" d="M537.33,411.52s6.81,7.51,15.82,7.94C549.05,414,537.33,411.52,537.33,411.52Z" transform="translate(-13.02 -40.96)"/><path class="cls-33" d="M525.45,412.39s-10.94,4.37-9.91,11C523.59,418.48,525.45,412.39,525.45,412.39Z" transform="translate(-13.02 -40.96)"/><path class="cls-33" d="M516.32,405.34s-9.21,3.16-17.39-.39C507.41,402.19,516.32,405.34,516.32,405.34Z" transform="translate(-13.02 -40.96)"/><path class="cls-33" d="M527.14,398.1s-6.91-6.65-1.76-11.87C530.45,391.21,527.14,398.1,527.14,398.1Z" transform="translate(-13.02 -40.96)"/><path class="cls-33" d="M540.94,402.06a39.46,39.46,0,0,1,15.19-7.75C552.13,401.31,540.94,402.06,540.94,402.06Z" transform="translate(-13.02 -40.96)"/><rect class="cls-10" x="127.98" y="232.34" width="3.77" height="102.67"/><path class="cls-29" d="M141,318.46,64.26,429.33c54,11.59,108.7,11.29,164.11,0L144.92,318.42A2.82,2.82,0,0,0,141,318.46Z" transform="translate(-13.02 -40.96)"/><path class="cls-9" d="M228.37,429.33,226.58,427c-26.84-2.54-63.12-9.41-80.8-27.84-19.63-20.46-9.94-57.49-.87-80.7a2.82,2.82,0,0,0-3.92,0L64.26,429.33C118.24,440.92,173,440.62,228.37,429.33Z" transform="translate(-13.02 -40.96)"/><path class="cls-30" d="M141.13,276.58v17.24s9.65,3.18,21.81-1.13,30-9.53,36.47-5.22c-.72-10.66-16.81-12.93-28.25-12.48S144.7,279.3,141.13,276.58Z" transform="translate(-13.02 -40.96)"/><path class="cls-34" d="M174.21,282.63c-11.55.46-17.35,6.88-33.08,2.93v8.26s9.65,3.18,21.81-1.13,30-9.53,36.47-5.22c0-.39-.12-.75-.18-1.13C192.15,283.1,182.24,282.31,174.21,282.63Z" transform="translate(-13.02 -40.96)"/><path class="cls-10" d="M146.85,271.59c0,1.38-1.76,2.49-3.93,2.49S139,273,139,271.59s1.76-2.5,3.94-2.5S146.85,270.21,146.85,271.59Z" transform="translate(-13.02 -40.96)"/><path class="cls-35" d="M164.15,356c6.15,7.6,35.68,46.2,34.51,49.54s-21.64-6.31-31.29-19.11S158,348.38,164.15,356Z" transform="translate(-13.02 -40.96)"/><path class="cls-35" d="M155,360.57a10.24,10.24,0,0,0-4.62-2.76c-.22-.12-.43-.24-.66-.35a7.75,7.75,0,0,0-6.08.25l-.53.17c-8,2.95-4.47,14.73,6,13.49,4.88-.58,7.52-3.5,7.23-6.5A5,5,0,0,0,155,360.57Z" transform="translate(-13.02 -40.96)"/><path class="cls-35" d="M157.5,347.24l-.75-.61-.46-.23a5.72,5.72,0,0,0-1.94-.91c-3.18-.85-7,.51-7.9,2.57a2.48,2.48,0,0,0,0,1.91,3.74,3.74,0,0,0,1.47,1.64,6.84,6.84,0,0,0,1.9.78,8.59,8.59,0,0,0,.84.21,9.8,9.8,0,0,0,1.54.13,7.23,7.23,0,0,0,5.2-1.82,2.86,2.86,0,0,0,.84-1.84A2.91,2.91,0,0,0,157.5,347.24Z" transform="translate(-13.02 -40.96)"/><path class="cls-6" d="M216.79,431.5s17-12.33,37.54-10.53,34.41,17.54,46.48,16.36C285.41,446.42,231.23,446.13,216.79,431.5Z" transform="translate(-13.02 -40.96)"/><path class="cls-7" d="M246.68,442.3c20.54,2.65,44.66.62,54.13-5a16.4,16.4,0,0,1-5.68-.54c-.59.14-1.15.3-1.77.42a72.87,72.87,0,0,1-26,.17c-9.11-1.6-17.49-4.36-26.78-5.66a120.52,120.52,0,0,0-23-.78c-.54.35-.83.56-.83.56,2.8,2.83,7.09,5.12,12.29,6.91A171.15,171.15,0,0,1,246.68,442.3Z" transform="translate(-13.02 -40.96)"/><path class="cls-6" d="M205.31,436.87s-2.7,12.94-17.65,17.51-35.07-2-42.28,2.13C149.31,446.16,185.54,431.18,205.31,436.87Z" transform="translate(-13.02 -40.96)"/><path class="cls-7" d="M205.31,436.87a30.8,30.8,0,0,0-4.57-.91,3.08,3.08,0,0,0-.56.58c-3.22,4.39-9.59,8.38-16.53,10.39-7.78,2.26-16.62,1.66-24.88,2.54a55.65,55.65,0,0,0-9,1.68,14.28,14.28,0,0,0-4.35,5.36c7.21-4.17,27.34,2.43,42.28-2.13S205.31,436.87,205.31,436.87Z" transform="translate(-13.02 -40.96)"/><path class="cls-6" d="M204.93,430.58s-11.53-15.36-31.83-18.05-37.49,2.91-40.26.23C142.31,428.38,189.07,438.14,204.93,430.58Z" transform="translate(-13.02 -40.96)"/><path class="cls-7" d="M204.93,430.58a39.39,39.39,0,0,0-3.81-4.15c-4.48.31-9.05.43-13.45.37a61.16,61.16,0,0,1-9.32-2.2c-10.88-3.4-19.73-8.91-30.82-12.07-7.79.76-13.23,1.64-14.69.23C142.31,428.38,189.07,438.14,204.93,430.58Z" transform="translate(-13.02 -40.96)"/><path class="cls-10" d="M218.26,432.73A23.25,23.25,0,0,0,233,428.08c7.32-5.37,7.1-12.05,7.1-12.05s-10.93-.17-18,3.1-10,7.43-10,7.43,2.73-3.8-1.73-8.33S193,411.36,193,411.36a11.81,11.81,0,0,0,2,11,29.44,29.44,0,0,0,9.92,8.24,31.72,31.72,0,0,0-15.81-1.65,49.68,49.68,0,0,0-16.72,6.31s9.6,3.36,16.49,3.82,16.85-2.31,16.85-2.31-5.68,4.19-5.24,9.66,5.3,11.08,5.3,11.08,9.08-3.2,11.7-10.43c2.15-5.95-1.66-9.07-1.66-9.07s2.59,2.61,12.08,4.33a52.72,52.72,0,0,0,22.38-1S238.94,430.41,218.26,432.73Z" transform="translate(-13.02 -40.96)"/><path class="cls-31" d="M214.83,436.41c-3.65.68-7.48-.65-8.54-3s1-4.75,4.69-5.42,7.48.66,8.54,3S218.48,435.74,214.83,436.41Z" transform="translate(-13.02 -40.96)"/><path class="cls-32" d="M214,434.68c-2.15.4-4.4-.39-5-1.75s.61-2.78,2.76-3.18,4.39.39,5,1.75S216.18,434.29,214,434.68Z" transform="translate(-13.02 -40.96)"/><path class="cls-33" d="M209.54,439.61s-6.15,7.74-1.77,12.76C212.78,447.16,209.54,439.61,209.54,439.61Z" transform="translate(-13.02 -40.96)"/><path class="cls-33" d="M201.87,433.79s-11.76-3.4-20,.8A55.87,55.87,0,0,0,201.87,433.79Z" transform="translate(-13.02 -40.96)"/><path class="cls-33" d="M206.13,425.08s-9.21-3.15-9-9.44C205.39,418.62,206.13,425.08,206.13,425.08Z" transform="translate(-13.02 -40.96)"/><path class="cls-33" d="M221.62,426.84a18.86,18.86,0,0,1,14.66-7.46C232.5,424.81,221.62,426.84,221.62,426.84Z" transform="translate(-13.02 -40.96)"/><path class="cls-33" d="M224,436.33s10.53.23,18.55,3.8C231.12,441.85,224,436.33,224,436.33Z" transform="translate(-13.02 -40.96)"/><path class="cls-26" d="M267.06,287.08a1.8,1.8,0,0,0-.05-.19v0a1.16,1.16,0,0,0-.1-.28,3,3,0,0,0-.91-1,4.13,4.13,0,0,0-.91-.48,6.41,6.41,0,0,0-1.94-.34,2.25,2.25,0,0,0-.26,0l-.51,0a4.75,4.75,0,0,0-.53.05l-.24,0a10.07,10.07,0,0,0-1,.27l-.21.09a8,8,0,0,0-.83.41l-.19.13a5.7,5.7,0,0,0-.64.54,3.43,3.43,0,0,0-.46.66,1.42,1.42,0,0,0-.08.18,3.63,3.63,0,0,0-.13.64.28.28,0,0,0,0,.09,2.32,2.32,0,0,0,.07.38c0,.12.05.26.09.38l.35.53a2.33,2.33,0,0,0,.9.62,2.14,2.14,0,0,0,.76.28,3.92,3.92,0,0,0,1.34.19c.59,0,1.17-.08,1.74-.17l.82-.13h.09l.25-.05a5.9,5.9,0,0,0,.75-.21,5.43,5.43,0,0,0,.64-.31.91.91,0,0,0,.16-.11,3.94,3.94,0,0,0,.49-.41,3.7,3.7,0,0,0,.36-.51,1.9,1.9,0,0,0,.22-.75A1.29,1.29,0,0,0,267.06,287.08Z" transform="translate(-13.02 -40.96)"/><path class="cls-10" d="M471,351.94a1.94,1.94,0,0,0,.66-1.4,2.61,2.61,0,0,0-.05-1c-.35-2.25-2.41-5.49-7-8.14-6.41-3.73-19.54-4.61-21.3-2.94-.89.85-.36,3,1.37,5.37h0a20,20,0,0,0,9.75,7.42c6.41,2.35,13.81,2,16.19.91a.87.87,0,0,0,.34-.19Z" transform="translate(-13.02 -40.96)"/><path class="cls-10" d="M472.88,351.9c-1.08-.37-6.82-5.26-3.69-11.32,2.95-5.75,11.46-10.18,14.52-9.7s6.22,8.62,2.87,13.71C482.92,350.16,475.15,352.68,472.88,351.9Z" transform="translate(-13.02 -40.96)"/><path class="cls-10" d="M475.25,352.84c.25-.76,6-5.66,16-5.5,9.52.15,18.66,4,18.82,6s-11.22,6.26-19.87,5.69C480.77,358.44,474.73,354.44,475.25,352.84Z" transform="translate(-13.02 -40.96)"/><path class="cls-10" d="M474.37,354c1.22-.07,10.25,2,12.91,8.16,2.52,5.83-.73,12.5-3.7,13.17s-12.68-5-14.3-10.44C467.5,358.94,471.8,354.12,474.37,354Z" transform="translate(-13.02 -40.96)"/><path class="cls-10" d="M471.56,353.44c.46.73-.07,6.82-8.6,10.2-8.07,3.21-19.08,3.16-20.94,1.54S446,356,453.66,353.49C462.1,350.7,470.61,351.93,471.56,353.44Z" transform="translate(-13.02 -40.96)"/><path class="cls-36" d="M473.39,347.89c-9.66,0-9.67,9.53,0,9.53S483.07,347.89,473.39,347.89Z" transform="translate(-13.02 -40.96)"/><path class="cls-37" d="M473.39,349.84c-5.71,0-5.72,5.63,0,5.63S479.12,349.84,473.39,349.84Z" transform="translate(-13.02 -40.96)"/><path class="cls-37" d="M480.33,367.62c-.19-.75-.4-1.49-.64-2.23a33.7,33.7,0,0,0-1.86-4.57c-.28-.57-1.65-.33-1.4.24a41.22,41.22,0,0,1,1.71,4.51c.23.74.44,1.49.62,2.24a12.67,12.67,0,0,0,.57,2.32c.24.51,1.37.39,1.41-.12A7.37,7.37,0,0,0,480.33,367.62Z" transform="translate(-13.02 -40.96)"/><path class="cls-37" d="M461.47,356.29a44.25,44.25,0,0,0-5.6,2.39c-1.8.85-3.55,1.75-5.25,2.67-.65.36.3.95.95.6,1.7-.91,3.44-1.79,5.24-2.62s3.69-1.55,5.4-2.43C462.78,356.61,462.05,356.11,461.47,356.29Z" transform="translate(-13.02 -40.96)"/><path class="cls-37" d="M463,348a5.9,5.9,0,0,0-1.11-.78q-.56-.36-1.14-.69c-.81-.48-1.65-.94-2.53-1.37a51.43,51.43,0,0,0-5.44-2.33c-.72-.26-1.37.44-.65.71a50.6,50.6,0,0,1,5.22,2.33c.81.42,1.6.86,2.37,1.31.38.23.76.46,1.13.7a10.07,10.07,0,0,0,1.2.73C462.68,348.89,463.39,348.39,463,348Z" transform="translate(-13.02 -40.96)"/><path class="cls-37" d="M479.29,338a16.16,16.16,0,0,1-1.14,4,34,34,0,0,1-2.12,3.79c-.27.45.85.74,1.21.33a14.27,14.27,0,0,0,3.2-8.13C480.48,337.54,479.36,337.55,479.29,338Z" transform="translate(-13.02 -40.96)"/><path class="cls-37" d="M498.58,353.49a13.38,13.38,0,0,0-3.24-.6c-1.13-.13-2.26-.22-3.4-.28a51.84,51.84,0,0,0-6.94.11c-.82.06-.84.88,0,.82a51.63,51.63,0,0,1,6.7-.06c1.09.06,2.18.16,3.26.29a28.3,28.3,0,0,0,3.33.41C498.88,354.18,499.07,353.68,498.58,353.49Z" transform="translate(-13.02 -40.96)"/><path class="cls-10" d="M192,314.48a1.68,1.68,0,0,0-.5-1.33,4.12,4.12,0,0,0-.77-.8c-1.95-1.72-6-3.73-11.64-4.53-7.94-1.12-19.22,2.06-19.42,3.93-.1,1,1.9,2.53,5.06,3.95h0a32.69,32.69,0,0,0,13.36,3.12c6.92,0,12.68-2.45,13.78-4.07a.58.58,0,0,0,.14-.25Z" transform="translate(-13.02 -40.96)"/><path class="cls-10" d="M193.5,313.87c-1.15,0-9.39-2.24-11.33-8.08-1.83-5.53,1.79-11.64,4.63-12.16s11.39,5.14,12.42,10.26C200.35,309.49,195.91,313.83,193.5,313.87Z" transform="translate(-13.02 -40.96)"/><path class="cls-10" d="M196.12,313.93c-.36-.69.67-6.35,8.93-9.21,7.82-2.7,18.09-2.26,19.69-.68s-4.48,8.39-11.91,10.49C204.71,316.83,196.87,315.38,196.12,313.93Z" transform="translate(-13.02 -40.96)"/><path class="cls-10" d="M196.24,315.11c.94-.41,9.78-1.41,16.46,2.78,6.33,4,8.62,10.35,6.7,11.77s-14-.31-19.26-4.21C194.33,321.17,194.26,316,196.24,315.11Z" transform="translate(-13.02 -40.96)"/><path class="cls-10" d="M193.57,315.51a7.57,7.57,0,0,1,.54,10.81c-4.17,5-13.13,8.21-15.83,7.46s-3.55-8.58.82-12.93C183.89,316.09,191.68,314.56,193.57,315.51Z" transform="translate(-13.02 -40.96)"/><path class="cls-36" d="M191,310.47c-7.83,2.86-.83,10.59,7,7.72S198.8,307.6,191,310.47Z" transform="translate(-13.02 -40.96)"/><path class="cls-37" d="M192.4,312.05c-4.63,1.69-.49,6.26,4.15,4.56S197,310.35,192.4,312.05Z" transform="translate(-13.02 -40.96)"/><path class="cls-37" d="M211.11,324.4c-.7-.55-1.42-1.1-2.16-1.63-1.54-1.1-3.17-2.14-4.87-3.14-.64-.38-1.59.22-1,.61,1.64,1,3.2,2.06,4.7,3.14.74.53,1.46,1.08,2.16,1.63a22.1,22.1,0,0,0,2.17,1.71c.56.35,1.39-.09,1-.51A12.43,12.43,0,0,0,211.11,324.4Z" transform="translate(-13.02 -40.96)"/><path class="cls-37" d="M187.49,320.81a20.2,20.2,0,0,0-2.78,3.6c-.82,1.22-1.58,2.46-2.27,3.72-.27.48.93.68,1.2.2.7-1.24,1.47-2.47,2.31-3.68s1.86-2.34,2.59-3.56C188.79,320.68,187.83,320.49,187.49,320.81Z" transform="translate(-13.02 -40.96)"/><path class="cls-37" d="M182.69,313.66a8.83,8.83,0,0,0-1.48-.31l-1.43-.23c-1-.14-2-.26-3.06-.35-2-.18-4.07-.28-6.12-.27-.78,0-.79.76,0,.77,2,0,4,.12,5.94.33,1,.1,1.93.22,2.88.36l1.43.23a11,11,0,0,0,1.51.23C183,314.46,183.23,313.85,182.69,313.66Z" transform="translate(-13.02 -40.96)"/><path class="cls-37" d="M188.47,300.72a17.1,17.1,0,0,1,2,3.58,26.5,26.5,0,0,1,1.08,3.71c.11.44,1.24.34,1.22-.1-.12-2.59-1.55-5.24-3.39-7.53C189.08,300,188.19,300.33,188.47,300.72Z" transform="translate(-13.02 -40.96)"/><path class="cls-37" d="M215.49,307.54a12.53,12.53,0,0,0-3.07.48c-1,.22-2,.48-2.95.77a38.08,38.08,0,0,0-5.55,2.15c-.61.29,0,1,.6.67a38.16,38.16,0,0,1,5.38-2c.93-.28,1.89-.52,2.86-.73a23.43,23.43,0,0,0,3-.66C216.24,308,216,307.55,215.49,307.54Z" transform="translate(-13.02 -40.96)"/><path class="cls-10" d="M261.35,242.5a1.57,1.57,0,0,0,.27-1.35,2.64,2.64,0,0,0-.28-.92c-.86-2-3.54-4.84-8.38-6.85-6.8-2.82-19.13-2.37-20.35-.66-.62.87.38,2.79,2.54,4.82h0a23,23,0,0,0,10.76,5.91c6.48,1.55,13.23.55,15.16-.73a.68.68,0,0,0,.27-.2Z" transform="translate(-13.02 -40.96)"/><path class="cls-10" d="M263.12,242.28c-1.08-.24-7.55-4.2-6.11-10.1,1.35-5.58,8.14-10.49,11.09-10.34s7.79,7.35,5.92,12.37C272,239.71,265.4,242.78,263.12,242.28Z" transform="translate(-13.02 -40.96)"/><path class="cls-10" d="M265.54,242.92c0-.73,4.16-5.8,13.47-6.62,8.82-.78,18.19,1.93,18.81,3.76s-8.86,6.86-17,7.16C272,247.56,265.44,244.45,265.54,242.92Z" transform="translate(-13.02 -40.96)"/><path class="cls-10" d="M265,244.05c1.11-.18,9.94.87,13.87,6.29,3.71,5.13,2.31,11.61-.27,12.51s-12.9-3.41-15.69-8.26C259.84,249.29,262.66,244.43,265,244.05Z" transform="translate(-13.02 -40.96)"/><path class="cls-10" d="M262.28,243.83c.59.62,1.55,6.29-5.5,10.24-6.68,3.73-16.85,4.74-19,3.43s1.44-8.82,8-11.91C252.89,242.21,261,242.52,262.28,243.83Z" transform="translate(-13.02 -40.96)"/><path class="cls-36" d="M262.64,238.53c-8.92.93-6.66,9.72,2.27,8.79S271.57,237.6,262.64,238.53Z" transform="translate(-13.02 -40.96)"/><path class="cls-37" d="M263.1,240.32c-5.27.55-3.93,5.76,1.35,5.2S268.39,239.77,263.1,240.32Z" transform="translate(-13.02 -40.96)"/><path class="cls-37" d="M273.75,256.07c-.35-.68-.72-1.34-1.12-2a38.52,38.52,0,0,0-2.81-4c-.39-.49-1.61-.14-1.23.36a46.73,46.73,0,0,1,2.65,4c.39.67.76,1.33,1.11,2a13,13,0,0,0,1.08,2.09c.34.44,1.35.22,1.28-.25A8,8,0,0,0,273.75,256.07Z" transform="translate(-13.02 -40.96)"/><path class="cls-37" d="M253.64,247.43a33.26,33.26,0,0,0-4.6,2.74q-2.17,1.44-4.19,3c-.52.39.49.85,1,.46,1.35-1,2.75-2,4.21-2.92s3-1.78,4.4-2.76C254.93,247.6,254.14,247.21,253.64,247.43Z" transform="translate(-13.02 -40.96)"/><path class="cls-37" d="M253.12,239.66a6.87,6.87,0,0,0-1.21-.62l-1.22-.53c-.86-.36-1.75-.7-2.66-1a57,57,0,0,0-5.57-1.62c-.74-.18-1.16.53-.44.72a52.43,52.43,0,0,1,5.37,1.64c.85.31,1.69.64,2.5,1l1.21.53a10,10,0,0,0,1.29.55C253,240.48,253.53,240,253.12,239.66Z" transform="translate(-13.02 -40.96)"/><path class="cls-37" d="M265.72,228.85a13.83,13.83,0,0,1-.1,3.8,26.36,26.36,0,0,1-1.05,3.71c-.14.44,1,.6,1.19.18a11.93,11.93,0,0,0,1-7.8C266.7,228.3,265.67,228.42,265.72,228.85Z" transform="translate(-13.02 -40.96)"/><path class="cls-37" d="M287.22,241.27a13.56,13.56,0,0,0-3.14-.24c-1.07,0-2.14,0-3.2.07a47.92,47.92,0,0,0-6.38.76c-.74.14-.56.9.19.76a48.33,48.33,0,0,1,6.17-.7c1,0,2.05-.06,3.08,0a30.54,30.54,0,0,0,3.17.06C287.66,241.88,287.71,241.4,287.22,241.27Z" transform="translate(-13.02 -40.96)"/><path class="cls-10" d="M147.3,192.54a1.46,1.46,0,0,0,.33-1.18,2.15,2.15,0,0,0-.18-.8c-.6-1.8-2.73-4.31-6.79-6.2-5.72-2.65-16.48-2.62-17.66-1.17-.61.74.12,2.44,1.86,4.27h0a18.79,18.79,0,0,0,8.94,5.45c5.52,1.54,11.47.86,13.24-.19a.64.64,0,0,0,.25-.17Z" transform="translate(-13.02 -40.96)"/><path class="cls-10" d="M148.86,192.39c-.93-.24-6.27-3.87-4.6-9,1.59-4.82,7.84-8.89,10.39-8.68s6.26,6.63,4.27,10.94C156.74,190.41,150.8,192.89,148.86,192.39Z" transform="translate(-13.02 -40.96)"/><path class="cls-10" d="M150.91,193c.09-.63,4-4.92,12.2-5.37,7.73-.42,15.68,2.21,16.09,3.82s-8.2,5.71-15.28,5.74C156.17,197.24,150.71,194.35,150.91,193Z" transform="translate(-13.02 -40.96)"/><path class="cls-10" d="M150.35,194c1-.12,8.59,1,11.62,5.87,2.86,4.58,1.18,10.17-1.14,10.88s-11-3.34-13.05-7.64C145.5,198.4,148.3,194.25,150.35,194Z" transform="translate(-13.02 -40.96)"/><path class="cls-10" d="M148,193.72c.47.56.9,5.52-5.52,8.74-6.08,3.06-15,3.65-16.74,2.44s1.88-7.63,7.77-10.13C140,192,147,192.54,148,193.72Z" transform="translate(-13.02 -40.96)"/><path class="cls-36" d="M148.7,189.12c-7.82.55-6.48,8.26,1.35,7.71S156.54,188.56,148.7,189.12Z" transform="translate(-13.02 -40.96)"/><path class="cls-37" d="M149,190.69c-4.63.33-3.84,4.89.8,4.57S153.62,190.36,149,190.69Z" transform="translate(-13.02 -40.96)"/><path class="cls-37" d="M157.11,204.7c-.25-.6-.53-1.19-.83-1.78a33.39,33.39,0,0,0-2.15-3.59c-.31-.44-1.39-.17-1.1.28a37.06,37.06,0,0,1,2,3.55c.29.59.57,1.18.82,1.78a11.82,11.82,0,0,0,.79,1.85c.26.39,1.16.23,1.13-.18A6.34,6.34,0,0,0,157.11,204.7Z" transform="translate(-13.02 -40.96)"/><path class="cls-37" d="M140.24,196.6a31.54,31.54,0,0,0-4.2,2.25c-1.33.79-2.62,1.62-3.87,2.47-.47.32.38.75.85.43q1.88-1.26,3.87-2.43c1.32-.77,2.78-1.46,4-2.27C141.34,196.78,140.69,196.42,140.24,196.6Z" transform="translate(-13.02 -40.96)"/><path class="cls-37" d="M140.34,189.82a6.05,6.05,0,0,0-1-.57c-.33-.17-.67-.34-1-.5-.72-.34-1.47-.66-2.24-1a46.8,46.8,0,0,0-4.73-1.57c-.63-.18-1.05.43-.43.61a45.09,45.09,0,0,1,4.55,1.58c.72.3,1.42.61,2.11.93l1,.5a7.19,7.19,0,0,0,1.08.52C140.17,190.54,140.67,190.09,140.34,189.82Z" transform="translate(-13.02 -40.96)"/><path class="cls-37" d="M152.08,180.78a12.36,12.36,0,0,1-.36,3.31,22.73,22.73,0,0,1-1.18,3.19c-.15.38.8.55,1,.2a10.73,10.73,0,0,0,1.44-6.76C153,180.33,152.07,180.41,152.08,180.78Z" transform="translate(-13.02 -40.96)"/><path class="cls-37" d="M169.89,192.21a11.43,11.43,0,0,0-2.71-.29c-.93,0-1.86-.06-2.79,0a41.76,41.76,0,0,0-5.61.48c-.65.1-.55.77.12.67a40.56,40.56,0,0,1,5.42-.43c.89,0,1.78,0,2.67.05a25.51,25.51,0,0,0,2.76.14C170.23,192.75,170.31,192.34,169.89,192.21Z" transform="translate(-13.02 -40.96)"/><path class="cls-10" d="M320.62,361.68c-4.12,0-4.13,4.06,0,4.06S324.74,361.68,320.62,361.68Z" transform="translate(-13.02 -40.96)"/><path class="cls-10" d="M328.49,368c-4.12,0-4.13,4.06,0,4.06S332.61,368,328.49,368Z" transform="translate(-13.02 -40.96)"/><path class="cls-10" d="M212.64,343.53c-4.12,0-4.13,4.06,0,4.06S216.76,343.53,212.64,343.53Z" transform="translate(-13.02 -40.96)"/><path class="cls-10" d="M219.08,293.16c-4.12,0-4.13,4.06,0,4.06S223.2,293.16,219.08,293.16Z" transform="translate(-13.02 -40.96)"/><path class="cls-10" d="M206.92,295.88c-4.12,0-4.13,4.06,0,4.06S211,295.88,206.92,295.88Z" transform="translate(-13.02 -40.96)"/><path class="cls-10" d="M137.55,256.4c-4.12,0-4.12,4.06,0,4.06S141.68,256.4,137.55,256.4Z" transform="translate(-13.02 -40.96)"/><path class="cls-10" d="M143.27,213.74c-4.11,0-4.12,4.06,0,4.06S147.4,213.74,143.27,213.74Z" transform="translate(-13.02 -40.96)"/><path class="cls-10" d="M161.15,215.56c-4.12,0-4.12,4.06,0,4.06S165.28,215.56,161.15,215.56Z" transform="translate(-13.02 -40.96)"/><path class="cls-10" d="M102.51,252.31c-4.12,0-4.12,4.07,0,4.07S106.64,252.31,102.51,252.31Z" transform="translate(-13.02 -40.96)"/><path class="cls-10" d="M99.65,232.8c-4.12,0-4.12,4.06,0,4.06S103.78,232.8,99.65,232.8Z" transform="translate(-13.02 -40.96)"/><path class="cls-10" d="M101.8,189.69c-4.12,0-4.13,4.06,0,4.06S105.92,189.69,101.8,189.69Z" transform="translate(-13.02 -40.96)"/><path class="cls-10" d="M128.26,162.46c-4.12,0-4.13,4.06,0,4.06S132.38,162.46,128.26,162.46Z" transform="translate(-13.02 -40.96)"/><path class="cls-10" d="M178.31,163.82c-4.11,0-4.12,4.06,0,4.06S182.44,163.82,178.31,163.82Z" transform="translate(-13.02 -40.96)"/><path class="cls-10" d="M393.56,371.66c-4.12,0-4.13,4.06,0,4.06S397.69,371.66,393.56,371.66Z" transform="translate(-13.02 -40.96)"/><path class="cls-10" d="M352.08,339.9c-4.11,0-4.12,4.06,0,4.06S356.21,339.9,352.08,339.9Z" transform="translate(-13.02 -40.96)"/><path class="cls-10" d="M385.69,380.28c-4.11,0-4.12,4.07,0,4.07S389.82,380.28,385.69,380.28Z" transform="translate(-13.02 -40.96)"/><path class="cls-10" d="M548,342.62c-4.12,0-4.12,4.06,0,4.06S552.15,342.62,548,342.62Z" transform="translate(-13.02 -40.96)"/><path class="cls-10" d="M553.74,358.05c-4.12,0-4.12,4.06,0,4.06S557.87,358.05,553.74,358.05Z" transform="translate(-13.02 -40.96)"/><path class="cls-10" d="M577.34,356.23c-4.12,0-4.12,4.07,0,4.07S581.47,356.23,577.34,356.23Z" transform="translate(-13.02 -40.96)"/><path class="cls-10" d="M422.88,343.07c-4.12,0-4.13,4.07,0,4.07S427,343.07,422.88,343.07Z" transform="translate(-13.02 -40.96)"/><path class="cls-10" d="M415,329c-4.12,0-4.12,4.06,0,4.06S419.14,329,415,329Z" transform="translate(-13.02 -40.96)"/><path class="cls-10" d="M279.86,329.46c-4.12,0-4.13,4.06,0,4.06S284,329.46,279.86,329.46Z" transform="translate(-13.02 -40.96)"/><path class="cls-19" d="M110.38,284.6c-7.21,0-7.22,7.11,0,7.11S117.6,284.6,110.38,284.6Z" transform="translate(-13.02 -40.96)"/><path class="cls-19" d="M55.67,228.78c-7.2,0-7.22,7.11,0,7.11S62.89,228.78,55.67,228.78Z" transform="translate(-13.02 -40.96)"/><path class="cls-19" d="M257.33,207c-7.2,0-7.22,7.11,0,7.11S264.55,207,257.33,207Z" transform="translate(-13.02 -40.96)"/><path class="cls-19" d="M75,159.33c-4.48,0-4.49,4.42,0,4.42S79.47,159.33,75,159.33Z" transform="translate(-13.02 -40.96)"/><path class="cls-19" d="M178,135.23c-5.05,0-5.06,5,0,5S183,135.23,178,135.23Z" transform="translate(-13.02 -40.96)"/><path class="cls-19" d="M113.6,97.41c-7.21,0-7.22,7.1,0,7.1S120.82,97.41,113.6,97.41Z" transform="translate(-13.02 -40.96)"/><path class="cls-19" d="M318.47,318.31c-5.1,0-5.11,5,0,5S323.59,318.31,318.47,318.31Z" transform="translate(-13.02 -40.96)"/><path class="cls-19" d="M303.46,347.22c-7.21,0-7.22,7.11,0,7.11S310.68,347.22,303.46,347.22Z" transform="translate(-13.02 -40.96)"/><path class="cls-19" d="M377.47,399.64c-7.21,0-7.22,7.11,0,7.11S384.69,399.64,377.47,399.64Z" transform="translate(-13.02 -40.96)"/><path class="cls-19" d="M412.87,390.11c-7.21,0-7.22,7.11,0,7.11S420.09,390.11,412.87,390.11Z" transform="translate(-13.02 -40.96)"/><path class="cls-19" d="M415,414.61c-7.2,0-7.22,7.11,0,7.11S422.23,414.61,415,414.61Z" transform="translate(-13.02 -40.96)"/><path class="cls-19" d="M457.92,407.12c-7.21,0-7.22,7.11,0,7.11S465.14,407.12,457.92,407.12Z" transform="translate(-13.02 -40.96)"/><path class="cls-19" d="M575.91,334.29c-7.21,0-7.22,7.11,0,7.11S583.13,334.29,575.91,334.29Z" transform="translate(-13.02 -40.96)"/><path class="cls-19" d="M505.12,344.5c-7.21,0-7.22,7.11,0,7.11S512.34,344.5,505.12,344.5Z" transform="translate(-13.02 -40.96)"/><path class="cls-19" d="M528.71,431.8c-8.23,0-8.25,8.13,0,8.13S537,431.8,528.71,431.8Z" transform="translate(-13.02 -40.96)"/><path class="cls-19" d="M91.07,311.32c-8.24,0-8.25,8.12,0,8.12S99.32,311.32,91.07,311.32Z" transform="translate(-13.02 -40.96)"/><path class="cls-19" d="M19.2,266.39c-8.23,0-8.25,8.13,0,8.13S27.46,266.39,19.2,266.39Z" transform="translate(-13.02 -40.96)"/><path class="cls-19" d="M207.44,102a7.63,7.63,0,0,0-3.74-1l-1.15,0a13.11,13.11,0,0,0-2.36.24l-1.23.33a3.61,3.61,0,0,0-1.44.84,2.54,2.54,0,0,0-1.11,2,2.92,2.92,0,0,0,.71,1.65,5.53,5.53,0,0,0,3.07,1.5,13,13,0,0,0,2.36.24l1.15,0a7.42,7.42,0,0,0,3.74-1,2.59,2.59,0,0,0,0-4.75Z" transform="translate(-13.02 -40.96)"/><path class="cls-19" d="M622,320.17c-8.23,0-8.25,8.12,0,8.12S630.29,320.17,622,320.17Z" transform="translate(-13.02 -40.96)"/><path class="cls-30" d="M122.18,42.44c-8.24,0-8.25,8.13,0,8.13S130.43,42.44,122.18,42.44Z" transform="translate(-13.02 -40.96)"/><path class="cls-30" d="M421.84,304.05c-8.23,0-8.25,8.12,0,8.12S430.09,304.05,421.84,304.05Z" transform="translate(-13.02 -40.96)"/><path class="cls-30" d="M307.07,291.79c-8.24,0-8.25,8.13,0,8.13S315.32,291.79,307.07,291.79Z" transform="translate(-13.02 -40.96)"/><path class="cls-30" d="M193.37,329.23c-8.24,0-8.25,8.13,0,8.13S201.62,329.23,193.37,329.23Z" transform="translate(-13.02 -40.96)"/><path class="cls-30" d="M64.65,188c-.71,0-.71.71,0,.71S65.36,188,64.65,188Z" transform="translate(-13.02 -40.96)"/><path class="cls-30" d="M89.32,195.81c-8.24,0-8.25,8.13,0,8.13S97.57,195.81,89.32,195.81Z" transform="translate(-13.02 -40.96)"/><path class="cls-30" d="M230.38,139.54a6.26,6.26,0,0,0-3.35-1.63l-3.27-.55a8.4,8.4,0,0,0-4.15.34,4.25,4.25,0,0,0-2.48,2.05,2.38,2.38,0,0,0,.54,2.63l.85.7a6.73,6.73,0,0,0,2.38.88l3.16.8a8.46,8.46,0,0,0,4.31-.36,4.38,4.38,0,0,0,2.57-2.12A2.49,2.49,0,0,0,230.38,139.54Z" transform="translate(-13.02 -40.96)"/><path class="cls-30" d="M75.38,109.63c-3.57,0-3.58,3.51,0,3.51S79,109.63,75.38,109.63Z" transform="translate(-13.02 -40.96)"/><path class="cls-30" d="M188,62.4c-8.23,0-8.25,8.12,0,8.12S196.26,62.4,188,62.4Z" transform="translate(-13.02 -40.96)"/><path class="cls-30" d="M489.42,368.71c-8.24,0-8.25,8.13,0,8.13S497.67,368.71,489.42,368.71Z" transform="translate(-13.02 -40.96)"/><path class="cls-30" d="M603.12,326.51c-8.24,0-8.25,8.12,0,8.12S611.37,326.51,603.12,326.51Z" transform="translate(-13.02 -40.96)"/><path class="cls-30" d="M335,367.35c-8.24,0-8.25,8.13,0,8.13S343.21,367.35,335,367.35Z" transform="translate(-13.02 -40.96)"/></g></g></svg>