<svg xmlns="http://www.w3.org/2000/svg" xmlns:xlink="http://www.w3.org/1999/xlink" viewBox="0 0 644.79 400.49"><defs><style>.cls-1{fill:none;}.cls-2{fill:#b9f3ff;}.cls-3{fill:#96e4ff;}.cls-4{fill:#5ba8ff;}.cls-5{fill:#6bc5ff;}.cls-6{clip-path:url(#clip-path);}.cls-7{fill:#468097;}.cls-8{fill:#797c99;}.cls-9{opacity:0.5;}.cls-10{fill:#422c4f;}.cls-11{fill:#eba588;}.cls-12{fill:#fff;}.cls-13{fill:#f4d071;}.cls-14{fill:#e4e4e0;}.cls-15{fill:#d1f4f6;}.cls-16{fill:#495375;}.cls-17{fill:#f0bf9c;}.cls-18{fill:#f7d8c4;}.cls-19{fill:#6ca8bf;}.cls-20{fill:#8c404c;}.cls-21{fill:#87d38c;}.cls-22{fill:#cc6164;}.cls-23{opacity:0.3;}.cls-24{fill:#eba58e;}.cls-25{fill:#f2c9ad;}.cls-26{fill:#e36b85;}.cls-27{fill:#c95372;}.cls-28{fill:#f0bf6c;}.cls-29{fill:#bd6c67;}.cls-30{fill:#6a3649;}.cls-31{fill:#a64f5a;}</style><clipPath id="clip-path" transform="translate(-19.07 -16.05)"><path class="cls-1" d="M572.09,96.35a167.4,167.4,0,0,0-57.52-17c-1.06-.12-2.11-.26-3.16-.4A81.34,81.34,0,0,0,475,59.4a79.69,79.69,0,0,0-24-1.83c-3.26-2-6.48-4-9.61-6.18a199.54,199.54,0,0,0-268,38.07,116.14,116.14,0,0,1-53.09,36.82,148.28,148.28,0,0,0-101.23,140C18.71,348,85.46,415.1,167.24,415.13A147.94,147.94,0,0,0,207,409.76a136.26,136.26,0,0,1,70.69-1,200.86,200.86,0,0,0,109.59-2.55,120.74,120.74,0,0,1,61.52-3c50.55,11,149,17.23,197.6-81.59C687.08,238.78,654.44,137.92,572.09,96.35Z"/></clipPath></defs><g id="OBJECTS"><ellipse class="cls-2" cx="106.73" cy="81.8" rx="58.67" ry="41.67" transform="matrix(0.87, -0.5, 0.5, 0.87, -45.67, 48.27)"/><path class="cls-2" d="M572.09,96.35a167.4,167.4,0,0,0-57.52-17c-26.36-2.85-51.37-12.82-73.17-27.91a199.54,199.54,0,0,0-268,38.07,116.14,116.14,0,0,1-53.09,36.82,148.28,148.28,0,0,0-101.23,140C18.71,348,85.46,415.1,167.24,415.13A147.94,147.94,0,0,0,207,409.76a136.26,136.26,0,0,1,70.69-1,200.86,200.86,0,0,0,109.59-2.55,120.74,120.74,0,0,1,61.52-3c50.55,11,149,17.23,197.6-81.59C687.08,238.78,654.44,137.92,572.09,96.35Z" transform="translate(-19.07 -16.05)"/><circle class="cls-2" cx="164.34" cy="21.47" r="20"/><path class="cls-2" d="M542,78.81c7.78.25,16.43-.35,21.85-5.92,5.17-5.31,5.74-14,2.52-20.73S556.81,40.73,549.94,38s-14.32-3.75-21.68-4.63-14.8-1.69-21.8-4.13c-8.26-2.88-16-8-24.79-8.06a22.22,22.22,0,0,0-18.73,10.56c-5.6,9.31-4.69,22.94,5.18,28.49,13.9,7.81,30.41,12.5,46,15.48A177.94,177.94,0,0,0,542,78.81Z" transform="translate(-19.07 -16.05)"/><rect class="cls-3" x="359.97" y="65.74" width="166.41" height="72.63"/><rect class="cls-4" x="434.81" y="43.78" width="54.88" height="148.66" transform="translate(561.28 -360.19) rotate(90)"/><rect class="cls-5" x="354.79" y="65.74" width="5.18" height="72.63"/><rect class="cls-5" x="512.47" y="74.62" width="5.03" height="54.88"/><rect class="cls-3" x="359.97" y="160.41" width="166.41" height="72.63"/><rect class="cls-4" x="434.81" y="138.45" width="54.88" height="148.66" transform="translate(655.95 -265.52) rotate(90)"/><rect class="cls-5" x="354.79" y="160.41" width="5.18" height="72.63"/><rect class="cls-5" x="512.47" y="169.29" width="5.03" height="54.88"/><rect class="cls-3" x="69.45" y="52.06" width="265.07" height="194.66"/><rect class="cls-4" x="132.61" y="41.78" width="176.91" height="247.32" transform="translate(367.43 -71.67) rotate(90)"/><rect class="cls-5" x="319.73" y="60.94" width="5.92" height="176.91"/><rect class="cls-5" x="63.53" y="52.06" width="5.92" height="194.66"/><g class="cls-6"><path class="cls-7" d="M444.71,361.55c-3.84,10.39,20.41,23.56,20.41,23.56s99.47,8.12,116.16-18.65c0,0-16.9-25.8-73.48-25.8s-58.35,14-58.35,14Z" transform="translate(-19.07 -16.05)"/><path class="cls-8" d="M455.47,348.71l-17,66.42H584.94c0-27.81-.3-38.75-10.65-59.16Z" transform="translate(-19.07 -16.05)"/><g class="cls-9"><path class="cls-10" d="M462.76,366.61a81.64,81.64,0,0,0,38.15,24.23L498,415.13h-12l5.28-20.56C472.08,392.35,462.76,366.61,462.76,366.61Z" transform="translate(-19.07 -16.05)"/></g><g class="cls-9"><path class="cls-10" d="M580.49,370.42a106.24,106.24,0,0,0-6.2-14.45l-118.82-7.26L451,366.08a26,26,0,0,1,16.25-1.66c7.48,1.52,14.22,5.39,21,8.93s13.91,6.86,21.53,7.11c.61,0,1.21,0,1.81,0A37.47,37.47,0,0,0,519.3,401a13.54,13.54,0,0,0,3.94,3.68,6,6,0,0,0,5.23.51,4,4,0,0,0,2.42-4.36c5.31,1.19,11.54-1.61,15.34-5.5a19.52,19.52,0,0,0,5.23-15,23.69,23.69,0,0,0-4.22-11.59A54,54,0,0,1,580.49,370.42Z" transform="translate(-19.07 -16.05)"/></g><rect class="cls-11" x="382.92" y="199.09" width="12" height="10.72"/><path class="cls-12" d="M371.53,217.73,381,217a6.21,6.21,0,0,1,5.53,2.62l22.53,32,12.76-11.09L396.67,205Z" transform="translate(-19.07 -16.05)"/><path class="cls-13" d="M375.23,217.45l5.38,1.74a6.16,6.16,0,0,1,3.42,2.7l2,3.33,3.25-1.64-2.76-3.93A6.21,6.21,0,0,0,381,217Z" transform="translate(-19.07 -16.05)"/><path class="cls-14" d="M396.67,205l-25.14,12.72,8.58-.63,13.64-8.35c.23,7.32,12,9.14,12,9.14Z" transform="translate(-19.07 -16.05)"/><polygon class="cls-15" points="330.67 187.26 340.88 207.53 348.08 203.88 337.48 182.83 330.67 187.26"/><path class="cls-12" d="M388.32,183a3.55,3.55,0,0,0-5.14-1.45l-26.63,17.33,10.6,21.05,31.25-15.8Z" transform="translate(-19.07 -16.05)"/><polygon class="cls-16" points="435.54 229 425.05 224.54 414.99 261.22 427.66 270.06 435.54 229"/><path class="cls-17" d="M382.63,223.12l5.35-2.79a4.31,4.31,0,0,1,5.65,1.53h0a4.32,4.32,0,0,1-1.05,5.74l-5,3.76a2.66,2.66,0,0,1-3.93-.81l-2.11-3.77A2.65,2.65,0,0,1,382.63,223.12Z" transform="translate(-19.07 -16.05)"/><path class="cls-18" d="M390.81,226.81a10.35,10.35,0,0,1-3.1-4.7,3.37,3.37,0,0,1,2.63-1,2.57,2.57,0,0,1,2,1.36,2.94,2.94,0,0,1,.11,2.36A5,5,0,0,1,390.81,226.81Z" transform="translate(-19.07 -16.05)"/><path class="cls-17" d="M390.56,233.26l7.29-5a4.31,4.31,0,0,1,5.77,1h0a4.31,4.31,0,0,1-.55,5.8l-6.85,6a2.66,2.66,0,0,1-4-.47L389.8,237A2.67,2.67,0,0,1,390.56,233.26Z" transform="translate(-19.07 -16.05)"/><path class="cls-18" d="M401,234.64a10.35,10.35,0,0,1-3.1-4.7,3.37,3.37,0,0,1,2.63-1,2.57,2.57,0,0,1,2,1.36,2.94,2.94,0,0,1,.11,2.36A5,5,0,0,1,401,234.64Z" transform="translate(-19.07 -16.05)"/><path class="cls-17" d="M396,241.51l6.33-5.53a4.08,4.08,0,0,1,5.54.35h0a4.09,4.09,0,0,1,.12,5.53l-5.82,6.38a2.52,2.52,0,0,1-3.8,0l-2.69-3.09A2.53,2.53,0,0,1,396,241.51Z" transform="translate(-19.07 -16.05)"/><path class="cls-18" d="M406.06,242a10.28,10.28,0,0,1-3.63-4.31,3.42,3.42,0,0,1,2.5-1.33,2.59,2.59,0,0,1,2.18,1.12,3,3,0,0,1,.39,2.33A5.12,5.12,0,0,1,406.06,242Z" transform="translate(-19.07 -16.05)"/><path class="cls-17" d="M404.07,247.87l4-5.12a3.31,3.31,0,0,1,4.44-.68h0a3.29,3.29,0,0,1,1,4.4l-3.36,5.69a2.66,2.66,0,0,1-3.9.77l-1.71-1.29A2.66,2.66,0,0,1,404.07,247.87Z" transform="translate(-19.07 -16.05)"/><path class="cls-18" d="M412.26,246.84a8.64,8.64,0,0,1-3.84-2.79,2.9,2.9,0,0,1,1.77-1.6,2.2,2.2,0,0,1,2,.48,2.49,2.49,0,0,1,.79,1.82A4.34,4.34,0,0,1,412.26,246.84Z" transform="translate(-19.07 -16.05)"/><polygon class="cls-11" points="424.55 226.36 418.02 250.15 412.15 244.53 422.8 225.18 424.55 226.36"/><path class="cls-17" d="M443.62,242.41l-12.95-8.77a8.81,8.81,0,0,1-3.21-3.93l-5.12-12.25a12.74,12.74,0,0,0-8-7.27l-8.85-2.77-7.11-3.28a2.34,2.34,0,0,0-3.32,1.89h0a9.74,9.74,0,0,0,6.14,10.08l7.84,3.07c-1.22,10.65,7.66,19.3,12.76,21.41l-12.76,11.09h9.31a8.9,8.9,0,0,1,6.14,2.47l12.59,12.06Z" transform="translate(-19.07 -16.05)"/><path class="cls-18" d="M398.4,204.14c-.43,2.8.46,4.79,2.9,5.68a10.43,10.43,0,0,0,1.53-3.64Z" transform="translate(-19.07 -16.05)"/><path class="cls-10" d="M442.49,277.94h0a.2.2,0,0,1-.17-.25l6-31.57a.22.22,0,0,1,.26-.17.23.23,0,0,1,.18.26l-6,31.56A.23.23,0,0,1,442.49,277.94Z" transform="translate(-19.07 -16.05)"/><path class="cls-10" d="M434.24,263.7a.19.19,0,0,1-.15-.07l-9.74-9.32a8.61,8.61,0,0,0-6-2.41.22.22,0,0,1,0-.44,9.06,9.06,0,0,1,6.29,2.53l9.74,9.32a.22.22,0,0,1,0,.32A.24.24,0,0,1,434.24,263.7Z" transform="translate(-19.07 -16.05)"/><path class="cls-10" d="M424.52,241.81l-.08,0-2.7-1c-4.94-2-14.05-10.68-12.92-21.48l-7.68-3A10,10,0,0,1,394.86,206a2.54,2.54,0,0,1,1.28-2,2.59,2.59,0,0,1,2.36-.1l2.51,1.16a.23.23,0,0,1,.11.3.23.23,0,0,1-.3.11l-2.51-1.16a2.13,2.13,0,0,0-1.95.08,2.1,2.1,0,0,0-1.06,1.63,9.53,9.53,0,0,0,6,9.85l7.84,3.07a.21.21,0,0,1,.14.23c-1.22,10.64,7.77,19.18,12.63,21.18l2.69,1a.22.22,0,0,1,.13.28A.23.23,0,0,1,424.52,241.81Z" transform="translate(-19.07 -16.05)"/><path class="cls-10" d="M441.88,241.45a.17.17,0,0,1-.12,0l-11.21-7.58a9.15,9.15,0,0,1-3.3-4L424.84,224a.22.22,0,0,1,.12-.29.23.23,0,0,1,.29.12l2.41,5.78a8.64,8.64,0,0,0,3.14,3.83l11.2,7.59a.21.21,0,0,1,.06.3A.2.2,0,0,1,441.88,241.45Z" transform="translate(-19.07 -16.05)"/><polygon class="cls-16" points="436.75 222.72 419.43 312.99 446.05 320.09 446.05 223.58 436.75 222.72"/><path class="cls-10" d="M451.81,332.82h-.06l-13.31-3.55a.23.23,0,0,1-.16-.26l17-88.45a.22.22,0,0,1,.26-.18.23.23,0,0,1,.18.26l-16.93,88.25,13.11,3.5a.22.22,0,0,1,.16.27A.23.23,0,0,1,451.81,332.82Z" transform="translate(-19.07 -16.05)"/><path class="cls-19" d="M457.88,329l-13.17,32.51c2.58-4.35,9.32-5.56,14.36-5.18s9.71,2.68,14.11,5.15,8.74,5.21,13.6,6.59c7.24,2.06,15,.94,22.25-1.15s14.17-5.13,21.46-7a70.19,70.19,0,0,1,50.79,6.49L569,329Z" transform="translate(-19.07 -16.05)"/><path class="cls-10" d="M507.19,359.09a28.07,28.07,0,0,1-10.69-2.3c-4.88-2-9.31-5.13-13.58-8.12l-1.8-1.25c-4.56-3.15-9.92-6.65-15.84-8.2a.24.24,0,0,1-.16-.28.22.22,0,0,1,.27-.15c6,1.57,11.39,5.09,16,8.26l1.8,1.26c4.26,3,8.66,6,13.5,8.07,6.23,2.6,12.4,3,17.37,1a.23.23,0,0,1,.29.13.24.24,0,0,1-.13.29A19.43,19.43,0,0,1,507.19,359.09Z" transform="translate(-19.07 -16.05)"/><path class="cls-10" d="M506.54,349.13a40.78,40.78,0,0,1-15.28-3,.23.23,0,0,1-.13-.29.22.22,0,0,1,.29-.12,40,40,0,0,0,45-10.58.21.21,0,0,1,.31,0,.22.22,0,0,1,0,.31,40.7,40.7,0,0,1-21.06,12.6A39.9,39.9,0,0,1,506.54,349.13Z" transform="translate(-19.07 -16.05)"/><path class="cls-10" d="M571.61,351.11a.28.28,0,0,1-.13,0,44.93,44.93,0,0,0-23.75-7.39.22.22,0,0,1,0-.44h0a45.47,45.47,0,0,1,24,7.46.21.21,0,0,1,.06.3A.2.2,0,0,1,571.61,351.11Z" transform="translate(-19.07 -16.05)"/><path class="cls-20" d="M543.55,203.88c-.65,10.55-7.21,20.21-15.95,26.16s-19.46,8.5-30,8.92S476.46,237.77,466,236c-4.63-.77-9.33-1.59-13.57-3.62s-8-5.44-9.46-9.92-.34-9.25,1.55-13.47,4.58-8,6.68-12.14A49,49,0,0,0,450,151c-6-2.1-13-4.58-18.52-7.85s-10.42-7.84-13-13.68c-3.19-7.11-2.64-15.45-.08-22.8s7-13.9,11.51-20.23c2.91-4.08,6-8.19,10.2-10.89s9.87-3.73,14.25-1.3c5.68-6.89,16.21-9.4,25-8S496.07,73,501.84,79.81s9.61,15.07,12.53,23.51c8.39,24.27,9.9,51.24,23.4,73.08,2.32,3.75,5,7.35,6.54,11.48s1.81,9.06-.61,12.75C543.74,200.34,543.51,204.17,543.55,203.88Z" transform="translate(-19.07 -16.05)"/><path class="cls-16" d="M480.94,165.55l-6.21,2A17.75,17.75,0,0,0,462.51,182L457.88,216l23.06-39.05Z" transform="translate(-19.07 -16.05)"/><path class="cls-16" d="M480.94,165.55l-9.17,9.09a2.66,2.66,0,0,0-.42,3.24l1.47,2.5-6.34,6.5a11.57,11.57,0,0,0-3.09,6l-3.24,17.84,20.79-36.39Z" transform="translate(-19.07 -16.05)"/><path class="cls-10" d="M460.15,210.93h-.07a.22.22,0,0,1-.14-.25l3.24-17.84a11.68,11.68,0,0,1,3.14-6.1l6.22-6.38L471.16,178a2.89,2.89,0,0,1,.45-3.51l9.18-9.09a.22.22,0,0,1,.37.16v8.77a.2.2,0,0,1,0,.11l-20.78,36.39A.23.23,0,0,1,460.15,210.93Zm20.57-44.85-8.79,8.72a2.42,2.42,0,0,0-.39,3l1.47,2.5a.23.23,0,0,1,0,.27l-6.34,6.5a11.31,11.31,0,0,0-3,5.87l-3,16.56,20.12-35.21Z" transform="translate(-19.07 -16.05)"/><path class="cls-19" d="M569,324.46l3.27-2.6a8.88,8.88,0,0,0,2-11.66L559.5,286.74v37.72Z" transform="translate(-19.07 -16.05)"/><path class="cls-16" d="M503.88,154.79l-7.62,39.79a89,89,0,0,0,.73,36.83l24.72,106.11,64.41-25.34-56.8-128.1V154.79Z" transform="translate(-19.07 -16.05)"/><rect class="cls-7" x="438.8" y="308.41" width="111.09" height="4.59"/><path class="cls-16" d="M503.88,154.79l10.24,15.36a8.88,8.88,0,0,1-1.9,11.9l-6,4.7,8.87,6.15a8.88,8.88,0,0,1,3.28,10.33L501.33,250,497,231.41a89,89,0,0,1-.73-36.83Z" transform="translate(-19.07 -16.05)"/><path class="cls-10" d="M503.31,244.83h-.08a.23.23,0,0,1-.13-.29l15.09-41.37a8.66,8.66,0,0,0-3.2-10.08l-8.87-6.15a.25.25,0,0,1-.1-.18.21.21,0,0,1,.09-.18l6-4.69a8.69,8.69,0,0,0,1.85-11.6L503.7,154.92a.22.22,0,0,1,.06-.31.21.21,0,0,1,.3.06L514.3,170a9.14,9.14,0,0,1-1.95,12.2l-5.73,4.5,8.63,6a9.11,9.11,0,0,1,3.36,10.59l-15.1,41.37A.21.21,0,0,1,503.31,244.83Z" transform="translate(-19.07 -16.05)"/><path class="cls-10" d="M526.59,200.46l9.39-1.37,50.14,113.09-64.41,25.34-1.56-18.83,16.78-44.29a13.35,13.35,0,0,0,.69-6.88Z" transform="translate(-19.07 -16.05)"/><path class="cls-17" d="M515.86,340.88l-4.78,6.49A21.94,21.94,0,0,0,507,357.3l-4.75,33.41a8.89,8.89,0,0,0,1.32,6.05l2.77,4.3a4.18,4.18,0,0,0,4.08,1.87h0a4.17,4.17,0,0,0,3.58-4.2l-.08-4.16,1,.41a6.44,6.44,0,0,0,6.73-1.2l.27-.24,2.34.78a6.42,6.42,0,0,0,6.68-1.67h0l2,.87a6.43,6.43,0,0,0,7.26-1.56h0a5.71,5.71,0,0,0,1.44-4.62l-1.28-9.48h0a6.89,6.89,0,0,0-5.84,5.21l-.21.85c.89-7.69,1-16.12-5.62-24L536,348.27Z" transform="translate(-19.07 -16.05)"/><path class="cls-11" d="M520.52,357.81a26.74,26.74,0,0,0,9.46,3.74c-.39-.53-.8-1.06-1.25-1.59L536,348.27l-20.12-7.39-4.73,6.43A26.71,26.71,0,0,0,520.52,357.81Z" transform="translate(-19.07 -16.05)"/><path class="cls-10" d="M513.94,394.79a.27.27,0,0,1-.12,0,38.6,38.6,0,0,1-6-4.8.22.22,0,0,1,0-.32.23.23,0,0,1,.31,0,38.18,38.18,0,0,0,5.93,4.74.23.23,0,0,1,.08.31A.22.22,0,0,1,513.94,394.79Z" transform="translate(-19.07 -16.05)"/><path class="cls-10" d="M520.8,391.43l-.07,0a8,8,0,0,1-4.41-3.91.22.22,0,0,1,.4-.2,7.54,7.54,0,0,0,4.16,3.69.23.23,0,0,1,.13.29A.22.22,0,0,1,520.8,391.43Z" transform="translate(-19.07 -16.05)"/><path class="cls-10" d="M529.39,389.48a.2.2,0,0,1-.11,0,4.21,4.21,0,0,1-1.92-4.38.22.22,0,0,1,.27-.17.22.22,0,0,1,.17.26,3.76,3.76,0,0,0,1.7,3.91.22.22,0,0,1-.11.41Z" transform="translate(-19.07 -16.05)"/><path class="cls-10" d="M534,388.15h0a.22.22,0,0,1-.2-.24l.38-4a.21.21,0,0,1,.24-.2.22.22,0,0,1,.2.24l-.38,4A.23.23,0,0,1,534,388.15Z" transform="translate(-19.07 -16.05)"/><path class="cls-10" d="M538.81,387.86a.24.24,0,0,1-.2-.12c-.6-1.25-2.24-1.94-4.42-1.88a.23.23,0,0,1,0-.45c2.4-.06,4.15.72,4.83,2.13a.23.23,0,0,1-.11.3Z" transform="translate(-19.07 -16.05)"/><path class="cls-16" d="M529.32,154.79h0a30.53,30.53,0,0,1,29.44,22.48l23.67,86.64a35.52,35.52,0,0,1-2.83,25.9l-37.41,71-3.51-.53A44.4,44.4,0,0,1,510.44,344l-2.64-3.33L547,272.54l-22.08-78.1Z" transform="translate(-19.07 -16.05)"/><path class="cls-10" d="M511.13,335.09l-.12,0a.22.22,0,0,1-.08-.3l35.79-62.25-22.05-78a.24.24,0,0,1,.15-.28.24.24,0,0,1,.28.16l22.08,78.1a.25.25,0,0,1,0,.17L511.32,335A.23.23,0,0,1,511.13,335.09Z" transform="translate(-19.07 -16.05)"/><path class="cls-10" d="M546.41,353.05a.18.18,0,0,1-.1,0,.22.22,0,0,1-.09-.3l33.18-63a.22.22,0,0,1,.4.2l-33.19,63A.22.22,0,0,1,546.41,353.05Z" transform="translate(-19.07 -16.05)"/><path class="cls-10" d="M542.49,348.94h0a40.28,40.28,0,0,1-24.9-14.67.22.22,0,1,1,.34-.27,39.93,39.93,0,0,0,24.63,14.51.22.22,0,0,1,0,.44Z" transform="translate(-19.07 -16.05)"/><path class="cls-10" d="M573.52,281.37a.23.23,0,0,1-.16-.07,26.22,26.22,0,0,0-20.28-7.86.22.22,0,1,1,0-.44,26.72,26.72,0,0,1,20.63,8,.22.22,0,0,1,0,.32A.23.23,0,0,1,573.52,281.37Z" transform="translate(-19.07 -16.05)"/><path class="cls-10" d="M571.34,271.27l-.09,0a19.22,19.22,0,0,0-14.87-.16.22.22,0,1,1-.17-.41,19.65,19.65,0,0,1,15.22.17.22.22,0,0,1,.11.29A.23.23,0,0,1,571.34,271.27Z" transform="translate(-19.07 -16.05)"/><path class="cls-10" d="M559.49,228.41h0A46.91,46.91,0,0,1,536,215a.22.22,0,0,1,0-.31.23.23,0,0,1,.32,0A46.65,46.65,0,0,0,559.54,228a.23.23,0,0,1,.17.27A.23.23,0,0,1,559.49,228.41Z" transform="translate(-19.07 -16.05)"/><path class="cls-10" d="M557.6,222.79a.2.2,0,0,1-.16-.07.22.22,0,0,1,0-.32,14.73,14.73,0,0,0,4.47-7.89.24.24,0,0,1,.27-.18.22.22,0,0,1,.17.26,15.27,15.27,0,0,1-4.61,8.14A.22.22,0,0,1,557.6,222.79Z" transform="translate(-19.07 -16.05)"/><path class="cls-19" d="M480.94,165.55A237.06,237.06,0,0,1,452.19,216a15.17,15.17,0,0,0-.83,16.87,36.6,36.6,0,0,0,4.46,6,12.89,12.89,0,0,1,3.27,10.09c-2.25,21.87-6.63,48.44-10.27,61.75A8.86,8.86,0,0,0,452,320l5.85,4.42h60.79l-21.68-93a89,89,0,0,1-.73-36.83l7.62-39.79Z" transform="translate(-19.07 -16.05)"/><path class="cls-7" d="M460.29,241.59h30.29a3.9,3.9,0,0,0-4.87-2.9c-1.14.37-2.15,1.34-3.33,1.39-1.61.08-2.89-1.55-3.83-3.11s-1.91-3.34-3.47-3.83-3.4.65-4.64,2.1-2.21,3.22-3.63,4.39-3.56,1.54-4.78.08a2.45,2.45,0,0,0-.48-.53.78.78,0,0,0-1.09.25A3.07,3.07,0,0,0,460.29,241.59Z" transform="translate(-19.07 -16.05)"/><path class="cls-10" d="M483.94,191.45a.22.22,0,0,1-.18-.1,19.07,19.07,0,0,1-3.34-9.43.22.22,0,0,1,.2-.24.22.22,0,0,1,.24.2,18.75,18.75,0,0,0,3.26,9.22.22.22,0,0,1-.06.31A.17.17,0,0,1,483.94,191.45Z" transform="translate(-19.07 -16.05)"/><path class="cls-10" d="M489.23,191.84a.25.25,0,0,1-.17-.08.23.23,0,0,1,0-.31,30.39,30.39,0,0,0,7.2-9,.22.22,0,0,1,.4.2,30.91,30.91,0,0,1-7.31,9.12A.27.27,0,0,1,489.23,191.84Z" transform="translate(-19.07 -16.05)"/><path class="cls-10" d="M486,289.42a.24.24,0,0,1-.12,0,48.2,48.2,0,0,1-20.43-30.78.22.22,0,1,1,.43-.08A47.8,47.8,0,0,0,486.09,289a.21.21,0,0,1,.06.3A.2.2,0,0,1,486,289.42Z" transform="translate(-19.07 -16.05)"/><path class="cls-10" d="M482.28,279a.22.22,0,0,1-.22-.18.23.23,0,0,1,.18-.26,29.63,29.63,0,0,0,19.28-13.12.22.22,0,0,1,.37.23A30.07,30.07,0,0,1,482.32,279Z" transform="translate(-19.07 -16.05)"/><path class="cls-17" d="M474.71,160.56,483,170a32.14,32.14,0,0,0,4.05,18.05c9.85-7.1,16.8-33.29,16.8-33.29-9.47-7.54-16.12-18.9-16.12-18.9Z" transform="translate(-19.07 -16.05)"/><path class="cls-10" d="M489.89,139.2c1.49,11.64-.45,29.24-11.41,25.65l-3.77-4.29,13.05-24.67Z" transform="translate(-19.07 -16.05)"/><path class="cls-17" d="M485.06,130a15,15,0,0,1-.66-9.31,8.58,8.58,0,0,1,6.52-6.19,8.18,8.18,0,0,1,7.31,3,12,12,0,0,1,2.52,7.7,10.59,10.59,0,0,1-2.88,7.65c-2,1.93-5.93,2.56-8.27,1a76.77,76.77,0,0,1-3.2,14.33,25.7,25.7,0,0,1-8.23,11.93A22.75,22.75,0,0,1,460.89,164a34.92,34.92,0,0,1-16.21-7.79,48.75,48.75,0,0,1-16.26-47.49,15.59,15.59,0,0,1,12.4.23c3.79,1.74,7,4.51,10.17,7.24s6.38,5.48,10.19,7.21a22.32,22.32,0,0,0,17.56.25C480,125.87,482.71,128.87,485.06,130Z" transform="translate(-19.07 -16.05)"/><path class="cls-11" d="M494.12,118.66a6.77,6.77,0,0,0-3.78,8.73,3.46,3.46,0,0,0,2,2.16,2.55,2.55,0,0,0,2.89-1.27,3.14,3.14,0,0,0-.3-3.24,4.05,4.05,0,0,0-2.93-1.58A6,6,0,0,1,494.12,118.66Z" transform="translate(-19.07 -16.05)"/><path class="cls-20" d="M457.32,122l-13.79,3.13a10,10,0,0,1,6-5.32C452,119.15,455,120.37,457.32,122Z" transform="translate(-19.07 -16.05)"/><path class="cls-10" d="M454.15,131.15a2.36,2.36,0,1,1-2.36-2.35A2.36,2.36,0,0,1,454.15,131.15Z" transform="translate(-19.07 -16.05)"/><path class="cls-20" d="M435.47,128.69l-6.16,2.6c-.09-2.36.46-4.3,1.54-4.85S433.84,127.11,435.47,128.69Z" transform="translate(-19.07 -16.05)"/><path class="cls-10" d="M435.76,136c.56,1.17.39,2.42-.37,2.79s-1.85-.29-2.41-1.46-.39-2.43.38-2.79S435.2,134.78,435.76,136Z" transform="translate(-19.07 -16.05)"/><path class="cls-10" d="M442.61,143.51h0a.22.22,0,0,1-.2-.24,16.66,16.66,0,0,0-5.86-14.1.23.23,0,0,1,0-.31.22.22,0,0,1,.32,0,17.11,17.11,0,0,1,6,14.48A.22.22,0,0,1,442.61,143.51Z" transform="translate(-19.07 -16.05)"/><path class="cls-12" d="M443.22,142.89c8.81-5.19,20.26-1.13,31.49-7.45l-2-2.23c-8.71,5.83-21.25,1.68-30.27,7-3.48,2-6.05,5.3-8.53,8.48.51.58,1,1.15,1.53,1.7C437.72,147.54,440.11,144.73,443.22,142.89Z" transform="translate(-19.07 -16.05)"/><path class="cls-21" d="M474.71,135.44c-11.23,6.32-22.68,2.26-31.49,7.45-3.11,1.84-5.5,4.65-7.75,7.5,27.11,29.46,48.36,13.6,51.69-.92Z" transform="translate(-19.07 -16.05)"/><path class="cls-12" d="M473.56,134.15,484,125.43c.19,1.31.38,2.26.38,2.26l-8.61,8.93Z" transform="translate(-19.07 -16.05)"/><path class="cls-12" d="M489.6,133.87A42.88,42.88,0,0,1,483,144.82l2.15,2.41c4.35-5.23,5.94-12.7,5.94-12.7A4,4,0,0,1,489.6,133.87Z" transform="translate(-19.07 -16.05)"/><path class="cls-16" d="M264.67,383.48l17.4-90.4a26.63,26.63,0,0,1,26.15-21.6H275.08a26.62,26.62,0,0,0-26.15,21.6l-17.4,90.4a26.62,26.62,0,0,0,26.15,31.65h33.14A26.62,26.62,0,0,1,264.67,383.48Z" transform="translate(-19.07 -16.05)"/><path class="cls-10" d="M341.31,271.48H308.22a26.63,26.63,0,0,0-26.15,21.6l-17.4,90.4a26.62,26.62,0,0,0,26.15,31.65h48.05l22.89-118.89a20.83,20.83,0,0,0-20.45-24.76Z" transform="translate(-19.07 -16.05)"/><path class="cls-22" d="M291.06,277.72h-3a25.75,25.75,0,0,0-25.1,20L252.22,345l31.15,2.31-8,67.82h93l-1.77-68.71c10-1.33,20-7.47,22.41-10.28l-18.06-47.55a16.87,16.87,0,0,0-15.77-10.87h-64.1Z" transform="translate(-19.07 -16.05)"/><g class="cls-23"><path class="cls-10" d="M290.25,348.71,295,303.82l3.73,25.74-4.23,12.87,31.78-33.5,6,15.32a3.55,3.55,0,0,1-.64,3.65l-5.37,6.1c-5.67,36.83-32.25,67.75-50.89,81.13l6.51-55.26Z" transform="translate(-19.07 -16.05)"/></g><polygon class="cls-24" points="233.77 355.62 239 329.39 264.3 331.26 261.12 358.25 233.77 355.62"/><path class="cls-10" d="M345.33,396h0a74.17,74.17,0,0,1-50.81-27.08.22.22,0,0,1,.35-.27,73.75,73.75,0,0,0,50.49,26.91.22.22,0,0,1,.2.24A.21.21,0,0,1,345.33,396Z" transform="translate(-19.07 -16.05)"/><path class="cls-10" d="M338.27,380.9a75.07,75.07,0,0,1-12.8-1.09.23.23,0,0,1-.18-.26.23.23,0,0,1,.26-.18,75.36,75.36,0,0,0,31-1.16.22.22,0,0,1,.11.43A75.3,75.3,0,0,1,338.27,380.9Z" transform="translate(-19.07 -16.05)"/><path class="cls-10" d="M327.66,299.69a19.26,19.26,0,0,1-9.21-2.64A52.15,52.15,0,0,1,309,289.6a.22.22,0,0,1,0-.31.22.22,0,0,1,.32,0,51.93,51.93,0,0,0,9.41,7.38c2.72,1.53,6.92,3.19,11.4,2.38a12.85,12.85,0,0,0,10.55-13.17.22.22,0,0,1,.21-.23.21.21,0,0,1,.23.21,13.28,13.28,0,0,1-10.91,13.62A13.24,13.24,0,0,1,327.66,299.69Z" transform="translate(-19.07 -16.05)"/><path class="cls-10" d="M317.54,351.3a.22.22,0,0,1-.22-.22.23.23,0,0,1,.21-.23A61.18,61.18,0,0,0,357,334.18a.22.22,0,0,1,.31.32,61.66,61.66,0,0,1-39.75,16.8Z" transform="translate(-19.07 -16.05)"/><path class="cls-10" d="M323.49,343.4a58.77,58.77,0,0,1-15.75-2.15.22.22,0,0,1-.16-.27.21.21,0,0,1,.28-.15,58.49,58.49,0,0,0,29.84.37.22.22,0,0,1,.11.43A58.75,58.75,0,0,1,323.49,343.4Z" transform="translate(-19.07 -16.05)"/><path class="cls-10" d="M286.62,340.62h0l-28.7-2.44a.22.22,0,0,1-.21-.24.22.22,0,0,1,.24-.2l28.71,2.44a.22.22,0,0,1,.2.24A.23.23,0,0,1,286.62,340.62Z" transform="translate(-19.07 -16.05)"/><path class="cls-10" d="M279.83,335.6h-.05l-9.92-2.16a.22.22,0,0,1-.17-.26A.21.21,0,0,1,270,333l9.92,2.15a.23.23,0,0,1,.17.27A.21.21,0,0,1,279.83,335.6Z" transform="translate(-19.07 -16.05)"/><path class="cls-16" d="M326.27,308.93c-4.51-11-14.06-25.23-18-30.94a5.87,5.87,0,0,0-4.85-2.54H293.2a5.92,5.92,0,0,0-4.65,2.27h2.51c8.44,6.8,17.51,25.73,18.74,31.95Z" transform="translate(-19.07 -16.05)"/><path class="cls-16" d="M337.46,277.72h3.6c8.88,6.69,20.08,34.42,20.08,34.42l11.1-5.65c-4.73-12-9.72-22.17-13.79-27.67a8.44,8.44,0,0,0-6.79-3.37h-10.6a4,4,0,0,0-3.6,2.27Z" transform="translate(-19.07 -16.05)"/><path class="cls-25" d="M308.44,255.79a67.84,67.84,0,0,1-.73,21.42A35,35,0,0,0,318,291.28c2.29,2,5,3.68,8,3.82,4.18.2,8.07-2.86,9.67-6.73a13.26,13.26,0,0,0,.35-10.65h-2.71L334,261Z" transform="translate(-19.07 -16.05)"/><path class="cls-10" d="M318.87,271.94a18.46,18.46,0,0,0,14.59,2.17L334,261l-25.56-5.24c.06.41.09.82.14,1.23a41.25,41.25,0,0,0,3.18,7.12A22.78,22.78,0,0,0,318.87,271.94Z" transform="translate(-19.07 -16.05)"/><path class="cls-10" d="M304.14,244.83a9.31,9.31,0,0,1,8.63,7c2.77-4.59-3.44-22.93-3.44-22.93a33.45,33.45,0,0,1,7-6.5,24.45,24.45,0,0,0-5.61-12.12,16,16,0,0,1,8.95,10,58.94,58.94,0,0,1,13.5-5.62,24.45,24.45,0,0,0-4.59-14.11,15.86,15.86,0,0,1,9.48,13,43.49,43.49,0,0,1,10.2-.91,72.15,72.15,0,0,1,5.24,13.2c2.42-5.07,2.2-11.42.42-16.89-4.55-14-18.67-24.28-33.38-24.32s-28.69,10.52-33.32,24.48c-5.62,1.44-9.35,7-10.64,12.67a26.69,26.69,0,0,0,7,24.29,38.37,38.37,0,0,0,11.44,7.5,8.05,8.05,0,0,1,.28-2A9.29,9.29,0,0,1,304.14,244.83Z" transform="translate(-19.07 -16.05)"/><path class="cls-25" d="M353.5,225.78a72.15,72.15,0,0,0-5.24-13.2,43.49,43.49,0,0,0-10.2.91,15.86,15.86,0,0,0-9.48-13,24.45,24.45,0,0,1,4.59,14.11,58.94,58.94,0,0,0-13.5,5.62,16,16,0,0,0-8.95-10,24.45,24.45,0,0,1,5.61,12.12,33.45,33.45,0,0,0-7,6.5s6.21,18.34,3.44,22.93a9,9,0,0,0-17.5-.33,8.05,8.05,0,0,0-.28,2,9.33,9.33,0,0,0,4.59,8.22c3.48,1.94,8.7,1.68,11.43-1.23a37.07,37.07,0,0,0,29,8.64c4.77-.66,9.67-2.46,12.59-6.28,2.49-3.24,3.22-7.48,3.52-11.55A72.68,72.68,0,0,0,353.5,225.78Z" transform="translate(-19.07 -16.05)"/><path class="cls-10" d="M316.74,229.73,329.65,224a9.84,9.84,0,0,0-8-.87C319.24,224.07,317.55,227,316.74,229.73Z" transform="translate(-19.07 -16.05)"/><circle class="cls-10" cx="306.76" cy="217.85" r="2.36"/><path class="cls-10" d="M341.11,221.08l9.12-1.06c-1.63-2-3.7-3.4-5.36-3.29S341.86,218.89,341.11,221.08Z" transform="translate(-19.07 -16.05)"/><path class="cls-10" d="M346.08,227.41a2.47,2.47,0,0,0,2.49,2.16,2.07,2.07,0,0,0,1.75-2.51,2.47,2.47,0,0,0-2.49-2.17A2.07,2.07,0,0,0,346.08,227.41Z" transform="translate(-19.07 -16.05)"/><path class="cls-12" d="M317.75,248.41l-7.42-.87a22.31,22.31,0,0,1,1.56,2l6.44,1.32Z" transform="translate(-19.07 -16.05)"/><path class="cls-12" d="M311,260.5l8.31-.66v2.38l-9.52-.7A7.17,7.17,0,0,0,311,260.5Z" transform="translate(-19.07 -16.05)"/><path class="cls-10" d="M343.17,237.59a.2.2,0,0,1-.16-.07,17,17,0,0,1-3.64-15.75.22.22,0,0,1,.27-.15.21.21,0,0,1,.15.27,16.51,16.51,0,0,0,3.55,15.33.23.23,0,0,1,0,.32A.27.27,0,0,1,343.17,237.59Z" transform="translate(-19.07 -16.05)"/><path class="cls-12" d="M340.89,237.09c5.15-1.66,10.72-.51,16,.75-.18-1.88-.34-3.05-.34-3.05-5.43-1.29-11.2-2.58-16.51-.86-4.13,1.33-7.46,4.31-11,6.75a47.51,47.51,0,0,1-12.11,6c.24,1,.44,1.93.63,2.9a53,53,0,0,0,12.33-5.73C333.43,241.4,336.76,238.42,340.89,237.09Z" transform="translate(-19.07 -16.05)"/><path class="cls-21" d="M340.89,237.09c-4.13,1.33-7.46,4.31-11,6.76a53,53,0,0,1-12.33,5.73,51.8,51.8,0,0,1,.67,17.06c17.1,8.89,30.53,3.46,36-3.09,4.19-5.05,3.35-19.41,2.74-25.71C351.61,236.58,346,235.43,340.89,237.09Z" transform="translate(-19.07 -16.05)"/><path class="cls-24" d="M298.72,254.12a4.63,4.63,0,0,1,3.07-4.12,4.77,4.77,0,0,1,5,1.33,4.93,4.93,0,0,1,.81,5.11,3.65,3.65,0,0,1-1.9,2,2.85,2.85,0,1,1-1-5.5,3.2,3.2,0,0,0-3.05-1.49A4.25,4.25,0,0,0,298.72,254.12Z" transform="translate(-19.07 -16.05)"/><path class="cls-25" d="M353.27,313.59l-.53,5.71a9.78,9.78,0,0,0,2.12,7l6.53,8.11a6.29,6.29,0,0,1,1.32,3.05l5.64,41.24a13,13,0,0,0,14.74,11.08h0a13,13,0,0,0,9.82-18.44L377,338.11a6.19,6.19,0,0,1,.47-6.18l5.18-7.6a6.29,6.29,0,0,0,1.07-3.86l-.36-6.22a6.24,6.24,0,0,0-1.82-4l-9.7-9.68a4.45,4.45,0,0,0-5.07-.85l-7.08,3.43a2.68,2.68,0,0,0-1.5,2.35l-.12,6.43Z" transform="translate(-19.07 -16.05)"/><path class="cls-25" d="M354.69,311.28l3-1.58a2.65,2.65,0,0,1,3.56,1.05l3.47,6.22a3.77,3.77,0,0,1-1.05,4.88h0a3.78,3.78,0,0,1-5.21-.7l-4.63-5.86A2.67,2.67,0,0,1,354.69,311.28Z" transform="translate(-19.07 -16.05)"/><path class="cls-10" d="M361.43,322.81a4,4,0,0,1-3.13-1.52l-3.09-3.91a.23.23,0,0,1,0-.32.23.23,0,0,1,.31,0l3.08,3.91a3.56,3.56,0,0,0,5.9-3.94l-3.47-6.21a2.43,2.43,0,0,0-3.27-1,.22.22,0,0,1-.21-.39,2.88,2.88,0,0,1,3.87,1.14l3.47,6.22a4,4,0,0,1-3.5,5.95Z" transform="translate(-19.07 -16.05)"/><path class="cls-10" d="M366.58,331.71h0a.22.22,0,0,1-.18-.25c0-.06,1-6.2-2.83-9.43a.23.23,0,0,1,0-.32.22.22,0,0,1,.31,0c4,3.39,3,9.58,3,9.84A.23.23,0,0,1,366.58,331.71Z" transform="translate(-19.07 -16.05)"/><path class="cls-16" d="M378.6,318l-5.15,3.86c.33,22.85-5.49,78.28-5.49,78.28l.2,7.75C378.56,379.48,378.6,318,378.6,318Z" transform="translate(-19.07 -16.05)"/><path class="cls-10" d="M373.45,322.07a.21.21,0,0,1-.18-.09.22.22,0,0,1,.05-.31l6.64-5a.22.22,0,0,1,.31,0,.21.21,0,0,1,0,.31l-6.65,5A.28.28,0,0,1,373.45,322.07Z" transform="translate(-19.07 -16.05)"/><path class="cls-10" d="M372.23,325.62l-.09,0-1.22-.6a2.89,2.89,0,0,1-1.62-2.4l-.23-3.52a2.85,2.85,0,0,1,1.07-2.44l6.49-5.22a.22.22,0,0,1,.31,0,.21.21,0,0,1,0,.31L370.42,317a2.44,2.44,0,0,0-.91,2.07l.24,3.52a2.43,2.43,0,0,0,1.36,2l1.22.6a.22.22,0,0,1-.1.42Z" transform="translate(-19.07 -16.05)"/><path class="cls-10" d="M364.4,316.59h0a.22.22,0,0,1-.21-.24l.07-1.14a2.61,2.61,0,0,1,.84-1.78l8-7.38a.22.22,0,0,1,.32,0,.22.22,0,0,1,0,.31l-8,7.39a2.14,2.14,0,0,0-.7,1.47l-.07,1.15A.22.22,0,0,1,364.4,316.59Z" transform="translate(-19.07 -16.05)"/><path class="cls-10" d="M362,312.37a.22.22,0,0,1-.22-.22l-.08-2.54a3.31,3.31,0,0,1,1.43-2.82l6.44-4.48a.22.22,0,0,1,.31.06.22.22,0,0,1-.05.31l-6.45,4.47a2.87,2.87,0,0,0-1.23,2.45l.07,2.54a.23.23,0,0,1-.21.23Z" transform="translate(-19.07 -16.05)"/><path class="cls-25" d="M297.72,325.67,257,364.81a15.63,15.63,0,0,0,1.07,23.47h0a15.63,15.63,0,0,0,23.37-4.53l26.31-46.61a13.79,13.79,0,0,1,6.36-5.79c6.79-3,7.53-8.52,7.53-8.52l1.51,1.39a2.29,2.29,0,0,0,3.14-.05l6.69-6.54a3.33,3.33,0,0,0,.53-4.07l-6.2-10.5a4.79,4.79,0,0,0-3.3-2.27l-14.48-2.44a3.34,3.34,0,0,0-3.8,2.53l-4.14,18A13.76,13.76,0,0,1,297.72,325.67Z" transform="translate(-19.07 -16.05)"/><path class="cls-16" d="M267.54,415.13c25.15-21.59,49.51-65.5,53.06-96.63h6.51c-2.29,34.68-28.21,72.08-51.73,96.63Z" transform="translate(-19.07 -16.05)"/><path class="cls-10" d="M328.3,318.72h-9a.22.22,0,0,1-.22-.22.22.22,0,0,1,.22-.23h9a.22.22,0,0,1,.22.23A.22.22,0,0,1,328.3,318.72Z" transform="translate(-19.07 -16.05)"/><path class="cls-10" d="M332,312.37h0l-11.69-1.3a.22.22,0,0,1,.05-.44L332,311.92a.22.22,0,0,1,.19.25A.22.22,0,0,1,332,312.37Z" transform="translate(-19.07 -16.05)"/><path class="cls-10" d="M329.3,309.2h-.06l-12.54-3.34a.22.22,0,0,1-.16-.27.24.24,0,0,1,.28-.16l12.54,3.34a.22.22,0,0,1,.16.27A.22.22,0,0,1,329.3,309.2Z" transform="translate(-19.07 -16.05)"/><path class="cls-10" d="M326.69,304.82h0l-12.85-2.63a.22.22,0,1,1,.09-.43l12.85,2.62a.22.22,0,0,1,.17.26A.22.22,0,0,1,326.69,304.82Z" transform="translate(-19.07 -16.05)"/><path class="cls-10" d="M313.84,315a.23.23,0,0,1-.2-.13,2.72,2.72,0,0,1,.28-2.68,2.75,2.75,0,0,1,2.47-1.08.22.22,0,0,1,.19.25.23.23,0,0,1-.24.2,2.24,2.24,0,0,0-2.3,3.13.22.22,0,0,1-.11.29A.15.15,0,0,1,313.84,315Z" transform="translate(-19.07 -16.05)"/><path class="cls-10" d="M310.56,309.21a.22.22,0,0,1-.21-.16,3.1,3.1,0,0,1,2-3.86.22.22,0,0,1,.28.14.22.22,0,0,1-.14.28,2.67,2.67,0,0,0-1.53,1.31,2.62,2.62,0,0,0-.18,2,.23.23,0,0,1-.15.28Z" transform="translate(-19.07 -16.05)"/><path class="cls-10" d="M307.82,303.3a.22.22,0,0,1-.22-.19,2.08,2.08,0,0,1,.63-1.78,2.05,2.05,0,0,1,1.82-.49.21.21,0,0,1,.17.26.22.22,0,0,1-.26.17,1.59,1.59,0,0,0-1.92,1.78.22.22,0,0,1-.19.25Z" transform="translate(-19.07 -16.05)"/><path class="cls-10" d="M263.12,359.16a.2.2,0,0,1-.16-.07.21.21,0,0,1,0-.31l29-27.87a.21.21,0,0,1,.31,0,.23.23,0,0,1,0,.32l-29,27.87A.22.22,0,0,1,263.12,359.16Z" transform="translate(-19.07 -16.05)"/><path class="cls-10" d="M301.6,319.06h-.05a.22.22,0,0,1-.17-.26L304,307.27a.24.24,0,0,1,.27-.17.22.22,0,0,1,.16.27l-2.65,11.52A.23.23,0,0,1,301.6,319.06Z" transform="translate(-19.07 -16.05)"/><path class="cls-26" d="M88,391.44l-1.8-30.17a26.89,26.89,0,0,1,2.75-13.54l4.9-9.9a26.82,26.82,0,0,0,2.7-9.73l2-24.22a17,17,0,0,1,10.08-14.17l1-.45,0-7.92-18.92,8.37a17,17,0,0,0-10.08,14.17l-2,24.22a27,27,0,0,1-2.7,9.73L71,347.73a27,27,0,0,0-2.74,13.54L70,391.44a18.28,18.28,0,0,0,18.25,17.19h17.95A18.29,18.29,0,0,1,88,391.44Z" transform="translate(-19.07 -16.05)"/><path class="cls-27" d="M108.62,289.71a17,17,0,0,0-10.08,14.17l-2,24.22a26.82,26.82,0,0,1-2.7,9.73l-4.9,9.9a26.89,26.89,0,0,0-2.75,13.54L88,391.44a18.29,18.29,0,0,0,18.25,17.19h4.15l-.75-119.37Z" transform="translate(-19.07 -16.05)"/><path class="cls-28" d="M82.52,348.25l5.27-10.65a25.37,25.37,0,0,0,2.55-9.18l2.81-34a9.46,9.46,0,0,1,4.74-7.44l3.26-1.87L94.54,288a9.47,9.47,0,0,0-5.61,7.88l-2.68,32.54a25.57,25.57,0,0,1-2.55,9.18l-5.28,10.65Z" transform="translate(-19.07 -16.05)"/><path class="cls-29" d="M202.91,280.13h0a13.48,13.48,0,0,1,6.35,12.73l-6.35,68,16.89,55.47H193.55l-17.24-56.45Z" transform="translate(-19.07 -16.05)"/><g class="cls-23"><path class="cls-10" d="M199.79,309.31l-6-1.78-17.46,52.34,17.24,56.45h14.81A260,260,0,0,1,199.79,309.31Z" transform="translate(-19.07 -16.05)"/></g><path class="cls-10" d="M210.19,385a.21.21,0,0,1-.21-.16l-7.29-23.91a.25.25,0,0,1,0-.08l2-21.67a.22.22,0,0,1,.44,0l-2,21.62,7.27,23.87a.22.22,0,0,1-.15.28Z" transform="translate(-19.07 -16.05)"/><polygon class="cls-28" points="164.32 251.16 184.63 259.4 179 292.28 164.32 251.16"/><path class="cls-26" d="M179.35,265.86l4.05,1.35,14.67,41.13.44,30.84,3.56-4.95a9.6,9.6,0,0,0,1.71-4.4c4.92-39.63-6.06-52.77-12.71-62.36a3.89,3.89,0,0,0-2.14-1.53l-5.34-1.53a3.94,3.94,0,0,0-4.24,1.45Z" transform="translate(-19.07 -16.05)"/><path class="cls-28" d="M102.28,292.21l2-9.41a12,12,0,0,1,7.24-8.67L122,269.88l39.6-10,21.8,7.32c16.44,30.88,21.27,48.68,16.15,67.09s-2.3,75.51.14,82H115.9Z" transform="translate(-19.07 -16.05)"/><path class="cls-29" d="M155,236.85c-.24,10.32-4.84,21.08-8.4,29.51,1.23,5.62,2.32,11.94,5.53,16.72s8,8.68,13.7,9.74,12-1.16,15-6.08c2.15-3.55,2.35-8,1.4-12.06s-2.93-7.76-4.95-11.39l8-20Z" transform="translate(-19.07 -16.05)"/><path class="cls-10" d="M161.54,253.76a14.69,14.69,0,0,0,18.81,2l5-12.49L155,236.85c0,1.1-.11,2.21-.23,3.31l1.06,2.88C157.24,246.87,158.71,250.82,161.54,253.76Z" transform="translate(-19.07 -16.05)"/><path class="cls-30" d="M191.37,240.59a29.19,29.19,0,0,0,28.43,31.57,23.93,23.93,0,0,1-8.37-15.52c-.75-5.94,0-12,.6-17.92s1.1-12-.14-17.91-4.43-11.58-9.64-14.53C197,216.89,192.34,228.8,191.37,240.59Z" transform="translate(-19.07 -16.05)"/><path class="cls-29" d="M203.2,223a4.82,4.82,0,0,1,5.34.95,5.93,5.93,0,0,1,1.11,4.54,13.06,13.06,0,0,1-4.49,8.6,6.89,6.89,0,0,1-3.12,1.65,3.57,3.57,0,0,1-3.27-1,4.92,4.92,0,0,1-1-3.2C197.62,230.24,198.71,224.81,203.2,223Z" transform="translate(-19.07 -16.05)"/><path class="cls-31" d="M201.09,227a3.65,3.65,0,0,1,6.33,1.09,2.68,2.68,0,0,0-2.32-.53,2.55,2.55,0,0,0-1.81,1.43,1.69,1.69,0,0,1,1.83.7,2.4,2.4,0,0,1,.33,1.94,4.8,4.8,0,0,1-.9,1.79,2.56,2.56,0,0,1-1.53,1.18,1.81,1.81,0,0,1-1.65-.74,3.58,3.58,0,0,1-.67-1.76C200.46,230.56,200.13,228.19,201.09,227Z" transform="translate(-19.07 -16.05)"/><path class="cls-30" d="M129.15,208.19c-9.27-4.1-21.38.09-26.12,9.06-3,5.68-3.15,12.44-2.45,18.83s2.17,12.71,2.13,19.14-1.85,13.21-6.6,17.52c6,1.46,14.08-2.72,18.14-7.41s6.13-10.77,7.6-16.79,2.45-12.22,4.76-18c1.38-3.42,3.21-6.67,4.22-10.21S131.17,211.28,129.15,208.19Z" transform="translate(-19.07 -16.05)"/><path class="cls-10" d="M129.15,208.19a18.92,18.92,0,0,0-6.82-1.54,25.31,25.31,0,0,0,5.56,21,51.31,51.31,0,0,0,2.94-7.28C131.84,216.81,131.17,211.28,129.15,208.19Z" transform="translate(-19.07 -16.05)"/><path class="cls-30" d="M150.37,234.07c-7.73-.09-15.06-4.64-19.3-11.11s-5.52-14.61-4.34-22.25a47.85,47.85,0,0,1,9.31-21c5.72-7.65,13.49-14.14,22.73-16.56s20-.12,26.24,7.13c5.69-1.8,12.62.6,16.57,5.07s5.78,10.45,6.64,16.36a61.65,61.65,0,0,1-1.55,25.21c-1.77,6.44-4.91,12.95-10.63,16.4-4.49,2.7-9.95,3.15-15.18,3.25C171.32,236.77,159.91,234.19,150.37,234.07Z" transform="translate(-19.07 -16.05)"/><path class="cls-29" d="M186.52,177.05c16.86,8.21,21.09,31.08,18.41,41.55-6,32-23.74,47-53.47,18.47a10.71,10.71,0,0,1-11.9,1.9,10.13,10.13,0,0,1-5.45-10.62,9.62,9.62,0,0,1,9-7.67,9.17,9.17,0,0,1,8.94,7.61c1.61-2.83,2.74-5.39,2.57-8.64C174.31,208.56,167,184.82,186.52,177.05Z" transform="translate(-19.07 -16.05)"/><path class="cls-30" d="M168.5,204.39,183,202.54a10.14,10.14,0,0,0-7.71-3.27C172.67,199.52,170.13,201.89,168.5,204.39Z" transform="translate(-19.07 -16.05)"/><path class="cls-10" d="M173.92,211.89a2.44,2.44,0,1,0,1.71-3A2.44,2.44,0,0,0,173.92,211.89Z" transform="translate(-19.07 -16.05)"/><path class="cls-30" d="M195.26,203.08l9.37,1.67c-1-2.51-2.65-4.48-4.33-4.87S196.66,201.12,195.26,203.08Z" transform="translate(-19.07 -16.05)"/><path class="cls-10" d="M198.31,210.84a2.56,2.56,0,0,0,1.82,2.89,2.15,2.15,0,0,0,2.49-2,2.57,2.57,0,0,0-1.82-2.9A2.15,2.15,0,0,0,198.31,210.84Z" transform="translate(-19.07 -16.05)"/><path class="cls-10" d="M191,224.54a.23.23,0,0,1-.21-.15,25.27,25.27,0,0,1,1.33-20.54.22.22,0,0,1,.3-.09.24.24,0,0,1,.09.3,24.86,24.86,0,0,0-1.31,20.18.21.21,0,0,1-.13.28Z" transform="translate(-19.07 -16.05)"/><path class="cls-12" d="M150.17,224.07h11.44v3.29l-10-.93A10.59,10.59,0,0,0,150.17,224.07Z" transform="translate(-19.07 -16.05)"/><path class="cls-12" d="M151.46,237.07l8.75,1.55-.93,2.94-9.94-2.91A10.44,10.44,0,0,0,151.46,237.07Z" transform="translate(-19.07 -16.05)"/><path class="cls-12" d="M171.57,224.3c3.27-1.38,6.28-3.33,9.55-4.72s7-2.21,10.37-1.17c4.78,1.45,8,6.21,12.57,8,.2-.91.39-1.83.57-2.79-5.27-1.36-8.61-6.86-13.81-8.44-3.4-1-7.1-.22-10.37,1.17s-6.27,3.34-9.55,4.72-7.31,2.53-10.69,1.45c.07,1,.11,2.05.13,3.08A23.46,23.46,0,0,0,171.57,224.3Z" transform="translate(-19.07 -16.05)"/><path class="cls-21" d="M191.49,218.41c-3.4-1-7.1-.22-10.37,1.17s-6.28,3.34-9.55,4.72a23.46,23.46,0,0,1-11.23,1.32,53.28,53.28,0,0,1-3,18.43c18.06,15,39.55,15.2,46.75-17.62C199.48,224.62,196.27,219.86,191.49,218.41Z" transform="translate(-19.07 -16.05)"/><path class="cls-31" d="M137.53,228.21a4.41,4.41,0,0,1,3.51-2.65,5.22,5.22,0,0,1,4.2,1.47,6.47,6.47,0,0,1,1.86,4.11,4.37,4.37,0,0,1-1,3.39,3.31,3.31,0,0,1-4.13.38,3.61,3.61,0,0,1-1.3-4,3.82,3.82,0,0,1,2.06-2.22c-.62-.71-1.2-1.42-2.14-1.44A4.56,4.56,0,0,0,137.53,228.21Z" transform="translate(-19.07 -16.05)"/><g class="cls-23"><path class="cls-10" d="M110.39,359.3,124,330.43c6.56-13.93,13.25-28.29,14.11-43.66l12.76,5.89c-2.09,19-13.07,51.09-19.38,68.42a32.82,32.82,0,0,0,.59,24l13.16,31.28H115.9Z" transform="translate(-19.07 -16.05)"/></g><path class="cls-10" d="M185.67,281.56h0a.21.21,0,0,1-.21-.23,17,17,0,0,0-2.15-8.92.24.24,0,0,1,.08-.31.22.22,0,0,1,.3.09,17.35,17.35,0,0,1,2.21,9.16A.21.21,0,0,1,185.67,281.56Z" transform="translate(-19.07 -16.05)"/><path class="cls-10" d="M168.47,298a19.58,19.58,0,0,1-3.12-.25.22.22,0,0,1-.18-.25.22.22,0,0,1,.25-.19,18,18,0,0,0,9.63-1,17,17,0,0,0,9.51-10.05.22.22,0,0,1,.28-.14.22.22,0,0,1,.13.28,17.48,17.48,0,0,1-9.75,10.32A17.68,17.68,0,0,1,168.47,298Z" transform="translate(-19.07 -16.05)"/><path class="cls-10" d="M161.14,296.56h-.08A21.57,21.57,0,0,1,156.3,294a28,28,0,0,1-10.5-16.38.22.22,0,0,1,.16-.27.23.23,0,0,1,.27.17,27.55,27.55,0,0,0,10.33,16.12,20.65,20.65,0,0,0,4.66,2.49.23.23,0,0,1,.13.29A.22.22,0,0,1,161.14,296.56Z" transform="translate(-19.07 -16.05)"/><path class="cls-10" d="M128.34,360.37a.21.21,0,0,1-.16-.07.22.22,0,0,1,0-.31,71.26,71.26,0,0,1,51-19.43.23.23,0,0,1,.22.23.22.22,0,0,1-.23.22,70.91,70.91,0,0,0-50.71,19.3A.25.25,0,0,1,128.34,360.37Z" transform="translate(-19.07 -16.05)"/><path class="cls-10" d="M190.06,358a.28.28,0,0,1-.13,0,40.82,40.82,0,0,0-29.78-6.65.22.22,0,0,1-.08-.44,41.34,41.34,0,0,1,30.11,6.72.22.22,0,0,1-.12.41Z" transform="translate(-19.07 -16.05)"/><path class="cls-10" d="M181,407.66h0a84.86,84.86,0,0,1-55.47-29.75.23.23,0,0,1,0-.31.21.21,0,0,1,.31,0A84.44,84.44,0,0,0,181,407.22a.21.21,0,0,1,.19.24A.23.23,0,0,1,181,407.66Z" transform="translate(-19.07 -16.05)"/><path class="cls-10" d="M180.05,393.83h0a137.56,137.56,0,0,0-25.44-2.6.21.21,0,0,1-.22-.22.22.22,0,0,1,.22-.22h0a138.52,138.52,0,0,1,25.53,2.6.23.23,0,0,1,.17.27A.22.22,0,0,1,180.05,393.83Z" transform="translate(-19.07 -16.05)"/><path class="cls-29" d="M130.12,297.62,118,365.57l16.7,50.75H102.76L89.32,375.15a26.7,26.7,0,0,1-.91-12.92l12.41-69.82a14.88,14.88,0,0,1,17.29-12.05h0A14.88,14.88,0,0,1,130.12,297.62Z" transform="translate(-19.07 -16.05)"/><path class="cls-10" d="M97.59,400.7a.22.22,0,0,1-.21-.15l-8.27-25.33a26.91,26.91,0,0,1-.92-13l12.41-69.82a15.09,15.09,0,0,1,17.55-12.22.22.22,0,0,1,.18.25.22.22,0,0,1-.26.18,14.65,14.65,0,0,0-17,11.87L88.63,362.27a26.37,26.37,0,0,0,.9,12.81l8.27,25.33a.22.22,0,0,1-.14.28Z" transform="translate(-19.07 -16.05)"/><path class="cls-10" d="M134.71,416.54a.23.23,0,0,1-.21-.15l-16.7-50.75a.34.34,0,0,1,0-.1l9-50.61a.23.23,0,0,1,.26-.18.23.23,0,0,1,.18.26l-9,50.55,16.68,50.69a.23.23,0,0,1-.14.28Z" transform="translate(-19.07 -16.05)"/><path class="cls-10" d="M130.12,297.84h0a.23.23,0,0,1-.18-.26,14.67,14.67,0,0,0-2.74-11.42.22.22,0,0,1,0-.31.23.23,0,0,1,.31,0,15.12,15.12,0,0,1,2.83,11.77A.22.22,0,0,1,130.12,297.84Z" transform="translate(-19.07 -16.05)"/><path class="cls-10" d="M120.17,372.36a.23.23,0,0,1-.21-.15l-5.92-18a.22.22,0,0,1,.42-.14l5.92,18a.22.22,0,0,1-.14.28Z" transform="translate(-19.07 -16.05)"/><path class="cls-26" d="M132.84,339.3a8.89,8.89,0,0,0,6-5.49c4-10.71,7.78-21.49,10.42-32.63,1.78-7.53,3-15.49,1.12-23-1.67-6.71-6.38-13-12.61-14.9a6.55,6.55,0,0,0-3.92,0l-7.55,2.36a6.58,6.58,0,0,0-4.3,4.23h0c7.34.93,13,7.54,14.88,14.71s.65,14.76-1.13,22a254.91,254.91,0,0,1-10.1,30.33,2.66,2.66,0,0,0,3.18,3.53Z" transform="translate(-19.07 -16.05)"/><polygon class="cls-27" points="116.97 314.98 101.32 356.96 98.94 349.52 111.75 316.1 116.97 314.98"/></g></g></svg>