<svg id="Layer_1" data-name="Layer 1" xmlns="http://www.w3.org/2000/svg" viewBox="0 0 750 221.84"><defs><style>.cls-1{fill:#b6e1ff;}.cls-16,.cls-17,.cls-18,.cls-19,.cls-2,.cls-3,.cls-6{isolation:isolate;}.cls-2{font-size:21.88px;font-family:THCharmofAU, TH Charm of AU;}.cls-3{fill:#482849;opacity:0.2;}.cls-16,.cls-18,.cls-19,.cls-4{fill:#fff;}.cls-5{fill:#e35c68;}.cls-6{fill:#d32849;opacity:0.1;}.cls-7{fill:#51455f;}.cls-8{fill:#ffa6d7;}.cls-9{fill:#ffdc89;}.cls-10{fill:#d3effe;}.cls-11{fill:#e9f7ff;}.cls-12{fill:#317979;}.cls-13{fill:#478c87;}.cls-14{fill:#b28457;}.cls-15{fill:#72bca3;}.cls-16{font-size:62.79px;}.cls-16,.cls-18,.cls-19{font-family:THBaijam-Bold, TH Baijam;font-weight:700;}.cls-18,.cls-19{font-size:40.33px;}.cls-19{letter-spacing:-0.01em;}</style></defs><g id="BACKGROUND"><rect class="cls-1" y="2.75" width="750" height="219.09"/><text class="cls-2" transform="translate(341.04 88.24) scale(1.65 1)">sdf</text><text class="cls-2" transform="translate(372.79 84.98) scale(1.65 1)">Lorem ipsum</text></g><g id="OBJECTS"><polygon class="cls-3" points="212.36 91.45 157.5 88.45 156.47 43.3 213.67 43.3 212.36 91.45"/><rect class="cls-4" x="156.48" y="41.58" width="57.2" height="47.47"/><rect class="cls-5" x="156.48" y="41.58" width="57.2" height="8.04"/><rect class="cls-3" x="156.48" y="48.1" width="57.2" height="1.52"/><rect class="cls-3" x="160.17" y="53.3" width="4.76" height="3.43"/><rect class="cls-3" x="167.68" y="53.3" width="4.76" height="3.43"/><rect class="cls-3" x="175.19" y="53.3" width="4.76" height="3.43"/><rect class="cls-3" x="182.69" y="53.3" width="4.76" height="3.43"/><rect class="cls-3" x="190.2" y="53.3" width="4.76" height="3.43"/><rect class="cls-6" x="197.71" y="53.3" width="4.76" height="3.43"/><rect class="cls-6" x="205.22" y="53.3" width="4.76" height="3.43"/><rect class="cls-3" x="160.17" y="59.31" width="4.76" height="3.43"/><rect class="cls-3" x="167.68" y="59.31" width="4.76" height="3.43"/><rect class="cls-3" x="175.19" y="59.31" width="4.76" height="3.43"/><rect class="cls-3" x="182.69" y="59.31" width="4.76" height="3.43"/><rect class="cls-3" x="190.2" y="59.31" width="4.76" height="3.43"/><rect class="cls-6" x="197.71" y="59.31" width="4.76" height="3.43"/><rect class="cls-6" x="205.22" y="59.31" width="4.76" height="3.43"/><rect class="cls-3" x="160.17" y="65.32" width="4.76" height="3.43"/><rect class="cls-3" x="167.68" y="65.32" width="4.76" height="3.43"/><rect class="cls-3" x="175.19" y="65.32" width="4.76" height="3.43"/><rect class="cls-3" x="182.69" y="65.32" width="4.76" height="3.43"/><rect class="cls-3" x="190.2" y="65.32" width="4.76" height="3.43"/><rect class="cls-6" x="197.71" y="65.32" width="4.76" height="3.43"/><rect class="cls-6" x="205.22" y="65.32" width="4.76" height="3.43"/><path class="cls-4" d="M188.61,41.72c0-1.41-1.58-2.55-3.54-2.55s-3.53,1.14-3.53,2.55,1.58,2.55,3.53,2.55S188.61,43.14,188.61,41.72Z" transform="translate(0 -0.14)"/><rect class="cls-3" x="160.17" y="71.33" width="4.76" height="3.43"/><rect class="cls-3" x="167.68" y="71.33" width="4.76" height="3.43"/><rect class="cls-3" x="175.19" y="71.33" width="4.76" height="3.43"/><rect class="cls-3" x="182.69" y="71.33" width="4.76" height="3.43"/><rect class="cls-3" x="190.2" y="71.33" width="4.76" height="3.43"/><rect class="cls-6" x="197.71" y="71.33" width="4.76" height="3.43"/><rect class="cls-6" x="205.22" y="71.33" width="4.76" height="3.43"/><rect class="cls-4" x="536.87" y="48.95" width="34.44" height="63.01"/><rect class="cls-7" x="541.94" y="52.25" width="24.31" height="56.41"/><polygon class="cls-8" points="559.19 66.27 548.36 64 551.54 56.15 562.36 58.42 559.19 66.27"/><polygon class="cls-4" points="560.65 101.17 549.38 101.35 549.13 93.17 560.4 93 560.65 101.17"/><polygon class="cls-9" points="562 76.74 550.74 76.61 550.93 68.43 562.2 68.56 562 76.74"/><polygon class="cls-9" points="559.14 88.69 548.03 90.05 546.13 81.99 557.24 80.62 559.14 88.69"/><ellipse class="cls-3" cx="63.09" cy="49.66" rx="31.73" ry="22.87"/><ellipse class="cls-4" cx="63.09" cy="48.12" rx="31.73" ry="22.87"/><ellipse class="cls-7" cx="63.09" cy="48.12" rx="27.01" ry="19.47"/><path class="cls-4" d="M66.63,48.26c0,1.41-1.59,2.55-3.54,2.55s-3.55-1.14-3.55-2.55,1.59-2.55,3.55-2.55S66.63,46.85,66.63,48.26Z" transform="translate(0 -0.14)"/><path class="cls-4" d="M69.93,57.72a1.65,1.65,0,0,1-1.29-.58l-6.54-8L44.91,45.59c-.8-.17-1.26-.77-1-1.34a1.66,1.66,0,0,1,1.86-.74l18.31,3.83,7.14,8.8c.42.51.18,1.17-.53,1.48A1.94,1.94,0,0,1,69.93,57.72Z" transform="translate(0 -0.14)"/><path class="cls-3" d="M64.63,32.56c0-.61-.69-1.11-1.54-1.11s-1.55.5-1.55,1.11.69,1.11,1.55,1.11S64.63,33.14,64.63,32.56Z" transform="translate(0 -0.14)"/><path class="cls-3" d="M64.63,64.61c0-.61-.69-1.11-1.54-1.11s-1.55.5-1.55,1.11.69,1.11,1.55,1.11S64.63,65.22,64.63,64.61Z" transform="translate(0 -0.14)"/><path class="cls-3" d="M85.32,49.69c.85,0,1.54-.49,1.54-1.11s-.69-1.11-1.54-1.11-1.54.5-1.54,1.11S84.47,49.69,85.32,49.69Z" transform="translate(0 -0.14)"/><path class="cls-3" d="M40.85,49.69c.85,0,1.54-.49,1.54-1.11s-.69-1.11-1.54-1.11-1.54.5-1.54,1.11S40,49.69,40.85,49.69Z" transform="translate(0 -0.14)"/><path class="cls-3" d="M76.07,35.53c.45-.52.22-1.21-.5-1.53a1.93,1.93,0,0,0-2.12.36c-.45.52-.22,1.21.5,1.53A1.93,1.93,0,0,0,76.07,35.53Z" transform="translate(0 -0.14)"/><path class="cls-3" d="M52.72,62.81c.45-.53.23-1.21-.5-1.53a1.93,1.93,0,0,0-2.12.36c-.45.52-.22,1.21.5,1.53A1.93,1.93,0,0,0,52.72,62.81Z" transform="translate(0 -0.14)"/><path class="cls-3" d="M81.2,57.94a1.91,1.91,0,0,0,2.12-.36c.45-.52.22-1.21-.5-1.53a1.93,1.93,0,0,0-2.12.36C80.25,56.94,80.48,57.62,81.2,57.94Z" transform="translate(0 -0.14)"/><path class="cls-3" d="M43.35,41.14a1.89,1.89,0,0,0,2.12-.37c.45-.52.23-1.2-.5-1.52a1.91,1.91,0,0,0-2.12.36C42.4,40.14,42.63,40.79,43.35,41.14Z" transform="translate(0 -0.14)"/><path class="cls-3" d="M82.84,41.14c.73-.32,1-1,.51-1.53a1.91,1.91,0,0,0-2.12-.36c-.73.32-1,1-.51,1.52A1.91,1.91,0,0,0,82.84,41.14Z" transform="translate(0 -0.14)"/><path class="cls-3" d="M44.94,57.91c.73-.32,1-1,.51-1.52A1.91,1.91,0,0,0,43.33,56c-.73.32-.95,1-.51,1.53A1.93,1.93,0,0,0,44.94,57.91Z" transform="translate(0 -0.14)"/><path class="cls-3" d="M73.4,62.82a1.91,1.91,0,0,0,2.12.37c.73-.32,1-1,.51-1.53a1.89,1.89,0,0,0-2.12-.36A1,1,0,0,0,73.4,62.82Z" transform="translate(0 -0.14)"/><path class="cls-3" d="M50.14,35.51a1.93,1.93,0,0,0,2.12.36c.73-.32,1-1,.51-1.52A1.91,1.91,0,0,0,50.65,34C49.92,34.3,49.7,35,50.14,35.51Z" transform="translate(0 -0.14)"/><rect class="cls-10" x="560.75" y="183.25" width="17.54" height="12.64"/><rect class="cls-11" x="564.33" y="184.7" width="10.37" height="9.73"/><path class="cls-3" d="M570.87,187.91c0,.54-.61,1-1.35,1s-1.36-.44-1.36-1,.61-1,1.36-1S570.87,187.38,570.87,187.91Z" transform="translate(0 -0.14)"/><path class="cls-3" d="M570.87,191.84c0,.53-.61,1-1.35,1s-1.36-.44-1.36-1,.61-1,1.36-1S570.87,191.3,570.87,191.84Z" transform="translate(0 -0.14)"/><rect class="cls-10" x="28.54" y="183.25" width="17.54" height="12.64"/><rect class="cls-11" x="32.13" y="184.7" width="10.37" height="9.73"/><path class="cls-3" d="M38.67,187.91c0,.54-.61,1-1.36,1s-1.35-.44-1.35-1,.6-1,1.35-1S38.67,187.38,38.67,187.91Z" transform="translate(0 -0.14)"/><path class="cls-3" d="M38.67,191.84c0,.53-.61,1-1.36,1s-1.35-.44-1.35-1,.6-1,1.35-1S38.67,191.3,38.67,191.84Z" transform="translate(0 -0.14)"/><rect class="cls-10" y="203.6" width="750" height="18.24"/><rect class="cls-10" width="750" height="14.48"/><rect class="cls-4" x="236.13" y="39.38" width="291.31" height="147.41"/><rect class="cls-12" x="242.11" y="45.58" width="279.33" height="135.02"/><rect class="cls-13" x="245.72" y="48.79" width="272.13" height="128.6"/><path class="cls-12" d="M517.85,48.93v128.6H477.69a333.56,333.56,0,0,0-19.15-31.65c-29-42.17-70-75.66-116.5-97Z" transform="translate(0 -0.14)"/><rect class="cls-3" x="230.81" y="189.59" width="299.95" height="9.29"/><path class="cls-14" d="M533,192.93H229.41a3.21,3.21,0,0,1-3.21-3.2h0a3.21,3.21,0,0,1,3.21-3.21H533a3.21,3.21,0,0,1,3.21,3.21h0A3.21,3.21,0,0,1,533,192.93Z" transform="translate(0 -0.14)"/><path class="cls-14" d="M490.42,175.59H510.3a2.77,2.77,0,0,1,2.77,2.77h0v8.16H487.65v-8.16a2.77,2.77,0,0,1,2.77-2.77Z" transform="translate(0 -0.14)"/><path class="cls-7" d="M514.32,186.52H486.4a1.68,1.68,0,0,1-1.68-1.68h0a1.68,1.68,0,0,1,1.66-1.7h27.94a1.68,1.68,0,0,1,1.68,1.68v0h0a1.68,1.68,0,0,1-1.68,1.68Z" transform="translate(0 -0.14)"/><path class="cls-15" d="M425.53,180.74H467V151ZM460.64,175H442.13l18.51-13.32Z" transform="translate(0 -0.14)"/><text class="cls-16" transform="translate(263.11 104.5) scale(0.81 1)">ห้องรวมนักเรียน</text><g class="cls-17"><text class="cls-18" transform="translate(284.49 151.16) scale(0.94 1)">SKJ Class</text><text class="cls-19" transform="translate(423.8 151.16) scale(0.94 1)">r</text><text class="cls-18" transform="translate(433.12 151.16) scale(0.94 1)">oom</text></g></g></svg>