<svg xmlns="http://www.w3.org/2000/svg" viewBox="0 0 750 360.5"><defs><style>.cls-1{isolation:isolate;}.cls-2{fill:#b6e1ff;}.cls-3{font-size:36px;font-family:THCharmofAU, TH Charm of AU;}.cls-4{fill:#482849;opacity:0.2;}.cls-4,.cls-7{mix-blend-mode:multiply;}.cls-18,.cls-19,.cls-5{fill:#fff;}.cls-6{fill:#e35c68;}.cls-7{fill:#d32849;opacity:0.1;}.cls-8{fill:#51455f;}.cls-9{fill:#ffa6d7;}.cls-10{fill:#ffdc89;}.cls-11{fill:#d3effe;}.cls-12{fill:#e9f7ff;}.cls-13{fill:#97c9fc;}.cls-14{fill:#317979;}.cls-15{fill:#478c87;}.cls-16{fill:#b28457;}.cls-17{fill:#72bca3;}.cls-18{font-size:62.79px;}.cls-18,.cls-19{font-family:THBaijam-Bold, TH Baijam;font-weight:700;}.cls-19{font-size:40.33px;}.cls-20{letter-spacing:-0.01em;}</style></defs><g class="cls-1"><g id="BACKGROUND"><rect class="cls-2" width="750" height="360.5"/><text class="cls-3" transform="translate(341.04 140.67)">sdf</text><text class="cls-3" transform="translate(372.79 135.31)">Lorem ipsum</text></g><g id="OBJECTS"><polygon class="cls-4" points="212.36 91.59 157.5 88.59 156.47 43.44 213.67 43.44 212.36 91.59"/><rect class="cls-5" x="156.48" y="41.72" width="57.2" height="47.47"/><rect class="cls-6" x="156.48" y="41.72" width="57.2" height="8.04"/><rect class="cls-4" x="156.48" y="48.24" width="57.2" height="1.52"/><rect class="cls-4" x="160.17" y="53.44" width="4.76" height="3.43"/><rect class="cls-4" x="167.68" y="53.44" width="4.76" height="3.43"/><rect class="cls-4" x="175.19" y="53.44" width="4.76" height="3.43"/><rect class="cls-4" x="182.69" y="53.44" width="4.76" height="3.43"/><rect class="cls-4" x="190.2" y="53.44" width="4.76" height="3.43"/><rect class="cls-7" x="197.71" y="53.44" width="4.76" height="3.43"/><rect class="cls-7" x="205.22" y="53.44" width="4.76" height="3.43"/><rect class="cls-4" x="160.17" y="59.45" width="4.76" height="3.43"/><rect class="cls-4" x="167.68" y="59.45" width="4.76" height="3.43"/><rect class="cls-4" x="175.19" y="59.45" width="4.76" height="3.43"/><rect class="cls-4" x="182.69" y="59.45" width="4.76" height="3.43"/><rect class="cls-4" x="190.2" y="59.45" width="4.76" height="3.43"/><rect class="cls-7" x="197.71" y="59.45" width="4.76" height="3.43"/><rect class="cls-7" x="205.22" y="59.45" width="4.76" height="3.43"/><rect class="cls-4" x="160.17" y="65.46" width="4.76" height="3.43"/><rect class="cls-4" x="167.68" y="65.46" width="4.76" height="3.43"/><rect class="cls-4" x="175.19" y="65.46" width="4.76" height="3.43"/><rect class="cls-4" x="182.69" y="65.46" width="4.76" height="3.43"/><rect class="cls-4" x="190.2" y="65.46" width="4.76" height="3.43"/><rect class="cls-7" x="197.71" y="65.46" width="4.76" height="3.43"/><rect class="cls-7" x="205.22" y="65.46" width="4.76" height="3.43"/><path class="cls-5" d="M188.61,41.58c0-1.41-1.58-2.55-3.54-2.55s-3.53,1.14-3.53,2.55,1.58,2.55,3.53,2.55S188.61,43,188.61,41.58Z" transform="translate(0 0.14)"/><rect class="cls-4" x="160.17" y="71.47" width="4.76" height="3.43"/><rect class="cls-4" x="167.68" y="71.47" width="4.76" height="3.43"/><rect class="cls-4" x="175.19" y="71.47" width="4.76" height="3.43"/><rect class="cls-4" x="182.69" y="71.47" width="4.76" height="3.43"/><rect class="cls-4" x="190.2" y="71.47" width="4.76" height="3.43"/><rect class="cls-7" x="197.71" y="71.47" width="4.76" height="3.43"/><rect class="cls-7" x="205.22" y="71.47" width="4.76" height="3.43"/><rect class="cls-5" x="536.87" y="49.09" width="34.44" height="63.01"/><rect class="cls-8" x="541.94" y="52.39" width="24.31" height="56.41"/><polygon class="cls-9" points="559.19 66.41 548.36 64.14 551.54 56.29 562.36 58.56 559.19 66.41"/><polygon class="cls-5" points="560.65 101.31 549.38 101.49 549.13 93.31 560.4 93.14 560.65 101.31"/><polygon class="cls-10" points="562 76.88 550.74 76.75 550.93 68.57 562.2 68.7 562 76.88"/><polygon class="cls-10" points="559.14 88.83 548.03 90.19 546.13 82.13 557.24 80.76 559.14 88.83"/><ellipse class="cls-4" cx="63.09" cy="49.8" rx="31.73" ry="22.87"/><ellipse class="cls-5" cx="63.09" cy="48.26" rx="31.73" ry="22.87"/><ellipse class="cls-8" cx="63.09" cy="48.26" rx="27.01" ry="19.47"/><path class="cls-5" d="M66.63,48.12c0,1.41-1.59,2.55-3.54,2.55s-3.55-1.14-3.55-2.55,1.59-2.55,3.55-2.55S66.63,46.71,66.63,48.12Z" transform="translate(0 0.14)"/><path class="cls-5" d="M69.93,57.58A1.66,1.66,0,0,1,68.64,57L62.1,49,44.91,45.45c-.8-.17-1.26-.77-1-1.34a1.66,1.66,0,0,1,1.86-.74L64.08,47.2,71.22,56c.42.51.18,1.17-.53,1.48A2,2,0,0,1,69.93,57.58Z" transform="translate(0 0.14)"/><path class="cls-4" d="M64.63,32.42c0-.61-.69-1.11-1.54-1.11s-1.55.5-1.55,1.11.69,1.11,1.55,1.11S64.63,33,64.63,32.42Z" transform="translate(0 0.14)"/><path class="cls-4" d="M64.63,64.47c0-.61-.69-1.11-1.54-1.11s-1.55.5-1.55,1.11.69,1.11,1.55,1.11S64.63,65.08,64.63,64.47Z" transform="translate(0 0.14)"/><path class="cls-4" d="M85.32,49.55c.85,0,1.54-.49,1.54-1.11s-.69-1.11-1.54-1.11-1.54.5-1.54,1.11S84.47,49.55,85.32,49.55Z" transform="translate(0 0.14)"/><path class="cls-4" d="M40.85,49.55c.85,0,1.54-.49,1.54-1.11s-.69-1.11-1.54-1.11-1.54.5-1.54,1.11S40,49.55,40.85,49.55Z" transform="translate(0 0.14)"/><path class="cls-4" d="M76.07,35.39c.45-.52.22-1.21-.5-1.53a1.92,1.92,0,0,0-2.12.36c-.45.52-.22,1.21.5,1.53A1.93,1.93,0,0,0,76.07,35.39Z" transform="translate(0 0.14)"/><path class="cls-4" d="M52.72,62.67c.45-.53.23-1.21-.5-1.53a1.93,1.93,0,0,0-2.12.36c-.45.52-.22,1.21.5,1.53A1.92,1.92,0,0,0,52.72,62.67Z" transform="translate(0 0.14)"/><path class="cls-4" d="M81.2,57.8a1.91,1.91,0,0,0,2.12-.36c.45-.52.22-1.21-.5-1.53a1.92,1.92,0,0,0-2.12.36C80.25,56.8,80.48,57.48,81.2,57.8Z" transform="translate(0 0.14)"/><path class="cls-4" d="M43.35,41a1.9,1.9,0,0,0,2.12-.37c.45-.52.23-1.2-.5-1.52a1.91,1.91,0,0,0-2.12.36C42.4,40,42.63,40.65,43.35,41Z" transform="translate(0 0.14)"/><path class="cls-4" d="M82.84,41c.73-.32,1-1,.51-1.53a1.91,1.91,0,0,0-2.12-.36c-.73.32-1,1-.51,1.52A1.91,1.91,0,0,0,82.84,41Z" transform="translate(0 0.14)"/><path class="cls-4" d="M44.94,57.77c.73-.32,1-1,.51-1.52a1.91,1.91,0,0,0-2.12-.37c-.73.32-.95,1-.51,1.53A1.93,1.93,0,0,0,44.94,57.77Z" transform="translate(0 0.14)"/><path class="cls-4" d="M73.4,62.68a1.91,1.91,0,0,0,2.12.37c.73-.32,1-1,.51-1.53a1.9,1.9,0,0,0-2.12-.36C73.19,61.48,73,62.16,73.4,62.68Z" transform="translate(0 0.14)"/><path class="cls-4" d="M50.14,35.37a1.93,1.93,0,0,0,2.12.36c.73-.32,1-1,.51-1.52a1.91,1.91,0,0,0-2.12-.37C49.92,34.16,49.7,34.84,50.14,35.37Z" transform="translate(0 0.14)"/><rect class="cls-11" x="560.75" y="183.39" width="17.54" height="12.64"/><rect class="cls-12" x="564.33" y="184.84" width="10.37" height="9.73"/><path class="cls-4" d="M570.87,187.77c0,.54-.61,1-1.35,1s-1.36-.44-1.36-1,.61-1,1.36-1S570.87,187.24,570.87,187.77Z" transform="translate(0 0.14)"/><path class="cls-4" d="M570.87,191.7c0,.53-.61,1-1.35,1s-1.36-.44-1.36-1,.61-1,1.36-1S570.87,191.16,570.87,191.7Z" transform="translate(0 0.14)"/><rect class="cls-11" x="28.54" y="183.39" width="17.54" height="12.64"/><rect class="cls-12" x="32.13" y="184.84" width="10.37" height="9.73"/><path class="cls-4" d="M38.67,187.77c0,.54-.61,1-1.36,1s-1.35-.44-1.35-1,.6-1,1.35-1S38.67,187.24,38.67,187.77Z" transform="translate(0 0.14)"/><path class="cls-4" d="M38.67,191.7c0,.53-.61,1-1.36,1s-1.35-.44-1.35-1,.6-1,1.35-1S38.67,191.16,38.67,191.7Z" transform="translate(0 0.14)"/><rect class="cls-11" y="203.74" width="750" height="18.24"/><rect class="cls-13" y="210.22" width="750" height="150.28"/><rect class="cls-11" y="0.14" width="750" height="14.48"/><rect class="cls-5" x="236.13" y="39.52" width="291.31" height="147.41"/><rect class="cls-14" x="242.11" y="45.72" width="279.33" height="135.02"/><rect class="cls-15" x="245.72" y="48.93" width="272.13" height="128.6"/><path class="cls-14" d="M517.85,48.79v128.6H477.69a334.38,334.38,0,0,0-19.15-31.65c-29-42.17-70-75.66-116.5-97Z" transform="translate(0 0.14)"/><rect class="cls-4" x="230.81" y="189.73" width="299.95" height="9.29"/><path class="cls-16" d="M533,192.79H229.41a3.21,3.21,0,0,1-3.21-3.2h0a3.21,3.21,0,0,1,3.21-3.21H533a3.21,3.21,0,0,1,3.21,3.21h0A3.21,3.21,0,0,1,533,192.79Z" transform="translate(0 0.14)"/><path class="cls-16" d="M490.42,175.59H510.3a2.77,2.77,0,0,1,2.77,2.77v8.16a0,0,0,0,1,0,0H487.65a0,0,0,0,1,0,0v-8.16A2.77,2.77,0,0,1,490.42,175.59Z"/><path class="cls-8" d="M514.32,186.38H486.4a1.68,1.68,0,0,1-1.68-1.68h0A1.68,1.68,0,0,1,486.4,183h27.92A1.68,1.68,0,0,1,516,184.7h0A1.68,1.68,0,0,1,514.32,186.38Z" transform="translate(0 0.14)"/><path class="cls-17" d="M425.53,180.6H467V150.81Zm35.11-5.73H442.13l18.51-13.32Z" transform="translate(0 0.14)"/><text class="cls-18" transform="translate(263.11 104.64) scale(0.81 1)">ห้องรวมนักเรียน</text><text class="cls-19" transform="translate(284.49 151.3) scale(0.94 1)">SKJ Class<tspan class="cls-20" x="148.2" y="0">r</tspan><tspan x="158.12" y="0">oom </tspan></text></g></g></svg>