<svg xmlns="http://www.w3.org/2000/svg" xmlns:xlink="http://www.w3.org/1999/xlink" viewBox="0 0 2199.01 1464.03"><defs><style>.cls-1{mask:url(#mask);}.cls-2,.cls-4{mix-blend-mode:multiply;}.cls-2{fill:url(#linear-gradient);}.cls-3{isolation:isolate;}.cls-4{fill:#e8e8e8;}.cls-5{fill:#fff;}.cls-6{fill:#00ade2;}.cls-7{fill:#c4c2c0;}.cls-13,.cls-16,.cls-17,.cls-18,.cls-21,.cls-22,.cls-23,.cls-24,.cls-26,.cls-28,.cls-29,.cls-30,.cls-31,.cls-32,.cls-33,.cls-35,.cls-40,.cls-41,.cls-42,.cls-43,.cls-44,.cls-45,.cls-46,.cls-49,.cls-7{mix-blend-mode:color-burn;}.cls-8{fill:#0f1b29;}.cls-9{fill:#f4aa74;}.cls-10{fill:url(#linear-gradient-2);}.cls-11{fill:url(#linear-gradient-3);}.cls-12{fill:#127fb5;}.cls-13{fill:url(#linear-gradient-4);}.cls-14{fill:#101b29;}.cls-15{fill:#0b3d59;}.cls-16{fill:url(#linear-gradient-5);}.cls-17{fill:url(#linear-gradient-6);}.cls-18{fill:url(#linear-gradient-7);}.cls-19{fill:#082947;}.cls-20,.cls-49{fill:#cecece;}.cls-21{fill:url(#linear-gradient-8);}.cls-22{fill:url(#linear-gradient-9);}.cls-23{fill:url(#linear-gradient-10);}.cls-24{fill:url(#linear-gradient-11);}.cls-25{fill:#f5f5f5;}.cls-26{fill:url(#linear-gradient-12);}.cls-27{fill:#e8512e;}.cls-28{fill:url(#linear-gradient-13);}.cls-29{fill:url(#linear-gradient-14);}.cls-30{fill:#d6d6d6;}.cls-31{fill:url(#linear-gradient-15);}.cls-32{fill:url(#linear-gradient-16);}.cls-34{fill:url(#linear-gradient-17);}.cls-35{fill:url(#linear-gradient-18);}.cls-36{fill:url(#linear-gradient-19);}.cls-37{fill:#111c29;}.cls-38{fill:#f2a874;}.cls-39{fill:url(#linear-gradient-20);}.cls-40{fill:url(#linear-gradient-21);}.cls-41{fill:url(#linear-gradient-22);}.cls-42{fill:url(#linear-gradient-23);}.cls-43{fill:url(#linear-gradient-24);}.cls-44{fill:url(#linear-gradient-25);}.cls-45{fill:url(#linear-gradient-26);}.cls-46{fill:url(#linear-gradient-27);}.cls-47{fill:#1baacc;}.cls-48{fill:#37ccef;}.cls-50{mask:url(#mask-2);}.cls-51{fill:url(#linear-gradient-28);}.cls-52{filter:url(#luminosity-noclip-2);}.cls-53{filter:url(#luminosity-noclip);}</style><filter id="luminosity-noclip" x="722.02" y="-9082.14" width="150.96" height="32766" filterUnits="userSpaceOnUse" color-interpolation-filters="sRGB"><feFlood flood-color="#fff" result="bg"/><feBlend in="SourceGraphic" in2="bg"/></filter><mask id="mask" x="722.02" y="-9082.14" width="150.96" height="32766" maskUnits="userSpaceOnUse"><g class="cls-53"/></mask><linearGradient id="linear-gradient" x1="-7849.44" y1="274.12" x2="-7849.44" y2="2105.74" gradientTransform="matrix(-1, 0, 0, 1, -7051.95, 0)" gradientUnits="userSpaceOnUse"><stop offset="0" stop-color="gray"/><stop offset="1" stop-color="#1a1a1a"/></linearGradient><linearGradient id="linear-gradient-2" x1="413.01" y1="990.18" x2="413.01" y2="1541.1" gradientUnits="userSpaceOnUse"><stop offset="0" stop-color="#0f1e2d"/><stop offset="1" stop-color="#0b3d59"/></linearGradient><linearGradient id="linear-gradient-3" x1="409.35" y1="987.05" x2="409.35" y2="1548.68" xlink:href="#linear-gradient-2"/><linearGradient id="linear-gradient-4" x1="413.01" y1="993.56" x2="413.01" y2="1519.4" gradientUnits="userSpaceOnUse"><stop offset="0" stop-color="#fff"/><stop offset="0.99" stop-color="#ccc"/></linearGradient><linearGradient id="linear-gradient-5" x1="164.09" y1="1552.64" x2="352.12" y2="926.42" xlink:href="#linear-gradient-4"/><linearGradient id="linear-gradient-6" x1="763.94" y1="959.33" x2="333.94" y2="740.44" xlink:href="#linear-gradient-4"/><linearGradient id="linear-gradient-7" x1="362.32" y1="732.18" x2="362.32" y2="1046.75" xlink:href="#linear-gradient-4"/><linearGradient id="linear-gradient-8" x1="21073.48" y1="898.29" x2="21005.77" y2="1121.74" gradientTransform="translate(-20721.3)" gradientUnits="userSpaceOnUse"><stop offset="0" stop-color="#fff"/><stop offset="0.99" stop-color="#aeaeae"/></linearGradient><linearGradient id="linear-gradient-9" x1="11557.25" y1="951.88" x2="11557.25" y2="1066" gradientTransform="translate(-11153.59)" gradientUnits="userSpaceOnUse"><stop offset="0" stop-color="#fff"/><stop offset="1" stop-color="#aaa"/></linearGradient><linearGradient id="linear-gradient-10" x1="371.53" y1="744.81" x2="175.89" y2="885.16" xlink:href="#linear-gradient-4"/><linearGradient id="linear-gradient-11" x1="352.28" y1="1031.68" x2="167.84" y2="903.8" xlink:href="#linear-gradient-4"/><linearGradient id="linear-gradient-12" x1="1008.38" y1="1853.69" x2="1030.37" y2="1437.48" gradientTransform="matrix(1, 0, 0, 1, -72.6, -403.09)" xlink:href="#linear-gradient-8"/><linearGradient id="linear-gradient-13" x1="687.77" y1="1436.78" x2="968.1" y2="1436.78" gradientTransform="matrix(1, 0, 0, 1, -72.6, -403.09)" xlink:href="#linear-gradient-8"/><linearGradient id="linear-gradient-14" x1="1551.17" y1="1437.05" x2="1269.91" y2="1437.05" gradientTransform="matrix(1, 0, 0, 1, -72.6, -403.09)" xlink:href="#linear-gradient-8"/><linearGradient id="linear-gradient-15" x1="1057.66" y1="1436.91" x2="881.54" y2="1436.91" gradientTransform="matrix(1, 0, 0, 1, -72.6, -403.09)" xlink:href="#linear-gradient-8"/><linearGradient id="linear-gradient-16" x1="1203.07" y1="1437.04" x2="1524" y2="1437.04" gradientTransform="matrix(1, 0, 0, 1, -72.6, -403.09)" xlink:href="#linear-gradient-8"/><linearGradient id="linear-gradient-17" x1="1414.53" y1="1236.59" x2="1414.53" y2="2388.09" gradientTransform="matrix(1, 0, 0, 1, -72.6, -403.09)" xlink:href="#linear-gradient-8"/><linearGradient id="linear-gradient-18" x1="797.96" y1="1437" x2="1743.84" y2="1437" gradientTransform="matrix(1, 0, 0, 1, -72.6, -403.09)" xlink:href="#linear-gradient-8"/><linearGradient id="linear-gradient-19" x1="522.81" y1="3291.08" x2="947.9" y2="3732.34" gradientTransform="translate(2755.43 -2594.27) rotate(41.31)" xlink:href="#linear-gradient-2"/><linearGradient id="linear-gradient-20" x1="335.46" y1="2491.05" x2="769.31" y2="2941.41" gradientTransform="translate(1889.91 -2101.68) rotate(29.5)" xlink:href="#linear-gradient-2"/><linearGradient id="linear-gradient-21" x1="1073.11" y1="921.47" x2="915.14" y2="321.51" xlink:href="#linear-gradient-4"/><linearGradient id="linear-gradient-22" x1="792.88" y1="864.07" x2="885.37" y2="257.03" xlink:href="#linear-gradient-4"/><linearGradient id="linear-gradient-23" x1="1225.12" y1="181.8" x2="843.28" y2="358.92" xlink:href="#linear-gradient-4"/><linearGradient id="linear-gradient-24" x1="928.12" y1="220.51" x2="931.5" y2="571.94" xlink:href="#linear-gradient-4"/><linearGradient id="linear-gradient-25" x1="6190.3" y1="-1503.05" x2="6306.38" y2="-1503.05" gradientTransform="matrix(-1, 0, 0, 1, 7246.83, 1581.69)" gradientUnits="userSpaceOnUse"><stop offset="0" stop-color="#9a9a9a"/><stop offset="0.16" stop-color="#a2a2a2"/><stop offset="0.4" stop-color="#b8b8b8"/><stop offset="0.69" stop-color="#dbdbdb"/><stop offset="0.95" stop-color="#fff"/></linearGradient><linearGradient id="linear-gradient-26" x1="-5185.37" y1="3876.49" x2="-5484.07" y2="3876.49" gradientTransform="matrix(0.93, 0.37, -0.37, 0.93, 7566.1, -1429.06)" xlink:href="#linear-gradient-25"/><linearGradient id="linear-gradient-27" x1="863.31" y1="254.43" x2="1101.94" y2="254.43" xlink:href="#linear-gradient-4"/><filter id="luminosity-noclip-2" x="722.02" y="1424.91" width="150.96" height="94.31" filterUnits="userSpaceOnUse" color-interpolation-filters="sRGB"><feFlood flood-color="#fff" result="bg"/><feBlend in="SourceGraphic" in2="bg"/></filter><mask id="mask-2" x="597.18" y="1345.26" width="150.96" height="94.31" maskUnits="userSpaceOnUse"><g class="cls-52"><g transform="translate(-124.83 -79.65)"><g class="cls-1"><path class="cls-2" d="M736,1482.09a2.71,2.71,0,0,0,.43,3.54,238.52,238.52,0,0,1,32.8,33.59h6.07a241.76,241.76,0,0,0-36.07-37.61A2.16,2.16,0,0,0,736,1482.09Zm58.71-47.84c-.52-4.54-.78-7.08-.79-7.09a2.34,2.34,0,0,0-2.53-2.23,2.48,2.48,0,0,0-2,2.79s.27,2.58.8,7.16a2.35,2.35,0,0,0,2.57,2.2l.32-.07A2.54,2.54,0,0,0,794.72,1434.25ZM755,1457.83c8.57,11.61,21.89,32.15,34.08,61.39h5.05c-12.64-30.86-26.63-52.49-35.56-64.58a2.16,2.16,0,0,0-3.24-.37A2.71,2.71,0,0,0,755,1457.83Zm-31.83,17.53s1.59,1.07,4.25,3.05a2.13,2.13,0,0,0,1.9.35,2.33,2.33,0,0,0,1.3-1,2.69,2.69,0,0,0-.62-3.52c-2.77-2.06-4.37-3.15-4.44-3.19a2.2,2.2,0,0,0-3.17.85A2.71,2.71,0,0,0,723.12,1475.36Zm2.28,38.38a2.64,2.64,0,0,0,1,3.4s1.3.72,3.51,2.08h5.11a2.65,2.65,0,0,0-.94-3.21c-3.5-2.22-5.55-3.35-5.63-3.4A2.2,2.2,0,0,0,725.4,1513.74Zm26.05-64.37a2.71,2.71,0,0,0,.13-3.58c-2.12-2.53-3.35-3.82-3.4-3.87a2.16,2.16,0,0,0-3.25.09,2.72,2.72,0,0,0,.08,3.58s1.19,1.24,3.19,3.63a2.18,2.18,0,0,0,2.29.73A2.24,2.24,0,0,0,751.45,1449.37Zm101.92,69-.84.87H857a2.67,2.67,0,0,0-.41-.71A2.16,2.16,0,0,0,853.37,1518.35Zm10-6.09a2.15,2.15,0,0,0,3.22.46c3.23-2.73,5.34-4.28,5.35-4.29a2.7,2.7,0,0,0,.64-3.51,2.18,2.18,0,0,0-3.2-.7c-.08.07-2.25,1.66-5.59,4.48A2.73,2.73,0,0,0,863.38,1512.26Zm-71.44-62.65c2.06,16.26,5.64,41.94,10.65,69.61h4.69c-5.09-27.92-8.7-53.93-10.78-70.31a2.36,2.36,0,0,0-2.6-2.16A2.51,2.51,0,0,0,791.94,1449.61Zm39.35,7.11a2.65,2.65,0,0,0,1,3.41,2,2,0,0,0,1.66.19,2.33,2.33,0,0,0,1.44-1.27c1.88-4,3.19-6.19,3.2-6.21a2.7,2.7,0,0,0-.66-3.51,2.18,2.18,0,0,0-3.18.73C834.67,1450.16,833.29,1452.48,831.29,1456.72Zm-5.79,14.09a173.66,173.66,0,0,0-9.83,48.41h4.6a168.49,168.49,0,0,1,9.51-46.56,2.62,2.62,0,0,0-1.3-3.28A2.23,2.23,0,0,0,825.5,1470.81Z"/></g></g></g></mask><linearGradient id="linear-gradient-28" x1="-7849.44" y1="274.12" x2="-7849.44" y2="2105.74" gradientTransform="matrix(-1, 0, 0, 1, -7051.95, 0)" gradientUnits="userSpaceOnUse"><stop offset="0" stop-color="#fff"/><stop offset="1" stop-color="#fff"/></linearGradient></defs><g class="cls-3"><g id="Layer_1" data-name="Layer 1"><path class="cls-4" d="M1989.69,1518.45c0-13-9.69-23.7-21.53-23.7H146.36c-11.84,0-21.53,10.67-21.53,23.7V1520c0,13,9.69,23.69,21.53,23.69h1821.8c11.84,0,21.53-10.66,21.53-23.69Z" transform="translate(-124.83 -79.65)"/><path class="cls-5" d="M1057.55,1504.2c-5-6.76-8-12-7.41-19.23.63-7.48,5.3-20.11,29.51-20.11,2.39,0,5,.08,7.74.29a157.79,157.79,0,0,1,37.12,7.38c6.07,1.91,10.87,2.94,14.44,2.94h0c2,0,5.65.44,13.4-8.42a108.43,108.43,0,0,0,7.65-9.5,215.51,215.51,0,0,1-24.42,5.4,67.92,67.92,0,0,1-9.88.81c-17.7,0-30.11-7.9-32.39-20.66-.77-4.29-1.73-19,18.14-27.95,10.24-4.61,23-6.18,34.19-7.57,4.5-.56,10.56-1.3,14.83-2.22-.69-1.91-1.5-4-2.2-5.8-4.88-12.52-12.25-31.44-8.06-53.91a105.8,105.8,0,0,1,4.66-17.21,117.49,117.49,0,0,1-36.17-7.66c-3.15-1.25-6.16-2.5-9-3.7-8.63-3.59-16.79-7-21.54-7-1.51,0-4,0-7.59,10.7q-1.41,4.26-2.69,8.14c-9,27.19-14.89,45.14-33.26,59.37-5.77,4.48-14.63,9.83-24,9.83a20.91,20.91,0,0,1-18.39-10.51c-5.78-9.79-4.88-23.72,2.73-42.6a185,185,0,0,1,22.2-39.64q-3.45-.2-7.32-.2a149.73,149.73,0,0,0-37.5,4.92c-20.89,5.42-34.69,11.83-42.18,19.61-4.63,4.81-9.15,11.94-7.59,28.38,1,10.4,4.69,24.09,8.27,37.33,8.63,31.94,18.42,68.14-5.93,82.29a25.43,25.43,0,0,1-12.88,3.65c-31.86,0-42.77-61.35-44.29-85-.58-9.05-.6-17.36-.35-24.61-9.27,8.87-19.33,24.59-23.61,51.79-6,38,2.12,63.74,24.82,80.64Z" transform="translate(-124.83 -79.65)"/><path class="cls-6" d="M1116.73,1429.3c19.86-9,56.35-4.71,58.83-16.85s-17.22-34.34-11.74-63.73,19.26-36.61,19.26-36.61-31.51,5.46-59.66-5.7-45.27-22.73-55.89,9.13-14.65,47.69-30.91,60.29-33.13,10.48-19-24.59,37.73-56.35,37.73-56.35-30.73-11.43-76.2.36-63.76,29-60.4,64.44,31.1,92.07,9.66,104.53-35-39.73-36.85-68.92,2.4-49.83,2.4-49.83-43.22,7.7-53.87,75.35c-7.79,49.44,6.55,80.6,34.6,98.4H1159.5c8.5-20.16,9.72-33.53,9.72-33.53s-33.44,31.14-67.23,24.21-57.66-32.82-15.57-29.55,52.06,25.05,75.94-2.25,20.71-43.83,20.71-43.83-24.84,10-49.34,13.66S1096.88,1438.25,1116.73,1429.3Zm-235.26,46.18c-10.49,8.45-33.84-23.58-21.19-31.27C874.29,1435.71,892,1467.05,881.47,1475.48Zm83.54-4.2c8.71,9.8-16.58,34.71-25.8,17.62S954.68,1459.66,965,1471.28Zm20.27-110.2c-3,17.79-24.35,23-25.44,2s12.52-24.68,18.55-25.94C978.39,1337.11,988.34,1343.3,985.28,1361.08ZM985,1432.6c-20.07-.82-14.5-39.84,4-38.52C1006.65,1395.33,1005,1433.45,985,1432.6Zm140.15-55c13.44-10,15.4-2.21,21.1,2.65,7.87,6.72,4.91,16.44-10,17.49S1111.67,1387.61,1125.12,1377.63Zm-43.76,61.53c2,5.47-12,18.86-22.67,11.12s-11.91-17.65,7.25-16.93C1065.94,1433.35,1079.34,1433.69,1081.36,1439.16Zm22.36-84.86c-9.37,13.86-26.88,14-21.29-13.56s18.49-21.34,23.67-18.34l-.5-.06C1115.41,1328.84,1113.08,1340.45,1103.72,1354.3Z" transform="translate(-124.83 -79.65)"/><path class="cls-7" d="M1113.5,1361.46c-9.15,7.88-19.6,17.64-30.59,28.81-5.49,5.58-11.12,11.52-16.81,17.72s-11.47,12.72-17.47,19.14c-12,12.88-24.58,25.8-37.34,37.95s-25.65,23.5-38.06,33.43c-9.79,7.86-19.26,14.8-28,20.71H927.88c2-1.2,4.1-2.44,6.26-3.78,10.38-6.38,22.23-14.38,34.68-23.8s25.52-20.2,38.5-31.8,25.89-24,38.21-36.33c6.17-6.19,12.12-12.39,18-18.45s11.76-11.76,17.46-17.15c11.39-10.78,22.21-20.15,31.64-27.69s17.47-13.25,23.18-17,9.08-5.52,9.08-5.5-3.31,1.9-8.88,5.87S1122.64,1353.57,1113.5,1361.46Z" transform="translate(-124.83 -79.65)"/><path class="cls-8" d="M457.71,1504.89s-49.93-14.14-53.57-15.4c-4-1.39-10.38-3.91-11.15,10.63s-1.24,19.09-1.24,19.09,57.83.14,64.05-.63S466.93,1512.65,457.71,1504.89Z" transform="translate(-124.83 -79.65)"/><path class="cls-9" d="M382.7,1339.15c5.62,41.91,11.07,80.2,13.5,91.72,5.47,26,4.19,65.11,4.19,65.11s.66,3.91,6.88,5c4.14.74,7.78-3.12,7.78-3.12s10.37-91.24,18.17-158.71Z" transform="translate(-124.83 -79.65)"/><path class="cls-10" d="M479.09,999.82s-20.7,160.73-27.19,197.09-71.49,34.34-83.24-15.74-26.94-119.57-21.13-167.85,20.94-83.49,56.11-107.26S486,950.59,479.09,999.82Z" transform="translate(-124.83 -79.65)"/><path class="cls-11" d="M439.37,1286.5c6.47-54.45,9.33-54.35,13.47-99.52,1.8-19.79-14.49-37.13-48.22-36s-41.53,26.29-38.2,58.7c1.86,18.09,6.22,80.33,13.3,133.15h55.52C437.67,1321.8,437.83,1299.42,439.37,1286.5Z" transform="translate(-124.83 -79.65)"/><path class="cls-12" d="M437.07,1352.31a2,2,0,0,1-1.8,1.66H379.85a2.2,2.2,0,0,1-2-1.62l-3-11.26a1.19,1.19,0,0,1,1.11-1.63H437.6a1.34,1.34,0,0,1,1.27,1.67Z" transform="translate(-124.83 -79.65)"/><path class="cls-13" d="M457.71,1504.89c6.1,10-12.81,9.16-25.86,9.16s-26.67-.42-26.67-5.7,1.15-14,1.7-44.43-1.06-82.81-6.17-177.05.75-182.06-2.32-202.9,14.84-20.56,37.1-24.22c14-2.31,28-3.78,36.36-4.56,4.16-31.45,7.24-55.37,7.24-55.37,7-49.23-40.28-117.51-75.45-93.76s-50.27,59-56.11,107.26c-5.69,47.27,8.74,114.89,20.39,164.69-2.44,9.06-2.71,19.87-1.5,31.65,1.82,17.71,6,77.73,12.86,129.8H376a1.19,1.19,0,0,0-1.11,1.63l3,11.26a2.2,2.2,0,0,0,2,1.62h4.85c4.88,35.85,9.36,66.75,11.5,76.9,4,19,4.39,45,4.31,57.6-3.43-.48-7,1-7.52,11.65-.75,14.54-1.24,19.09-1.24,19.09s57.83.14,64.05-.63S466.93,1512.65,457.71,1504.89Z" transform="translate(-124.83 -79.65)"/><path class="cls-9" d="M218,1339.15c-2.37,38.94-4.4,78.47-4.08,92.28.6,26.16-7,60.8-7,60.8s.09,4.15,5.66,6.59,7.17.48,7.17.48,28.58-81.56,55.39-160.15Z" transform="translate(-124.83 -79.65)"/><path class="cls-14" d="M229.62,1500.37a34.64,34.64,0,0,0-.42-3.73c-1.65-10-7-7.85-10.57-6.59-.65.23-2.83.91-5.94,1.84-3.12-.9-5.3-1.56-5.95-1.79-3.55-1.23-8.94-3.3-10.52,6.69a34.73,34.73,0,0,0-.4,3.73c-.73,14.23-1.21,18.7-1.21,18.7s7.93,0,18.18,0,18.18-.16,18.18-.16S230.46,1514.6,229.62,1500.37Z" transform="translate(-124.83 -79.65)"/><path class="cls-15" d="M398.83,1015s-77.26,186.12-91.6,218.8-75.45,13-75.33-37.6-1.72-153.56,46.49-247.83C304.47,897.36,416.5,970.21,398.83,1015Z" transform="translate(-124.83 -79.65)"/><path class="cls-15" d="M318.84,1205.92c1.74-6.18-14.42-35.06-47-41.26s-45.53,58.35-48.12,90.18c-1.21,15-5.13,51.13-7.25,86l59.86,2C295.54,1286.54,312.59,1228.13,318.84,1205.92Z" transform="translate(-124.83 -79.65)"/><path class="cls-12" d="M276.61,1352.06a2.34,2.34,0,0,1-2.05,1.59H215.33a1.62,1.62,0,0,1-1.53-1.69v-11.12a1.62,1.62,0,0,1,1.53-1.69h63.84a1.1,1.1,0,0,1,1,1.59Z" transform="translate(-124.83 -79.65)"/><path class="cls-16" d="M278.39,948.34c-48.21,94.27-46.36,197.17-46.49,247.83a59.7,59.7,0,0,0,.86,10.27,242.58,242.58,0,0,0-9,48.4c-1.19,14.8-5,50-7.15,84.31h-1.26a1.62,1.62,0,0,0-1.53,1.69V1352a1.62,1.62,0,0,0,1.53,1.69h1.81c-2,33.87-3.5,65.69-3.22,77.78.52,22.5-5,51.24-6.61,58.86-.24-.08-.45-.14-.57-.19-3.55-1.23-8.94-3.3-10.52,6.69a34.73,34.73,0,0,0-.4,3.73c-.73,14.23-1.21,18.7-1.21,18.7s7.93,0,18.18,0,18.18-.16,18.18-.16-.12-1.11-.36-4c-12.05.23-29.22,1.88-29.22-3.13,0-5.35-.89-19,3.58-16s4.61,3,10.24-25.77,8.44-74.36,16.69-123.4,26.67-96.29,40.11-152.06,22.25-128.44,36.16-127.59c13,.79,33.92,6.71,69.44-1,12.32-29.61,21.22-51.06,21.22-51.06C416.5,970.21,304.47,897.36,278.39,948.34Z" transform="translate(-124.83 -79.65)"/><path class="cls-9" d="M484.33,869.81s32.9,26.84,43.95,32.82c7.91,4.31,12.44-8.28,15.32-15.94S532,852.48,513.88,835.52C500,822.53,483.08,866.15,484.33,869.81Z" transform="translate(-124.83 -79.65)"/><path class="cls-6" d="M368.39,799.41c21.85,28.7,110.54,109.66,110.54,109.66s11.06-2.34,26.69-19.5C529.09,863.78,530.31,848,530.31,848s-47.43-66.88-83.2-108.34c-28.3-32.82-68.19-35.32-88.2-7.72C342.52,754.6,356.17,783.37,368.39,799.41Z" transform="translate(-124.83 -79.65)"/><path class="cls-9" d="M696.53,851.94c2.89-4.72,12.93-18.51,16.34-16,8,6-1.44,10.63-1.76,24.17-.2,8.74-21.3,13.92-21.3,13.92S690.47,861.76,696.53,851.94Z" transform="translate(-124.83 -79.65)"/><path class="cls-9" d="M535,866.7c39.68-10.83,138.25,7,156.14-.84,11.63-5.07,10.39-19,34.19-20,11.53-.47,25.1,31.28,16.49,39.77-19.68,19.42-35,14.71-48.15.35-10.64-3.11-109.36,15.53-137.35,18.38-12.64,1.28-31.66,1.75-34.7-7.73C516.8,881.55,520.29,870.73,535,866.7Z" transform="translate(-124.83 -79.65)"/><path class="cls-17" d="M693.69,886c13.17,14.36,28.47,19.07,48.15-.35,8.61-8.49-5-40.24-16.49-39.77a47.2,47.2,0,0,0-7.14.8c4.69-.54,6.66,2.69,12.28,13.37s7,14.37-18.68,14-35.31,1.4-50.27,2.25-56.42,7-95.18,9.51-35.69,4.64-59.48-17.52-37.16-54.16-47.21-88.95c-11.8-40.86-27.45-53.41-28.94-54.53l-.14-.1c-.17-.08-8.21-4-20-9.57-19.87-5.63-39.5,0-51.71,16.82-16.39,22.62-2.74,51.39,9.48,67.43,21.85,28.7,110.54,109.66,110.54,109.66s11.06-2.34,26.69-19.5l1.55-1.73c5.78,4.41,11.62,8.72,16.18,11.75,5.72,6.41,21.84,5.92,33,4.79C584.33,901.53,683.05,882.89,693.69,886Z" transform="translate(-124.83 -79.65)"/><path class="cls-12" d="M392.3,708.52c52.79,3.77,57.18,52.74,63.53,81.86,38.77,177.62,23.94,251.2,23.94,251.2s-21.82,14.29-105.68,15.8c-108.89,1.94-132-20.82-132-20.82S274.18,855,286.14,764.9c3.83-28.86,27.94-52,71-56.44C369.49,707.21,379.28,707.59,392.3,708.52Z" transform="translate(-124.83 -79.65)"/><path class="cls-18" d="M454.68,898.36c-16.37,0-81.1.28-105.41,0s-19.7,5.63-24.82,33.52S315,961.73,304,965.68s-9.34-3.81-4.74-56.61,21.88-100.28,23.67-135.48S336,731.9,343.64,749.36s36.4,31.06,57.12,27.25,27.83-14.15,23.6-33.58,6.79-20.68,16.32-4.55c-8.58-15.66-22.78-28.13-48.38-30-13-.93-22.81-1.31-35.12-.06-43.1,4.39-67.21,27.58-71,56.44-12,90.12-44.07,271.66-44.07,271.66s23.13,22.76,132,20.82c83.86-1.51,105.68-15.8,105.68-15.8s9.43-46.75-6.39-155.69C474.93,896.25,471.05,898.36,454.68,898.36Z" transform="translate(-124.83 -79.65)"/><path class="cls-19" d="M432.08,660.35c18-13.75,29.19-65.25,6.76-78.54-27.72-16.44-33.63,17.14-50.79,15.4-37.35-3.77-49.65,21.69-47.64,54.46,1.25,20.29,15.39,32.75,31.84,39.4,7.29,2.95,7.29-18.68,27.07-27.19S432.08,660.35,432.08,660.35Z" transform="translate(-124.83 -79.65)"/><path class="cls-19" d="M412.57,714.15c3,17.14,14,55-23.11,53-43.61-2.26-53.12-51.86-50.7-57.48,5.49-12.8,22.85-5.89,33.85-5.16S410,699.61,412.57,714.15Z" transform="translate(-124.83 -79.65)"/><path class="cls-9" d="M350.2,708.67c2.11-.19,4.24-.35,6.47-.44,12.35-.45,22.1.56,35,2.34a66.63,66.63,0,0,1,11.3,2.48c1.39,11.14,11.51,42-16.43,41.37C357.88,753.81,349.6,719.37,350.2,708.67Z" transform="translate(-124.83 -79.65)"/><path class="cls-9" d="M362.36,704.27c9.76-32.9,15.33-37.16,26.18-61.82.07-1,34.65,8.63,45.1-10.14,0,0,.66,25.65-4.06,46.48-4.45,19.66-10.59,30-27.64,19-.67,9.73-4.35,20.58-4.83,29.12-1,17.22-12.14,20.08-19.42,18.4S353.32,734.71,362.36,704.27Z" transform="translate(-124.83 -79.65)"/><path class="cls-20" d="M308.38,1033.28c-1,4.56,1.66,8.3,5.93,8.3H467.45c4.26,0,8.57-3.74,9.58-8.3l26.45-120.23c1-4.56-1.67-8.29-5.93-8.29H344.4c-4.26,0-8.57,3.73-9.57,8.29Z" transform="translate(-124.83 -79.65)"/><path class="cls-21" d="M308.38,1033.28l26.45-120.23c1-4.56,5.31-8.29,9.57-8.29h7.37c-4.27,0-8.58,3.73-9.58,8.29l-26.45,120.23c-1,4.56,1.67,8.3,5.93,8.3h-7.36C310,1041.58,307.37,1037.84,308.38,1033.28Z" transform="translate(-124.83 -79.65)"/><path class="cls-19" d="M427.87,974.86c2.78-13.79-3.51-25-14.06-25s-21.35,11.18-24.14,25,3.51,25,14.06,25S425.08,988.65,427.87,974.86Z" transform="translate(-124.83 -79.65)"/><path class="cls-22" d="M399,974.86c2.36-11.69,10.49-21.48,19.33-24.2a13.65,13.65,0,0,0-4.49-.77c-10.55,0-21.35,11.18-24.14,25s3.51,25,14.06,25a16.35,16.35,0,0,0,4.81-.78C400.79,996.33,396.61,986.55,399,974.86Z" transform="translate(-124.83 -79.65)"/><path class="cls-9" d="M178.06,841.63s-28.67,32.18-35.57,43.4c-5,8.05,5.75,14.71,12.25,18.9s32.37-8,50.12-25.38C218.45,865.22,181.53,840.76,178.06,841.63Z" transform="translate(-124.83 -79.65)"/><path class="cls-6" d="M305.94,728.38c-35.43,19.89-148.63,124.71-148.63,124.71s.59,12.39,13.89,31.79c20,29.13,34,32.63,34,32.63s32.8-19.87,66.57-44.33c16.51-11.95,21.07-23.19,34.47-68C314.44,777.68,322.87,718.86,305.94,728.38Z" transform="translate(-124.83 -79.65)"/><path class="cls-23" d="M313.14,729.89c5.94,15.82-18.88,66.18-37.3,92.54s-71.35,53-83.15,58.19c-9.36,4.11-24.93-15.32-40.89-8.15A146.92,146.92,0,0,0,142.49,885c-5,8.05,5.75,14.71,12.25,18.9,3.77,2.43,14-.64,25.48-7,15.05,18.14,25,20.62,25,20.62s32.8-19.87,66.57-44.33c16.51-11.95,21.07-23.19,34.47-68C312.84,783.05,319.59,740.64,313.14,729.89Z" transform="translate(-124.83 -79.65)"/><path class="cls-9" d="M304.23,971.86c4.88-1.88,20.42-6.34,21.76-2.06,3.19,10.13-6.92,7.58-14.51,18.23-4.91,6.88-24.64-2.83-24.64-2.83S294,975.74,304.23,971.86Z" transform="translate(-124.83 -79.65)"/><path class="cls-9" d="M166.68,877.51c37.71,17.39,107.11,96.47,125.7,102,12.07,3.58,18.64-8.41,38.25,6.46,9.51,7.21,3.16,41.59-8.34,42.74-26.32,2.64-36-11.2-38.81-31.38-6.85-9.49-96.14-59.45-120.14-75.57-10.83-7.28-26.34-19.41-23.63-29C144,877.44,152.69,871.06,166.68,877.51Z" transform="translate(-124.83 -79.65)"/><path class="cls-24" d="M283.48,997.31c2.77,20.18,12.49,34,38.81,31.38,11.14-1.11,17.45-33.41,9.19-42,4.9,13.18.58,36-21.1,32.84s-18.23-24.71-27.44-30.63-56-42.95-94.6-67.74S149.2,891.32,152.84,885s7.67-9.57,21.23-3.54h0a79.38,79.38,0,0,0-7.39-3.93c-14-6.45-22.66-.07-27,15.22-2.71,9.6,12.8,21.73,23.63,29C187.34,937.86,276.63,987.82,283.48,997.31Z" transform="translate(-124.83 -79.65)"/><path class="cls-6" d="M392.63,656.27a57.69,57.69,0,0,1-4.76,16c-3.3,7.29-4.56,9.6-4.56,9.6s10.39,16.6,22.14,20.35,19.62-2.91,22.37-11.57c3.38-10.63,4.09-13.61,4.56-27C432.38,663.65,420.32,669,392.63,656.27Z" transform="translate(-124.83 -79.65)"/><path class="cls-25" d="M414.91,672.46a62.86,62.86,0,0,0,16.9,1.08c0-.29.06-.6.08-.89A60.94,60.94,0,0,1,397,664.79a.38.38,0,0,0-.54.19.47.47,0,0,0,.17.6A60.81,60.81,0,0,0,414.91,672.46Zm5.53,10a78,78,0,0,0,9.47,1.31c.08-.29.16-.58.23-.87-7.78-.57-22.81-2.94-35.25-12.56a.38.38,0,0,0-.56.12.46.46,0,0,0,.09.61C402.93,677.61,412.62,680.85,420.44,682.43Zm-28.24-5.94c9.89,11,26.23,16.29,33.82,18.25.15-.26.3-.52.44-.8-7.38-1.88-23.82-7.1-33.68-18.07a.38.38,0,0,0-.57,0A.49.49,0,0,0,392.2,676.49ZM390,681.91c5.13,9.37,16.68,16.7,25.08,21.06.44-.09.86-.21,1.28-.32-8.36-4.24-20.45-11.66-25.67-21.21a.39.39,0,0,0-.56-.14A.46.46,0,0,0,390,681.91Z" transform="translate(-124.83 -79.65)"/><path class="cls-6" d="M385.27,685.26c-14.55-10.55-17.9-20-11.19-31.45,3.09-5.3,6.46-6.42,8.76-6.42h.07c4.1,0,8.28,3.49,11.77,9.73l-2.61,1.77c-2.88-5.13-6.23-8.09-9.19-8.12h0c-2.21,0-4.29,1.65-6.18,4.88-4.76,8.15-4.83,15.83,10.3,26.8Z" transform="translate(-124.83 -79.65)"/><path class="cls-9" d="M369,651.8c-3,4.53-.44,12.12,5.66,17s10.5,3.32,13.46-1.21,3.39-10.36-2.72-15.2S372,647.27,369,651.8Z" transform="translate(-124.83 -79.65)"/><path class="cls-12" d="M911.43,1166.24l-25.07-.09-.43,133.46c.5,0,1,0,1.53,0,53.21.21,77.87-29,77.87-29Z" transform="translate(-124.83 -79.65)"/><path class="cls-12" d="M1023.84,1149.79a147.66,147.66,0,0,1,5.78,41.55c-.24,74.86-55.75,135.54-123.75,135.28a114,114,0,0,1-18.49-1.6l-.11,34.09a139.47,139.47,0,0,0,18.49,1.3c84.92.34,154.27-75.45,154.57-168.94a186,186,0,0,0-4.55-41.56Z" transform="translate(-124.83 -79.65)"/><path class="cls-19" d="M962.05,1519.22a29.17,29.17,0,0,1-21-9.26c-46.36-48.35-76.61-111.89-92.46-194.23-13-67.29-15.42-139.62-15.14-227.52.06-18.67,13.86-33.75,30.81-33.68s30.66,15.25,30.6,33.92c-.48,147.17,5.92,286.4,88.42,372.44,12.31,12.83,12.83,34.23,1.17,47.78A29.35,29.35,0,0,1,962.05,1519.22Z" transform="translate(-124.83 -79.65)"/><path class="cls-26" d="M1060.33,1191.47a186,186,0,0,0-4.55-41.56l-31.94-.12a147.66,147.66,0,0,1,5.78,41.55c-.23,71.8-51.31,130.52-115.48,135q-3.42-13.8-6.08-28.14c39-5.9,57.27-27.5,57.27-27.5l-53.9-104.43-15.78-.06c-.74-25.49-.88-51.48-.79-77.73.06-18.67-13.64-33.86-30.6-33.92s-30.75,15-30.81,33.68c-.28,87.9,2.18,160.23,15.14,227.52,15.85,82.34,46.1,145.88,92.46,194.23a28.76,28.76,0,0,0,43.4-1.29c11.66-13.55,11.14-35-1.17-47.78-27.37-28.55-46.36-63-59.5-101.57C1000.27,1349.77,1060.05,1278.25,1060.33,1191.47Z" transform="translate(-124.83 -79.65)"/><path class="cls-27" d="M561.29,1112.47c0,9.81,7,20,15.53,22.74l103.74,32.61c8.57,2.7,15.61-3.12,15.64-12.94l.77-237c0-9.82-7-15.69-15.56-13.07l-103.95,31.8c-8.59,2.63-15.64,12.81-15.67,22.62Z" transform="translate(-124.83 -79.65)"/><path class="cls-28" d="M681.41,904.85l-83.87,25.66-.69,211,83.71,26.32c8.57,2.7,15.61-3.12,15.64-12.94l.77-237C697,908.1,690,902.23,681.41,904.85Z" transform="translate(-124.83 -79.65)"/><path class="cls-27" d="M1475.93,1039.46c.31-96.47-70.48-175-158.11-175.3s-158.92,77.58-159.23,174.05,70.47,175,158.1,175.3S1475.61,1135.93,1475.93,1039.46Z" transform="translate(-124.83 -79.65)"/><path class="cls-29" d="M1475.93,1039.46c.31-96.47-70.48-175-158.11-175.3s-158.92,77.58-159.23,174.05,70.47,175,158.1,175.3S1475.61,1135.93,1475.93,1039.46Z" transform="translate(-124.83 -79.65)"/><path class="cls-30" d="M1424.35,1039.26a186.79,186.79,0,0,0,25.48,95.56,189.58,189.58,0,0,0,.62-190.93A186.64,186.64,0,0,0,1424.35,1039.26Z" transform="translate(-124.83 -79.65)"/><path class="cls-6" d="M1301.28,702.28C1197.6,839.26,975.75,902.72,790.59,902l-.87,269.54c185.16.73,406.59,65.93,509.38,203.71,38.27-89.36,61.74-207.1,62.16-336.24S1339,792,1301.28,702.28Z" transform="translate(-124.83 -79.65)"/><path class="cls-31" d="M993.3,878.41A871.55,871.55,0,0,1,790.59,902l-.87,269.54a871.25,871.25,0,0,1,202.55,25.17Z" transform="translate(-124.83 -79.65)"/><path class="cls-32" d="M1106.67,842.13l-1.26,391.75c78.92,33.28,148,80.15,193.69,141.37,38.27-89.36,61.74-207.1,62.16-336.24S1339,792,1301.28,702.28C1255.21,763.14,1185.81,809.48,1106.67,842.13Z" transform="translate(-124.83 -79.65)"/><path class="cls-12" d="M1298.77,1470.68a22.43,22.43,0,0,1-10.27-2.56c-12.14-6.3-17.34-22.25-11.61-35.62,46.29-108.09,72-247.85,72.52-393.54s-24.38-285.65-70-394.1c-5.64-13.42-.33-29.32,11.85-35.53s26.63-.37,32.27,13c48.52,115.41,75,263.42,74.47,416.77s-27.9,301.16-77.16,416.18C1316.7,1465,1307.91,1470.72,1298.77,1470.68Z" transform="translate(-124.83 -79.65)"/><g class="cls-33"><path class="cls-34" d="M1298.77,1470.68a22.43,22.43,0,0,1-10.27-2.56c-12.14-6.3-17.34-22.25-11.61-35.62,46.29-108.09,72-247.85,72.52-393.54s-24.38-285.65-70-394.1c-5.64-13.42-.33-29.32,11.85-35.53s26.63-.37,32.27,13c48.52,115.41,75,263.42,74.47,416.77s-27.9,301.16-77.16,416.18C1316.7,1465,1307.91,1470.72,1298.77,1470.68Z" transform="translate(-124.83 -79.65)"/></g><path class="cls-35" d="M1214.57,853.09c20.6-16.84,18.13-49.52-6.8-64.39C1092.68,866.13,931.08,902.55,790.59,902l-.19,60.43C946.46,961,1128.29,926.12,1214.57,853.09Zm-1.2,370.68c-85.8-73.71-267.41-110-423.46-112.67l-.19,60.44c140.49.55,301.85,38.23,416.43,116.57C1231.18,1273.43,1233.87,1240.78,1213.37,1223.77Z" transform="translate(-124.83 -79.65)"/><path class="cls-19" d="M659.93,1179.27c0,5.89,4.34,10.72,9.69,10.74l132.88.52c5.35,0,9.74-4.77,9.76-10.66l.93-286c0-5.89-4.34-10.72-9.69-10.74l-132.89-.52c-5.34,0-9.74,4.78-9.75,10.66Z" transform="translate(-124.83 -79.65)"/><path class="cls-27" d="M790.63,929.26a4.86,4.86,0,0,1-4.62,5l-98.25-.38a4.87,4.87,0,0,1-4.58-5.09l.05-16.9a4.86,4.86,0,0,1,4.62-5.05l98.25.39a4.86,4.86,0,0,1,4.59,5.08Z" transform="translate(-124.83 -79.65)"/><path class="cls-27" d="M790.45,986.3a4.86,4.86,0,0,1-4.62,5.05L687.58,991a4.88,4.88,0,0,1-4.59-5.09l.06-16.89a4.87,4.87,0,0,1,4.62-5.06l98.24.39a4.87,4.87,0,0,1,4.59,5.09Z" transform="translate(-124.83 -79.65)"/><path class="cls-27" d="M790.26,1043.33a4.86,4.86,0,0,1-4.62,5.05L687.4,1048a4.87,4.87,0,0,1-4.59-5.09l.05-16.9a4.86,4.86,0,0,1,4.63-5l98.24.39a4.86,4.86,0,0,1,4.59,5.08Z" transform="translate(-124.83 -79.65)"/><path class="cls-27" d="M790.08,1100.36a4.87,4.87,0,0,1-4.62,5.06l-98.25-.39a4.88,4.88,0,0,1-4.59-5.09l.06-16.89a4.87,4.87,0,0,1,4.62-5.06l98.24.39a4.86,4.86,0,0,1,4.59,5.09Z" transform="translate(-124.83 -79.65)"/><path class="cls-27" d="M789.89,1157.4a4.86,4.86,0,0,1-4.62,5l-98.24-.38a4.87,4.87,0,0,1-4.59-5.09l0-16.9a4.86,4.86,0,0,1,4.63-5l98.24.38a4.88,4.88,0,0,1,4.59,5.09Z" transform="translate(-124.83 -79.65)"/><path class="cls-6" d="M2172.16,903.25a7.56,7.56,0,0,1-7.64-6.82,7.48,7.48,0,0,1,7.07-7.92l13.85-1a7.57,7.57,0,0,1,8.23,6.8,7.47,7.47,0,0,1-7.07,7.91l-13.85,1A5.82,5.82,0,0,1,2172.16,903.25Z" transform="translate(-124.83 -79.65)"/><path class="cls-6" d="M2015.52,914.65a7.56,7.56,0,0,1-7.65-6.82,7.47,7.47,0,0,1,7.08-7.91L2123.12,892a7.58,7.58,0,0,1,8.23,6.8,7.48,7.48,0,0,1-7.07,7.92l-108.17,7.87C2015.91,914.65,2015.71,914.65,2015.52,914.65Z" transform="translate(-124.83 -79.65)"/><path class="cls-6" d="M1612,944a7.55,7.55,0,0,1-7.64-6.82,7.47,7.47,0,0,1,7.07-7.92l355-25.84a7.61,7.61,0,0,1,8.23,6.8,7.48,7.48,0,0,1-7.08,7.92l-355,25.84Z" transform="translate(-124.83 -79.65)"/><path class="cls-6" d="M2007.07,819.37a7.57,7.57,0,0,1-7.62-6.59,7.46,7.46,0,0,1,6.81-8.13l24.51-2.52a7.59,7.59,0,0,1,8.45,6.56,7.45,7.45,0,0,1-6.82,8.12l-24.51,2.52A7.5,7.5,0,0,1,2007.07,819.37Z" transform="translate(-124.83 -79.65)"/><path class="cls-6" d="M1853.37,835.17a7.58,7.58,0,0,1-7.63-6.59,7.48,7.48,0,0,1,6.82-8.13l95.67-9.83a7.59,7.59,0,0,1,8.44,6.55,7.46,7.46,0,0,1-6.81,8.13l-95.67,9.83A7.63,7.63,0,0,1,1853.37,835.17Z" transform="translate(-124.83 -79.65)"/><path class="cls-6" d="M1490.64,872.46a7.58,7.58,0,0,1-7.63-6.59,7.47,7.47,0,0,1,6.82-8.13l304.69-31.32A7.62,7.62,0,0,1,1803,833a7.46,7.46,0,0,1-6.82,8.13l-304.69,31.32A7.5,7.5,0,0,1,1490.64,872.46Z" transform="translate(-124.83 -79.65)"/><path class="cls-6" d="M2183.51,1168l-.58,0-13.86-1.16c-4.22-.35-7.39-4.41-7.07-9.06s4-8.13,8.24-7.79l13.85,1.16c4.22.35,7.39,4.41,7.07,9.06C2190.85,1164.67,2187.49,1168,2183.51,1168Z" transform="translate(-124.83 -79.65)"/><path class="cls-6" d="M2121.19,1162.85l-.59,0-108.17-9c-4.22-.35-7.39-4.41-7.07-9.07s4-8.14,8.23-7.78l108.17,9c4.23.36,7.4,4.41,7.08,9.07C2128.53,1159.47,2125.17,1162.85,2121.19,1162.85Z" transform="translate(-124.83 -79.65)"/><path class="cls-6" d="M1964.55,1149.79c-.19,0-.39,0-.59,0l-355-29.59c-4.22-.35-7.39-4.41-7.07-9.06s4-8.14,8.23-7.79l355,29.59c4.23.35,7.39,4.41,7.07,9.06C1971.89,1146.42,1968.52,1149.79,1964.55,1149.79Z" transform="translate(-124.83 -79.65)"/><path class="cls-6" d="M2029.08,1265.81a5.64,5.64,0,0,1-.82,0l-24.51-2.88c-4.22-.5-7.27-4.66-6.82-9.3s4.24-8,8.45-7.5l24.51,2.88c4.21.5,7.27,4.66,6.81,9.3C2036.28,1262.6,2033,1265.81,2029.08,1265.81Z" transform="translate(-124.83 -79.65)"/><path class="cls-6" d="M1946.54,1256.09a7.69,7.69,0,0,1-.83,0l-95.66-11.26c-4.22-.5-7.27-4.66-6.82-9.3s4.23-8,8.45-7.51l95.66,11.26c4.22.5,7.27,4.66,6.82,9.3C1953.74,1252.88,1950.41,1256.09,1946.54,1256.09Z" transform="translate(-124.83 -79.65)"/><path class="cls-6" d="M1792.83,1238a7.63,7.63,0,0,1-.82,0l-304.69-35.87c-4.22-.49-7.27-4.66-6.82-9.3s4.24-8,8.45-7.5l304.69,35.86c4.22.5,7.27,4.66,6.82,9.3C1800,1234.79,1796.71,1238,1792.83,1238Z" transform="translate(-124.83 -79.65)"/><path class="cls-6" d="M2191.18,839.52c-14.5,0-26.29-13-26.29-28.94s11.79-29,26.29-29,26.3,13,26.3,29S2205.68,839.52,2191.18,839.52Zm0-47.75c-9.42,0-17.08,8.44-17.08,18.81s7.66,18.8,17.08,18.8,17.09-8.43,17.09-18.8S2200.6,791.77,2191.18,791.77Z" transform="translate(-124.83 -79.65)"/><path class="cls-6" d="M1515,1242.45c-14.5,0-26.3-13-26.3-28.94s11.8-29,26.3-29,26.29,13,26.29,29S1529.53,1242.45,1515,1242.45Zm0-47.75c-9.43,0-17.09,8.44-17.09,18.81s7.66,18.8,17.09,18.8,17.08-8.43,17.08-18.8S1524.46,1194.7,1515,1194.7Z" transform="translate(-124.83 -79.65)"/><path class="cls-6" d="M1845.7,742c-14.5,0-26.29-13-26.29-29s11.79-28.94,26.29-28.94S1872,697.08,1872,713,1860.2,742,1845.7,742Zm0-47.76c-9.42,0-17.08,8.44-17.08,18.81s7.66,18.81,17.08,18.81,17.08-8.44,17.08-18.81S1855.12,694.23,1845.7,694.23Z" transform="translate(-124.83 -79.65)"/><path class="cls-6" d="M1856.8,1199.75c-11.57,0-21-10.36-21-23.1s9.41-23.1,21-23.1,21,10.36,21,23.1S1868.37,1199.75,1856.8,1199.75Zm0-36.06c-6.49,0-11.77,5.82-11.77,13s5.28,13,11.77,13,11.77-5.82,11.77-13S1863.29,1163.69,1856.8,1163.69Z" transform="translate(-124.83 -79.65)"/><path class="cls-6" d="M2069.61,754.37c-11.57,0-21-10.36-21-23.09s9.41-23.1,21-23.1,21,10.36,21,23.1S2081.18,754.37,2069.61,754.37Zm0-36c-6.49,0-11.77,5.81-11.77,13s5.28,13,11.77,13,11.77-5.81,11.77-13S2076.1,718.32,2069.61,718.32Z" transform="translate(-124.83 -79.65)"/><path class="cls-6" d="M2039.26,1064.67c-11.57,0-21-10.36-21-23.09s9.41-23.1,21-23.1,21,10.36,21,23.1S2050.83,1064.67,2039.26,1064.67Zm0-36.05c-6.49,0-11.77,5.81-11.77,13s5.28,13,11.77,13,11.77-5.81,11.77-13S2045.75,1028.62,2039.26,1028.62Z" transform="translate(-124.83 -79.65)"/><path class="cls-6" d="M2163.11,1419.52c-9.61,0-17.42-8.6-17.42-19.18s7.81-19.18,17.42-19.18,17.42,8.61,17.42,19.18S2172.72,1419.52,2163.11,1419.52Zm0-28.22c-4.53,0-8.21,4.06-8.21,9s3.68,9,8.21,9,8.21-4.05,8.21-9S2167.64,1391.3,2163.11,1391.3Z" transform="translate(-124.83 -79.65)"/><path class="cls-6" d="M1710.75,897.6c-9.61,0-17.42-8.61-17.42-19.18s7.81-19.19,17.42-19.19,17.42,8.61,17.42,19.19S1720.36,897.6,1710.75,897.6Zm0-28.23c-4.53,0-8.21,4.06-8.21,9s3.68,9,8.21,9,8.21-4.06,8.21-9S1715.28,869.37,1710.75,869.37Z" transform="translate(-124.83 -79.65)"/><path class="cls-6" d="M2212.7,1185.33c-9.6,0-17.42-8.61-17.42-19.18s7.82-19.18,17.42-19.18,17.43,8.6,17.43,19.18S2222.31,1185.33,2212.7,1185.33Zm0-28.22c-4.52,0-8.21,4.05-8.21,9s3.69,9,8.21,9,8.22-4.06,8.22-9S2217.23,1157.11,2212.7,1157.11Z" transform="translate(-124.83 -79.65)"/><path class="cls-6" d="M1540.67,883.34c-9.6,0-17.42-8.6-17.42-19.18s7.82-19.18,17.42-19.18,17.43,8.61,17.43,19.18S1550.28,883.34,1540.67,883.34Zm0-28.22c-4.53,0-8.21,4.06-8.21,9s3.68,9,8.21,9,8.22-4.05,8.22-9S1545.2,855.12,1540.67,855.12Z" transform="translate(-124.83 -79.65)"/><path class="cls-6" d="M2180.85,1002a2.89,2.89,0,0,1-1.92-.75l-14.58-12.84-14.58,12.84a2.84,2.84,0,0,1-3.83,0l-14.58-12.84-14.57,12.84a2.85,2.85,0,0,1-3.84,0l-14.57-12.84-14.56,12.84a2.89,2.89,0,0,1-4.32-.52A3.61,3.61,0,0,1,2080,996l16.49-14.54a2.85,2.85,0,0,1,3.83,0l14.57,12.84,14.57-12.84a2.88,2.88,0,0,1,3.84,0l14.58,12.85,14.57-12.85a2.88,2.88,0,0,1,3.84,0l16.5,14.54a3.62,3.62,0,0,1,.48,4.75A3,3,0,0,1,2180.85,1002Z" transform="translate(-124.83 -79.65)"/><path class="cls-6" d="M1607.57,1424a2.9,2.9,0,0,1-1.92-.74l-14.58-12.85-14.57,12.85a2.88,2.88,0,0,1-3.84,0l-14.58-12.85-14.57,12.85a2.86,2.86,0,0,1-3.84,0l-14.56-12.85-14.57,12.85a2.89,2.89,0,0,1-4.32-.53,3.62,3.62,0,0,1,.48-4.75l16.49-14.53a2.85,2.85,0,0,1,3.84,0l14.56,12.84,14.57-12.84a2.85,2.85,0,0,1,3.84,0l14.58,12.84,14.57-12.84a2.85,2.85,0,0,1,3.84,0l16.5,14.53a3.62,3.62,0,0,1,.48,4.75A3,3,0,0,1,1607.57,1424Z" transform="translate(-124.83 -79.65)"/><path class="cls-6" d="M2087.52,1221.84a2.91,2.91,0,0,1-1.92-.75l-12.23-10.77-12.22,10.77a2.85,2.85,0,0,1-3.84,0l-12.23-10.77-12.23,10.77a2.84,2.84,0,0,1-3.83,0l-12.22-10.77-12.22,10.77a2.89,2.89,0,0,1-4.32-.52,3.62,3.62,0,0,1,.48-4.75l14.14-12.47a2.85,2.85,0,0,1,3.84,0l12.21,10.78,12.23-10.78a2.85,2.85,0,0,1,3.84,0l12.23,10.78,12.22-10.78a2.85,2.85,0,0,1,3.84,0l14.15,12.47a3.61,3.61,0,0,1,.48,4.75A3,3,0,0,1,2087.52,1221.84Z" transform="translate(-124.83 -79.65)"/><path class="cls-6" d="M1914.43,1028.09a2.86,2.86,0,0,1-1.92-.74l-12.23-10.78-12.23,10.78a2.85,2.85,0,0,1-3.84,0L1872,1016.57l-12.22,10.78a2.85,2.85,0,0,1-3.84,0l-12.22-10.77-12.22,10.77a2.89,2.89,0,0,1-4.32-.53,3.63,3.63,0,0,1,.48-4.75l14.14-12.46a2.85,2.85,0,0,1,3.84,0l12.22,10.77,12.23-10.77a2.84,2.84,0,0,1,3.83,0l12.23,10.77,12.23-10.77a2.84,2.84,0,0,1,3.83,0l14.16,12.46a3.62,3.62,0,0,1,.47,4.75A2.93,2.93,0,0,1,1914.43,1028.09Z" transform="translate(-124.83 -79.65)"/><path class="cls-6" d="M2205.54,1349.08a3,3,0,0,1-1.92-.74l-12.23-10.78-12.22,10.78a2.88,2.88,0,0,1-3.84,0l-12.23-10.78-12.23,10.78a2.85,2.85,0,0,1-3.83,0l-12.22-10.77-12.22,10.78a2.9,2.9,0,0,1-4.32-.53,3.62,3.62,0,0,1,.48-4.75l14.14-12.47a2.85,2.85,0,0,1,3.84,0l12.21,10.78,12.23-10.78a2.85,2.85,0,0,1,3.84,0l12.23,10.78,12.22-10.78a2.85,2.85,0,0,1,3.84,0l14.15,12.47a3.61,3.61,0,0,1,.48,4.75A3,3,0,0,1,2205.54,1349.08Z" transform="translate(-124.83 -79.65)"/><path class="cls-6" d="M1980.56,873.92a2.93,2.93,0,0,1-1.92-.74l-12.23-10.78-12.23,10.78a2.88,2.88,0,0,1-3.84,0l-12.22-10.78-12.23,10.78a2.86,2.86,0,0,1-3.84,0l-12.22-10.77-12.22,10.78a2.88,2.88,0,0,1-4.31-.53,3.61,3.61,0,0,1,.48-4.75l14.14-12.47a2.84,2.84,0,0,1,3.83,0L1924,866.21l12.23-10.78a2.85,2.85,0,0,1,3.84,0l12.22,10.78,12.23-10.78a2.85,2.85,0,0,1,3.84,0l14.15,12.47a3.62,3.62,0,0,1,.48,4.75A3,3,0,0,1,1980.56,873.92Z" transform="translate(-124.83 -79.65)"/><path class="cls-6" d="M1970.35,701.83a2.87,2.87,0,0,1-1.91-.75l-12.24-10.77L1944,701.08a2.85,2.85,0,0,1-3.84,0l-12.23-10.77-12.22,10.77a2.85,2.85,0,0,1-3.84,0l-12.22-10.77-12.22,10.77a2.88,2.88,0,0,1-4.32-.52,3.62,3.62,0,0,1,.48-4.75l14.14-12.47a2.85,2.85,0,0,1,3.84,0l12.22,10.78L1926,683.34a2.85,2.85,0,0,1,3.84,0l12.23,10.78,12.22-10.78a2.85,2.85,0,0,1,3.84,0l14.15,12.47a3.61,3.61,0,0,1,.48,4.75A3,3,0,0,1,1970.35,701.83Z" transform="translate(-124.83 -79.65)"/><path class="cls-6" d="M2287.7,1077.48a4.12,4.12,0,0,1-3.91-4.31V993.58a3.93,3.93,0,1,1,7.83,0v79.59A4.13,4.13,0,0,1,2287.7,1077.48Z" transform="translate(-124.83 -79.65)"/><path class="cls-6" d="M2244.27,1072.75c0,9.26,10.6,16.77,23.67,16.77s23.68-7.51,23.68-16.77S2281,1056,2267.94,1056,2244.27,1063.49,2244.27,1072.75Z" transform="translate(-124.83 -79.65)"/><path class="cls-6" d="M2287.76,989.33c3.85-.56,8.52.77,12,2.4,6.15,2.86,12.06,8,19.11,6.09a14.44,14.44,0,0,0,4.92-2.13,14.31,14.31,0,0,1-1.07,4.07,28.7,28.7,0,0,1-4,8.39c-4.6,5.9-13.35,8.71-20.12,6.72a43.8,43.8,0,0,0-6.6-1.78c-2.05-.25-4.28.23-4.45-2.65-.16-2.66.18-5.43.11-8.12s0-5.45,0-8.17C2287.71,992.54,2287.67,990.94,2287.76,989.33Z" transform="translate(-124.83 -79.65)"/><path class="cls-6" d="M2240.33,1299.93a4,4,0,0,1-2-5l23.14-66.17a3.4,3.4,0,0,1,4.51-2.2,4,4,0,0,1,2,5l-23.15,66.17A3.39,3.39,0,0,1,2240.33,1299.93Z" transform="translate(-124.83 -79.65)"/><path class="cls-6" d="M2205.59,1280.69c-2.69,7.7,3.93,17.67,14.81,22.28s21.86,2.1,24.56-5.6-3.94-17.67-14.81-22.28S2208.28,1273,2205.59,1280.69Z" transform="translate(-124.83 -79.65)"/><path class="cls-6" d="M2266,1226.67c3.36.88,6.86,3.64,9.31,6.24,4.29,4.55,7.71,10.9,14.12,11.8a12.44,12.44,0,0,0,4.71,0,11.8,11.8,0,0,1-2.07,3,23.17,23.17,0,0,1-5.8,5.56c-5.53,3.28-13.63,2.53-18.68-1.51a41.92,41.92,0,0,0-5-3.8c-1.63-.93-3.63-1.32-2.93-3.77.65-2.27,1.73-4.45,2.46-6.71s1.6-4.53,2.4-6.79C2265,1229.32,2265.47,1228,2266,1226.67Z" transform="translate(-124.83 -79.65)"/><path class="cls-6" d="M2044.81,686.36a3.84,3.84,0,0,1-2.71-4.53l13.07-69.43a3.5,3.5,0,0,1,4.12-3A3.84,3.84,0,0,1,2062,614l-13.06,69.43A3.51,3.51,0,0,1,2044.81,686.36Z" transform="translate(-124.83 -79.65)"/><path class="cls-6" d="M2007.69,673.59c-1.52,8.08,6.49,16.74,17.9,19.34s21.89-1.84,23.41-9.92-6.5-16.73-17.9-19.33S2009.21,665.51,2007.69,673.59Z" transform="translate(-124.83 -79.65)"/><path class="cls-6" d="M2059.33,609.48c3.45.27,7.31,2.36,10.11,4.49,4.9,3.72,9.22,9.38,15.68,9.11a12.38,12.38,0,0,0,4.64-.88,12.11,12.11,0,0,1-1.6,3.34,24.43,24.43,0,0,1-4.9,6.52,17.38,17.38,0,0,1-18.66,1.86,39.63,39.63,0,0,0-5.47-2.87c-1.74-.63-3.77-.65-3.44-3.19.3-2.36,1-4.71,1.43-7.07s.92-4.75,1.37-7.12C2058.76,612.27,2059,610.86,2059.33,609.48Z" transform="translate(-124.83 -79.65)"/><path class="cls-6" d="M1797.83,1428.91a3.84,3.84,0,0,0,2.71-4.53l-12.92-69.47a3.5,3.5,0,0,0-4.11-3,3.84,3.84,0,0,0-2.72,4.52l12.92,69.47A3.53,3.53,0,0,0,1797.83,1428.91Z" transform="translate(-124.83 -79.65)"/><path class="cls-6" d="M1835,1416.23c1.51,8.08-6.53,16.72-17.94,19.29s-21.88-1.89-23.38-10,6.52-16.71,17.94-19.29S1833.47,1408.15,1835,1416.23Z" transform="translate(-124.83 -79.65)"/><path class="cls-6" d="M1783.46,1352c-3.45.27-7.31,2.35-10.12,4.48-4.91,3.7-9.23,9.35-15.69,9.07a12.59,12.59,0,0,1-4.64-.89,12.67,12.67,0,0,0,1.59,3.34,24.23,24.23,0,0,0,4.89,6.53,17.35,17.35,0,0,0,18.65,1.9,39.06,39.06,0,0,1,5.48-2.85c1.74-.62,3.77-.64,3.45-3.19-.3-2.35-1-4.7-1.42-7.06s-.91-4.76-1.35-7.13C1784,1354.78,1783.8,1353.37,1783.46,1352Z" transform="translate(-124.83 -79.65)"/><path class="cls-6" d="M1533.94,756.53a4.45,4.45,0,0,0,2.2-5.58l-26.57-74a3.8,3.8,0,0,0-5.07-2.42,4.46,4.46,0,0,0-2.2,5.59l26.56,74A3.81,3.81,0,0,0,1533.94,756.53Z" transform="translate(-124.83 -79.65)"/><path class="cls-6" d="M1572.76,734.56c3.09,8.62-4.26,19.89-16.42,25.17s-24.53,2.6-27.62-6,4.26-19.88,16.42-25.17S1569.67,726,1572.76,734.56Z" transform="translate(-124.83 -79.65)"/><path class="cls-6" d="M1504.46,674.57c-3.76,1-7.67,4.17-10.4,7.11-4.77,5.15-8.55,12.32-15.74,13.39a13.85,13.85,0,0,1-5.29,0,13.21,13.21,0,0,0,2.35,3.35,26,26,0,0,0,6.56,6.18c6.25,3.62,15.32,2.69,21-1.89a45.6,45.6,0,0,1,5.54-4.32c1.83-1.07,4.06-1.53,3.26-4.27-.75-2.54-2-5-2.82-7.51s-1.84-5.06-2.75-7.59C1505.58,677.54,1505.08,676,1504.46,674.57Z" transform="translate(-124.83 -79.65)"/><path class="cls-6" d="M1693.3,731.11a3.7,3.7,0,0,1-4.71-2.68l-21-72.69a4.23,4.23,0,0,1,2.44-5.18,3.69,3.69,0,0,1,4.71,2.69l21,72.68A4.23,4.23,0,0,1,1693.3,731.11Z" transform="translate(-124.83 -79.65)"/><path class="cls-6" d="M1660.62,737.78c2,6.85,11.41,9.66,21.08,6.28s15.9-11.67,13.93-18.52-11.41-9.65-21.08-6.27S1658.64,730.93,1660.62,737.78Z" transform="translate(-124.83 -79.65)"/><path class="cls-6" d="M1742.13,697.72a3.7,3.7,0,0,1-4.71-2.68l-21-72.69a4.22,4.22,0,0,1,2.44-5.18,3.7,3.7,0,0,1,4.71,2.69l21,72.68A4.23,4.23,0,0,1,1742.13,697.72Z" transform="translate(-124.83 -79.65)"/><path class="cls-6" d="M1709.45,704.39c2,6.85,11.41,9.66,21.08,6.28s15.9-11.67,13.93-18.52-11.42-9.65-21.08-6.28S1707.47,697.54,1709.45,704.39Z" transform="translate(-124.83 -79.65)"/><path class="cls-6" d="M1668.06,656.77a4.55,4.55,0,0,1,1.46-5.87l48.24-33.17a3.7,3.7,0,0,1,5.44,1.12,4.56,4.56,0,0,1-1.47,5.88L1673.5,657.9A3.7,3.7,0,0,1,1668.06,656.77Z" transform="translate(-124.83 -79.65)"/><path class="cls-6" d="M1673.66,676.19a4.55,4.55,0,0,1,1.46-5.87l48.24-33.17a3.71,3.71,0,0,1,5.44,1.12,4.56,4.56,0,0,1-1.47,5.88l-48.24,33.17A3.69,3.69,0,0,1,1673.66,676.19Z" transform="translate(-124.83 -79.65)"/><path class="cls-6" d="M1910.72,1424.27a4.42,4.42,0,0,1-.74-5.78l41.7-60.9a3.53,3.53,0,0,1,5.25-.81,4.38,4.38,0,0,1,.74,5.77l-41.7,60.91A3.54,3.54,0,0,1,1910.72,1424.27Z" transform="translate(-124.83 -79.65)"/><path class="cls-6" d="M1886.86,1398.79c-3.92,5.74-.54,15.84,7.56,22.56s17.85,7.52,21.78,1.78.54-15.83-7.56-22.55S1890.79,1393.06,1886.86,1398.79Z" transform="translate(-124.83 -79.65)"/><path class="cls-6" d="M1963.72,1448.76a4.41,4.41,0,0,1-.73-5.78l41.7-60.9a3.53,3.53,0,0,1,5.25-.81,4.41,4.41,0,0,1,.73,5.78L1969,1448A3.53,3.53,0,0,1,1963.72,1448.76Z" transform="translate(-124.83 -79.65)"/><path class="cls-6" d="M1939.87,1423.28c-3.93,5.74-.55,15.84,7.55,22.56s17.85,7.52,21.78,1.78.54-15.83-7.56-22.55S1943.79,1417.55,1939.87,1423.28Z" transform="translate(-124.83 -79.65)"/><path class="cls-6" d="M1951.17,1358.56a3.77,3.77,0,0,1,5.19-2.08l52.5,24.09a4.45,4.45,0,0,1,2.32,5.53,3.78,3.78,0,0,1-5.2,2.09l-52.5-24.09A4.45,4.45,0,0,1,1951.17,1358.56Z" transform="translate(-124.83 -79.65)"/><path class="cls-6" d="M1940,1374.83a3.78,3.78,0,0,1,5.2-2.08l52.5,24.09a4.46,4.46,0,0,1,2.32,5.54,3.78,3.78,0,0,1-5.2,2.08l-52.5-24.09A4.47,4.47,0,0,1,1940,1374.83Z" transform="translate(-124.83 -79.65)"/><path class="cls-36" d="M961.64,404.86s114.67,112.77,136.77,136.38-11.68,77.51-52.46,62.49S949.16,566.89,918.4,537.9,870.62,478.59,871.59,437,930.79,374.44,961.64,404.86Z" transform="translate(-124.83 -79.65)"/><path class="cls-37" d="M1078.42,840.41s-48.17.64-51.73.48c-3.93-.17-10.22-.74-7.7,12.59s3.1,17.55,3.1,17.55,52.2-15.38,57.64-17.75S1088.46,844.94,1078.42,840.41Z" transform="translate(-124.83 -79.65)"/><path class="cls-38" d="M1024.26,752.4c.42,14.87.87,26.27,1.35,31.64,2.22,24.85-3.23,60.9-3.23,60.9s.18,3.71,5.82,5.54c3.76,1.23,7.55-1.86,7.55-1.86s10.58-44.91,22-93.13Z" transform="translate(-124.83 -79.65)"/><path class="cls-39" d="M1081.4,656c11.95-49.59,14.58-49.12,23.36-90.42,3.84-18.11-9.37-36.34-40.74-39.77s-41.36,18.85-41.81,49.34c-.36,23.9-.5,125.46,1,179.34l35.5,5.14C1067.65,721.76,1076.14,677.78,1081.4,656Z" transform="translate(-124.83 -79.65)"/><path class="cls-40" d="M1078.43,840.41c10.86,8.25-19.3,14.15-33.89,17.53s-15-4.22-15-13.23,5.37-37.47,10.48-72.11,11-131.39,17.53-170.68.38-42.25-30.32-54.08-32.23-30.42-13-43.51a59.52,59.52,0,0,0,21.3-26.46c-36.28-36-73.87-73-73.87-73-12.66-12.47-29.91-16.29-45.94-13.59-7.53,2.92-15.3,6-23.16,9.18C880.45,408.63,872,421.37,871.6,437c-1,41.56,16,71.89,46.8,100.87,25.08,23.63,66.94,42.49,103.65,56.8-.19,39.15-.07,115.52,1.16,159.76l1.12.17c.4,13.77.83,24.31,1.29,29.41,1.77,19.9-1.36,47-2.69,57-3.09.58-5.72,3-3.94,12.48,2.54,13.31,3.11,17.55,3.11,17.55s52.19-15.38,57.64-17.75S1088.47,844.94,1078.43,840.41Z" transform="translate(-124.83 -79.65)"/><path class="cls-37" d="M723.72,833.19c-1.53-4-3.73-10.51-13.62-2.35S697,841.38,697,841.38s20.4,26.71,31.86,41.2h16.33C741.19,873.52,724.92,836.37,723.72,833.19Z" transform="translate(-124.83 -79.65)"/><path class="cls-37" d="M736.46,864v18.52c5.32.08,9.34.08,10.7,0,5.83-.54,10.55-5.2,2.12-12.74C749.28,869.74,737.69,864.39,736.46,864Z" transform="translate(-124.83 -79.65)"/><path class="cls-15" d="M949.53,446.11s-7.81,169-10.64,202.8-62.16,38.63-77.11-5.75S827.1,537.07,828.3,492.52s12-78.17,42-103.42S951.69,400.57,949.53,446.11Z" transform="translate(-124.83 -79.65)"/><path class="cls-38" d="M752.48,786.65c-12,21.21-36.19,46.18-36.19,46.18s-1.91,3.07,1.56,8.3c2.3,3.5,7,3.58,7,3.58s32.54-28,67.81-58.31l-23.2-26.69C761.3,772.23,755.13,781.94,752.48,786.65Z" transform="translate(-124.83 -79.65)"/><path class="cls-15" d="M925.61,607.3c-23-23.71-43.25-12.71-60.44,11.19C851.77,637.1,794,719.15,765.3,763.12l26.05,27.2c28.32-24.32,59.72-54,76.15-68,36.89-31.38,23.31-18.9,54.48-43.84C940,664,948.62,631,925.61,607.3Z" transform="translate(-124.83 -79.65)"/><path class="cls-41" d="M870.28,389.1c-30,25.25-40.78,58.86-42,103.42-1.08,40.17,14.85,94.29,29,137.07-20.89,29.48-67.19,95.63-92,133.53l1.17,1.21c-6.68,10.28-11.68,18.21-14,22.32-8.76,15.53-24.09,33.07-31.67,41.35-1.94-1.69-5.08-1.81-10.71,2.84C700.22,839,697,841.38,697,841.38s20.4,26.71,31.86,41.2h16.33v0c.89,0,1.59,0,2-.08,5.83-.54,10.55-5.2,2.12-12.74,3.9,5.68-1.4,7.42-8.69,7.42s-10.17.43-19.53-14.57-7.71-15.63,0-26.92,62.39-71.38,98.72-107.43,80.46-76,80.08-97.5S878,544.88,874.15,516.58c-3.48-25.64,47.93-16,72.48-9.4,1.67-34.33,2.9-61.07,2.9-61.07C951.69,400.57,900.28,363.85,870.28,389.1Z" transform="translate(-124.83 -79.65)"/><path class="cls-38" d="M1193.61,149.84c5.47-9.79,15.67-16.7,18.07-14.39,4.58,4.41-5.19,10.17-3.43,15.53,1.65,5.05-16.23,14.6-16.23,14.6S1190.78,154.92,1193.61,149.84Z" transform="translate(-124.83 -79.65)"/><path class="cls-38" d="M1127.4,265.63c14-13.35,60.56-73.39,74.91-84.65,22.28,7.86,30-8.25,36.35-18.42,6-9.7-14.21-29.55-18.05-26.72-5.06,3.75-4.72,3.37-12.89,12.35-6.2,6.8-18.23-8.42-15.58,19.1-11.72,12.91-44,40.37-44,40.37l-58.25,51.2s-13.82,14.27-4.46,24.6C1093.1,291.91,1116.9,275.65,1127.4,265.63Z" transform="translate(-124.83 -79.65)"/><path class="cls-38" d="M1065.63,296.8s27-8.47,36.89-14.44c7.09-4.27,9.47-19.18,5.76-25.56s-29.4-8.41-50.44-2.39C1041.72,259,1062.48,295.9,1065.63,296.8Z" transform="translate(-124.83 -79.65)"/><path class="cls-6" d="M975,310c59,14,113.12-4.79,113.12-4.79s7-15.19,1.69-36.63c-4.88-19.56-12.65-26.28-12.65-26.28s-54.32.55-94.44-5.16C955.44,233.22,942.87,302.36,975,310Z" transform="translate(-124.83 -79.65)"/><path class="cls-42" d="M1202.31,181c22.28,7.86,30-8.25,36.35-18.42,6-9.7-14.21-29.55-18.05-26.72-4.88,3.62-4.76,3.42-12.06,11.44,1.66-4.21,6.66-8.42,3.13-11.83-2.4-2.31-12.6,4.6-18.07,14.39-2.23,4-1.93,11.45-1.71,14.44.06.95.13,1.94.24,3-7.16,7.89-22,21.21-32.45,30.38,7.32,0,11.41.29,8.3,4a511.16,511.16,0,0,1-36.07,39.61c-17.91,17.46-27.38,27.88-47.08,31.71s-34.73,8.29-28.59-9.46c3.17-9.17,6.49-16.34,8.72-21.27-8.62-.09-21-.33-34.73-1-4.3,7.71-10.35,18.68-14.1,26.06-6.33,12.47-5.95,2.75-6.9-13.94a18.53,18.53,0,0,0-7.85-14.11c-6.38-.59-12.67-1.3-18.64-2.15-27.31-3.89-39.88,65.25-7.72,72.86,59,14,113.12-4.79,113.12-4.79s3.13-6.81,3.61-17.71c2.54-1,4.94-2.09,7-3.11,9.86-3.46,21.93-12.36,28.61-18.73C1141.4,252.28,1188,192.24,1202.31,181Z" transform="translate(-124.83 -79.65)"/><path class="cls-19" d="M886.15,131.45C896.76,90,856.61,59,828.29,96.51c-38.7,51.19-62.43,26.67-84.8,10.42-18.14-13.17-56.61-28.26-88.2,26.71S668.91,253.94,727.82,264c64.94,11,95.59-9.2,118.25-49.75C869.9,171.59,881,151.49,886.15,131.45Z" transform="translate(-124.83 -79.65)"/><path class="cls-6" d="M903.21,127.8l-16.74-9s-12.51,11.7-18.06,26.92S866,165.32,866,165.32l26.56,11.23s13.35-7.9,16.6-23.75S903.21,127.8,903.21,127.8Z" transform="translate(-124.83 -79.65)"/><path class="cls-19" d="M987.71,191.26c8-9.74,7.48-35.36,2.37-48.46-6.75-17.3-14.84-44.26-62-34.78-32.3,6.5-67.34,60.89-28.58,101.3C925.43,236.34,973.36,208.81,987.71,191.26Z" transform="translate(-124.83 -79.65)"/><path class="cls-12" d="M1005.56,273.49c2-30.49-4.49-35.57-44.62-39.85-11.89-1.28-20.82-1.11-32.12-1.18-43.16-.28-64.09,33.49-76.41,78.56-26.27,96.1-25.88,190-25.88,190s51.89-21.76,128.21,2c61,19,75.43-30.5,75.43-30.5a294.38,294.38,0,0,1-20.08-66.4c17.7-4.87,25.07-11.72,27.37-26.85C1041.06,355.61,1001.54,334.88,1005.56,273.49Z" transform="translate(-124.83 -79.65)"/><path class="cls-43" d="M943.23,489.12c-34.16-11.83-53.73-1.69-54.31-36.76s1.35-97.59,9.4-94.21,50.85,9.72,69.66,9.93,25.52,1.9,29.24-6.34,4-11.2,9.56-13.1c4.31-1.46,9.13-4.71,13.43-10.17-7-12.74-13.63-28.53-14.75-50-5.44,12.36-11,11.31-11.64,1-.64-11-1.66-17.32-4.74-32.1s13.7-9,16.62,2.52c-1.37-18.62-11.53-22.73-44.76-26.27-11.89-1.28-20.82-1.11-32.12-1.18-43.16-.28-64.09,33.49-76.41,78.56-26.27,96.1-25.88,190-25.88,190s51.89-21.76,128.21,2c61,19,75.43-30.5,75.43-30.5s-.63-1.35-1.69-3.84C1007.69,511.92,976.18,500.53,943.23,489.12ZM984.55,401c-27.64,0-63.94-1.61-71.27-10.59-4.93-6-2.9-15.9-2.9-15.9s-6,15.87,2.4,23.84c11.44,10.79,75,11.77,98,11.8-.25-1.3-.49-2.62-.73-3.95,12.58-3.46,19.92-7.94,24-15.67C1021.28,402.13,1012.15,401,984.55,401Z" transform="translate(-124.83 -79.65)"/><path class="cls-19" d="M948.19,229c-17.18-.43-35.93-11.11-38.34,1.9s6.86,62.94,33,79,48.18,5.31,47.56-10.79S985,265.67,982.86,253s3.23-24.75-8.86-25.35S957.75,229.28,948.19,229Z" transform="translate(-124.83 -79.65)"/><path class="cls-38" d="M960.94,233.64c-11.89-1.28-20.83-.65-32.12-1.18-3.38-.16-6.52-.26-9.46-.28C921.12,251,928.5,310.41,967,307.4c29.21-2.28,9.93-14,7.41-72.07C970.41,234.72,965.94,234.17,960.94,233.64Z" transform="translate(-124.83 -79.65)"/><path class="cls-38" d="M930.4,248.27c-2.77-26.51,7-52.13,12.52-76.47-.09-.87,34.37-3.73,40.52-22.71,0,0,5,22.85,4.31,42.48-.64,18.52-4.37,29.05-21.52,22.7.51,7.83,0,11.39,1.65,23.14,2.23,15.6-.65,24.19-6.7,27.61S933.43,277.38,930.4,248.27Z" transform="translate(-124.83 -79.65)"/><path class="cls-6" d="M947.54,177.62a59.51,59.51,0,0,1-.25,16.83c-1.2,8-1.78,10.65-1.78,10.65s14.38,12.48,26.61,12.24,18-9.17,18.27-18.34c.37-11.25.25-14.33-2.89-27.27C987.5,171.73,977.42,180.81,947.54,177.62Z" transform="translate(-124.83 -79.65)"/><path class="cls-25" d="M973.17,185.84a64,64,0,0,0,16.43-4.47c0-.29-.1-.59-.15-.88A60.44,60.44,0,0,1,954,184.33a.39.39,0,0,0-.46.36.43.43,0,0,0,.32.51A59,59,0,0,0,973.17,185.84Zm8,7.72a79,79,0,0,0,9.4-1.83c0-.31,0-.6,0-.91-7.59,2-22.59,4.61-37-.52a.39.39,0,0,0-.51.29.46.46,0,0,0,.26.56C963.1,194.65,973.23,194.59,981.13,193.56Zm-28.57,3.52c12.4,7.28,29.43,7,37.21,6.43.07-.3.14-.6.2-.91-7.55.6-24.66,1-37-6.31a.39.39,0,0,0-.54.18A.48.48,0,0,0,952.56,197.08Zm-.67,5.89c7.41,7.29,20.42,10.53,29.62,12q.59-.35,1.14-.72c-9.13-1.33-22.67-4.48-30.23-11.9a.37.37,0,0,0-.56,0A.45.45,0,0,0,951.89,203Z" transform="translate(-124.83 -79.65)"/><path class="cls-6" d="M946.91,206c-18.33-5.6-19.47-13.71-18-21.64a10,10,0,0,1,4.3-6.78c3.77-2.43,9.6-2.43,16.86,0l-1,3.39c-6.27-2.14-11.34-2.27-14.26-.38a6.39,6.39,0,0,0-2.78,4.45c-1.14,6.07-.88,12.42,15.68,17.49Z" transform="translate(-124.83 -79.65)"/><path class="cls-38" d="M926.47,182.23c-1.88,4.68,1.69,11,8,14s8.29.25,10.18-4.42,3-9.45-3.34-12.52S928.37,177.56,926.47,182.23Z" transform="translate(-124.83 -79.65)"/><polygon class="cls-6" points="892.26 77.48 1032.57 66.32 1032.61 105.86 892.28 95.06 892.26 77.48"/><polygon class="cls-44" points="892.26 77.48 1032.57 66.32 1032.61 105.86 892.28 95.06 892.26 77.48"/><path class="cls-6" d="M1264.6,129.57a3,3,0,0,1,3.07,3.13l.06,65.8a2.94,2.94,0,0,1-3.06,3.14l-109.89-8.45a3.57,3.57,0,0,1-3.07-3.62l0-47.64a3.58,3.58,0,0,1,3.06-3.63Z" transform="translate(-124.83 -79.65)"/><path class="cls-19" d="M1262.2,205.72a2.7,2.7,0,0,0,2.56,2.81h6a2.71,2.71,0,0,0,2.56-2.82l-.08-80.21a2.71,2.71,0,0,0-2.57-2.81h-6a2.7,2.7,0,0,0-2.55,2.81Z" transform="translate(-124.83 -79.65)"/><path class="cls-19" d="M1013.6,176.79a2.7,2.7,0,0,0,2.56,2.81h6a2.71,2.71,0,0,0,2.55-2.82l0-21.72a2.7,2.7,0,0,0-2.56-2.81h-6a2.73,2.73,0,0,0-2.56,2.82Z" transform="translate(-124.83 -79.65)"/><path class="cls-45" d="M1013.59,170.27v6.52a2.7,2.7,0,0,0,2.56,2.81h6a2.71,2.71,0,0,0,2.55-2.82v-1.48l127,9.78v4.5a3.57,3.57,0,0,0,3.07,3.62l107.42,8.27v4.26a2.7,2.7,0,0,0,2.56,2.81h6a2.71,2.71,0,0,0,2.56-2.82l0-24.06c0,.62-1.16,1.13-2.57,1.13h-6c-1.41,0-2.56-.51-2.56-1.12V180l-107.41-3.23c-1.68-.05-3.06-.7-3.06-1.44v-1.8l-127-3.82v.59c0,.62-1.15,1.13-2.55,1.13h-6C1014.74,171.39,1013.59,170.89,1013.59,170.27Z" transform="translate(-124.83 -79.65)"/><path class="cls-38" d="M1055.69,173.08c1.76-11.33,8.88-21.92,11.89-20.77,5.74,2.21-1.36,11.57,2.07,15.82,3.25,4-10.11,20.2-10.11,20.2S1054.78,179,1055.69,173.08Z" transform="translate(-124.83 -79.65)"/><path class="cls-38" d="M1033.47,307.69c8.47-18.13,31.34-92.95,40.84-109.29,23.33-1.85,25.09-20,27.49-32,2.28-11.46-23.2-21.59-25.8-17.38-3.42,5.56-3.23,5.06-7.77,16.74-3.46,8.87-19.77-.33-8,24.13-6.5,16.79-27.14,55.5-27.14,55.5L996.4,316.8s-8,18.92,4.19,24.66C1010.55,346.16,1027.13,321.3,1033.47,307.69Z" transform="translate(-124.83 -79.65)"/><path class="cls-38" d="M968.21,347s28-2.29,38.77-5.94c7.73-2.61,12.8-16.67,10.34-23.75s-27.25-14.77-49-13.56C951.71,304.63,965.29,345.37,968.21,347Z" transform="translate(-124.83 -79.65)"/><path class="cls-6" d="M877.05,339.69c55.21,26.81,111.67,20.47,111.67,20.47s9.67-13.31,8.38-35.5c-1.19-20.23-7.56-28.55-7.56-28.55S936.23,284.57,898,270.05C872,260.16,847,325.08,877.05,339.69Z" transform="translate(-124.83 -79.65)"/><path class="cls-46" d="M1101.8,166.39c2.28-11.46-23.2-21.59-25.8-17.38-1.44,2.34-2.25,3.62-3,5.18a5.11,5.11,0,0,0,.32-.62c1.8-3.91,6.54-1.43,15.13,1.93s9.34,10,4.73,22.95-21.87,9.86-24.94,14.65-32.49,72.52-40.55,96.61-16.76,38-23.67,38.86-56.16,2.54-97.48-8.16c-24.47-6.34-45.28-25.63-29.9-42.79h0c-14.61,16.48-20.78,51.77.44,62.07,55.21,26.81,111.67,20.47,111.67,20.47s4.31-6,6.79-16.53c2.85-.49,5.56-1,7.89-1.6,10-.21,24.29-21.94,30.07-34.34,8.47-18.13,31.34-92.95,40.84-109.29C1097.64,196.55,1099.4,178.41,1101.8,166.39Z" transform="translate(-124.83 -79.65)"/><path class="cls-47" d="M754.34,1438.94a1.94,1.94,0,0,1-1.85.24c-70.53-28.38-119-93.27-129.69-173.59a2.28,2.28,0,0,1,1.75-2.61,2.13,2.13,0,0,1,2.37,1.94c10.46,78.63,57.94,142.16,127,169.94a2.38,2.38,0,0,1,1.25,3A2.3,2.3,0,0,1,754.34,1438.94Z" transform="translate(-124.83 -79.65)"/><path class="cls-47" d="M626,1272.34c0,.11-10.34-9.94-12.42-22.76-2.53-15.2,7.45-28.3,7.41-28.13s10.22,9.17,11.45,19.67A52.32,52.32,0,0,1,626,1272.34Z" transform="translate(-124.83 -79.65)"/><path class="cls-47" d="M635.25,1309.92c-.1.08-2.67-15.88,2.07-26.45,5.52-12.42,18.65-14.28,18.58-14.38-.09.11,3.7,13.46-.27,22.35C648.88,1306.71,635.37,1310.08,635.25,1309.92Z" transform="translate(-124.83 -79.65)"/><path class="cls-15" d="M654.06,1312.25s-.28-5.84,1.79-9.59c2.44-4.42,7.55-5,7.54-5s1.27,5.36-.63,8.65A11.62,11.62,0,0,1,654.06,1312.25Z" transform="translate(-124.83 -79.65)"/><path class="cls-15" d="M634.21,1271.66s.82-6.17,3.51-9.62a9.73,9.73,0,0,1,8.19-3.46s.21,6-2.22,8.92A10.48,10.48,0,0,1,634.21,1271.66Z" transform="translate(-124.83 -79.65)"/><path class="cls-47" d="M658.1,1354.87c-.08.08-5.87-14.38-3.27-25.43,3-13,15.7-17.81,15.61-17.89-.07.13,6.4,11.75,4.23,21.08C671,1348.63,658.26,1355,658.1,1354.87Z" transform="translate(-124.83 -79.65)"/><path class="cls-47" d="M631,1296.06c-.11,0-6.14-14.16-13.95-21.56-9.37-8.78-21.7-4-21.74-3.91-.15,0,1.7,18.93,9.93,24.86C618.87,1305.26,631.05,1295.83,631,1296.06Z" transform="translate(-124.83 -79.65)"/><path class="cls-15" d="M618.76,1313.54s-3.57-5.14-7.3-6.89c-4.44-2.08-8.56,1.73-8.55,1.74s2.47,6.63,6,7.88C614.83,1318.34,618.74,1313.51,618.76,1313.54Z" transform="translate(-124.83 -79.65)"/><path class="cls-47" d="M648.6,1344.43c-.09,0-9-12.06-18.37-17.22-11.16-6.1-22.47,1.27-22.48,1.4s5.6,17.48,15,21.22C638.38,1356,648.58,1344.22,648.6,1344.43Z" transform="translate(-124.83 -79.65)"/><path class="cls-48" d="M680.92,1519.22c-21.12-21.35-36.89-41.76-31.21-50.81,8.49-13.5,26.22.66,33.43,7.36-12.87-12.91-59.82-63-38.14-85.51,25-26,53.08,17.14,53.08,17.14a188,188,0,0,1-17.85-40c-7-22.73,7.6-59.5,34.67-45.9,19.81,10,28.81,38.45,32.22,53-4.52-25.3-13.5-96.56,27.62-101.1,50-5.54,57.68,97.21,57.68,97.21s5.37-17.64,14.9-26.46,33.1-12.89,44.83,19-6.4,74.24-6.4,74.24,13-19,30.08-22.82,35,21.3,27,56.38c-4,17.52-12.4,35.06-19.86,48.21Z" transform="translate(-124.83 -79.65)"/><path class="cls-49" d="M715.26,1519.22c-2.46-3.43-3.74-6.58-3.38-9.48,2-15.91,13.8-12.47,13.8-12.47s-28-22.13-18.85-35.88,31.09,3.28,31.09,3.28-22.63-26.88-3.18-38.35,40.36,20,40.36,20-14.93-37.37,14.33-39.19S816.75,1438,816.75,1438s18.68-23.82,36.38.44-2.44,49.16-2.44,49.16,29.39-12.87,38.51,10.19c2.66,6.73,2.12,14.22,0,21.47Z" transform="translate(-124.83 -79.65)"/><g class="cls-50"><path class="cls-51" d="M736,1482.09a2.71,2.71,0,0,0,.43,3.54,238.52,238.52,0,0,1,32.8,33.59h6.07a241.76,241.76,0,0,0-36.07-37.61A2.16,2.16,0,0,0,736,1482.09Zm58.71-47.84c-.52-4.54-.78-7.08-.79-7.09a2.34,2.34,0,0,0-2.53-2.23,2.48,2.48,0,0,0-2,2.79s.27,2.58.8,7.16a2.35,2.35,0,0,0,2.57,2.2l.32-.07A2.54,2.54,0,0,0,794.72,1434.25ZM755,1457.83c8.57,11.61,21.89,32.15,34.08,61.39h5.05c-12.64-30.86-26.63-52.49-35.56-64.58a2.16,2.16,0,0,0-3.24-.37A2.71,2.71,0,0,0,755,1457.83Zm-31.83,17.53s1.59,1.07,4.25,3.05a2.13,2.13,0,0,0,1.9.35,2.33,2.33,0,0,0,1.3-1,2.69,2.69,0,0,0-.62-3.52c-2.77-2.06-4.37-3.15-4.44-3.19a2.2,2.2,0,0,0-3.17.85A2.71,2.71,0,0,0,723.12,1475.36Zm2.28,38.38a2.64,2.64,0,0,0,1,3.4s1.3.72,3.51,2.08h5.11a2.65,2.65,0,0,0-.94-3.21c-3.5-2.22-5.55-3.35-5.63-3.4A2.2,2.2,0,0,0,725.4,1513.74Zm26.05-64.37a2.71,2.71,0,0,0,.13-3.58c-2.12-2.53-3.35-3.82-3.4-3.87a2.16,2.16,0,0,0-3.25.09,2.72,2.72,0,0,0,.08,3.58s1.19,1.24,3.19,3.63a2.18,2.18,0,0,0,2.29.73A2.24,2.24,0,0,0,751.45,1449.37Zm101.92,69-.84.87H857a2.67,2.67,0,0,0-.41-.71A2.16,2.16,0,0,0,853.37,1518.35Zm10-6.09a2.15,2.15,0,0,0,3.22.46c3.23-2.73,5.34-4.28,5.35-4.29a2.7,2.7,0,0,0,.64-3.51,2.18,2.18,0,0,0-3.2-.7c-.08.07-2.25,1.66-5.59,4.48A2.73,2.73,0,0,0,863.38,1512.26Zm-71.44-62.65c2.06,16.26,5.64,41.94,10.65,69.61h4.69c-5.09-27.92-8.7-53.93-10.78-70.31a2.36,2.36,0,0,0-2.6-2.16A2.51,2.51,0,0,0,791.94,1449.61Zm39.35,7.11a2.65,2.65,0,0,0,1,3.41,2,2,0,0,0,1.66.19,2.33,2.33,0,0,0,1.44-1.27c1.88-4,3.19-6.19,3.2-6.21a2.7,2.7,0,0,0-.66-3.51,2.18,2.18,0,0,0-3.18.73C834.67,1450.16,833.29,1452.48,831.29,1456.72Zm-5.79,14.09a173.66,173.66,0,0,0-9.83,48.41h4.6a168.49,168.49,0,0,1,9.51-46.56,2.62,2.62,0,0,0-1.3-3.28A2.23,2.23,0,0,0,825.5,1470.81Z" transform="translate(-124.83 -79.65)"/></g></g></g></svg>