<svg id="Layer_1" data-name="Layer 1" xmlns="http://www.w3.org/2000/svg" viewBox="0 0 2659.4 1645.28"><defs><style>.cls-1,.cls-22,.cls-25{fill:none;}.cls-1{stroke:#e4e4e4;stroke-width:4px;stroke-dasharray:32.09 32.09;}.cls-1,.cls-22,.cls-25,.cls-8{stroke-miterlimit:10;}.cls-2{fill:#f6f5f5;}.cls-3{fill:#a9bae6;}.cls-4{fill:#e4e4e4;}.cls-5,.cls-8{fill:#fff;}.cls-6{fill:#708cd5;}.cls-7{fill:#d3dfff;}.cls-8{stroke:#708cd5;stroke-width:6px;}.cls-9{fill:#ee6f57;}.cls-10{font-size:78.01px;font-family:THSarabunPSK, TH SarabunPSK;}.cls-11{letter-spacing:-0.02em;}.cls-12{letter-spacing:0em;}.cls-13{fill:#f9b384;}.cls-14,.cls-18{fill:#1f3c88;}.cls-15,.cls-19{fill:#e28b6d;}.cls-16,.cls-17{fill:#102048;}.cls-17,.cls-19,.cls-24{opacity:0.6;}.cls-18,.cls-22{opacity:0.3;}.cls-20,.cls-24{fill:#6f3428;}.cls-21{fill:#fbc343;}.cls-22{stroke:#6f3428;}.cls-22,.cls-25{stroke-width:8px;}.cls-23{fill:#fc8879;opacity:0.4;}.cls-25{stroke:#102048;}</style></defs><path class="cls-1" d="M2512.45,1106c125.27,224.17-56,664-1205.64,358.33-576.41-153.26-1007,192-1095.7-49C4.45,854,848.45,204.65,1317.78,658,1746.77,1072.35,2284.45,698,2512.45,1106Z"/><path class="cls-2" d="M2505.85,1599.42H161.77c73.36-542,570.08-961.24,1172-961.24S2432.49,1057.42,2505.85,1599.42Z"/><rect class="cls-3" x="1244.29" y="181.3" width="1030.33" height="1413.36" rx="74.32"/><rect class="cls-2" x="1337.41" y="238.26" width="848.04" height="1231.88"/><path class="cls-4" d="M2185.45,238.27c.26,480.36,15.77,1059.71-38.19,1188-237.67,23.16-516,30.59-809.86,32L1449.12,242Z"/><path class="cls-5" d="M2109.28,1387.43c-370.44,59.29-618,62.41-818.83,47.5,26-277,36.45-737.17,47-1196.61l446.38,1,404,26.67C2193.67,742.83,2194.31,1183.3,2109.28,1387.43Z"/><rect class="cls-6" x="1421.54" y="343.42" width="679.77" height="109.33" transform="translate(9.85 -41.33) rotate(1.35)"/><rect class="cls-6" x="1658.25" y="524.4" width="402.51" height="31.11" transform="translate(13.22 -43.6) rotate(1.35)"/><rect class="cls-7" x="1656.67" y="590.7" width="273.59" height="31.11" transform="translate(14.76 -42.03) rotate(1.35)"/><rect class="cls-8" x="1435.48" y="517.38" width="95.29" height="95.29" transform="translate(13.7 -34.74) rotate(1.35)"/><path class="cls-9" d="M1452.14,541.34c2.94,11.26,8.37,58.42,32,45.23,5.45-3,10.06-11.08,14.14-15.7l22-25L1564.18,496c3.76-4.27-12.82-15-17.53-9.61l-39.06,44.35L1488.06,553c-4.52,5.13-15,21.67-21.67,23.14l10.93,3.53c2.58,2.12-2.21-12.87-2.31-13.27l-5.46-20.87c-1.5-5.75-19.63-12.66-17.41-4.14Z"/><rect class="cls-6" x="1654.19" y="696.75" width="331.46" height="31.11" transform="translate(17.26 -42.62) rotate(1.35)"/><rect class="cls-7" x="1652.58" y="765.41" width="402.51" height="31.11" transform="matrix(1, 0.02, -0.02, 1, 18.89, -43.4)"/><rect class="cls-8" x="1431.4" y="690.57" width="95.29" height="95.29" transform="translate(17.78 -34.6) rotate(1.35)"/><path class="cls-9" d="M1448,717.22c2.94,11.25,8.37,58.42,32,45.23,5.45-3,10.06-11.08,14.14-15.71l22-24.94L1560,671.9c3.76-4.26-12.82-14.95-17.53-9.6l-39.06,44.35-19.53,22.18c-4.52,5.13-15,21.67-21.67,23.14l10.93,3.53c2.58,2.12-2.21-12.87-2.31-13.28q-2.73-10.43-5.45-20.86c-1.51-5.75-19.64-12.66-17.42-4.14Z"/><rect class="cls-6" x="1650.1" y="870.78" width="402.51" height="31.11" transform="translate(21.37 -43.31) rotate(1.35)"/><rect class="cls-7" x="1648.53" y="935.98" width="180.01" height="31.11" transform="translate(22.87 -40.64) rotate(1.35)"/><rect class="cls-8" x="1427.33" y="863.76" width="95.29" height="95.29" transform="translate(21.85 -34.45) rotate(1.35)"/><path class="cls-9" d="M1445.22,891.64c2.94,11.26,8.37,58.42,32,45.23,5.45-3,10.06-11.08,14.13-15.7q11-12.48,22-24.95l43.94-49.89c3.76-4.27-12.82-15-17.53-9.61l-39.07,44.35-19.53,22.18c-4.52,5.13-15,21.67-21.67,23.14l10.94,3.53c2.57,2.12-2.21-12.87-2.32-13.27q-2.71-10.44-5.45-20.87c-1.5-5.75-19.64-12.66-17.41-4.14Z"/><rect class="cls-6" x="1646.02" y="1043.97" width="402.51" height="31.11" transform="matrix(1, 0.02, -0.02, 1, 25.44, -43.17)"/><rect class="cls-7" x="1644.44" y="1110.79" width="317.97" height="31.11" transform="translate(27 -42.12) rotate(1.35)"/><rect class="cls-8" x="1423.25" y="1036.95" width="95.29" height="95.29" transform="translate(25.93 -34.31) rotate(1.35)"/><path class="cls-9" d="M1441.17,1063.69c2.94,11.26,8.37,58.43,32,45.24,5.45-3,10.06-11.08,14.13-15.71l22-25,43.94-49.89c3.76-4.26-12.82-15-17.53-9.6l-39.07,44.35-19.53,22.17c-4.52,5.13-15,21.68-21.67,23.15l10.94,3.53c2.58,2.11-2.21-12.87-2.32-13.28q-2.71-10.44-5.45-20.87c-1.5-5.75-19.63-12.65-17.41-4.14Z"/><rect class="cls-6" x="1642.01" y="1212.99" width="159.55" height="31.11" transform="translate(29.38 -40.17) rotate(1.35)"/><path class="cls-7" d="M2043.2,1288.41l-402.4-9.47-.73,31.1c155.69,3.65,353.91,11,394.36,4.74C2040.57,1307.8,2043.88,1299.23,2043.2,1288.41Z"/><rect class="cls-8" x="1420.54" y="1208.86" width="95.29" height="95.29" transform="translate(29.97 -34.2) rotate(1.35)"/><path class="cls-9" d="M1437.16,1234.24c2.94,11.26,8.37,58.42,32,45.24,5.44-3,10.06-11.09,14.13-15.71l22-25,44-49.89c3.75-4.26-12.82-15-17.54-9.6l-39.06,44.35-19.53,22.17c-4.52,5.13-15,21.68-21.67,23.14l10.94,3.54c2.57,2.11-2.21-12.87-2.32-13.28l-5.45-20.87c-1.5-5.75-19.64-12.66-17.41-4.14Z"/><text class="cls-10" transform="translate(1475.51 412.68) rotate(1.69) scale(0.93 1)">ตรวจสอบสถานะการสมัคร<tspan class="cls-11" x="544.71" y="0">เ</tspan><tspan class="cls-12" x="558.6" y="0">รียน</tspan></text><text/><path class="cls-9" d="M1950.45,189.86v95.08h-382V189.86A54.88,54.88,0,0,1,1584.53,151a45.49,45.49,0,0,1,3.88-3.48,54.52,54.52,0,0,1,35-12.6,64.68,64.68,0,0,0,28.08-6.4,67.27,67.27,0,0,0,10.56-6.36,64.64,64.64,0,0,0,23.44-33.24,64.91,64.91,0,0,1,62.08-46h23.84a64.91,64.91,0,0,1,62.08,46,64.64,64.64,0,0,0,23.44,33.24,67.27,67.27,0,0,0,10.56,6.36,64.68,64.68,0,0,0,28.08,6.4,55,55,0,0,1,54.92,54.92Z"/><polygon class="cls-4" points="1981.45 238.26 1981.45 308.94 1537.45 308.94 1537.45 238.26 1568.45 238.26 1568.45 284.94 1950.45 284.94 1950.45 238.26 1981.45 238.26"/><ellipse class="cls-5" cx="1759.45" cy="99.93" rx="33.88" ry="32.2"/><path class="cls-13" d="M1027.37,545.07c-13.55-2.57-26.21-25.2-30.62-33.88a10.8,10.8,0,0,1-1-6.89l5.39-28.58s12.45,2.11,11.48,18.68a12.16,12.16,0,0,0,.87,5.05l4.76,12.46L1032.37,501l-7.73-21.8s-10.33,2.84-15.67,1.14c-11-3.5,3.41-12,7.95-12.95s14.54-4.54,19.08,3.18,7.27,12.26,7.27,12.26,5-17.26,1.59-55.87c-.16-1.74,4.2-1.7,5.42-.46,3.66,3.73,9.48,15.06,9.79,49.52,0,0,.61-40.16,7.5-44.29,5.68-3.41,8.55,16.25,4.55,49.58,0,0,7.41-28.86,12.71-28.91,9-.09.12,77.08-22.38,100.08Z"/><path class="cls-13" d="M1069.85,533.26q-.6,5.76-1.32,11.16v0a324.27,324.27,0,0,1-5.92,34c-.12.48-.2.92-.32,1.36-6.84,28-8.08,41.76-31.44,38.08l-24-27.36-.24-.28-1.76-2,4.88-14.4.64-1.88,3.6-10.48.44-1.36,6.16-18,2.48-7.32Z"/><path class="cls-14" d="M623.24,1529.52l-6.12,19.13c-42,13.78-66.44,29.57-68,48H670.45l9.73-64C655.6,1538.61,635.91,1534.44,623.24,1529.52Z"/><path class="cls-13" d="M638.45,1482l-15.21,47.54c12.67,4.92,32.36,9.09,56.94,3.09l6.27-41.3Z"/><path class="cls-13" d="M845.89,1527.4l3.56-48.42-57,3-3.11,44.64C813.47,1534.31,833.41,1531.3,845.89,1527.4Z"/><path class="cls-14" d="M914.45,1596.65c-1.57-18.43-23-43.67-70-49.67l1.44-19.58c-12.48,3.9-32.42,6.91-56.55-.78l-4.89,70Z"/><polygon class="cls-13" points="799.69 557.5 730.93 557.98 730.93 453.98 797.61 453.98 797.65 460.34 797.97 493.3 798.45 546.22 799.69 557.5"/><path class="cls-15" d="M798,498.3c-12.36,13-44.6-1.68-58.2-16l57.88-17Z"/><path class="cls-13" d="M813.93,430a148.73,148.73,0,0,1-1.8,23.4c-3.36,21-12.24,39.08-32.72,39.64-48.4,1.4-62.2-26.28-71.32-48.92s5.68-77.2,5.68-77.2l62.64-6.2,34.4,28.2A256.64,256.64,0,0,1,813.93,430Z"/><path class="cls-16" d="M710,431.13s13.81-.63,16.17-36.27c24.69,8.26,42.73.72,57-15.72,12.2,16.11,46.34,21.16,57.88-11.83,8.33-23.83-14.67-59.33-48.17-37.83-32.83-16.59-82.63-15.45-97,25.24,0,0-49.82,23,2.93,73.54C700,429.27,710,431.13,710,431.13Z"/><polygon class="cls-16" points="900.46 931.28 862.45 1505.98 773.12 1505.98 795.45 948.31 809.12 941.98 900.46 931.28"/><polygon class="cls-14" points="667.78 852.64 605.12 1505.98 702.45 1505.98 795.12 963.31 900.45 931.31 905.12 815.31 670.45 809.98 667.78 852.64"/><path class="cls-17" d="M681.76,854.07c53.16,19.09,177.89-2.72,203.79-29.31L867.15,788,662,815.22Z"/><path class="cls-5" d="M880.77,815.9c-1.72.72-3.48,1.48-5.28,2.16a361.08,361.08,0,0,1-66.64,19.84,305.83,305.83,0,0,1-44.68,5.48A258.17,258.17,0,0,1,694,837.7l29.8-277.84L727.45,526s39,48,82-5Z"/><path class="cls-18" d="M764.17,843.38A258.17,258.17,0,0,1,694,837.7l29.8-277.84,10.64-15.38C760.73,608.4,787.65,749.94,764.17,843.38Z"/><path class="cls-6" d="M731,515c29.63,125.8,41.82,255.25-1.83,399-32.38,12.31-67.62,12.17-105.34,1.33L633.12,654,413.45,805l-13.33-82.33C484.56,641.9,630.56,519.93,731,515Z"/><path class="cls-18" d="M875.49,818.06a361.08,361.08,0,0,1-66.64,19.84C795.61,762,792.69,637.26,803.45,581Z"/><path class="cls-19" d="M1062.61,578.5c-.12.48-.2.92-.32,1.36-6.84,28-8.08,41.76-31.44,38.08l-24-27.36-.24-.28,3.12-16.4.64-1.88,3.6-10.48.44-1.36Z"/><path class="cls-6" d="M1058.45,604s-59,125-94,128c-33.93,2.91-50-30-50-30l24,182.68c-28.2,13.2-59,19.64-94.68,13.32-31.72-103-43.71-236.18-46.07-384.5,25.68,1.6,76.54,3.79,94.75,15.5,32.67,21,73,96,73,96l47-64Z"/><path class="cls-20" d="M339.19,427.85s3.57-59.8,9.66-57,18.29,54.81,18.29,54.81l-13.05,21.06Z"/><path class="cls-9" d="M518.75,1507.65l1.77,19.68a63.17,63.17,0,0,1-57.26,68.56l-5.06.45a63.17,63.17,0,0,1-68.56-57.26l-1.77-19.68Z"/><rect class="cls-21" x="344.8" y="558.64" width="131.4" height="956.8" transform="translate(-91.15 40.89) rotate(-5.13)"/><rect class="cls-22" x="380.15" y="539.77" width="46.67" height="838.67" transform="translate(-84.21 39.95) rotate(-5.13)"/><polygon class="cls-16" points="518.73 1507.66 387.89 1519.42 384.45 1481.02 382.05 1454.34 374.65 1372.34 505.53 1360.58 512.89 1442.58 515.29 1469.26 518.73 1507.66"/><rect class="cls-21" x="382.99" y="1448.4" width="131.37" height="26.79" transform="translate(-129.06 46.03) rotate(-5.14)"/><path class="cls-9" d="M302.24,566.45l36.35-145.7s12.55,5.57,27.77-3.83l66.76,137.77Z"/><path class="cls-13" d="M717.28,425.1c-.58-2.15-10.35-5.1-12.5-5.7-3.33-.91-7-1.37-10.2.1-11.81,5.34-10.24,22.25-4.12,31.14a26.66,26.66,0,0,0,14.45,10.6c2.14.61,22.46.86,21.57-2.41Z"/><path class="cls-13" d="M345.45,765a17.79,17.79,0,0,0-22.73-11.74c-14.89,5.14-27.85,13.86-29.86,28.69C291,795.45,297.79,838.6,328,844.15L325.5,822s18.48-4.31,22.18-12.32C350.27,804.05,350.44,780.63,345.45,765Z"/><path class="cls-14" d="M905.23,616.55c1.58,9.45,2.93,18.92,4.23,28.4s2.41,19,3.62,28.47l3.1,28.52c.91,9.53,1.79,19,2.38,28.61l-1.55.19c-1.64-9.44-3-18.92-4.3-28.39l-3.56-28.47c-1-9.52-2.16-19-3-28.54s-1.8-19.05-2.44-28.6Z"/><path class="cls-14" d="M636.23,615c0,10.6-.28,21.2-.59,31.79s-.82,21.17-1.21,31.76l-1.74,31.74c-.7,10.57-1.43,21.15-2.46,31.71l-1.56-.08c0-10.61.24-21.2.53-31.79l1.27-31.76c.61-10.58,1.06-21.17,1.79-31.74s1.43-21.15,2.41-31.71Z"/><path class="cls-16" d="M765.83,424.11c.84,3.77-.71,7.33-3.47,7.95s-5.69-1.94-6.54-5.71.71-7.33,3.47-8S765,420.34,765.83,424.11Z"/><path class="cls-16" d="M805.69,419.45c-.16,3.86-2.58,6.89-5.41,6.77s-5-3.35-4.83-7.21,2.59-6.89,5.42-6.77S805.86,415.58,805.69,419.45Z"/><path class="cls-15" d="M783.46,422.61c1.37,3.31,1.16,6.87,2,9.58a7.62,7.62,0,0,0,1.94,3.33,12.65,12.65,0,0,0,3.75,1.84,10.45,10.45,0,0,1,4.74,3.57,6.22,6.22,0,0,1,.49,6.55,12.38,12.38,0,0,1-3.91,3.95c-1.37.93-2.69,1.91-4.12,2.78l-1-1.18c1-1.3,2.21-2.47,3.31-3.71a11.63,11.63,0,0,0,2.58-3.36c.85-1.85-1-3.88-3.59-4.92-1.35-.62-3.3-1.16-4.87-2.77a9.73,9.73,0,0,1-2.57-5.29c-.66-3.71.09-6.88-.27-10Z"/><path class="cls-16" d="M746.74,414a11.65,11.65,0,0,1,4.08-6.23,12.46,12.46,0,0,1,7.26-2.72,13.41,13.41,0,0,1,12.61,7.09l-1.23,1A17.16,17.16,0,0,0,758.27,409a13.06,13.06,0,0,0-10.11,5.63Z"/><path class="cls-16" d="M788,409.08a12,12,0,0,1,3.14-5.05,10.43,10.43,0,0,1,5.67-2.81c4.3-.71,8.92,1.47,10.61,5.29l-1.25.94a12.65,12.65,0,0,0-8.77-2.29,11.2,11.2,0,0,0-4.18,1.52,28,28,0,0,0-3.88,3.2Z"/><path class="cls-5" d="M765.9,461.35c7,10.93,16.29,12.12,23.48.62Z"/><path class="cls-23" d="M814.12,427.31a184.53,184.53,0,0,1-2,26.07,12,12,0,0,1-8.36-11.48C803.77,435.86,808.4,428.23,814.12,427.31Z"/><circle class="cls-23" cx="748.85" cy="449.04" r="12.9"/><path class="cls-15" d="M708.83,438a65.4,65.4,0,0,0-7.22-4.75,6.35,6.35,0,0,0-3.18-.82,7.12,7.12,0,0,0-3.32,1.52l-1.32-.85a6.24,6.24,0,0,1,3.8-4.08,7.4,7.4,0,0,1,5.79.67,14.87,14.87,0,0,1,6.69,7.37Z"/><path class="cls-24" d="M347.68,809.65l-18.57,56.41L325.28,822C336.82,819.47,343.12,814.85,347.68,809.65Z"/><line class="cls-25" x1="40.87" y1="1597.01" x2="2626.74" y2="1597.01"/></svg>